<?xml version="1.0" encoding="utf-8"?>
<!-- Generator: Adobe Illustrator 15.0.2, SVG Export Plug-In . SVG Version: 6.00 Build 0)  -->
<!DOCTYPE svg PUBLIC "-//W3C//DTD SVG 1.1//EN" "http://www.w3.org/Graphics/SVG/1.1/DTD/svg11.dtd">
<svg version="1.1" id="Layer_1" xmlns="http://www.w3.org/2000/svg" xmlns:xlink="http://www.w3.org/1999/xlink" x="0px" y="0px"
	 width="30px" height="35.625px" viewBox="165.5 162.375 30 35.625" enable-background="new 165.5 162.375 30 35.625"
	 xml:space="preserve">
<g>
	<path fill="#242B34" d="M180.812,164.887c-6.28,0-11.39,5.065-11.39,11.293c-0.014,6.966,8.318,16.435,10.872,19.171
		c0.136,0.146,0.318,0.226,0.514,0.226h0.002c0.196,0,0.379-0.08,0.516-0.226c2.551-2.746,10.875-12.246,10.875-19.171
		C192.201,169.952,187.092,164.887,180.812,164.887 M180.811,196.999c-0.586,0-1.153-0.246-1.556-0.677
		c-3.389-3.631-11.268-12.86-11.255-20.145c0-7.011,5.748-12.716,12.812-12.716s12.812,5.705,12.812,12.717
		c0,7.241-7.873,16.496-11.258,20.139C181.967,196.753,181.398,196.999,180.811,196.999L180.811,196.999L180.811,196.999z"/>
	<path fill="#242B34" d="M180.812,171.388c-2.748,0-4.982,2.235-4.982,4.982c0,2.748,2.235,4.981,4.982,4.981
		c2.746,0,4.981-2.233,4.981-4.981C185.795,173.623,183.559,171.388,180.812,171.388 M180.812,182.775
		c-3.533,0-6.407-2.874-6.407-6.405c0-3.531,2.874-6.406,6.407-6.406c3.533,0,6.405,2.875,6.405,6.406
		C187.219,179.902,184.346,182.775,180.812,182.775"/>
</g>
</svg>
