<?xml version="1.0" encoding="utf-8"?>
<!-- Generator: Adobe Illustrator 15.0.2, SVG Export Plug-In . SVG Version: 6.00 Build 0)  -->
<!DOCTYPE svg PUBLIC "-//W3C//DTD SVG 1.1//EN" "http://www.w3.org/Graphics/SVG/1.1/DTD/svg11.dtd">
<svg version="1.1" id="Layer_1" xmlns="http://www.w3.org/2000/svg" xmlns:xlink="http://www.w3.org/1999/xlink" x="0px" y="0px"
	 width="122.667px" height="122.333px" viewBox="-69.748 -20.499 122.667 122.333"
	 enable-background="new -69.748 -20.499 122.667 122.333" xml:space="preserve">
<g>
	<g>
		<path fill="#212929" d="M16.408,100.502h-50.311l-34.845-34.843V15.346l34.845-34.845h50.311l34.844,34.845v50.313L50.93,65.98
			L16.408,100.502z M-32.992,98.303h48.489l4.6-4.6l-4.144-4.145l-3.345,3.344h-42.711l-3.345-3.344l-4.144,4.145L-32.992,98.303z
			 M-43.292,88.002l4.145,4.146l4.144-4.145l-4.144-4.145L-43.292,88.002z M17.508,88.003l4.144,4.145l4.145-4.146l-4.145-4.144
			L17.508,88.003z M-29.192,90.703h40.889l29.755-29.757V41.602h-19.8v-2.2h22v22.457l-3.345,3.344l4.145,4.145l4.6-4.6v-48.49
			l-4.601-4.6l-4.144,4.145l3.022,3.022l-1.556,1.556L11.697-9.698h-40.889l-29.755,29.755v19.345h19.8v2.2h-22V19.146l3.345-3.344
			l-4.145-4.145l-4.6,4.6v48.49l4.6,4.601l4.145-4.145l-3.022-3.023l1.556-1.555L-29.192,90.703z M23.208,82.303l4.145,4.144
			l4.144-4.144l-4.144-4.145L23.208,82.303z M-48.992,82.303l4.144,4.144l4.145-4.144l-4.145-4.145L-48.992,82.303z M-54.693,76.603
			l4.145,4.145l4.144-4.145l-4.144-4.145L-54.693,76.603z M28.908,76.603l4.144,4.145l4.145-4.145l-4.145-4.145L28.908,76.603z
			 M-60.393,70.902l4.144,4.145l4.145-4.145l-4.144-4.144L-60.393,70.902z M34.608,70.902l4.145,4.145l4.144-4.145l-4.145-4.145
			L34.608,70.902z M34.608,10.102l4.145,4.145l4.144-4.145l-4.144-4.145L34.608,10.102z M-60.392,10.102l4.145,4.145l4.144-4.145
			l-4.144-4.145L-60.392,10.102z M28.908,4.401l4.145,4.145l4.145-4.145l-4.145-4.144L28.908,4.401z M-54.692,4.401l4.144,4.145
			l4.145-4.145l-4.145-4.144L-54.692,4.401z M23.208-1.298l4.144,4.144l4.145-4.144l-4.144-4.145L23.208-1.298z M-48.992-1.298
			l4.145,4.144l4.144-4.144l-4.145-4.145L-48.992-1.298z M17.508-6.998l4.145,4.145l4.145-4.145l-4.145-4.145L17.508-6.998z
			 M-43.292-6.998l4.145,4.145l4.145-4.145l-4.145-4.145L-43.292-6.998z M-30.104-11.898h42.711l3.344,3.344l4.145-4.145l-4.6-4.6
			h-48.489l-4.6,4.6l4.145,4.145L-30.104-11.898z M36.852,49.201h-3.8v-2.199h3.8V49.201z M-50.548,34.001h-3.8v-2.2h3.8V34.001z"/>
	</g>
	<g>
		<path fill="#FF7800" d="M-1.147,81.502h-19.456l-13.944-13.944V30.546l2.544-2.545h0.456c5.845,0,10.6,4.755,10.6,10.6v11.4h-2.2
			v-11.4c0-4.483-3.53-8.157-7.956-8.388l-1.244,1.244v35.188l12.655,12.657h18.544c8.822,0,16-7.178,16-16V23.401
			c0-1.489-1.211-2.7-2.7-2.7h-1.9c-1.489,0-2.7,1.211-2.7,2.7v22.802h-2.2V8.202c0-1.489-1.211-2.701-2.7-2.701h-1.9
			c-1.489,0-2.7,1.211-2.7,2.701v34.2h-2.2V4.401c0-1.489-1.211-2.7-2.7-2.7h-1.9c-1.489,0-2.7,1.211-2.7,2.7v38.001h-2.2v-30.4
			c0-1.489-1.211-2.7-2.7-2.7h-1.9c-1.489,0-2.7,1.211-2.7,2.7v15.2h-2.2v-15.2c0-2.702,2.198-4.9,4.9-4.9h1.9
			c0.997,0,1.925,0.299,2.7,0.812V4.401c0-2.702,2.198-4.9,4.9-4.9h1.9c2.607,0,4.745,2.047,4.892,4.618
			c0.776-0.517,1.708-0.818,2.708-0.818h1.9c2.702,0,4.9,2.199,4.9,4.901v11.112c0.774-0.513,1.703-0.812,2.7-0.812h1.9
			c2.702,0,4.9,2.198,4.9,4.9v39.901C17.053,73.338,8.888,81.502-1.147,81.502z"/>
	</g>
</g>
</svg>
