<?xml version="1.0" encoding="utf-8"?>
<!-- Generator: Adobe Illustrator 15.0.2, SVG Export Plug-In . SVG Version: 6.00 Build 0)  -->
<!DOCTYPE svg PUBLIC "-//W3C//DTD SVG 1.1//EN" "http://www.w3.org/Graphics/SVG/1.1/DTD/svg11.dtd">
<svg version="1.1" id="Layer_1" xmlns="http://www.w3.org/2000/svg" xmlns:xlink="http://www.w3.org/1999/xlink" x="0px" y="0px"
	 width="121.25px" height="138px" viewBox="0 0 121.25 138" enable-background="new 0 0 121.25 138" xml:space="preserve">
<g>
	<path d="M60.584,87.733c-10.388,0-26.31-16.024-26.31-29.877c0-0.709,0.575-1.283,1.284-1.283s1.284,0.574,1.284,1.283
		c0,12.844,15.488,27.31,23.742,27.31S84.326,70.7,84.326,57.856c0-0.709,0.575-1.283,1.284-1.283s1.284,0.574,1.284,1.283
		C86.895,71.709,70.973,87.733,60.584,87.733"/>
</g>
<g>
	<path fill="#FFFFFF" d="M60.584,87.934c-10.467,0-26.51-16.132-26.51-30.077c0-0.818,0.666-1.483,1.484-1.483
		c0.818,0,1.484,0.666,1.484,1.483c0,12.748,15.357,27.109,23.542,27.109c8.185,0,23.542-14.361,23.542-27.109
		c0-0.818,0.666-1.483,1.484-1.483s1.484,0.666,1.484,1.483C87.095,71.801,71.052,87.934,60.584,87.934z M35.558,56.773
		c-0.598,0-1.083,0.486-1.083,1.083c0,13.759,15.8,29.677,26.109,29.677c10.31,0,26.11-15.917,26.11-29.677
		c0-0.597-0.486-1.083-1.084-1.083s-1.084,0.486-1.084,1.083c0,12.937-15.619,27.51-23.942,27.51s-23.942-14.573-23.942-27.51
		C36.642,57.259,36.156,56.773,35.558,56.773z"/>
</g>
<g>
	<path d="M99.721,82.036c-0.582,0-1.181-0.012-1.808-0.026c-0.708-0.016-1.271-0.604-1.253-1.313
		c0.016-0.708,0.665-1.269,1.314-1.253c2.985,0.069,5.217,0.061,8.604-0.876c-4.091-2.512-7.232-5.879-9.757-10.414
		c-0.244-0.439-0.209-0.98,0.089-1.386c0.298-0.403,0.803-0.599,1.298-0.495c2.082,0.44,5.415-0.116,8.534-1.325
		c-3.352-1.349-5.893-3.236-7.572-5.635c-0.406-0.581-0.265-1.382,0.316-1.788c0.58-0.407,1.383-0.266,1.788,0.315
		c1.813,2.589,4.929,4.495,9.261,5.664c0.505,0.136,0.876,0.563,0.939,1.082c0.065,0.518-0.191,1.022-0.647,1.278
		c-3.344,1.866-7.308,3.008-10.501,3.115c2.59,3.896,5.832,6.704,10.059,8.739c0.467,0.225,0.752,0.708,0.724,1.227
		c-0.026,0.517-0.363,0.967-0.851,1.141C105.66,81.724,102.909,82.036,99.721,82.036"/>
</g>
<g>
	<path fill="#FFFFFF" d="M99.721,82.236c-0.584,0-1.184-0.012-1.812-0.026c-0.396-0.009-0.765-0.172-1.038-0.459
		c-0.274-0.287-0.42-0.663-0.41-1.06c0.018-0.771,0.713-1.448,1.488-1.448c0.65,0.015,1.238,0.025,1.81,0.025
		c2.003,0,3.864-0.136,6.325-0.775c-3.894-2.481-6.983-5.836-9.437-10.243c-0.281-0.506-0.241-1.134,0.103-1.602
		c0.34-0.46,0.936-0.69,1.5-0.572c1.874,0.397,4.975-0.055,7.949-1.139c-3.156-1.349-5.574-3.201-7.192-5.511
		c-0.469-0.671-0.305-1.598,0.366-2.067c0.646-0.454,1.616-0.281,2.066,0.365c1.786,2.55,4.864,4.429,9.148,5.585
		c0.586,0.157,1.013,0.648,1.086,1.25c0.076,0.6-0.218,1.18-0.748,1.477c-3.205,1.789-7.001,2.944-10.233,3.125
		c2.541,3.723,5.657,6.39,9.78,8.375c0.541,0.261,0.869,0.817,0.836,1.418c-0.03,0.599-0.416,1.116-0.982,1.318
		C105.719,81.915,102.948,82.236,99.721,82.236z M97.97,79.644c-0.589,0-1.098,0.494-1.109,1.058
		c-0.008,0.289,0.099,0.564,0.299,0.773c0.2,0.21,0.47,0.329,0.759,0.335c4.056,0.094,6.892,0.004,12.272-1.912
		c0.414-0.147,0.696-0.525,0.718-0.962c0.024-0.44-0.215-0.847-0.61-1.036c-4.298-2.07-7.52-4.869-10.139-8.809l-0.198-0.299
		l0.358-0.012c3.248-0.109,7.14-1.265,10.41-3.09c0.388-0.217,0.603-0.641,0.547-1.079c-0.054-0.44-0.365-0.799-0.793-0.914
		c-4.378-1.182-7.531-3.113-9.373-5.743c-0.329-0.472-1.036-0.601-1.509-0.267c-0.238,0.166-0.396,0.415-0.446,0.7
		c-0.051,0.285,0.013,0.573,0.179,0.81c1.651,2.358,4.169,4.23,7.482,5.564l0.47,0.189l-0.472,0.183
		c-3.193,1.238-6.597,1.767-8.647,1.334c-0.411-0.087-0.847,0.082-1.096,0.418c-0.251,0.341-0.28,0.8-0.075,1.17
		c2.5,4.491,5.668,7.874,9.687,10.34l0.392,0.241l-0.442,0.122C103.177,79.716,100.929,79.712,97.97,79.644L97.97,79.644z"/>
</g>
<g>
	<path d="M21.448,82.036c-3.189,0-5.94-0.312-10.538-1.95c-0.487-0.174-0.824-0.624-0.851-1.141
		c-0.027-0.519,0.258-1.002,0.725-1.227c4.226-2.035,7.468-4.843,10.058-8.739c-3.194-0.107-7.157-1.249-10.502-3.115
		c-0.455-0.256-0.712-0.761-0.647-1.278c0.063-0.519,0.436-0.946,0.939-1.082c4.436-1.197,7.595-3.166,9.389-5.853
		c0.394-0.588,1.19-0.746,1.781-0.354c0.59,0.394,0.748,1.192,0.355,1.781c-1.678,2.511-4.271,4.477-7.731,5.868
		c3.12,1.209,6.45,1.766,8.535,1.325c0.497-0.104,1.001,0.092,1.298,0.495c0.298,0.405,0.333,0.946,0.089,1.386
		c-2.525,4.535-5.667,7.902-9.758,10.414c3.385,0.935,5.617,0.945,8.605,0.876h0.032c0.694,0,1.266,0.556,1.282,1.253
		c0.017,0.709-0.545,1.298-1.253,1.313C22.629,82.024,22.031,82.036,21.448,82.036"/>
</g>
<g>
	<path fill="#FFFFFF" d="M21.448,82.236c-3.228,0-5.999-0.321-10.605-1.962c-0.566-0.202-0.952-0.72-0.983-1.318
		c-0.032-0.602,0.297-1.157,0.837-1.418c4.123-1.984,7.239-4.651,9.78-8.375c-3.232-0.181-7.028-1.336-10.235-3.125
		c-0.53-0.298-0.823-0.878-0.748-1.478c0.073-0.601,0.499-1.092,1.085-1.25c4.389-1.185,7.509-3.126,9.275-5.771
		c0.438-0.656,1.395-0.849,2.058-0.409c0.33,0.22,0.554,0.556,0.631,0.945c0.078,0.389-0.001,0.785-0.221,1.114
		c-1.619,2.423-4.091,4.355-7.353,5.748c2.976,1.083,6.078,1.533,7.949,1.139c0.568-0.115,1.162,0.112,1.5,0.572
		c0.343,0.467,0.384,1.095,0.103,1.602c-2.454,4.407-5.544,7.762-9.438,10.243c3.165,0.821,5.315,0.814,8.104,0.75
		c0.835,0,1.5,0.65,1.519,1.448c0.009,0.396-0.136,0.773-0.411,1.061c-0.273,0.286-0.642,0.449-1.038,0.458
		C22.632,82.225,22.033,82.236,21.448,82.236z M21.09,57.282c-0.363,0-0.701,0.18-0.902,0.48c-1.821,2.727-5.019,4.724-9.503,5.934
		c-0.428,0.116-0.739,0.474-0.792,0.913c-0.055,0.439,0.159,0.862,0.546,1.08c3.272,1.825,7.164,2.98,10.411,3.09l0.358,0.012
		l-0.199,0.299c-2.619,3.94-5.84,6.739-10.138,8.809c-0.395,0.189-0.635,0.596-0.612,1.035c0.023,0.438,0.305,0.815,0.718,0.963
		c5.383,1.917,8.223,2.004,12.274,1.912c0.289-0.006,0.558-0.125,0.758-0.334c0.2-0.21,0.307-0.485,0.3-0.774
		c-0.014-0.583-0.499-1.058-1.082-1.058c-0.648,0.014-1.235,0.025-1.808,0.025c-2.156,0-4.152-0.155-6.883-0.909l-0.443-0.122
		l0.392-0.241c4.074-2.501,7.152-5.787,9.688-10.34c0.205-0.37,0.175-0.829-0.076-1.17c-0.248-0.337-0.688-0.504-1.096-0.418
		c-2.051,0.433-5.454-0.097-8.648-1.334l-0.472-0.183l0.47-0.189c3.419-1.375,5.989-3.324,7.639-5.794
		c0.161-0.24,0.218-0.529,0.162-0.813c-0.057-0.285-0.22-0.529-0.461-0.69C21.512,57.345,21.304,57.282,21.09,57.282z"/>
</g>
<g>
	<path fill="#87BD40" d="M88.648,34.838c-0.967,0-1.754,0.786-1.754,1.753v21.131c0,0.966,0.787,1.753,1.754,1.753
		s1.754-0.787,1.754-1.753V36.591C90.402,35.624,89.615,34.838,88.648,34.838"/>
</g>
<g>
	<path fill="none" d="M88.648,32.471c-2.273,0-4.122,1.848-4.122,4.12v21.131c0,2.272,1.849,4.121,4.122,4.121
		s4.122-1.849,4.122-4.121V36.591C92.771,34.319,90.922,32.471,88.648,32.471z M90.603,57.722c0,1.077-0.877,1.953-1.954,1.953
		s-1.954-0.876-1.954-1.953V36.591c0-1.077,0.877-1.953,1.954-1.953s1.954,0.876,1.954,1.953V57.722z"/>
	<path fill="none" d="M88.648,35.038c-0.856,0-1.554,0.696-1.554,1.553v21.131c0,0.856,0.697,1.553,1.554,1.553
		s1.554-0.696,1.554-1.553V36.591C90.202,35.734,89.505,35.038,88.648,35.038z"/>
	<path fill="#87BD40" d="M92.771,57.722c0,2.272-1.849,4.121-4.122,4.121s-4.122-1.849-4.122-4.121V36.591
		c0-2.272,1.849-4.12,4.122-4.12s4.122,1.848,4.122,4.12V57.722z"/>
	<path fill="#FFFFFF" d="M88.648,34.638c-1.077,0-1.954,0.876-1.954,1.953v21.131c0,1.077,0.877,1.953,1.954,1.953
		s1.954-0.876,1.954-1.953V36.591C90.603,35.514,89.726,34.638,88.648,34.638z"/>
</g>
<g>
	<path fill="#87BD40" d="M99.923,51.764c0,4.112-3.345,7.457-7.456,7.457h-0.78c-0.598,0-1.084-0.486-1.084-1.084v-21.96
		c0-0.598,0.486-1.084,1.084-1.084h0.78c4.111,0,7.456,3.346,7.456,7.458V51.764z"/>
	<path fill="#87BD40" d="M92.467,35.093h-0.78c-0.598,0-1.084,0.486-1.084,1.084v21.96c0,0.598,0.486,1.084,1.084,1.084h0.78
		c4.111,0,7.456-3.345,7.456-7.457v-9.213C99.923,38.438,96.578,35.093,92.467,35.093z M97.757,51.764
		c0,2.733-2.049,4.996-4.767,5.264l-0.22,0.021V37.264l0.22,0.021c2.718,0.27,4.767,2.533,4.767,5.266V51.764z"/>
	<path fill="#FFFFFF" d="M92.99,37.285l-0.22-0.021v19.785l0.22-0.021c2.718-0.268,4.767-2.53,4.767-5.264v-9.213
		C97.757,39.818,95.708,37.555,92.99,37.285z"/>
</g>
<g>
	<path fill="#87BD40" d="M89.75,31.648c-0.709,0-1.283-0.575-1.283-1.284c0-13.819-12.551-25.063-27.976-25.063
		c-15.424,0-27.974,11.244-27.974,25.063c0,0.709-0.575,1.284-1.284,1.284s-1.284-0.575-1.284-1.284
		c0-15.234,13.701-27.631,30.542-27.631c16.842,0,30.543,12.396,30.543,27.631C91.034,31.073,90.459,31.648,89.75,31.648"/>
</g>
<g>
	<path fill="#FFFFFF" d="M89.75,31.849c-0.817,0-1.483-0.666-1.483-1.484c0-13.71-12.46-24.863-27.775-24.863
		c-15.315,0-27.774,11.153-27.774,24.863c0,0.818-0.666,1.484-1.484,1.484c-0.818,0-1.484-0.666-1.484-1.484
		c0-15.346,13.791-27.831,30.742-27.831c16.952,0,30.743,12.485,30.743,27.831C91.234,31.183,90.568,31.849,89.75,31.849z
		 M60.491,5.101c15.536,0,28.176,11.333,28.176,25.264c0,0.598,0.485,1.084,1.083,1.084s1.084-0.486,1.084-1.084
		c0-15.125-13.611-27.431-30.343-27.431c-16.73,0-30.342,12.305-30.342,27.431c0,0.598,0.486,1.084,1.084,1.084
		s1.083-0.486,1.083-1.084C32.317,16.434,44.956,5.101,60.491,5.101z"/>
</g>
<g>
	<path fill="none" d="M32.521,35.038c-0.857,0-1.554,0.696-1.554,1.553v21.131c0,0.856,0.696,1.553,1.553,1.553
		c0.857,0,1.554-0.696,1.554-1.553V36.591C34.074,35.734,33.378,35.038,32.521,35.038z"/>
	<path fill="#87BD40" d="M32.521,32.471c-2.272,0-4.121,1.848-4.121,4.12v21.131c0,2.272,1.849,4.121,4.122,4.121
		c2.272,0,4.121-1.849,4.121-4.121V36.591C36.642,34.319,34.793,32.471,32.521,32.471z M34.475,57.722
		c0,1.077-0.876,1.953-1.953,1.953c-1.077,0-1.954-0.876-1.954-1.953V36.591c0-1.077,0.877-1.953,1.954-1.953
		c1.077,0,1.953,0.876,1.953,1.953V57.722z"/>
	<path fill="#FFFFFF" d="M32.521,34.838c-0.967,0-1.754,0.786-1.754,1.753v21.131c0,0.966,0.787,1.753,1.753,1.753h0.001
		c0.966,0,1.753-0.787,1.753-1.753V36.591C34.274,35.624,33.487,34.838,32.521,34.838z M34.074,57.722
		c0,0.856-0.697,1.553-1.554,1.553c-0.856,0-1.553-0.696-1.553-1.553V36.591c0-0.856,0.697-1.553,1.554-1.553
		c0.856,0,1.553,0.696,1.553,1.553V57.722z"/>
	<path fill="#FFFFFF" d="M32.521,34.638c-1.077,0-1.954,0.876-1.954,1.953v21.131c0,1.077,0.877,1.953,1.954,1.953
		c1.077,0,1.953-0.876,1.953-1.953V36.591C34.475,35.514,33.598,34.638,32.521,34.638z M34.274,57.722
		c0,0.966-0.787,1.753-1.753,1.753h-0.001c-0.966,0-1.753-0.787-1.753-1.753V36.591c0-0.967,0.787-1.753,1.754-1.753
		c0.966,0,1.753,0.786,1.753,1.753V57.722z"/>
</g>
<g>
	<path fill="none" d="M23.812,51.764c0,2.453,1.785,4.495,4.187,4.839V37.71c-2.402,0.344-4.187,2.387-4.187,4.841V51.764z"/>
	<path fill="#87BD40" d="M29.483,35.093h-0.782c-4.111,0-7.456,3.346-7.456,7.458v9.213c0,4.112,3.345,7.457,7.456,7.457h0.782
		c0.598,0,1.084-0.486,1.084-1.084v-21.96C30.567,35.579,30.081,35.093,29.483,35.093z M28.4,57.049l-0.22-0.021
		c-2.718-0.268-4.768-2.53-4.768-5.264v-9.213c0-2.734,2.05-4.998,4.768-5.266l0.22-0.021V57.049z"/>
	<path fill="#FFFFFF" d="M23.612,42.551v9.213c0,2.636,2.016,4.812,4.587,5.064V37.484C25.628,37.737,23.612,39.913,23.612,42.551z
		 M28,37.71v18.893c-2.402-0.344-4.187-2.386-4.187-4.839v-9.213C23.812,40.097,25.597,38.054,28,37.71z"/>
	<path fill="#87BD40" d="M30.567,58.137c0,0.598-0.486,1.084-1.084,1.084h-0.782c-4.111,0-7.456-3.345-7.456-7.457v-9.213
		c0-4.112,3.345-7.458,7.456-7.458h0.782c0.598,0,1.084,0.486,1.084,1.084V58.137z"/>
	<path fill="#FFFFFF" d="M23.412,42.551v9.213c0,2.733,2.05,4.996,4.768,5.264l0.22,0.021V37.264l-0.22,0.021
		C25.462,37.553,23.412,39.816,23.412,42.551z"/>
</g>
<g>
	<path fill="#87BD40" d="M64.517,94.617c15.041-3.367,26.317-17.12,26.317-32.952c0-0.598-0.486-1.084-1.084-1.084
		s-1.084,0.486-1.084,1.084c0,14.798-10.522,27.656-24.563,30.826c0.277,0.54,0.448,1.144,0.448,1.791
		C64.55,94.396,64.526,94.505,64.517,94.617z"/>
	<path fill="#87BD40" d="M60.446,95.665c-0.768,0-1.402-0.577-1.476-1.341c-0.038-0.396,0.081-0.782,0.333-1.088
		c0.252-0.306,0.608-0.494,1.001-0.531c1.077-0.104,2.135-0.271,3.177-0.486c-0.647-0.905-1.702-1.502-2.897-1.502
		c-1.966,0-3.565,1.6-3.565,3.565s1.599,3.565,3.565,3.565c1.671,0,3.068-1.16,3.452-2.715c-1.13,0.232-2.278,0.412-3.446,0.524
		C60.542,95.662,60.494,95.665,60.446,95.665z"/>
	<path fill="#87BD40" d="M63.698,92.581c-1.1,0.232-2.218,0.412-3.356,0.522c-0.287,0.027-0.547,0.164-0.731,0.387
		c-0.185,0.224-0.271,0.507-0.243,0.795c0.057,0.592,0.556,1.036,1.18,0.975c1.207-0.116,2.393-0.307,3.559-0.552
		c0.017-0.142,0.043-0.28,0.043-0.426C64.15,93.663,63.977,93.089,63.698,92.581z"/>
	<path fill="#FFFFFF" d="M63.803,92.353c0.067-0.015,0.134-0.029,0.201-0.044c-0.035-0.061-0.062-0.125-0.099-0.184
		c-0.067,0.016-0.135,0.031-0.202,0.045C63.741,92.228,63.767,92.293,63.803,92.353z"/>
	<path fill="#FFFFFF" d="M64.291,94.872c-0.011,0.07-0.015,0.143-0.03,0.211c0.072-0.015,0.143-0.031,0.214-0.047
		c0.013-0.068,0.012-0.141,0.021-0.21C64.427,94.842,64.359,94.857,64.291,94.872z"/>
	<path fill="#FFFFFF" d="M64.312,94.662c-0.007,0.07-0.01,0.141-0.021,0.21c0.068-0.015,0.137-0.03,0.205-0.046
		c0.01-0.068,0.015-0.139,0.021-0.209C64.448,94.633,64.38,94.647,64.312,94.662z"/>
	<path fill="#FFFFFF" d="M63.902,92.535c0.067-0.015,0.134-0.029,0.201-0.044c-0.031-0.062-0.064-0.123-0.099-0.183
		c-0.067,0.015-0.134,0.029-0.201,0.044C63.838,92.412,63.87,92.475,63.902,92.535z"/>
	<path fill="#FFFFFF" d="M64.036,95.133c0.076-0.015,0.15-0.033,0.225-0.05c0.015-0.068,0.019-0.141,0.03-0.211
		c-0.068,0.015-0.136,0.031-0.205,0.045C64.072,94.99,64.054,95.062,64.036,95.133z"/>
	<path fill="#FFFFFF" d="M63.599,92.398c0.068-0.015,0.136-0.031,0.204-0.046c-0.036-0.06-0.062-0.125-0.101-0.183
		c-0.074,0.017-0.147,0.034-0.221,0.049C63.523,92.277,63.561,92.337,63.599,92.398z"/>
	<path fill="#FFFFFF" d="M63.698,92.581c0.068-0.015,0.136-0.03,0.204-0.046c-0.032-0.061-0.063-0.123-0.099-0.183
		c-0.068,0.015-0.136,0.031-0.204,0.046C63.635,92.457,63.665,92.52,63.698,92.581z"/>
	<path fill="#FFFFFF" d="M64.107,94.708c-0.008,0.069-0.009,0.141-0.021,0.209c0.068-0.014,0.136-0.03,0.205-0.045
		c0.011-0.069,0.014-0.14,0.021-0.21C64.243,94.678,64.175,94.693,64.107,94.708z"/>
</g>
<g>
	<path d="M81.744,42.401c-0.068,0-0.139-0.006-0.211-0.018c-8.814-1.454-16.49-6.058-20.949-12.469
		c-4.458,6.411-12.132,11.014-20.948,12.469c-0.708,0.121-1.36-0.355-1.477-1.056c-0.115-0.7,0.359-1.361,1.058-1.477
		c8.85-1.462,16.421-6.31,20.255-12.972c0.457-0.796,1.767-0.798,2.224,0c3.835,6.662,11.407,11.51,20.256,12.972
		c0.698,0.115,1.173,0.776,1.058,1.477C82.905,41.956,82.361,42.401,81.744,42.401"/>
</g>
<g>
	<path fill="#FFFFFF" d="M39.416,42.603c-0.723,0-1.334-0.522-1.454-1.242c-0.133-0.808,0.416-1.574,1.223-1.707
		c8.792-1.452,16.311-6.265,20.114-12.874c0.247-0.431,0.74-0.698,1.286-0.698s1.038,0.268,1.285,0.698
		c3.804,6.609,11.324,11.421,20.115,12.874c0.808,0.133,1.355,0.898,1.223,1.707c-0.132,0.797-0.857,1.361-1.706,1.22
		c-8.761-1.445-16.366-5.928-20.917-12.318c-4.549,6.389-12.154,10.873-20.915,12.318C39.584,42.596,39.5,42.603,39.416,42.603z
		 M60.585,26.482c-0.403,0-0.763,0.19-0.939,0.497c-3.863,6.712-11.487,11.598-20.396,13.069c-0.59,0.097-0.991,0.657-0.894,1.247
		c0.098,0.586,0.641,0.993,1.246,0.891c8.762-1.446,16.35-5.96,20.817-12.386l0.164-0.236l0.164,0.236
		c4.47,6.426,12.058,10.94,20.817,12.386c0.632,0.103,1.151-0.309,1.247-0.891c0.097-0.59-0.304-1.149-0.893-1.247
		c-8.908-1.472-16.533-6.357-20.397-13.069C61.344,26.668,60.994,26.482,60.585,26.482z"/>
</g>
<g>
	<path d="M35.671,31.67c-0.056,0-0.113-0.003-0.17-0.011c-0.703-0.095-1.196-0.738-1.104-1.441C36,18.103,46.73,9.642,60.492,9.642
		c13.711,0,24.436,8.421,26.081,20.479c0.097,0.701-0.396,1.349-1.098,1.444c-0.711,0.102-1.35-0.396-1.445-1.099
		C82.562,19.717,72.883,12.21,60.492,12.21c-12.437,0-22.121,7.542-23.55,18.344C36.857,31.2,36.305,31.67,35.671,31.67"/>
</g>
<g>
	<path fill="#FFFFFF" d="M35.671,31.87c-0.065,0-0.131-0.004-0.197-0.013c-0.81-0.109-1.382-0.856-1.275-1.666
		c1.617-12.218,12.429-20.75,26.293-20.75c13.814,0,24.621,8.492,26.279,20.652c0.054,0.391-0.048,0.781-0.288,1.096
		c-0.239,0.316-0.588,0.52-0.98,0.573c-0.804,0.108-1.562-0.468-1.671-1.27C82.378,19.846,72.78,12.41,60.492,12.41
		c-12.333,0-21.936,7.472-23.352,18.17C37.043,31.315,36.412,31.87,35.671,31.87z M60.492,9.842
		c-13.658,0-24.307,8.39-25.896,20.402c-0.078,0.591,0.341,1.137,0.933,1.217c0.597,0.084,1.139-0.349,1.216-0.933
		C38.186,19.625,47.952,12.01,60.492,12.01c12.495,0,22.255,7.579,23.736,18.429c0.081,0.587,0.623,1.013,1.219,0.928
		c0.288-0.04,0.543-0.188,0.718-0.419c0.175-0.23,0.249-0.515,0.21-0.8C84.743,18.191,74.101,9.842,60.492,9.842z"/>
</g>
<g>
	<path d="M60.584,114.115L60.584,114.115c-0.378-0.001-0.734-0.166-0.977-0.451L35.655,85.503c-0.46-0.541-0.394-1.351,0.146-1.81
		c0.539-0.462,1.352-0.393,1.809,0.146l22.976,27.015l16.505-19.31c0.459-0.538,1.268-0.604,1.812-0.142
		c0.538,0.461,0.603,1.271,0.142,1.809L61.56,113.666C61.316,113.951,60.959,114.115,60.584,114.115"/>
</g>
<g>
	<path fill="#FFFFFF" d="M60.584,114.315L60.584,114.315c-0.437-0.001-0.848-0.191-1.129-0.521L35.503,85.633
		c-0.257-0.303-0.381-0.687-0.349-1.082c0.032-0.395,0.216-0.753,0.518-1.01c0.597-0.513,1.582-0.431,2.091,0.168l22.824,26.836
		l16.353-19.131c0.512-0.6,1.49-0.677,2.094-0.164c0.622,0.533,0.695,1.471,0.164,2.091l-17.485,20.455
		C61.43,114.126,61.019,114.315,60.584,114.315z M36.631,83.587c-0.256,0-0.505,0.092-0.7,0.259
		c-0.221,0.188-0.355,0.449-0.378,0.738c-0.023,0.288,0.067,0.568,0.255,0.789l23.952,28.161c0.205,0.241,0.505,0.38,0.824,0.381
		l0,0.2l0.001-0.2c0.318,0,0.618-0.138,0.824-0.379l17.484-20.455c0.188-0.22,0.279-0.499,0.257-0.788
		c-0.022-0.288-0.156-0.551-0.376-0.738c-0.439-0.375-1.156-0.317-1.529,0.119l-16.658,19.488L37.458,83.969
		C37.252,83.726,36.951,83.587,36.631,83.587z"/>
</g>
<g>
	<path d="M2.15,126.115v9.065c0,0.598,0.486,1.084,1.083,1.084c0.598,0,1.084-0.486,1.084-1.084v-8.588H3.234
		C2.805,126.593,2.422,126.407,2.15,126.115z"/>
	<path d="M3.234,123.625h1.083v-8.587c0-12.627,7.203-23.579,18.797-28.584c8.675-3.741,14.971-6.135,20.415-7.762
		c0.573-0.172,0.899-0.776,0.729-1.349c-0.139-0.463-0.556-0.773-1.038-0.773c-0.105,0-0.209,0.015-0.312,0.045
		c-5.542,1.657-11.911,4.079-20.652,7.851C9.854,89.816,2.15,101.531,2.15,115.038v9.064C2.422,123.811,2.805,123.625,3.234,123.625
		z"/>
	<g>
		<path fill="#FFFFFF" d="M97.455,126.393c-0.709,0-1.285-0.575-1.285-1.284s0.576-1.283,1.285-1.283h18.995v-0.2H97.455
			c-0.819,0-1.485,0.666-1.485,1.483c0,0.818,0.666,1.484,1.485,1.484h18.995v-0.2H97.455z"/>
		<path fill="#FFFFFF" d="M97.455,126.192c-0.599,0-1.085-0.486-1.085-1.084s0.486-1.083,1.085-1.083h18.995v-0.2H97.455
			c-0.709,0-1.285,0.574-1.285,1.283s0.576,1.284,1.285,1.284h18.995v-0.2H97.455z"/>
		<path d="M119.019,124.103v-9.064c0-13.508-7.704-25.222-20.106-30.572c-3.882-1.675-7.197-3.049-10.135-4.199
			c-0.126-0.05-0.259-0.075-0.394-0.075c-0.45,0-0.847,0.271-1.01,0.689c-0.105,0.269-0.101,0.562,0.015,0.826
			c0.116,0.266,0.328,0.471,0.599,0.576c2.937,1.151,6.229,2.515,10.066,4.171c11.595,5.004,18.797,15.957,18.797,28.584v8.587
			h1.084C118.363,123.625,118.747,123.811,119.019,124.103z"/>
		<path d="M117.935,126.593h-1.084v8.588c0,0.598,0.486,1.084,1.084,1.084s1.084-0.486,1.084-1.084v-9.065
			C118.747,126.407,118.363,126.593,117.935,126.593z"/>
		<path d="M117.935,124.025h-1.084v2.167h1.084c0.598,0,1.084-0.486,1.084-1.084S118.532,124.025,117.935,124.025z"/>
		<path d="M117.935,124.025h-1.084v2.167h1.084c0.598,0,1.084-0.486,1.084-1.084S118.532,124.025,117.935,124.025z"/>
		<path fill="#FFFFFF" d="M119.019,124.462v-0.359c-0.271-0.292-0.655-0.478-1.084-0.478h-1.084v0.2h1.084
			C118.402,123.825,118.794,124.088,119.019,124.462z"/>
		<path fill="#FFFFFF" d="M117.935,126.393h-1.084v0.2h1.084c0.429,0,0.812-0.186,1.084-0.478v-0.36
			C118.794,126.129,118.402,126.393,117.935,126.393z"/>
		<path fill="#FFFFFF" d="M117.935,124.025c0.598,0,1.084,0.485,1.084,1.083v-0.646c-0.225-0.374-0.616-0.637-1.084-0.637h-1.084
			v0.2H117.935z"/>
		<path fill="#FFFFFF" d="M119.219,135.181c0,0.71-0.575,1.284-1.284,1.284s-1.284-0.574-1.284-1.284v-8.588h-0.2v8.588
			c0,0.818,0.666,1.484,1.484,1.484s1.484-0.666,1.484-1.484v-10.072c0,0.267-0.076,0.514-0.2,0.73V135.181z"/>
		<path fill="#FFFFFF" d="M99.07,84.099c-3.886-1.677-7.205-3.052-10.146-4.205c-0.174-0.067-0.355-0.102-0.54-0.102
			c-0.616,0-1.159,0.37-1.382,0.943c-0.146,0.366-0.138,0.769,0.021,1.131c0.158,0.364,0.449,0.645,0.818,0.79
			c2.933,1.148,6.222,2.511,10.055,4.165c11.445,4.939,18.555,15.752,18.555,28.217v8.587h0.2v-8.587
			c0-12.548-7.156-23.429-18.676-28.4c-3.863-1.667-7.154-3.029-10.061-4.168c-0.658-0.258-0.986-1.003-0.727-1.661
			c0.258-0.661,1.004-0.986,1.663-0.729c2.934,1.149,6.25,2.523,10.141,4.202c12.476,5.382,20.228,17.167,20.228,30.756v9.341
			c0.124,0.216,0.2,0.463,0.2,0.729v-10.07C119.419,101.368,111.622,89.513,99.07,84.099z"/>
		<rect x="116.45" y="124.025" fill="#FFFFFF" width="0.2" height="2.167"/>
		<rect x="116.45" y="126.393" fill="#FFFFFF" width="0.2" height="0.2"/>
		<path fill="#FFFFFF" d="M119.219,125.108v0.73c0.124-0.217,0.2-0.464,0.2-0.73s-0.076-0.514-0.2-0.729V125.108z"/>
		<rect x="116.45" y="123.625" fill="#FFFFFF" width="0.2" height="0.2"/>
		<rect x="116.45" y="123.825" fill="#FFFFFF" width="0.2" height="0.2"/>
		<rect x="116.45" y="126.192" fill="#FFFFFF" width="0.2" height="0.2"/>
		<path fill="#FFFFFF" d="M116.851,115.038c0-12.627-7.202-23.58-18.797-28.584c-3.837-1.656-7.13-3.02-10.066-4.171
			c-0.271-0.105-0.482-0.311-0.599-0.576c-0.115-0.265-0.12-0.558-0.015-0.826c0.163-0.419,0.56-0.689,1.01-0.689
			c0.135,0,0.268,0.025,0.394,0.075c2.938,1.15,6.253,2.524,10.135,4.199c12.402,5.351,20.106,17.064,20.106,30.572v9.064
			c0.077,0.083,0.144,0.177,0.2,0.276v-9.341c0-13.589-7.752-25.374-20.228-30.756c-3.891-1.679-7.207-3.053-10.141-4.202
			c-0.659-0.258-1.405,0.067-1.663,0.729c-0.26,0.658,0.068,1.403,0.727,1.661c2.906,1.139,6.197,2.501,10.061,4.168
			c11.52,4.972,18.676,15.853,18.676,28.4v8.587h0.2V115.038z"/>
		<path fill="#FFFFFF" d="M119.019,135.181c0,0.598-0.486,1.084-1.084,1.084s-1.084-0.486-1.084-1.084v-8.588h-0.2v8.588
			c0,0.71,0.575,1.284,1.284,1.284s1.284-0.574,1.284-1.284v-9.342c-0.057,0.1-0.123,0.192-0.2,0.276V135.181z"/>
		<rect x="116.65" y="124.025" fill="#FFFFFF" width="0.2" height="2.167"/>
		<path fill="#FFFFFF" d="M119.019,124.462c0.116,0.192,0.2,0.405,0.2,0.646v-0.729c-0.057-0.1-0.123-0.193-0.2-0.276V124.462z"/>
		<path fill="#FFFFFF" d="M119.019,126.115c0.077-0.084,0.144-0.177,0.2-0.276v-0.73c0,0.241-0.084,0.454-0.2,0.646V126.115z"/>
		<rect x="116.65" y="123.625" fill="#FFFFFF" width="0.2" height="0.2"/>
		<rect x="116.65" y="126.393" fill="#FFFFFF" width="0.2" height="0.2"/>
		<rect x="116.65" y="123.825" fill="#FFFFFF" width="0.2" height="0.2"/>
		<rect x="116.65" y="126.192" fill="#FFFFFF" width="0.2" height="0.2"/>
		<path d="M98.372,124.025c-0.599,0-1.085,0.485-1.085,1.083s0.486,1.084,1.085,1.084h18.995v-2.167H98.372z"/>
	</g>
	<path d="M2.15,125.108c0,0.598,0.486,1.084,1.083,1.084h1.083v-2.167H3.234C2.636,124.025,2.15,124.511,2.15,125.108z"/>
	<path d="M2.15,125.108c0,0.598,0.486,1.084,1.083,1.084h1.083v-2.167H3.234C2.636,124.025,2.15,124.511,2.15,125.108z"/>
	<rect x="4.518" y="124.025" fill="#FFFFFF" width="0.2" height="2.167"/>
	<rect x="4.317" y="124.025" fill="#FFFFFF" width="0.2" height="2.167"/>
	<rect x="4.518" y="123.625" fill="#FFFFFF" width="0.2" height="0.2"/>
	<rect x="4.518" y="126.393" fill="#FFFFFF" width="0.2" height="0.2"/>
	<rect x="4.317" y="123.625" fill="#FFFFFF" width="0.2" height="0.2"/>
	<rect x="4.317" y="126.393" fill="#FFFFFF" width="0.2" height="0.2"/>
	<rect x="4.518" y="123.825" fill="#FFFFFF" width="0.2" height="0.2"/>
	<rect x="4.518" y="126.192" fill="#FFFFFF" width="0.2" height="0.2"/>
	<rect x="4.317" y="123.825" fill="#FFFFFF" width="0.2" height="0.2"/>
	<rect x="4.317" y="126.192" fill="#FFFFFF" width="0.2" height="0.2"/>
	<path d="M23.215,126.192c0.598,0,1.083-0.486,1.083-1.084s-0.486-1.083-1.083-1.083H4.218v2.167H23.215z"/>
</g>
<circle fill="#87BD40" cx="60.667" cy="94.333" r="3.583"/>
</svg>
