<?xml version="1.0" encoding="utf-8"?>
<!-- Generator: Adobe Illustrator 15.0.2, SVG Export Plug-In . SVG Version: 6.00 Build 0)  -->
<!DOCTYPE svg PUBLIC "-//W3C//DTD SVG 1.1//EN" "http://www.w3.org/Graphics/SVG/1.1/DTD/svg11.dtd">
<svg version="1.1" id="Layer_1" xmlns="http://www.w3.org/2000/svg" xmlns:xlink="http://www.w3.org/1999/xlink" x="0px" y="0px"
	 width="158px" height="135.883px" viewBox="0 0 158 135.883" enable-background="new 0 0 158 135.883" xml:space="preserve">
<g>
	<path d="M2.571,134.399c-0.729,0-1.321-0.592-1.321-1.321v-20.731c0-13.985,7.977-26.115,20.817-31.655
		c9.588-4.137,16.512-6.738,22.454-8.433c0.694-0.202,1.431,0.204,1.633,0.905c0.2,0.702-0.206,1.435-0.908,1.634
		c-5.827,1.665-12.653,4.229-22.132,8.319C11.257,88.233,3.892,99.433,3.892,112.347v20.731
		C3.892,133.808,3.3,134.399,2.571,134.399"/>
</g>
<g>
	<path fill="#FFFFFF" d="M2.571,134.649c-0.866,0-1.571-0.705-1.571-1.571v-20.731C1,98.26,9.035,86.042,21.968,80.462
		c9.606-4.145,16.541-6.749,22.485-8.443c0.139-0.041,0.285-0.062,0.431-0.062c0.696,0,1.317,0.468,1.51,1.138
		c0.116,0.405,0.066,0.83-0.138,1.198c-0.204,0.366-0.539,0.631-0.942,0.745c-5.826,1.665-12.643,4.228-22.101,8.309
		c-11.764,5.076-19.071,16.188-19.071,29v20.731C4.142,133.944,3.438,134.649,2.571,134.649z M44.884,72.457
		c-0.099,0-0.197,0.014-0.293,0.042c-5.923,1.688-12.839,4.286-22.425,8.422C9.419,86.421,1.5,98.463,1.5,112.347v20.731
		c0,0.591,0.48,1.071,1.071,1.071s1.071-0.48,1.071-1.071v-20.731c0-13.015,7.423-24.303,19.373-29.459
		c9.479-4.09,16.314-6.659,22.162-8.33c0.275-0.078,0.503-0.259,0.642-0.509c0.14-0.25,0.173-0.54,0.095-0.816
		C45.782,72.776,45.359,72.457,44.884,72.457z"/>
</g>
<g>
	<path d="M45.881,73.137c-0.16-0.408-0.562-0.682-0.999-0.682c-0.133,0-0.265,0.025-0.39,0.074c-0.55,0.217-0.822,0.841-0.606,1.39
		l16.286,41.463c0.212,0.541,0.858,0.818,1.387,0.605c0.268-0.104,0.478-0.307,0.592-0.568s0.12-0.553,0.015-0.818L45.881,73.137z"
		/>
	<path fill="#FFFFFF" d="M62.632,114.417L46.346,72.953c-0.307-0.778-1.251-1.197-2.038-0.889c-0.806,0.317-1.205,1.232-0.888,2.038
		l16.286,41.463c0.238,0.605,0.812,0.997,1.462,0.997c0.199,0,0.394-0.037,0.575-0.11c0.391-0.152,0.698-0.448,0.866-0.833
		C62.778,115.234,62.786,114.808,62.632,114.417z M61.653,116.22c-0.158,0.063-0.322,0.093-0.483,0.093
		c-0.528,0-1.025-0.317-1.23-0.839L43.654,74.011c-0.267-0.679,0.068-1.446,0.747-1.714c0.678-0.268,1.446,0.069,1.713,0.748
		l16.286,41.464C62.667,115.188,62.332,115.954,61.653,116.22z"/>
	<path fill="#FFFFFF" d="M46.114,73.045c-0.267-0.679-1.035-1.016-1.713-0.748c-0.679,0.268-1.014,1.035-0.747,1.714l16.286,41.463
		c0.205,0.521,0.702,0.839,1.23,0.839c0.161,0,0.325-0.029,0.483-0.093c0.679-0.266,1.014-1.032,0.747-1.711L46.114,73.045z
		 M62.152,115.419c-0.114,0.262-0.324,0.464-0.592,0.568c-0.529,0.213-1.175-0.064-1.387-0.605L43.886,73.919
		c-0.216-0.549,0.056-1.173,0.606-1.39c0.125-0.049,0.256-0.074,0.39-0.074c0.438,0,0.839,0.273,0.999,0.682l16.286,41.464
		C62.271,114.866,62.266,115.157,62.152,115.419z"/>
</g>
<g>
	<path d="M119.77,134.398c-0.729,0-1.322-0.592-1.322-1.321v-20.731c0-12.913-7.364-24.112-19.221-29.228
		c-9.484-4.093-16.309-6.658-22.134-8.32c-0.702-0.199-1.108-0.932-0.908-1.634c0.2-0.701,0.93-1.107,1.633-0.906
		c5.938,1.693,12.863,4.295,22.456,8.434c12.84,5.541,20.816,17.67,20.816,31.654v20.731
		C121.09,133.807,120.498,134.398,119.77,134.398"/>
</g>
<g>
	<path fill="#FFFFFF" d="M119.77,134.648c-0.867,0-1.572-0.705-1.572-1.571v-20.731c0-12.812-7.307-23.923-19.069-28.998
		c-9.475-4.088-16.291-6.65-22.104-8.31c-0.402-0.114-0.737-0.379-0.941-0.745c-0.205-0.368-0.254-0.793-0.138-1.197
		c0.231-0.812,1.123-1.315,1.942-1.078c5.942,1.694,12.877,4.299,22.485,8.444c12.934,5.581,20.968,17.799,20.968,31.884v20.731
		C121.34,133.943,120.636,134.648,119.77,134.648z M77.453,72.456c-0.475,0-0.897,0.319-1.027,0.776
		c-0.079,0.276-0.045,0.566,0.095,0.817c0.139,0.249,0.367,0.43,0.641,0.508c5.835,1.664,12.67,4.234,22.164,8.331
		c11.949,5.155,19.372,16.442,19.372,29.457v20.731c0,0.591,0.481,1.071,1.072,1.071c0.59,0,1.07-0.48,1.07-1.071v-20.731
		c0-13.883-7.919-25.924-20.665-31.425c-9.588-4.137-16.504-6.734-22.425-8.423C77.652,72.471,77.552,72.456,77.453,72.456z"/>
</g>
<g>
	<path d="M77.847,72.529c-0.125-0.049-0.255-0.073-0.389-0.073c-0.438,0-0.84,0.273-1,0.681l-16.286,41.464
		c-0.105,0.266-0.1,0.556,0.015,0.818c0.115,0.262,0.324,0.464,0.591,0.568c0.54,0.214,1.178-0.066,1.389-0.604l16.286-41.464
		C78.669,73.37,78.397,72.746,77.847,72.529z"/>
	<path d="M78.453,73.919l-16.286,41.464c-0.211,0.538-0.849,0.818-1.389,0.604c-0.267-0.104-0.476-0.307-0.591-0.568
		c-0.114-0.263-0.12-0.553-0.015-0.818l16.286-41.464c0.16-0.407,0.562-0.681,1-0.681c0.133,0,0.264,0.024,0.389,0.073
		C78.397,72.746,78.669,73.37,78.453,73.919z"/>
</g>
<g>
	<path d="M68.647,94.887c-0.395,0-0.756,0.214-0.943,0.56c-0.283,0.52-0.09,1.172,0.43,1.454l23.998,13.034
		c0.402,0.218,0.905,0.153,1.232-0.148c0.337-0.308,0.443-0.796,0.265-1.216L78.44,73.106c-0.225-0.528-0.872-0.793-1.405-0.563
		c-0.264,0.113-0.467,0.321-0.573,0.587s-0.104,0.557,0.009,0.818l13.973,32.632L69.158,95.016
		C69.001,94.932,68.825,94.887,68.647,94.887z"/>
</g>
<g>
	<path d="M61.169,84.244c-10.487,0-26.454-15.868-27.06-29.929c-3.621-2.144-6.353-8.203-6.353-14.373
		c0-0.73,0.592-1.321,1.322-1.321c0.729,0,1.321,0.591,1.321,1.321c0,5.438,2.528,11.087,5.521,12.333
		c0.493,0.206,0.814,0.686,0.814,1.221c0,13.216,15.94,28.105,24.435,28.105c8.495,0,24.435-14.89,24.435-28.105
		c0-0.535,0.321-1.015,0.813-1.221c2.992-1.245,5.521-6.895,5.521-12.333c0-0.73,0.593-1.321,1.321-1.321
		c0.73,0,1.322,0.591,1.322,1.321c0,6.17-2.732,12.229-6.353,14.373C87.623,68.376,71.657,84.244,61.169,84.244"/>
</g>
<g>
	<path d="M86.926,37.16c-0.59,0-1.07,0.48-1.07,1.071v6.824c0,0.591,0.48,1.071,1.07,1.071c0.591,0,1.071-0.48,1.071-1.071v-6.824
		C87.997,37.641,87.517,37.16,86.926,37.16z"/>
	<path d="M35.413,37.16c-0.591,0-1.072,0.48-1.072,1.071v6.824c0,0.591,0.481,1.071,1.072,1.071s1.071-0.48,1.071-1.071v-6.824
		C36.484,37.641,36.004,37.16,35.413,37.16z"/>
	<path fill="#FFFFFF" d="M86.926,36.66c-0.866,0-1.57,0.705-1.57,1.571v6.824c0,0.866,0.704,1.571,1.57,1.571
		s1.571-0.705,1.571-1.571v-6.824C88.497,37.365,87.792,36.66,86.926,36.66z M88.247,45.056c0,0.729-0.592,1.321-1.321,1.321
		c-0.729,0-1.32-0.593-1.32-1.321v-6.824c0-0.729,0.592-1.321,1.32-1.321c0.729,0,1.321,0.593,1.321,1.321V45.056z"/>
	<path fill="#FFFFFF" d="M86.926,36.91c-0.729,0-1.32,0.593-1.32,1.321v6.824c0,0.729,0.592,1.321,1.32,1.321
		c0.729,0,1.321-0.593,1.321-1.321v-6.824C88.247,37.503,87.655,36.91,86.926,36.91z M87.997,45.056c0,0.591-0.48,1.071-1.071,1.071
		c-0.59,0-1.07-0.48-1.07-1.071v-6.824c0-0.591,0.48-1.071,1.07-1.071c0.591,0,1.071,0.48,1.071,1.071V45.056z"/>
</g>
<g>
	<path d="M75.727,18.94c-0.285-0.446-0.883-0.617-1.362-0.392L34.952,37.265c-0.258,0.122-0.453,0.338-0.549,0.608
		s-0.082,0.56,0.041,0.817c0.246,0.518,0.924,0.753,1.426,0.508L74.43,20.89l11.454,17.919c0.309,0.482,0.993,0.637,1.479,0.325
		c0.497-0.318,0.644-0.981,0.326-1.479L75.727,18.94z"/>
</g>
<g>
	<path d="M29.079,33.298c-0.038,0-0.077-0.002-0.116-0.005c-0.727-0.064-1.265-0.704-1.202-1.432
		C29.289,14.409,43.651,1.25,61.169,1.25s31.881,13.159,33.407,30.611c0.062,0.728-0.475,1.367-1.201,1.432
		c-0.729,0.07-1.367-0.475-1.432-1.202C90.537,16.015,77.307,3.893,61.169,3.893c-16.137,0-29.367,12.122-30.774,28.198
		C30.334,32.779,29.757,33.298,29.079,33.298"/>
</g>
<g>
	<path fill="#FFFFFF" d="M93.248,33.549c-0.813,0-1.481-0.618-1.554-1.437C90.3,16.167,77.177,4.143,61.169,4.143
		c-16.007,0-29.129,12.024-30.525,27.97c-0.076,0.862-0.798,1.504-1.7,1.43c-0.866-0.077-1.507-0.84-1.433-1.703
		C29.051,14.258,43.521,1,61.169,1c17.65,0,32.119,13.258,33.656,30.839c0.074,0.863-0.566,1.626-1.428,1.703
		C93.349,33.547,93.298,33.549,93.248,33.549z M61.169,3.643c16.269,0,29.605,12.221,31.023,28.426
		c0.052,0.584,0.585,1.04,1.158,0.975c0.59-0.052,1.027-0.573,0.977-1.161C92.813,14.562,78.559,1.5,61.169,1.5
		c-17.387,0-31.643,13.062-33.159,30.383c-0.051,0.587,0.387,1.108,0.975,1.161c0.029,0.002,0.062,0.004,0.094,0.004
		c0.559,0,1.018-0.421,1.067-0.979C31.564,15.863,44.901,3.643,61.169,3.643z"/>
</g>
<g>
	<path fill="#87BD40" d="M134.31,92.832c-6.269,0-10.436-3.567-13.973-7.521c-0.49,0.132-0.998,0.198-1.517,0.198
		c-2.928,0-6.018-2.169-7.514-5.273c-1.237-2.567-1.163-5.24,0.171-7.489c-8.215-2.363-19.087-10.278-19.565-10.628l-2.072-1.517
		l2.563,0.164c0.976,0.062,2.001,0.094,3.047,0.094c9.312,0,18.674-2.479,20.82-3.085c0.268-1.542,1.441-6.072,6.204-8.405
		c2.357-1.156,4.609-1.742,6.692-1.742c1.74,0,2.939,0.42,3.541,0.696c0.954-0.556,3.555-1.848,7.121-1.848
		c2.336,0,4.658,0.558,6.903,1.659c5.149,2.524,7.495,7.506,7.972,11.327c0.306,2.442-0.098,4.553-1.084,5.843
		c2.439,2.743,3.321,6.684,2.42,10.94c-1.397,6.6-6.706,12.347-13.854,14.999C139.306,92.312,136.729,92.832,134.31,92.832z
		 M120.798,83.568l0.34,0.386c3.375,3.832,7.306,7.378,13.172,7.378c2.238,0,4.645-0.489,7.355-1.495
		c7.973-2.959,11.896-9.122,12.907-13.903c0.853-4.025-0.061-7.702-2.506-10.086l-0.59-0.575l0.628-0.534
		c0.96-0.815,1.396-2.814,1.111-5.092c-0.429-3.432-2.53-7.905-7.144-10.166c-2.038-0.999-4.138-1.505-6.243-1.505
		c-3.981,0-6.634,1.808-6.66,1.826l-0.416,0.289l-0.424-0.278c-0.006-0.003-1.106-0.686-3.162-0.686
		c-1.853,0-3.882,0.535-6.032,1.588c-4.922,2.411-5.438,7.657-5.442,7.71l-0.044,0.504l-0.485,0.147
		c-0.108,0.033-10.938,3.282-21.713,3.282c-0.193,0-0.387-0.001-0.578-0.003c3.791,2.574,12.002,7.807,18,9.206l1.156,0.27
		l-0.739,0.929c-1.553,1.948-1.782,4.436-0.631,6.825c1.528,3.175,5.015,5.137,7.657,4.161L120.798,83.568z"/>
</g>
<g>
	<path fill="#87BD40" d="M148.166,70.702c-0.391,0-0.69,0.3-0.69,0.688c0,0.391,0.3,0.69,0.69,0.69c0.398,0,0.688-0.3,0.688-0.69
		C148.854,71.002,148.564,70.702,148.166,70.702 M144.615,71.98l1.609-4.688h-1.08l-1.029,3.329h-0.021l-1.159-3.329h-0.85
		l-1.16,3.329h-0.02l-1.031-3.329h-1.129l1.619,4.688h1.021l1.09-3.158h0.021l1.078,3.158H144.615z M135.105,68.121
		c0.73,0,1.27,0.41,1.36,1.051h-2.751C133.845,68.541,134.435,68.121,135.105,68.121 M137.445,69.961v-0.519
		c0-1.371-0.92-2.25-2.369-2.25c-1.432,0-2.44,1.009-2.44,2.448c0,1.461,1.099,2.44,2.739,2.44c0.74,0,1.381-0.18,1.779-0.49v-1.05
		h-0.049c-0.42,0.401-1,0.611-1.689,0.611c-0.932,0-1.571-0.44-1.701-1.191H137.445z M128.896,67.192c-0.63,0-1.131,0.22-1.45,0.608
		h-0.021v-2.819h-1.06v6.999h1.06v-2.46c0-0.869,0.45-1.38,1.2-1.38c0.681,0,1.091,0.44,1.091,1.21v2.63h1.059v-2.75
		C130.774,67.951,130.065,67.192,128.896,67.192 M121.916,71.132c-0.84,0-1.432-0.62-1.432-1.491c0-0.89,0.592-1.5,1.432-1.5
		c0.83,0,1.42,0.61,1.42,1.5C123.336,70.512,122.746,71.132,121.916,71.132 M122.086,67.192c-0.771,0-1.352,0.289-1.691,0.769h-0.02
		l-0.029-0.669h-0.889v6.589h1.058v-2.399h0.021c0.35,0.38,0.871,0.6,1.551,0.6c1.34,0,2.318-1.02,2.318-2.439
		C124.404,68.221,123.426,67.192,122.086,67.192"/>
</g>
<g>
	<path d="M44.883,72.455c-0.43,0-0.815,0.256-0.983,0.65l-15.188,35.466c-0.179,0.419-0.073,0.907,0.264,1.215
		c0.326,0.298,0.834,0.365,1.233,0.148l23.997-13.035c0.251-0.137,0.435-0.362,0.516-0.637c0.082-0.274,0.051-0.564-0.086-0.816
		c-0.272-0.5-0.945-0.704-1.453-0.43L31.896,106.58l13.972-32.632c0.113-0.262,0.116-0.553,0.01-0.817
		c-0.106-0.267-0.31-0.475-0.573-0.588C45.17,72.485,45.028,72.455,44.883,72.455z"/>
</g>
<g>
	<path fill="#FFFFFF" d="M29.079,38.871c-0.591,0-1.072,0.48-1.072,1.071c0,5.969,2.678,12.055,6.23,14.158l0.117,0.069l0.006,0.135
		c0.606,14.05,16.498,29.689,26.81,29.689s26.205-15.639,26.81-29.689l0.006-0.135l0.117-0.069
		c3.551-2.103,6.229-8.189,6.229-14.158c0-0.591-0.481-1.071-1.072-1.071s-1.071,0.48-1.071,1.071c0,5.53-2.599,11.284-5.675,12.564
		c-0.4,0.167-0.659,0.556-0.659,0.99c0,13.334-16.104,28.355-24.685,28.355S36.484,66.83,36.484,53.496
		c0-0.434-0.259-0.822-0.66-0.99c-3.076-1.28-5.675-7.034-5.675-12.563C30.149,39.352,29.669,38.871,29.079,38.871z M61.169,84.494
		c-10.473,0-26.593-15.792-27.304-30.034c-3.691-2.278-6.359-8.351-6.359-14.518c0-0.866,0.705-1.571,1.572-1.571
		c0.866,0,1.571,0.705,1.571,1.571c0,5.349,2.458,10.891,5.367,12.102c0.588,0.246,0.968,0.815,0.968,1.452
		c0,13.099,15.777,27.855,24.185,27.855s24.185-14.756,24.185-27.855c0-0.636,0.38-1.206,0.967-1.451
		c2.909-1.211,5.367-6.753,5.367-12.103c0-0.866,0.705-1.571,1.571-1.571c0.867,0,1.572,0.705,1.572,1.571
		c0,6.167-2.667,12.239-6.359,14.518C87.763,68.702,71.643,84.494,61.169,84.494z"/>
</g>
<g>
	<path d="M62.241,132.838c0,0.59-0.48,1.07-1.071,1.07c-0.59,0-1.071-0.48-1.071-1.07V114.99c0-0.591,0.48-1.071,1.071-1.071
		c0.591,0,1.071,0.48,1.071,1.071V132.838z"/>
	<path d="M61.169,113.919c-0.59,0-1.071,0.48-1.071,1.071v17.848c0,0.59,0.48,1.07,1.071,1.07c0.591,0,1.071-0.48,1.071-1.07V114.99
		C62.241,114.399,61.76,113.919,61.169,113.919z"/>
</g>
<g>
	<path fill="none" stroke="#87BD40" stroke-width="1.5" stroke-miterlimit="10" d="M25.928,15.643
		c-0.054,0.104-1.821,0.895-2.678,2.093c-1.745,2.441-3.417,5.859-5.063,3.568C16.685,18.828,23.255,14.74,25.928,15.643
		C25.892,15.713,25.777,15.593,25.928,15.643z M72.888,26.297c2.684,0.872,5.517,8.072,2.832,9.162
		c-2.687,0.855-1.989-2.885-1.932-5.885C73.816,28.101,72.87,26.412,72.888,26.297C73.039,26.347,72.877,26.375,72.888,26.297z"/>
</g>
</svg>
