<?xml version="1.0" encoding="utf-8"?>
<!-- Generator: Adobe Illustrator 15.0.2, SVG Export Plug-In . SVG Version: 6.00 Build 0)  -->
<!DOCTYPE svg PUBLIC "-//W3C//DTD SVG 1.1//EN" "http://www.w3.org/Graphics/SVG/1.1/DTD/svg11.dtd">
<svg version="1.1" id="Layer_1" xmlns="http://www.w3.org/2000/svg" xmlns:xlink="http://www.w3.org/1999/xlink" x="0px" y="0px"
	 width="132.333px" height="118px" viewBox="0 0 132.333 118" enable-background="new 0 0 132.333 118" xml:space="preserve">
<g>
	<path d="M90.685,89.351H86.31V71.346c0-11.969-9.694-21.707-21.612-21.707h-1.682c-12.021,0-21.802,9.738-21.802,21.707v15.145
		c0,0.168,0.002,0.336,0.005,0.504l0.049,2.187l-4.374,0.099l-0.049-2.188c-0.004-0.2-0.006-0.4-0.006-0.601V71.346
		c0-14.381,11.743-26.082,26.177-26.082h1.682c14.33,0,25.987,11.701,25.987,26.082V89.351z"/>
	<path fill="none" stroke="#FFFFFF" stroke-width="1.9" stroke-miterlimit="10" d="M90.685,89.351H86.31V71.346
		c0-11.969-9.694-21.707-21.612-21.707h-1.682c-12.021,0-21.802,9.738-21.802,21.707v15.145c0,0.168,0.002,0.336,0.005,0.504
		l0.049,2.187l-4.374,0.099l-0.049-2.188c-0.004-0.2-0.006-0.4-0.006-0.601V71.346c0-14.381,11.743-26.082,26.177-26.082h1.682
		c14.33,0,25.987,11.701,25.987,26.082V89.351z"/>
	<path d="M32.163,110.999c0.104,0.006,0.238,0.01,0.408,0.01c0.396,0,0.888-0.02,1.457-0.043c0.823-0.034,1.848-0.075,3.063-0.075
		H91.61c1.248,0,2.248,0.043,3.053,0.078c0.379,0.017,0.719,0.031,1.004,0.037c0.011-0.454,0.002-1.049-0.004-1.633
		c-0.007-0.54-0.014-1.153-0.014-1.849c0-5.753-4.68-10.433-10.434-10.433H42.476c-5.753,0-10.433,4.68-10.433,10.433
		C32.043,108.577,32.043,110.226,32.163,110.999 M32.564,115.383c-0.994,0-3.305-0.005-4.317-2.272
		c-0.552-1.239-0.579-2.849-0.579-5.587c0-8.164,6.642-14.808,14.808-14.808h42.739c8.166,0,14.809,6.644,14.809,14.808
		c0,0.677,0.007,1.271,0.014,1.797c0.029,2.54,0.047,3.939-1.047,5.047c-1.005,1.016-2.396,1.016-3.066,1.016
		c-0.422,0-0.899-0.02-1.451-0.044c-0.762-0.033-1.71-0.074-2.863-0.074H37.091c-1.126,0-2.061,0.038-2.885,0.071
		c-0.617,0.025-1.15,0.047-1.634,0.047H32.564z"/>
	<path fill="none" stroke="#FFFFFF" stroke-width="1.9" stroke-miterlimit="10" d="M32.163,110.999
		c0.104,0.006,0.238,0.01,0.408,0.01c0.396,0,0.888-0.02,1.457-0.043c0.823-0.034,1.848-0.075,3.063-0.075H91.61
		c1.248,0,2.248,0.043,3.053,0.078c0.379,0.017,0.719,0.031,1.004,0.037c0.011-0.454,0.002-1.049-0.004-1.633
		c-0.007-0.54-0.014-1.153-0.014-1.849c0-5.753-4.68-10.433-10.434-10.433H42.476c-5.753,0-10.433,4.68-10.433,10.433
		C32.043,108.577,32.043,110.226,32.163,110.999z M32.564,115.383c-0.994,0-3.305-0.005-4.317-2.272
		c-0.552-1.239-0.579-2.849-0.579-5.587c0-8.164,6.642-14.808,14.808-14.808h42.739c8.166,0,14.809,6.644,14.809,14.808
		c0,0.677,0.007,1.271,0.014,1.797c0.029,2.54,0.047,3.939-1.047,5.047c-1.005,1.016-2.396,1.016-3.066,1.016
		c-0.422,0-0.899-0.02-1.451-0.044c-0.762-0.033-1.71-0.074-2.863-0.074H37.091c-1.126,0-2.061,0.038-2.885,0.071
		c-0.617,0.025-1.15,0.047-1.634,0.047H32.564z"/>
	<path d="M80.795,77.958c-0.056,0-0.109-0.002-0.164-0.006c-1.205-0.09-2.109-1.139-2.021-2.344
		c0.032-0.435,0.049-0.875,0.049-1.312c0-4.479-1.747-8.778-4.793-11.797c-0.858-0.85-0.864-2.234-0.015-3.094
		c0.851-0.857,2.236-0.864,3.094-0.014c3.87,3.834,6.089,9.266,6.089,14.904c0,0.543-0.021,1.095-0.062,1.637
		C82.889,77.082,81.928,77.958,80.795,77.958"/>
	<path fill="none" stroke="#FFFFFF" stroke-width="1.9" stroke-miterlimit="10" d="M80.795,77.958c-0.056,0-0.109-0.002-0.164-0.006
		c-1.205-0.09-2.109-1.139-2.021-2.344c0.032-0.435,0.049-0.875,0.049-1.312c0-4.479-1.747-8.778-4.793-11.797
		c-0.858-0.85-0.864-2.234-0.015-3.094c0.851-0.857,2.236-0.864,3.094-0.014c3.87,3.834,6.089,9.266,6.089,14.904
		c0,0.543-0.021,1.095-0.062,1.637C82.889,77.082,81.928,77.958,80.795,77.958z"/>
	<path d="M69.747,59.381c-0.334,0-0.652-0.076-0.937-0.211c-0.943-0.243-1.64-1.1-1.64-2.118c0-1.208,0.979-2.188,2.188-2.188
		c0.264,0,0.814,0.092,1.324,0.346c0.185,0.087,0.355,0.198,0.507,0.33c0.039,0.034,0.077,0.069,0.112,0.105
		c0.09,0.09,0.17,0.187,0.242,0.29c0.25,0.354,0.396,0.788,0.396,1.255v0.01c-0.004,0.977-0.646,1.799-1.529,2.077
		C70.202,59.345,69.978,59.381,69.747,59.381"/>
	<path fill="none" stroke="#FFFFFF" stroke-width="1.9" stroke-miterlimit="10" d="M69.747,59.381c-0.334,0-0.652-0.076-0.937-0.211
		c-0.943-0.243-1.64-1.1-1.64-2.118c0-1.208,0.979-2.188,2.188-2.188c0.264,0,0.814,0.092,1.324,0.346
		c0.185,0.087,0.355,0.198,0.507,0.33c0.039,0.034,0.077,0.069,0.112,0.105c0.09,0.09,0.17,0.187,0.242,0.29
		c0.25,0.354,0.396,0.788,0.396,1.255v0.01c-0.004,0.977-0.646,1.799-1.529,2.077C70.202,59.345,69.978,59.381,69.747,59.381z"/>
	<path fill="#87BD40" d="M99.346,95.072c-1.188,0-2.162-0.951-2.187-2.145c-0.058-2.896,1.015-5.436,3.019-7.15
		c1.159-0.991,2.979-2.003,5.752-2.374c-1.218-1.679-2.025-3.629-2.369-5.778c-0.725-4.52,0.718-9.461,3.588-12.293
		c3.109-3.065,6.062-4.893,9.271-6.394c-5.961-0.534-12.438-2.275-16.592-7.161c-3.037-3.572-4.728-8.352-4.761-13.457
		c-0.014-2.122,0.254-4.221,0.781-6.226c-2.957,1.19-6.131,1.99-8.229,2.368c-6.366,1.148-11.757,0.222-15.59-2.682
		c-3.576-2.709-6.004-6.472-7.227-11.201c-1.572,3.465-4.05,6.677-7.902,9.258c-3.559,2.385-10.556,3.716-14.032,3.727
		c-3.128,0.009-6.541-0.95-9.534-2.529c2.562,9.021,1.825,15.678-2.201,20.63c-2.815,3.462-8.902,5.624-14.829,6.634
		c0.567,0.269,1.062,0.52,1.457,0.743c5.167,2.919,10.765,6.76,11.8,15.434c0.517,4.334-1.145,8.214-3.741,11.223
		c2.543,0.27,5.036,1.054,7.284,2.336c1.05,0.598,1.416,1.934,0.817,2.983c-0.598,1.05-1.935,1.415-2.984,0.816
		c-3.689-2.104-8.237-2.458-12.164-0.944c-1.108,0.426-2.355-0.11-2.808-1.208c-0.453-1.099,0.053-2.356,1.14-2.837
		c4.359-1.921,8.757-6.449,8.112-11.851c-0.718-6.021-4.067-9.012-9.608-12.143c-2.232-1.262-8.525-3.698-11.218-4.216
		c-1.186-0.228-1.963-1.374-1.735-2.56c0.227-1.187,1.373-1.963,2.56-1.737c0.004,0.001,0.007,0.002,0.011,0.003
		c5.758,1.098,19.043-1.171,22.511-5.437c3.944-4.852,3.596-12.374-1.094-23.677c-0.427-1.027-0.014-2.211,0.959-2.751
		c0.972-0.54,2.195-0.265,2.841,0.641c2.135,2.988,7.344,6.071,12.378,6.071h0.034c2.892-0.008,9.041-1.266,11.609-2.986
		c6.006-4.024,8.594-10.145,8.524-20.312c-0.015-0.509-0.024-1.016-0.029-1.523c-0.012-1.199,0.944-2.184,2.144-2.208
		c1.191-0.036,2.193,0.922,2.23,2.121c0.016,0.535,0.027,1.079,0.032,1.63c0.125,4.121,0.588,8.244,1.378,12.278
		c0.869,4.437,2.807,7.742,5.927,10.104c3.578,2.709,8.595,2.509,12.173,1.864c5.116-0.924,10.635-3.175,12.064-4.871
		c0.1-0.145,0.199-0.289,0.301-0.432c0.682-0.952,1.994-1.198,2.975-0.559c0.981,0.641,1.283,1.94,0.686,2.948
		c-0.115,0.194-0.246,0.386-0.391,0.573c-4.295,6.405-4.028,15.584,0.682,21.125c5.623,6.614,17.389,5.982,23.71,5.643l0.548-0.028
		c1.062-0.054,2.01,0.658,2.247,1.694c0.238,1.035-0.303,2.092-1.282,2.505c-1.644,0.693-3.146,1.283-4.599,1.854
		c-5.419,2.128-9.334,3.665-13.562,7.836c-1.59,1.567-2.903,4.986-2.343,8.487c0.343,2.138,1.533,5.074,5.259,6.925
		c0.975,0.483,1.444,1.61,1.104,2.644c-0.341,1.034-1.39,1.66-2.461,1.469c-3.972-0.705-7.082-0.305-8.761,1.133
		c-1.021,0.872-1.521,2.129-1.488,3.737c0.023,1.208-0.936,2.206-2.143,2.231C99.375,95.072,99.361,95.072,99.346,95.072"/>
	<path fill="none" stroke="#FFFFFF" stroke-width="1.9" stroke-miterlimit="10" d="M99.346,95.072c-1.188,0-2.162-0.951-2.187-2.145
		c-0.058-2.896,1.015-5.436,3.019-7.15c1.159-0.991,2.979-2.003,5.752-2.374c-1.218-1.679-2.025-3.629-2.369-5.778
		c-0.725-4.52,0.718-9.461,3.588-12.293c3.109-3.065,6.062-4.893,9.271-6.394c-5.961-0.534-12.438-2.275-16.592-7.161
		c-3.037-3.572-4.728-8.352-4.761-13.457c-0.014-2.122,0.254-4.221,0.781-6.226c-2.957,1.19-6.131,1.99-8.229,2.368
		c-6.366,1.148-11.757,0.222-15.59-2.682c-3.576-2.709-6.004-6.472-7.227-11.201c-1.572,3.465-4.05,6.677-7.902,9.258
		c-3.559,2.385-10.556,3.716-14.032,3.727c-3.128,0.009-6.541-0.95-9.534-2.529c2.562,9.021,1.825,15.678-2.201,20.63
		c-2.815,3.462-8.902,5.624-14.829,6.634c0.567,0.269,1.062,0.52,1.457,0.743c5.167,2.919,10.765,6.76,11.8,15.434
		c0.517,4.334-1.145,8.214-3.741,11.223c2.543,0.27,5.036,1.054,7.284,2.336c1.05,0.598,1.416,1.934,0.817,2.983
		c-0.598,1.05-1.935,1.415-2.984,0.816c-3.689-2.104-8.237-2.458-12.164-0.944c-1.108,0.426-2.355-0.11-2.808-1.208
		c-0.453-1.099,0.053-2.356,1.14-2.837c4.359-1.921,8.757-6.449,8.112-11.851c-0.718-6.021-4.067-9.012-9.608-12.143
		c-2.232-1.262-8.525-3.698-11.218-4.216c-1.186-0.228-1.963-1.374-1.735-2.56c0.227-1.187,1.373-1.963,2.56-1.737
		c0.004,0.001,0.007,0.002,0.011,0.003c5.758,1.098,19.043-1.171,22.511-5.437c3.944-4.852,3.596-12.374-1.094-23.677
		c-0.427-1.027-0.014-2.211,0.959-2.751c0.972-0.54,2.195-0.265,2.841,0.641c2.135,2.988,7.344,6.071,12.378,6.071h0.034
		c2.892-0.008,9.041-1.266,11.609-2.986c6.006-4.024,8.594-10.145,8.524-20.312c-0.015-0.509-0.024-1.016-0.029-1.523
		c-0.012-1.199,0.944-2.184,2.144-2.208c1.191-0.036,2.193,0.922,2.23,2.121c0.016,0.535,0.027,1.079,0.032,1.63
		c0.125,4.121,0.588,8.244,1.378,12.278c0.869,4.437,2.807,7.742,5.927,10.104c3.578,2.709,8.595,2.509,12.173,1.864
		c5.116-0.924,10.635-3.175,12.064-4.871c0.1-0.145,0.199-0.289,0.301-0.432c0.682-0.952,1.994-1.198,2.975-0.559
		c0.981,0.641,1.283,1.94,0.686,2.948c-0.115,0.194-0.246,0.386-0.391,0.573c-4.295,6.405-4.028,15.584,0.682,21.125
		c5.623,6.614,17.389,5.982,23.71,5.643l0.548-0.028c1.062-0.054,2.01,0.658,2.247,1.694c0.238,1.035-0.303,2.092-1.282,2.505
		c-1.644,0.693-3.146,1.283-4.599,1.854c-5.419,2.128-9.334,3.665-13.562,7.836c-1.59,1.567-2.903,4.986-2.343,8.487
		c0.343,2.138,1.533,5.074,5.259,6.925c0.975,0.483,1.444,1.61,1.104,2.644c-0.341,1.034-1.39,1.66-2.461,1.469
		c-3.972-0.705-7.082-0.305-8.761,1.133c-1.021,0.872-1.521,2.129-1.488,3.737c0.023,1.208-0.936,2.206-2.143,2.231
		C99.375,95.072,99.361,95.072,99.346,95.072z"/>
	<path fill="#87BD40" d="M48.098,21.922c-0.798,0-1.567-0.438-1.953-1.199l-4.038-7.964c-0.547-1.078-0.116-2.395,0.961-2.94
		c1.078-0.548,2.395-0.116,2.941,0.961l4.038,7.965c0.547,1.078,0.115,2.395-0.963,2.94C48.768,21.846,48.431,21.922,48.098,21.922"
		/>
	<path fill="none" stroke="#FFFFFF" stroke-width="1.9" stroke-miterlimit="10" d="M48.098,21.922c-0.798,0-1.567-0.438-1.953-1.199
		l-4.038-7.964c-0.547-1.078-0.116-2.395,0.961-2.94c1.078-0.548,2.395-0.116,2.941,0.961l4.038,7.965
		c0.547,1.078,0.115,2.395-0.963,2.94C48.768,21.846,48.431,21.922,48.098,21.922z"/>
	<path fill="#87BD40" d="M21.2,44.062c-0.503,0-1.008-0.173-1.421-0.524l-6.787-5.803c-0.918-0.785-1.026-2.166-0.241-3.085
		c0.786-0.918,2.166-1.025,3.085-0.241l6.787,5.804c0.918,0.785,1.026,2.166,0.241,3.084C22.431,43.802,21.817,44.062,21.2,44.062"
		/>
	<path fill="none" stroke="#FFFFFF" stroke-width="1.9" stroke-miterlimit="10" d="M21.2,44.062c-0.503,0-1.008-0.173-1.421-0.524
		l-6.787-5.803c-0.918-0.785-1.026-2.166-0.241-3.085c0.786-0.918,2.166-1.025,3.085-0.241l6.787,5.804
		c0.918,0.785,1.026,2.166,0.241,3.084C22.431,43.802,21.817,44.062,21.2,44.062z"/>
	<path fill="#87BD40" d="M14.47,77.141H9.758c-1.208,0-2.187-0.979-2.187-2.188c0-1.208,0.979-2.187,2.187-2.187h4.712
		c1.208,0,2.188,0.979,2.188,2.187C16.658,76.162,15.678,77.141,14.47,77.141"/>
	<path fill="none" stroke="#FFFFFF" stroke-width="1.9" stroke-miterlimit="10" d="M14.47,77.141H9.758
		c-1.208,0-2.187-0.979-2.187-2.188c0-1.208,0.979-2.187,2.187-2.187h4.712c1.208,0,2.188,0.979,2.188,2.187
		C16.658,76.162,15.678,77.141,14.47,77.141z"/>
	<path fill="#87BD40" d="M124.518,76.804h-7.066c-1.208,0-2.188-0.979-2.188-2.188c0-1.208,0.979-2.188,2.188-2.188h7.066
		c1.209,0,2.188,0.979,2.188,2.188C126.707,75.826,125.727,76.804,124.518,76.804"/>
	<path fill="none" stroke="#FFFFFF" stroke-width="1.9" stroke-miterlimit="10" d="M124.518,76.804h-7.066
		c-1.208,0-2.188-0.979-2.188-2.188c0-1.208,0.979-2.188,2.188-2.188h7.066c1.209,0,2.188,0.979,2.188,2.188
		C126.707,75.826,125.727,76.804,124.518,76.804z"/>
	<path fill="#87BD40" d="M109.797,44.736c-0.682,0-1.352-0.317-1.779-0.912c-0.704-0.981-0.48-2.349,0.502-3.053l6.311-4.528
		c0.98-0.705,2.348-0.479,3.052,0.501c0.704,0.982,0.479,2.35-0.503,3.054l-6.309,4.527
		C110.685,44.603,110.239,44.736,109.797,44.736"/>
	<path fill="none" stroke="#FFFFFF" stroke-width="1.9" stroke-miterlimit="10" d="M109.797,44.736
		c-0.682,0-1.352-0.317-1.779-0.912c-0.704-0.981-0.48-2.349,0.502-3.053l6.311-4.528c0.98-0.705,2.348-0.479,3.052,0.501
		c0.704,0.982,0.479,2.35-0.503,3.054l-6.309,4.527C110.685,44.603,110.239,44.736,109.797,44.736z"/>
	<path fill="#87BD40" d="M83.004,23.112c-0.328,0-0.662-0.074-0.977-0.23c-1.08-0.541-1.518-1.855-0.979-2.936l4.578-9.155
		c0.541-1.08,1.854-1.518,2.935-0.978c1.081,0.541,1.519,1.854,0.978,2.935l-4.576,9.155C84.58,22.668,83.807,23.112,83.004,23.112"
		/>
	<path fill="none" stroke="#FFFFFF" stroke-width="1.9" stroke-miterlimit="10" d="M83.004,23.112c-0.328,0-0.662-0.074-0.977-0.23
		c-1.08-0.541-1.518-1.855-0.979-2.936l4.578-9.155c0.541-1.08,1.854-1.518,2.935-0.978c1.081,0.541,1.519,1.854,0.978,2.935
		l-4.576,9.155C84.58,22.668,83.807,23.112,83.004,23.112z"/>
	<path fill="#87BD40" d="M24.316,18.893c-0.356,0-0.707-0.087-1.023-0.252c-1.166-0.187-1.977-1.271-1.821-2.449
		c0.146-1.097,1.082-1.896,2.16-1.898c0.656-0.14,1.706-0.084,2.54,1.258c0.637,1.026,0.323,2.374-0.704,3.012
		C25.109,18.788,24.71,18.893,24.316,18.893"/>
	<path fill="none" stroke="#FFFFFF" stroke-width="1.9" stroke-miterlimit="10" d="M24.316,18.893c-0.356,0-0.707-0.087-1.023-0.252
		c-1.166-0.187-1.977-1.271-1.821-2.449c0.146-1.097,1.082-1.896,2.16-1.898c0.656-0.14,1.706-0.084,2.54,1.258
		c0.637,1.026,0.323,2.374-0.704,3.012C25.109,18.788,24.71,18.893,24.316,18.893z"/>
	<path fill="#87BD40" d="M106.353,21.764c-0.828,0-1.585-0.469-1.956-1.208c-0.219-0.436-0.471-1.3,0.209-2.291l-0.003-0.001
		l0.077-0.104c0.002-0.002,0.004-0.004,0.004-0.006l0.219-0.29c0.723-0.968,2.095-1.165,3.062-0.441
		c0.573,0.43,0.877,1.087,0.877,1.753c0,0.456-0.143,0.915-0.437,1.309l-0.022,0.03c-0.01,0.013-0.019,0.024-0.028,0.037
		l-0.249,0.332l-0.006-0.004C107.715,21.345,107.223,21.764,106.353,21.764"/>
	<path fill="none" stroke="#FFFFFF" stroke-width="1.9" stroke-miterlimit="10" d="M106.353,21.764
		c-0.828,0-1.585-0.469-1.956-1.208c-0.219-0.436-0.471-1.3,0.209-2.291l-0.003-0.001l0.077-0.104
		c0.002-0.002,0.004-0.004,0.004-0.006l0.219-0.29c0.723-0.968,2.095-1.165,3.062-0.441c0.573,0.43,0.877,1.087,0.877,1.753
		c0,0.456-0.143,0.915-0.437,1.309l-0.022,0.03c-0.01,0.013-0.019,0.024-0.028,0.037l-0.249,0.332l-0.006-0.004
		C107.715,21.345,107.223,21.764,106.353,21.764z"/>
</g>
</svg>
