<?xml version="1.0" encoding="utf-8"?>
<!-- Generator: Adobe Illustrator 15.0.2, SVG Export Plug-In . SVG Version: 6.00 Build 0)  -->
<!DOCTYPE svg PUBLIC "-//W3C//DTD SVG 1.1//EN" "http://www.w3.org/Graphics/SVG/1.1/DTD/svg11.dtd">
<svg version="1.1" id="Layer_1" xmlns="http://www.w3.org/2000/svg" xmlns:xlink="http://www.w3.org/1999/xlink" x="0px" y="0px"
	 width="158px" height="157.647px" viewBox="0 0 158 157.647" enable-background="new 0 0 158 157.647" xml:space="preserve">
<g>
	<rect x="29.092" y="115.081" width="110.597" height="2.066"/>
</g>
<g>
	<path d="M123.462,124.521H45.319l-9.499-7.6c-0.445-0.356-0.518-1.007-0.161-1.452c0.357-0.445,1.007-0.517,1.452-0.161
		l8.933,7.146h76.694l8.934-7.146c0.446-0.357,1.097-0.282,1.452,0.161c0.356,0.445,0.284,1.096-0.161,1.452L123.462,124.521z"/>
</g>
<g>
	<path d="M95.449,155.856c-0.197,0-0.396-0.057-0.572-0.174c-0.475-0.316-0.603-0.958-0.286-1.433l10.993-16.49l5.489-14.635
		c0.2-0.535,0.8-0.804,1.329-0.604c0.534,0.2,0.806,0.795,0.604,1.329l-5.638,14.957l-11.06,16.59
		C96.11,155.694,95.783,155.856,95.449,155.856z"/>
</g>
<g>
	<path d="M53.054,152.17c-0.155,0-0.312-0.035-0.461-0.109c-0.51-0.255-0.717-0.875-0.462-1.386l5.42-10.843v-8.845l-1.812-7.25
		c-0.139-0.553,0.198-1.114,0.751-1.252c0.553-0.142,1.114,0.198,1.252,0.752l1.874,7.623v9.46l-5.639,11.278
		C53.798,151.961,53.433,152.17,53.054,152.17z M78.74,146.701l-8.185-4.092l-1.93-11.579l-1.826-7.293
		c-0.139-0.553,0.198-1.114,0.751-1.252c0.552-0.142,1.114,0.198,1.252,0.752l1.843,7.373l1.774,10.622l6.56,3.279l6.784-1.695
		l8.888-7.109l7.275-12.732c0.282-0.494,0.913-0.667,1.409-0.384c0.495,0.282,0.667,0.914,0.384,1.409l-7.471,13.074l-9.548,7.637
		L78.74,146.701z"/>
</g>
<g>
	<path d="M78.861,146.64c-0.264,0-0.529-0.101-0.73-0.303c-0.403-0.403-0.403-1.058,0-1.461l9.075-9.076l5.452-12.72
		c0.225-0.523,0.83-0.77,1.356-0.542c0.524,0.225,0.767,0.832,0.542,1.356l-5.608,13.085l-9.356,9.357
		C79.39,146.538,79.125,146.64,78.861,146.64z"/>
</g>
<g>
	<g>
		<path d="M78.314,107.77H55.03c-4.624,0-8.386-3.763-8.386-8.387V79.775c0-21.501,9.402-26.52,15.624-29.841
			c1.222-0.652,2.329-1.243,3.225-1.875c-0.292-0.38-0.466-0.856-0.466-1.372v-2.451c0-1.246,1.013-2.259,2.259-2.259H79.54
			c1.245,0,2.258,1.014,2.258,2.259v2.451c0,0.51-0.17,0.981-0.457,1.36c0.94,0.635,2.114,1.199,3.411,1.822
			c6.511,3.127,15.428,7.41,15.428,28.68h-2.066c0-19.971-8.239-23.928-14.256-26.818c-1.859-0.893-3.485-1.674-4.728-2.786H67.696
			c-1.177,1.062-2.708,1.878-4.456,2.812C57.108,55.03,48.71,59.513,48.71,79.775v19.607c0,3.485,2.835,6.32,6.32,6.32h23.285
			V107.77z M67.285,44.043c-0.108,0-0.192,0.084-0.192,0.193v2.451c0,0.108,0.084,0.192,0.192,0.192H79.54
			c0.105,0,0.191-0.086,0.191-0.192v-2.451c0-0.108-0.084-0.193-0.191-0.193H67.285z M83.216,73.455h-2.451v-2.066h2.451V73.455z
			 M66.059,73.455h-2.451v-2.066h2.451V73.455z"/>
	</g>
</g>
<g>
	<path d="M78.314,44.043H68.51c-0.391,0-0.749-0.221-0.924-0.571l-4.902-9.804c-0.255-0.51-0.048-1.131,0.462-1.386l4.902-2.451
		c0.291-0.146,0.633-0.146,0.924,0l4.44,2.22l4.44-2.22c0.291-0.146,0.633-0.146,0.924,0l4.901,2.451
		c0.511,0.255,0.717,0.875,0.462,1.386l-4.901,9.804C79.063,43.822,78.706,44.043,78.314,44.043z M69.148,41.977h8.527l4.154-8.309
		l-3.516-1.758l-4.44,2.22c-0.291,0.146-0.633,0.146-0.924,0l-4.44-2.22l-3.516,1.758L69.148,41.977z"/>
</g>
<g>
	<g>
		<path d="M117.529,107.769h-9.804c-0.451,0-0.872-0.133-1.226-0.362c-0.353,0.229-0.773,0.362-1.225,0.362h-9.805
			c-0.451,0-0.873-0.133-1.227-0.362c-0.353,0.229-0.773,0.362-1.225,0.362h-9.804c-1.245,0-2.259-1.013-2.259-2.258v-2.451
			c0-0.451,0.134-0.872,0.362-1.226c-0.229-0.354-0.362-0.774-0.362-1.226v-2.451c0-0.451,0.134-0.872,0.362-1.225
			c-0.229-0.354-0.362-0.775-0.362-1.227v-2.45c0-1.245,1.014-2.259,2.259-2.259h9.804c0.067,0,0.135,0.003,0.2,0.009
			c-0.006-0.066-0.009-0.133-0.009-0.201v-2.451c0-0.452,0.134-0.873,0.362-1.226c-0.229-0.353-0.362-0.774-0.362-1.226v-2.451
			c0-1.245,1.014-2.258,2.26-2.258h9.805c0.067,0,0.135,0.003,0.2,0.009c-0.006-0.067-0.009-0.134-0.009-0.203v-2.45
			c0-0.452,0.134-0.873,0.362-1.226c-0.229-0.353-0.362-0.774-0.362-1.226v-2.451c0-1.245,1.014-2.258,2.259-2.258h9.804
			c1.245,0,2.259,1.013,2.259,2.258v2.451c0,0.452-0.134,0.873-0.362,1.226c0.229,0.353,0.362,0.774,0.362,1.226V81
			c0,0.452-0.134,0.873-0.362,1.226c0.229,0.353,0.362,0.774,0.362,1.225v2.451c0,0.452-0.134,0.873-0.362,1.226
			c0.229,0.353,0.362,0.774,0.362,1.226v2.451c0,0.451-0.134,0.872-0.362,1.226c0.229,0.354,0.362,0.774,0.362,1.226v2.45
			c0,0.451-0.134,0.873-0.362,1.227c0.229,0.353,0.362,0.773,0.362,1.225v2.451c0,0.451-0.134,0.872-0.362,1.226
			c0.229,0.354,0.362,0.774,0.362,1.226v2.451C119.788,106.756,118.774,107.769,117.529,107.769z M107.726,102.867
			c-0.106,0-0.192,0.086-0.192,0.192v2.451c0,0.105,0.086,0.191,0.192,0.191h9.804c0.106,0,0.192-0.086,0.192-0.191v-2.451
			c0-0.106-0.086-0.192-0.192-0.192H107.726z M95.471,102.867c-0.106,0-0.193,0.086-0.193,0.192v2.451
			c0,0.105,0.087,0.191,0.193,0.191h9.805c0.105,0,0.191-0.086,0.191-0.191v-2.451c0-0.106-0.086-0.192-0.191-0.192H95.471z
			 M83.216,102.867c-0.106,0-0.192,0.086-0.192,0.192v2.451c0,0.105,0.086,0.191,0.192,0.191h9.804c0.107,0,0.191-0.084,0.191-0.191
			v-2.451c0-0.106-0.086-0.192-0.191-0.192H83.216z M107.726,100.801h9.804c0.106,0,0.192-0.086,0.192-0.192v-2.451
			c0-0.105-0.086-0.191-0.192-0.191h-9.804c-0.106,0-0.192,0.086-0.192,0.191v2.451
			C107.533,100.715,107.619,100.801,107.726,100.801z M95.471,100.801h9.805c0.105,0,0.191-0.086,0.191-0.192v-2.451
			c0-0.105-0.086-0.191-0.191-0.191h-9.805c-0.106,0-0.193,0.086-0.193,0.191v2.451C95.277,100.715,95.364,100.801,95.471,100.801z
			 M83.216,100.801h9.804c0.105,0,0.191-0.086,0.191-0.192v-2.451c0-0.107-0.084-0.191-0.191-0.191h-9.804
			c-0.106,0-0.192,0.086-0.192,0.191v2.451C83.023,100.715,83.109,100.801,83.216,100.801z M107.726,95.899h9.804
			c0.106,0,0.192-0.087,0.192-0.193v-2.45c0-0.108-0.084-0.192-0.192-0.192h-9.804c-0.108,0-0.192,0.084-0.192,0.192v2.45
			C107.533,95.812,107.619,95.899,107.726,95.899z M95.471,95.899h9.805c0.105,0,0.191-0.087,0.191-0.193v-2.45
			c0-0.106-0.086-0.192-0.191-0.192h-9.805c-0.106,0-0.193,0.086-0.193,0.192v2.45C95.277,95.812,95.364,95.899,95.471,95.899z
			 M83.216,95.899h9.804c0.107,0,0.191-0.085,0.191-0.193v-2.45c0-0.108-0.084-0.192-0.191-0.192h-9.804
			c-0.106,0-0.192,0.086-0.192,0.192v2.45C83.023,95.812,83.109,95.899,83.216,95.899z M107.726,90.997h9.804
			c0.106,0,0.192-0.086,0.192-0.192v-2.451c0-0.106-0.086-0.192-0.192-0.192h-9.804c-0.106,0-0.192,0.086-0.192,0.192v2.451
			C107.533,90.911,107.619,90.997,107.726,90.997z M95.471,90.997h9.805c0.105,0,0.191-0.086,0.191-0.192v-2.451
			c0-0.106-0.086-0.192-0.191-0.192h-9.805c-0.106,0-0.193,0.086-0.193,0.192v2.451C95.277,90.911,95.364,90.997,95.471,90.997z
			 M107.726,86.095h9.804c0.108,0,0.192-0.084,0.192-0.192v-2.451c0-0.105-0.086-0.191-0.192-0.191h-9.804
			c-0.106,0-0.192,0.086-0.192,0.191v2.451C107.533,86.01,107.617,86.095,107.726,86.095z M95.471,86.095h9.805
			c0.105,0,0.191-0.086,0.191-0.192v-2.451c0-0.105-0.086-0.191-0.191-0.191h-9.805c-0.106,0-0.193,0.086-0.193,0.191v2.451
			C95.277,86.008,95.364,86.095,95.471,86.095z M107.726,81.193h9.804c0.108,0,0.192-0.085,0.192-0.193v-2.45
			c0-0.108-0.084-0.192-0.192-0.192h-9.804c-0.108,0-0.192,0.084-0.192,0.192V81C107.533,81.108,107.617,81.193,107.726,81.193z
			 M107.726,76.291h9.804c0.108,0,0.192-0.084,0.192-0.192v-2.451c0-0.105-0.086-0.191-0.192-0.191h-9.804
			c-0.106,0-0.192,0.086-0.192,0.191v2.451C107.533,76.207,107.617,76.291,107.726,76.291z M73.412,88.161
			c-8.679,0-15.74-7.06-15.74-15.738c0-8.679,7.061-15.74,15.74-15.74c8.678,0,15.738,7.061,15.738,15.74
			C89.15,81.101,82.09,88.161,73.412,88.161z M73.412,58.75c-7.54,0-13.673,6.134-13.673,13.673c0,7.539,6.134,13.672,13.673,13.672
			c7.539,0,13.672-6.133,13.672-13.672C87.084,64.883,80.951,58.75,73.412,58.75z M80.765,46.495v-2.066
			c2.134,0,3.869-1.735,3.869-3.869H86.7C86.7,43.832,84.037,46.495,80.765,46.495z M66.059,46.495
			c-3.272,0-5.935-2.663-5.935-5.935h2.066c0,2.133,1.735,3.869,3.869,3.869V46.495z"/>
	</g>
	<g>
		<path fill="#87BD40" d="M37.299,33.356l-7.806-8.102l1.365-1.315l7.806,8.102L37.299,33.356z M132.333,33.356l-1.365-1.315
			l7.806-8.102l1.365,1.315L132.333,33.356z M109.087,19.607l-1.709-0.823l5.205-10.802l1.709,0.823L109.087,19.607z M60.545,19.607
			L55.341,8.805l1.708-0.823l5.204,10.802L60.545,19.607z M85.765,13.794h-1.896V2.992h1.896V13.794z"/>
	</g>
	<g>
		<path fill="#87BD40" d="M74.271,84.051h-2.066v-2.758c-2.101-0.472-3.676-2.353-3.676-4.595h2.066
			c0,1.457,1.186,2.643,2.643,2.643v1.033v-1.033c1.458,0,2.644-1.186,2.644-2.643c0-0.922-1.83-2.176-3.066-2.733
			c-0.715-0.32-4.286-2.051-4.286-4.62c0-2.242,1.575-4.123,3.676-4.595v-2.758h2.066v2.758c2.102,0.472,3.677,2.353,3.677,4.595
			h-2.066c0-1.457-1.186-2.643-2.644-2.643v-1.033v1.033c-1.457,0-2.643,1.186-2.643,2.643c0,0.923,1.83,2.178,3.066,2.735
			c0.715,0.32,4.287,2.049,4.287,4.618c0,2.242-1.575,4.123-3.677,4.595V84.051z"/>
	</g>
	<g>
		<path fill="#87BD40" d="M117.592,65.76h-9.804c-1.245,0-2.259-1.013-2.259-2.258v-2.451c0-1.245,1.014-2.258,2.259-2.258h9.804
			c1.245,0,2.259,1.013,2.259,2.258v2.451C119.851,64.747,118.837,65.76,117.592,65.76z M107.788,60.859
			c-0.106,0-0.192,0.086-0.192,0.191v2.451c0,0.108,0.084,0.192,0.192,0.192h9.804c0.108,0,0.192-0.084,0.192-0.192v-2.451
			c0-0.105-0.086-0.191-0.192-0.191H107.788z M111.272,56.149h-2.066v-9.804h2.066V56.149z M116.174,53.698h-2.066v-2.451h2.066
			V53.698z M116.174,48.796h-2.066v-9.804h2.066V48.796z M111.272,43.894h-2.066v-2.451h2.066V43.894z"/>
	</g>
</g>
</svg>
