<?xml version="1.0" encoding="utf-8"?>
<!-- Generator: Adobe Illustrator 15.0.2, SVG Export Plug-In . SVG Version: 6.00 Build 0)  -->
<!DOCTYPE svg PUBLIC "-//W3C//DTD SVG 1.1//EN" "http://www.w3.org/Graphics/SVG/1.1/DTD/svg11.dtd">
<svg version="1.1" id="Layer_1" xmlns="http://www.w3.org/2000/svg" xmlns:xlink="http://www.w3.org/1999/xlink" x="0px" y="0px"
	 width="111px" height="97px" viewBox="123.5 130.5 111 97" enable-background="new 123.5 130.5 111 97" xml:space="preserve">
<g>
	<path fill="#212929" d="M219.01,200.676c7.553-1.749,12.242-8.824,12.242-19.01c0-10.112-6.898-17.739-16.051-17.739h-0.844v-0.846
		c0-6.941-3.773-14.36-14.362-14.36h-2.188l-0.238-0.436c-4.539-8.191-13.104-13.082-22.916-13.082
		c-14.44,0-26.188,11.748-26.188,26.189v0.844h-0.845c-10.713,0-19.43,8.717-19.43,19.43c0,10.714,8.717,19.432,19.43,19.432v1.688
		c-11.646,0-21.119-9.474-21.119-21.12c0-11.365,9.025-20.665,20.286-21.103c0.44-14.991,12.77-27.049,27.866-27.049
		c10.259,0,19.248,5.043,24.146,13.516h1.196c9.474,0,15.69,5.946,16.036,15.225c9.699,0.443,16.91,8.64,16.91,19.411
		c0,11.275-5.377,19.044-13.996,20.762C217.758,202.664,217.811,200.953,219.01,200.676"/>
	<path fill="none" stroke="#212929" stroke-width="1.56" stroke-miterlimit="10" d="M161.32,214.893h-4.368 M161.32,210.523h-4.368
		 M161.32,206.156h-4.368 M161.32,201.788h-4.368 M161.32,197.42h-4.368 M161.32,193.052h-4.368 M207.184,214.893h-4.367
		 M207.184,210.523h-4.367 M207.184,206.156h-4.367 M207.184,201.788h-4.367 M207.184,197.42h-4.367 M207.184,193.052h-4.367
		 M207.184,185.408l-4.367,4.367v28.393l4.367,4.368 M156.952,185.408l4.368,4.367v28.393l-4.368,4.368 M207.184,221.443
		c0,1.803-1.473,3.275-3.274,3.275h-43.68c-1.802,0-3.276-1.474-3.276-3.275V186.5c0-1.802,1.474-3.275,3.276-3.275h43.68
		c1.803,0,3.274,1.475,3.274,3.275v10.92V221.443L207.184,221.443z M194.08,179.948v-5.46c0-6.006-4.914-10.92-10.92-10.92h-2.184
		c-6.006,0-10.92,4.914-10.92,10.92v5.46 M200.633,183.225v-8.735c0-9.609-7.863-17.473-17.473-17.473h-2.184
		c-9.609,0-17.473,7.863-17.473,17.473v8.736"/>
	<path fill="none" stroke="#FF7800" stroke-width="1.95" stroke-miterlimit="10" d="M196.264,203.527
		c0,7.842-6.354,14.197-14.195,14.197c-7.839,0-14.195-6.355-14.195-14.197c0-7.84,6.356-14.194,14.195-14.194
		c1.938,0,3.783,0.388,5.467,1.09 M177.7,199.161l4.368,4.366l9.828-9.826l3.274,3.275l-13.104,13.104l-7.644-7.645L177.7,199.161z"
		/>
</g>
</svg>
