<?xml version="1.0" encoding="utf-8"?>
<!-- Generator: Adobe Illustrator 15.0.2, SVG Export Plug-In . SVG Version: 6.00 Build 0)  -->
<!DOCTYPE svg PUBLIC "-//W3C//DTD SVG 1.1//EN" "http://www.w3.org/Graphics/SVG/1.1/DTD/svg11.dtd">
<svg version="1.1" id="Layer_1" xmlns="http://www.w3.org/2000/svg" xmlns:xlink="http://www.w3.org/1999/xlink" x="0px" y="0px"
	 width="100.667px" height="80.333px" viewBox="-58.415 -2.499 100.667 80.333"
	 enable-background="new -58.415 -2.499 100.667 80.333" xml:space="preserve">
<g>
	<g>
		<path fill="#231F20" d="M-37.532,13.746c1.267,35.008,23.787,52.252,29.863,56.278c6.076-4.025,28.598-21.27,29.863-56.278h-8.847
			c-10.967,0-17.612-4.941-21.016-8.568c-3.404,3.627-10.049,8.568-21.006,8.568H-37.532z M-7.668,76.773h-0.596l-0.881-0.375
			c-0.339-0.182-34.636-19.146-34.636-65.752c0-1.709,1.396-3.1,3.101-3.1h12.006c12.692,0,18.115-8.627,18.344-8.994
			c1.029-1.793,4.267-1.84,5.351,0.047c0.202,0.32,5.625,8.947,18.327,8.947h12.004c1.707,0,3.093,1.391,3.093,3.1
			c0,46.606-34.297,65.571-34.644,65.756l-0.524,0.279L-7.668,76.773z"/>
	</g>
	<g>
		<path fill="#FFFFFF" d="M-7.568,78.834h-1.117l-1.434-0.619c-0.357-0.191-35.723-19.703-35.723-67.569
			c0-2.845,2.315-5.16,5.162-5.16h12.006c11.459,0,16.391-7.696,16.595-8.024c0.808-1.411,2.51-2.327,4.403-2.327
			c1.901,0,3.619,0.934,4.483,2.438c0.163,0.254,5.126,7.913,16.541,7.913h12.004c2.841,0,5.153,2.315,5.153,5.16
			c0,47.92-35.376,67.382-35.733,67.574l-0.888,0.473L-7.568,78.834z M-7.844,74.713l0.513-0.042l0.162-0.087
			c0.326-0.178,33.553-18.816,33.553-63.938c0-0.573-0.463-1.039-1.032-1.039H13.348c-13.43,0-19.429-8.893-20.069-9.907
			c-0.17-0.292-0.544-0.444-0.955-0.444c-0.427,0-0.777,0.164-0.868,0.322C-9.218,0.663-15.186,9.607-28.674,9.607h-12.006
			c-0.574,0-1.041,0.466-1.041,1.039c0,44.097,31.757,62.913,33.485,63.9L-7.844,74.713z M-7.668,72.495l-1.138-0.754
			C-15.702,67.173-38.3,49.496-39.591,13.82l-0.077-2.135h10.994c9.978,0,16.113-4.306,19.503-7.918l1.502-1.601l1.502,1.601
			c3.39,3.612,9.527,7.918,19.514,7.918h10.983l-0.077,2.135C22.965,49.495,0.365,67.173-6.53,71.741L-7.668,72.495z
			 M-35.368,15.806c1.908,30.548,20.351,46.533,27.699,51.72c7.349-5.188,25.793-21.173,27.699-51.72h-6.683
			c-10.132,0-16.864-3.918-21.016-7.732c-4.151,3.814-10.881,7.732-21.006,7.732H-35.368z"/>
	</g>
</g>
<g>
	<rect x="-70.417" y="19.794" fill="#FFFFFF" width="129.943" height="31.485"/>
</g>
<g>
	<path fill="#FF05A1" d="M39.834,51.271h-18.41c-0.39,0-0.742-0.235-0.892-0.596s-0.067-0.775,0.209-1.052l4.489-4.489H-0.971v-1.93
		h27.568V23.657H-0.971v-1.93h28.533c0.533,0,0.965,0.432,0.965,0.965v5.172h11.308c0.344,0,0.662,0.183,0.834,0.48
		c0.173,0.297,0.174,0.665,0.003,0.963l-5.863,10.259l5.863,10.261c0.17,0.299,0.169,0.665-0.003,0.963
		C40.497,51.089,40.179,51.271,39.834,51.271z M23.754,49.342h14.417l-5.312-9.296c-0.169-0.296-0.169-0.661,0-0.958l5.312-9.294
		h-9.645V44.17c0,0.267-0.108,0.509-0.284,0.684L23.754,49.342z M-36.872,51.271h-18.41c-0.344,0-0.662-0.183-0.834-0.48
		c-0.173-0.298-0.174-0.664-0.003-0.963l5.863-10.261l-5.863-10.259c-0.17-0.299-0.169-0.666,0.003-0.963
		c0.172-0.297,0.49-0.48,0.834-0.48h11.308v-5.172c0-0.533,0.432-0.965,0.965-0.965h28.644v1.93h-27.679v19.548h26.649v1.93h-25.284
		l4.489,4.489c0.276,0.276,0.359,0.691,0.209,1.052S-36.482,51.271-36.872,51.271z M-53.62,49.342h14.417l-4.488-4.488
		c-0.175-0.175-0.284-0.416-0.284-0.684V29.793h-9.645l5.312,9.294c0.169,0.297,0.169,0.661,0,0.958L-53.62,49.342z"/>
</g>
<g>
	<g>
		<path fill="#FFFFFF" d="M-8.148,47.193c7.417,0,13.429-6.008,13.429-13.43c0-7.414-6.012-13.422-13.429-13.422
			s-13.429,6.008-13.429,13.422C-21.577,41.186-15.565,47.193-8.148,47.193"/>
	</g>
</g>
<g>
	<path fill="#FF05A1" d="M-7.712,30.965l0.604,1.857h1.953l-1.58,1.334l0.603,1.95l-1.58-1.101l-1.58,1.17l0.603-2.031l-1.58-1.322
		h1.954L-7.712,30.965z M-7.712,27.466l1.35,4.154h4.368l-3.534,2.841l1.35,4.29l-3.534-2.498l-3.534,2.601l1.35-4.409l-3.534-2.824
		h4.368L-7.712,27.466z"/>
</g>
<g>
	<path fill="#FF05A1" d="M-11.246,39.274c-0.085,0-0.17-0.026-0.243-0.077c-0.147-0.105-0.211-0.292-0.158-0.466l1.266-4.136
		l-3.311-2.646c-0.139-0.111-0.193-0.299-0.134-0.467c0.059-0.168,0.218-0.281,0.396-0.281h4.062l1.256-3.864
		c0.112-0.346,0.687-0.346,0.799,0l1.256,3.864h4.062c0.178,0,0.337,0.112,0.396,0.28c0.06,0.168,0.006,0.355-0.133,0.467
		l-3.31,2.661l1.264,4.017c0.054,0.172-0.007,0.359-0.153,0.465s-0.343,0.108-0.49,0.003l-3.287-2.323l-3.29,2.421
		C-11.071,39.247-11.159,39.274-11.246,39.274z M-12.231,32.041l2.598,2.076c0.135,0.107,0.19,0.287,0.139,0.451l-0.979,3.196
		l2.512-1.849c0.146-0.107,0.344-0.109,0.491-0.004l2.518,1.779l-0.976-3.103c-0.052-0.165,0.002-0.345,0.137-0.453l2.604-2.094
		h-3.175c-0.182,0-0.343-0.117-0.399-0.29l-0.951-2.925l-0.951,2.925c-0.056,0.173-0.217,0.29-0.399,0.29H-12.231z M-9.292,36.596
		c-0.084,0-0.168-0.025-0.241-0.076c-0.148-0.104-0.213-0.291-0.162-0.464l0.525-1.767l-1.369-1.145
		c-0.136-0.114-0.186-0.3-0.125-0.466c0.06-0.166,0.218-0.276,0.395-0.276h1.649l0.509-1.567c0.112-0.345,0.686-0.346,0.799,0
		l0.51,1.567h1.648c0.176,0,0.334,0.11,0.395,0.276c0.061,0.166,0.011,0.351-0.124,0.465l-1.368,1.155l0.521,1.685
		c0.053,0.171-0.009,0.357-0.153,0.463c-0.145,0.107-0.341,0.108-0.488,0.006l-1.333-0.928l-1.337,0.99
		C-9.116,36.569-9.204,36.596-9.292,36.596z M-9.113,33.243l0.693,0.58c0.128,0.107,0.181,0.281,0.133,0.442l-0.246,0.826
		l0.57-0.422c0.146-0.108,0.342-0.111,0.49-0.007l0.578,0.403l-0.242-0.784c-0.05-0.161,0.001-0.336,0.13-0.445l0.703-0.593h-0.805
		c-0.182,0-0.343-0.117-0.399-0.29l-0.204-0.628l-0.204,0.628c-0.056,0.173-0.217,0.29-0.399,0.29H-9.113z"/>
</g>
<g>
	<g>
		<path fill="#FF05A1" d="M-7.669,47.748c-7.708,0-13.98-6.271-13.98-13.98c0-7.709,6.271-13.981,13.98-13.981
			c7.709,0,13.98,6.272,13.98,13.981C6.311,41.477,0.04,47.748-7.669,47.748z M-7.669,21.298c-6.875,0-12.468,5.594-12.468,12.47
			c0,6.875,5.593,12.468,12.468,12.468S4.799,40.643,4.799,33.768C4.799,26.892-0.794,21.298-7.669,21.298z"/>
	</g>
</g>
<g>
	<path fill="#FF05A1" d="M-31.44,31.411l0.477,1.47h1.546l-1.25,1.055l0.477,1.544l-1.25-0.871l-1.25,0.926l0.477-1.606l-1.25-1.047
		h1.546L-31.44,31.411z M-31.44,28.644l1.068,3.285h3.454l-2.795,2.248l1.068,3.393l-2.795-1.976l-2.795,2.058l1.068-3.488
		l-2.795-2.234h3.454L-31.44,28.644z"/>
</g>
<g>
	<path fill="#FF05A1" d="M-34.235,37.984c-0.067,0-0.135-0.021-0.192-0.061c-0.117-0.083-0.167-0.232-0.125-0.369l1.001-3.272
		l-2.618-2.093c-0.11-0.088-0.153-0.236-0.106-0.37c0.047-0.133,0.173-0.223,0.314-0.223h3.212l0.993-3.056
		c0.09-0.273,0.543-0.273,0.633,0l0.994,3.056h3.212c0.141,0,0.267,0.089,0.313,0.222c0.047,0.133,0.005,0.281-0.105,0.37
		l-2.618,2.105l1,3.176c0.042,0.136-0.006,0.284-0.122,0.368s-0.271,0.085-0.388,0.003l-2.599-1.837l-2.602,1.915
		C-34.096,37.963-34.166,37.984-34.235,37.984z M-35.014,32.262l2.054,1.642c0.106,0.085,0.15,0.227,0.11,0.357l-0.773,2.528
		l1.985-1.462c0.115-0.085,0.272-0.086,0.389-0.004l1.99,1.406l-0.772-2.452c-0.041-0.13,0.002-0.273,0.109-0.359l2.06-1.656h-2.51
		c-0.144,0-0.271-0.093-0.316-0.229l-0.752-2.313l-0.751,2.313c-0.045,0.137-0.172,0.229-0.316,0.229H-35.014z M-32.69,35.866
		c-0.067,0-0.133-0.02-0.191-0.06c-0.117-0.082-0.168-0.23-0.128-0.367l0.415-1.397l-1.083-0.907
		c-0.107-0.09-0.147-0.237-0.099-0.369c0.048-0.131,0.173-0.219,0.312-0.219h1.304l0.402-1.24c0.089-0.274,0.544-0.274,0.633,0
		l0.402,1.24h1.304c0.14,0,0.264,0.087,0.312,0.218c0.048,0.131,0.009,0.278-0.098,0.368l-1.082,0.913l0.412,1.333
		c0.042,0.136-0.007,0.283-0.122,0.367c-0.115,0.084-0.271,0.085-0.386,0.004l-1.054-0.735l-1.058,0.784
		C-32.551,35.844-32.62,35.866-32.69,35.866z M-32.548,33.213L-32,33.672c0.102,0.085,0.143,0.223,0.105,0.35l-0.194,0.652
		l0.45-0.333c0.113-0.085,0.27-0.088,0.388-0.006l0.457,0.318l-0.192-0.62c-0.039-0.127,0.001-0.266,0.104-0.352l0.555-0.468h-0.636
		c-0.144,0-0.272-0.093-0.316-0.23l-0.161-0.495l-0.161,0.495c-0.044,0.137-0.172,0.23-0.316,0.23H-32.548z"/>
</g>
<g>
	<path fill="#FF05A1" d="M15.144,31.833l0.477,1.47h1.546l-1.25,1.055l0.477,1.544l-1.25-0.871l-1.25,0.926l0.477-1.606l-1.25-1.047
		h1.546L15.144,31.833z M15.144,29.066l1.068,3.285h3.454l-2.795,2.248l1.068,3.393l-2.795-1.976l-2.795,2.058l1.068-3.488
		l-2.795-2.234h3.454L15.144,29.066z"/>
</g>
<g>
	<path fill="#FF05A1" d="M12.349,38.406c-0.067,0-0.135-0.021-0.192-0.061c-0.117-0.083-0.167-0.232-0.125-0.369l1.001-3.272
		l-2.618-2.093c-0.11-0.088-0.153-0.236-0.106-0.37c0.047-0.133,0.173-0.223,0.314-0.223h3.212l0.993-3.056
		c0.09-0.273,0.543-0.273,0.633,0l0.994,3.056h3.212c0.141,0,0.267,0.089,0.313,0.222c0.047,0.133,0.005,0.281-0.105,0.37
		l-2.618,2.105l1,3.176c0.042,0.136-0.006,0.284-0.122,0.368c-0.114,0.084-0.271,0.085-0.388,0.003l-2.599-1.837l-2.602,1.915
		C12.488,38.385,12.418,38.406,12.349,38.406z M11.57,32.684l2.054,1.642c0.106,0.085,0.15,0.227,0.11,0.357l-0.773,2.528
		l1.985-1.462c0.115-0.085,0.272-0.086,0.389-0.004l1.99,1.406l-0.772-2.452c-0.041-0.13,0.002-0.273,0.109-0.359l2.06-1.656h-2.51
		c-0.144,0-0.271-0.093-0.316-0.229l-0.752-2.313l-0.751,2.313c-0.045,0.137-0.172,0.229-0.316,0.229H11.57z M13.894,36.288
		c-0.067,0-0.133-0.02-0.191-0.06c-0.117-0.082-0.168-0.23-0.128-0.367l0.415-1.397l-1.083-0.907
		c-0.107-0.09-0.147-0.237-0.099-0.369c0.048-0.131,0.173-0.219,0.312-0.219h1.304l0.402-1.24c0.089-0.274,0.544-0.274,0.633,0
		l0.402,1.24h1.304c0.14,0,0.264,0.087,0.312,0.218c0.048,0.131,0.009,0.278-0.098,0.368L16.3,34.469l0.412,1.333
		c0.042,0.136-0.007,0.283-0.122,0.367s-0.27,0.085-0.386,0.004l-1.054-0.735l-1.058,0.784
		C14.033,36.266,13.964,36.288,13.894,36.288z M14.036,33.635l0.548,0.459c0.102,0.085,0.143,0.223,0.105,0.35l-0.194,0.652
		l0.45-0.333c0.115-0.085,0.27-0.087,0.388-0.006l0.457,0.318l-0.192-0.62c-0.039-0.127,0.001-0.266,0.104-0.352l0.555-0.468h-0.636
		c-0.144,0-0.272-0.093-0.316-0.23l-0.161-0.495l-0.161,0.495c-0.044,0.137-0.172,0.23-0.316,0.23H14.036z"/>
</g>
</svg>
