<?xml version="1.0" encoding="utf-8"?>
<!-- Generator: Adobe Illustrator 15.0.2, SVG Export Plug-In . SVG Version: 6.00 Build 0)  -->
<!DOCTYPE svg PUBLIC "-//W3C//DTD SVG 1.1//EN" "http://www.w3.org/Graphics/SVG/1.1/DTD/svg11.dtd">
<svg version="1.1" id="Layer_1" xmlns="http://www.w3.org/2000/svg" xmlns:xlink="http://www.w3.org/1999/xlink" x="0px" y="0px"
	 width="81.667px" height="84px" viewBox="-49.748 -4.499 81.667 84" enable-background="new -49.748 -4.499 81.667 84"
	 xml:space="preserve">
<g>
	<rect x="-24.601" y="70.294" fill="#212929" width="32.164" height="1.545"/>
</g>
<g>
	<g>
		<polygon fill="#212929" points="21.072,32.315 19.527,32.315 19.527,8.612 9.865,-1.051 -37.089,-1.051 -37.089,32.315 
			-38.634,32.315 -38.634,-2.596 10.505,-2.596 21.072,7.972 		"/>
	</g>
	<g>
		<path fill="#212929" d="M-42.147,66.454h-1.545v-3.668l-5.019-15.054c-0.053-0.16-0.053-0.334,0.002-0.493l3.882-11.38
			c0.058-0.171,0.175-0.316,0.33-0.411l6.234-3.793l0.803,1.32l-5.995,3.647l-3.707,10.868l4.976,14.926
			c0.026,0.079,0.04,0.161,0.04,0.244V66.454z"/>
	</g>
	<g>
		<path fill="#212929" d="M-26.974,66.646h-1.545v-15.28l-2.529-11.465v-7.586c0-1.694-1.274-3.021-2.901-3.021
			c-1.702,0-3.14,1.383-3.14,3.021l-0.008,10.225l-1.265,8.851l-1.529-0.219l1.257-8.796V32.315c0-2.475,2.145-4.565,4.685-4.565
			c2.493,0,4.446,2.005,4.446,4.565v7.501l2.529,11.465V66.646z"/>
	</g>
	<g>
		<path fill="#212929" d="M-24.446,77.834h-1.545V67.227h-18.686v10.607h-1.545v-11.38c0-0.427,0.346-0.772,0.772-0.772h20.23
			c0.427,0,0.772,0.346,0.772,0.772V77.834z"/>
	</g>
</g>
<g>
	<rect x="-31.54" y="70.739" fill="#212929" width="2.529" height="1.545"/>
</g>
<g>
	<g>
		<path fill="#212929" d="M26.13,66.454h-1.545v-3.793c0-0.083,0.013-0.165,0.04-0.244l4.976-14.926l-3.707-10.868l-5.995-3.647
			l0.803-1.32l6.234,3.793c0.155,0.094,0.271,0.24,0.33,0.411l3.882,11.38c0.055,0.159,0.055,0.333,0.002,0.493L26.13,62.786V66.454
			z"/>
	</g>
	<g>
		<path fill="#212929" d="M27.395,77.834H25.85V67.719c0-0.271-0.22-0.492-0.491-0.492H8.921c-0.271,0-0.493,0.221-0.493,0.492
			v10.115H6.884V67.719c0-1.123,0.914-2.037,2.038-2.037h0.491l0.019-14.568l2.511-11.296v-7.502c0-2.56,1.954-4.565,4.447-4.565
			c2.539,0,4.684,2.091,4.684,4.565v10.061l1.257,8.796l-1.529,0.219l-1.273-8.96V32.315c0-1.637-1.438-3.021-3.139-3.021
			c-1.627,0-2.902,1.327-2.902,3.021l-0.019,7.754l-2.511,11.296v14.315h14.401c1.123,0,2.036,0.914,2.036,2.037V77.834z
			 M13.978,72.285h-2.529V70.74h2.529V72.285z M20.3,9.064H9.413V-1.823h1.545V7.52H20.3V9.064z"/>
	</g>
</g>
<g>
	<path fill="#212929" d="M13.978,19.18H-31.54v-1.545h45.518V19.18z M3.863,14.121H-31.54v-1.545H3.863V14.121z M-18.896,6.535
		h-2.529V4.99h2.529V6.535z M-23.954,6.535h-2.528V4.99h2.528V6.535z M-29.011,6.535h-2.529V4.99h2.529V6.535z"/>
</g>
<g>
	<path fill="#FF05A1" d="M5.127,62.678H2.599v-1.545h2.528V62.678z M-4.988,62.678h-2.529v-1.545h2.529V62.678z M-15.103,62.678
		h-2.529v-1.545h2.529V62.678z M4.636,57.501H3.091V31.08h1.545V57.501z M-5.479,57.501h-1.545V34.015h1.545V57.501z
		 M-15.594,57.501h-1.545v-20.55h1.545V57.501z"/>
</g>
<g>
	<path fill="#231F20" d="M-0.842,57.775h-1.545V25.482h1.545V57.775z M-10.957,57.775h-1.545V28.418h1.545V57.775z M-21.072,57.775
		h-1.545V31.354h1.545V57.775z"/>
</g>
<g>
	<path fill="#231F20" d="M-0.35,62.772h-2.529v-1.545h2.529V62.772z M-10.465,62.772h-2.529v-1.545h2.529V62.772z M-20.58,62.772
		h-2.529v-1.545h2.529V62.772z"/>
</g>
</svg>
