<?xml version="1.0" encoding="utf-8"?>
<!-- Generator: Adobe Illustrator 15.0.2, SVG Export Plug-In . SVG Version: 6.00 Build 0)  -->
<!DOCTYPE svg PUBLIC "-//W3C//DTD SVG 1.1//EN" "http://www.w3.org/Graphics/SVG/1.1/DTD/svg11.dtd">
<svg version="1.1" id="Layer_1" xmlns="http://www.w3.org/2000/svg" xmlns:xlink="http://www.w3.org/1999/xlink" x="0px" y="0px"
	 width="97.667px" height="93.333px" viewBox="-56.748 -8.499 97.667 93.333" enable-background="new -56.748 -8.499 97.667 93.333"
	 xml:space="preserve">
<g>
	<g>
		<path fill="#212929" d="M32.762,82.835h-81.333l-6.51-6.512v-4.295h37.118l2.984,2.983h14.15l2.983-2.983h37.119v4.295
			L32.762,82.835z M-47.802,80.979h79.795l5.425-5.424v-1.672H2.923l-2.983,2.983h-15.688l-2.984-2.983h-34.494v1.672
			L-47.802,80.979z M30.321,68.479h-1.855V26.706c0-1.957-1.592-3.549-3.548-3.549h-65.644c-1.957,0-3.548,1.592-3.548,3.549v41.773
			h-1.855V26.706c0-2.98,2.424-5.404,5.403-5.404h65.644c2.979,0,5.404,2.424,5.404,5.404V68.479z"/>
	</g>
</g>
<g>
	<path fill="#212929" d="M24.354,67.916h-64.516V27.271h64.516V67.916z M-38.307,66.061h60.805V29.126h-60.805V66.061z"/>
</g>
<g>
	<g>
		<path fill="#FF05A1" d="M19.458,19.158h-1.855c0-0.737-0.043-1.5-0.134-2.345c-0.63,0.191-1.273,0.288-1.922,0.288
			c-3.802,0-6.896-3.093-6.896-6.896c0-2.622,1.459-4.941,3.737-6.104c-1.217-1.553-2.612-2.948-4.165-4.164
			C7.062,2.216,4.742,3.675,2.12,3.675c-3.802,0-6.896-3.093-6.896-6.896c0-0.649,0.097-1.292,0.289-1.923
			c-1.689-0.182-3.001-0.182-4.689,0c0.191,0.631,0.288,1.274,0.288,1.923c0,3.802-3.093,6.896-6.895,6.896
			c-2.623,0-4.943-1.459-6.104-3.737c-1.554,1.217-2.948,2.611-4.165,4.164c2.278,1.163,3.737,3.482,3.737,6.104
			c0,3.802-3.093,6.896-6.895,6.896c-0.648,0-1.292-0.097-1.923-0.289c-0.09,0.84-0.133,1.604-0.133,2.345h-1.855
			c0-1.163,0.096-2.366,0.303-3.786c0.043-0.296,0.226-0.553,0.491-0.69c0.266-0.136,0.582-0.138,0.847-0.003
			c0.741,0.376,1.505,0.567,2.271,0.567c2.779,0,5.04-2.261,5.04-5.04c0-2.23-1.45-4.161-3.609-4.806
			c-0.287-0.085-0.514-0.304-0.612-0.586c-0.097-0.283-0.053-0.595,0.12-0.839c1.722-2.429,3.828-4.533,6.258-6.256
			c0.244-0.172,0.556-0.216,0.839-0.12c0.282,0.098,0.5,0.326,0.586,0.612c0.644,2.159,2.575,3.609,4.806,3.609
			c2.779,0,5.039-2.261,5.039-5.04c0-0.767-0.19-1.531-0.567-2.271c-0.136-0.267-0.134-0.582,0.003-0.848
			c0.138-0.265,0.395-0.448,0.69-0.491c2.856-0.414,4.714-0.413,7.571,0c0.296,0.043,0.553,0.226,0.691,0.491
			c0.137,0.266,0.139,0.582,0.002,0.848C-2.729-4.751-2.92-3.988-2.92-3.221c0,2.779,2.261,5.04,5.04,5.04
			c2.23,0,4.161-1.45,4.805-3.609C7.01-2.076,7.229-2.304,7.511-2.401c0.281-0.096,0.595-0.052,0.838,0.12
			c2.429,1.722,4.535,3.827,6.258,6.256c0.173,0.244,0.217,0.556,0.12,0.839C14.63,5.097,14.402,5.315,14.116,5.4
			c-2.159,0.645-3.609,2.576-3.609,4.806c0,2.779,2.261,5.04,5.041,5.04c0.768,0,1.531-0.19,2.27-0.567
			c0.267-0.135,0.582-0.135,0.848,0.003s0.448,0.395,0.491,0.691C19.362,16.8,19.458,18.003,19.458,19.158z M6.031,19.158H4.176
			c0-6.07-4.938-11.008-11.008-11.008c-6.07,0-11.007,4.938-11.007,11.008h-1.855c0-7.093,5.771-12.863,12.863-12.863
			C0.26,6.295,6.031,12.065,6.031,19.158z M-1.429,19.158h-1.855c0-1.957-1.592-3.548-3.548-3.548s-3.548,1.591-3.548,3.548h-1.855
			c0-2.979,2.424-5.403,5.404-5.403S-1.429,16.179-1.429,19.158z"/>
	</g>
</g>
<g>
	<polygon fill="#FF05A1" points="-13.753,59.308 -25.833,44.206 -31.34,49.714 -34.708,49.714 -34.708,47.858 -32.108,47.858 
		-25.68,41.429 -13.89,56.167 -1.955,38.264 10.126,53.365 15.632,47.858 19.001,47.858 19.001,49.714 16.401,49.714 9.973,56.143 
		-1.818,41.404 	"/>
</g>
</svg>
