<?xml version="1.0" encoding="utf-8"?>
<!-- Generator: Adobe Illustrator 15.0.2, SVG Export Plug-In . SVG Version: 6.00 Build 0)  -->
<!DOCTYPE svg PUBLIC "-//W3C//DTD SVG 1.1//EN" "http://www.w3.org/Graphics/SVG/1.1/DTD/svg11.dtd">
<svg version="1.1" id="Layer_1" xmlns="http://www.w3.org/2000/svg" xmlns:xlink="http://www.w3.org/1999/xlink" x="0px" y="0px"
	 width="94.706px" height="87.059px" viewBox="0 0 94.706 87.059" enable-background="new 0 0 94.706 87.059" xml:space="preserve">
<g>
	<path fill="#212929" d="M78.054,62.055h-4.359v-1.453h4.359c8.387,0,13.805-6.56,13.805-16.711c0-8.697-5.936-15.258-13.805-15.258
		h-0.728v-0.726c0-5.972-3.245-12.353-12.351-12.353h-1.881l-0.209-0.374C58.984,8.136,51.616,3.93,43.178,3.93
		c-12.419,0-22.523,10.104-22.523,22.523v0.727h-0.727c-9.213,0-16.71,7.497-16.71,16.711s7.497,16.711,16.71,16.711v1.453
		c-10.015,0-18.164-8.147-18.164-18.164c0-9.775,7.763-17.772,17.448-18.149C19.591,12.848,30.195,2.477,43.178,2.477
		c8.825,0,16.555,4.337,20.768,11.625h1.029c8.146,0,13.494,5.114,13.791,13.095c8.342,0.381,14.545,7.431,14.545,16.694
		C93.312,54.925,87.323,62.055,78.054,62.055"/>
	<path fill="#F47821" d="M43.531,71.661c-0.67,0-1.212,0.543-1.212,1.211v9.688c0,0.668,0.542,1.211,1.212,1.211h11.3
		c0.668,0,1.211-0.543,1.211-1.211v-9.688c0-0.668-0.543-1.211-1.211-1.211H43.531z M54.831,84.578h-11.3
		c-1.116,0-2.021-0.905-2.021-2.018v-9.688c0-1.112,0.905-2.018,2.021-2.018h11.3c1.113,0,2.018,0.905,2.018,2.018v9.688
		C56.849,83.673,55.944,84.578,54.831,84.578"/>
	<path fill="#F47821" d="M55.235,71.258h-0.807v-3.229c0-2.448-1.994-4.44-4.441-4.44h-1.615c-2.446,0-4.44,1.992-4.44,4.44v3.229
		h-0.807v-3.229c0-2.895,2.356-5.248,5.247-5.248h1.615c2.893,0,5.248,2.354,5.248,5.248V71.258z"/>
	<path fill="#F47821" d="M49.987,76.102c0,0.446-0.361,0.808-0.809,0.808c-0.443,0-0.807-0.361-0.807-0.808s0.363-0.808,0.807-0.808
		C49.626,75.294,49.987,75.655,49.987,76.102"/>
	<path fill="#F47821" d="M49.18,75.657c-0.246,0-0.444,0.199-0.444,0.444s0.198,0.443,0.444,0.443s0.444-0.198,0.444-0.443
		S49.426,75.657,49.18,75.657 M49.18,77.272c-0.646,0-1.171-0.525-1.171-1.171s0.525-1.17,1.171-1.17s1.171,0.524,1.171,1.17
		S49.825,77.272,49.18,77.272"/>
	<path fill="#F47821" d="M49.18,75.697c-0.224,0-0.401,0.182-0.401,0.404s0.178,0.404,0.401,0.404s0.403-0.182,0.403-0.404
		S49.403,75.697,49.18,75.697 M49.18,77.312c-0.667,0-1.21-0.543-1.21-1.211c0-0.667,0.543-1.211,1.21-1.211
		c0.668,0,1.212,0.544,1.212,1.211C50.392,76.77,49.848,77.312,49.18,77.312"/>
</g>
<rect x="48.778" y="76.169" fill="#F47821" width="0.805" height="4.036"/>
<g>
	<path fill="#F47821" d="M43.531,72.024c-0.469,0-0.849,0.381-0.849,0.848v9.688c0,0.468,0.38,0.848,0.849,0.848h11.3
		c0.467,0,0.849-0.38,0.849-0.848v-9.688c0-0.467-0.382-0.848-0.849-0.848H43.531z M54.831,84.135h-11.3
		c-0.868,0-1.575-0.707-1.575-1.575v-9.688c0-0.867,0.707-1.573,1.575-1.573h11.3c0.867,0,1.574,0.706,1.574,1.573v9.688
		C56.405,83.428,55.698,84.135,54.831,84.135 M43.531,71.218c-0.914,0-1.658,0.742-1.658,1.654v9.688
		c0,0.913,0.744,1.655,1.658,1.655h11.3c0.912,0,1.653-0.742,1.653-1.655v-9.688c0-0.912-0.741-1.654-1.653-1.654H43.531z
		 M54.831,84.941h-11.3c-1.314,0-2.384-1.068-2.384-2.382v-9.688c0-1.312,1.07-2.381,2.384-2.381h11.3
		c1.312,0,2.381,1.068,2.381,2.381v9.688C57.212,83.873,56.144,84.941,54.831,84.941"/>
	<path fill="#F47821" d="M54.792,70.895h0.079v-2.866c0-2.693-2.19-4.884-4.884-4.884h-1.615c-2.693,0-4.884,2.19-4.884,4.884v2.866
		h0.081v-2.866c0-2.648,2.155-4.803,4.803-4.803h1.615c2.65,0,4.805,2.154,4.805,4.803V70.895z M55.599,71.621h-1.533v-3.593
		c0-2.247-1.829-4.076-4.078-4.076h-1.615c-2.248,0-4.077,1.829-4.077,4.076v3.593h-1.534v-3.593c0-3.093,2.518-5.61,5.611-5.61
		h1.615c3.093,0,5.611,2.518,5.611,5.61V71.621z"/>
	<path fill="#F47821" d="M49.18,76.869c-0.421,0-0.765-0.345-0.765-0.768s0.344-0.767,0.765-0.767c0.423,0,0.767,0.344,0.767,0.767
		S49.603,76.869,49.18,76.869 M49.18,75.254c-0.467,0-0.847,0.38-0.847,0.848c0,0.467,0.38,0.848,0.847,0.848
		c0.468,0,0.849-0.381,0.849-0.848C50.028,75.634,49.647,75.254,49.18,75.254 M49.18,77.676c-0.868,0-1.574-0.706-1.574-1.574
		s0.706-1.574,1.574-1.574c0.869,0,1.575,0.706,1.575,1.574S50.049,77.676,49.18,77.676"/>
</g>
<path fill="#F47821" d="M49.142,79.843h0.078v-3.311h-0.078V79.843z M49.946,80.568h-1.531v-4.763h1.531V80.568z"/>
<g>
	<path fill="#010101" d="M55.725,40.136c-3.711,6.103-15.251,7.137-18.516,0.043c-0.735-1.601-3.219-0.45-2.481,1.15
		c4.096,8.904,18.43,8.283,23.242,0.368C58.879,40.199,56.643,38.626,55.725,40.136 M28.236,30.247
		c2.274,4.318,8.235,4.031,10.788,0.133c0.961-1.472-1.28-3.04-2.246-1.562c-1.356,2.07-4.725,2.815-6.06,0.277
		C29.901,27.545,27.414,28.687,28.236,30.247 M58.303,30.729c-0.582-1.66-3.06-0.497-2.481,1.152
		c1.662,4.739,7.737,4.714,10.707,1.353c1.162-1.316-1.09-2.869-2.246-1.559C62.526,33.661,59.206,33.305,58.303,30.729"/>
	<path fill="none" stroke="#FFFFFF" stroke-width="0.751" stroke-miterlimit="10" d="M55.725,40.136
		c-3.711,6.103-15.251,7.137-18.516,0.043c-0.735-1.601-3.219-0.45-2.481,1.15c4.096,8.904,18.43,8.283,23.242,0.368
		C58.879,40.199,56.643,38.626,55.725,40.136z M28.236,30.247c2.274,4.318,8.235,4.031,10.788,0.133
		c0.961-1.472-1.28-3.04-2.246-1.562c-1.356,2.07-4.725,2.815-6.06,0.277C29.901,27.545,27.414,28.687,28.236,30.247z
		 M58.303,30.729c-0.582-1.66-3.06-0.497-2.481,1.152c1.662,4.739,7.737,4.714,10.707,1.353c1.162-1.316-1.09-2.869-2.246-1.559
		C62.526,33.661,59.206,33.305,58.303,30.729z"/>
</g>
<polygon fill="#212929" points="84.7,76.586 65.083,76.586 65.083,61.328 66.536,61.328 66.536,75.133 84.7,75.133 "/>
<polyline fill="none" stroke="#212929" stroke-width="1.251" points="62.311,63.71 65.833,60.501 69.354,63.71 "/>
<polyline fill="none" stroke="#212929" stroke-width="1.251" points="82.147,72.436 85.356,75.957 82.147,79.48 "/>
<polygon fill="#212929" points="11.989,76.586 31.606,76.586 31.606,61.328 30.153,61.328 30.153,75.133 11.989,75.133 "/>
<polyline fill="none" stroke="#212929" stroke-width="1.251" points="34.379,63.71 30.857,60.501 27.335,63.71 "/>
<polyline fill="none" stroke="#212929" stroke-width="1.251" points="14.542,72.436 11.333,75.957 14.542,79.48 "/>
</svg>
