<?xml version="1.0" encoding="utf-8"?>
<!-- Generator: Adobe Illustrator 15.0.2, SVG Export Plug-In . SVG Version: 6.00 Build 0)  -->
<!DOCTYPE svg PUBLIC "-//W3C//DTD SVG 1.1//EN" "http://www.w3.org/Graphics/SVG/1.1/DTD/svg11.dtd">
<svg version="1.1" id="Layer_1" xmlns="http://www.w3.org/2000/svg" xmlns:xlink="http://www.w3.org/1999/xlink" x="0px" y="0px"
	 width="516.998px" height="114.667px" viewBox="-214.083 -17.833 516.998 114.667"
	 enable-background="new -214.083 -17.833 516.998 114.667" xml:space="preserve">
<g>
	<defs>
		<rect id="SVGID_1_" x="-211.75" y="-15.657" width="513.616" height="111.157"/>
	</defs>
	<clipPath id="SVGID_2_">
		<use xlink:href="#SVGID_1_"  overflow="visible"/>
	</clipPath>
	<g clip-path="url(#SVGID_2_)">
		<path fill="#212929" d="M-144.705,84.302h-1.827V71.88h1.827V84.302z M-194.395,84.302h-1.827V71.88h1.827V84.302z
			 M-170.463,80.557c-0.322,0-0.612-0.168-0.775-0.43l-13.698-21.31h-8.818c-0.34,0-0.651-0.188-0.809-0.489
			s-0.135-0.664,0.058-0.943l13.812-19.952v-1.939c-4.917-0.325-12.988-3-13.351-3.121c-0.453-0.151-0.713-0.625-0.597-1.088
			c0.031-0.123,3.078-12.403,3.078-19.965V2.003c0-9.066,7.376-16.442,16.443-16.442h9.317c9.066,0,16.441,7.376,16.441,16.442
			v9.316c0,7.562,3.047,19.842,3.078,19.965c0.116,0.463-0.145,0.938-0.597,1.088c-0.363,0.121-8.434,2.796-13.351,3.121v1.939
			l13.812,19.952c0.193,0.279,0.216,0.643,0.058,0.943s-0.469,0.489-0.809,0.489h-8.818l-13.698,21.31
			C-169.852,80.389-170.142,80.557-170.463,80.557z M-178.497,45.229l8.033,30.795l8.033-30.795
			c-1.875,1.654-4.779,2.718-8.033,2.718S-176.622,46.884-178.497,45.229z M-192.012,56.991h7.573c0.311,0,0.6,0.157,0.769,0.419
			l10.876,16.919l-7.87-30.17c-0.02-0.075-0.03-0.152-0.03-0.23v-3.286L-192.012,56.991z M-160.233,40.823v3.105
			c0,0.078-0.01,0.155-0.03,0.23l-7.87,30.17l10.876-16.919c0.168-0.262,0.458-0.419,0.769-0.419h7.573l-11.318-16.349V40.823z
			 M-178.867,40.823c0,2.871,3.848,5.298,8.403,5.298s8.403-2.427,8.403-5.298v-9.092c-2.085,1.427-4.821,2.242-8.403,2.242
			s-6.318-0.815-8.403-2.242V40.823z M-160.233,30.162v3.501c3.808-0.278,9.821-2.087,11.974-2.767
			c-0.698-2.938-2.931-12.863-2.931-19.577V2.003c0-8.059-6.556-14.615-14.614-14.615h-9.317c-8.059,0-14.616,6.556-14.616,14.615
			v9.316c0,6.714-2.233,16.64-2.931,19.577c2.153,0.679,8.166,2.489,11.974,2.767v-3.501c-3.925-4.193-4.658-11.339-4.658-18.842
			V8.214c0-3.928,3.196-7.125,7.125-7.125v1.827c-2.921,0-5.297,2.376-5.297,5.297v3.105c0,12.501,2.221,20.827,13.062,20.827
			c10.578,0,12.949-7.929,13.058-19.928c-13.915-0.46-18.629-11.385-18.629-16.427h1.827c0,4.579,4.462,14.615,17.719,14.615
			c0.504,0,0.914,0.409,0.914,0.914C-155.575,18.822-156.308,25.968-160.233,30.162z"/>
	</g>
	<g clip-path="url(#SVGID_2_)">
		<path fill="#212929" d="M-129.176,84.302h-1.827V67.221c0-8.465-3.743-13.011-13.351-16.214l-0.12-0.049l-12.423-6.212
			l0.817-1.635l12.365,6.184c10.324,3.457,14.538,8.654,14.538,17.926V84.302z M-209.923,84.302h-1.827V67.221
			c0-9.271,4.214-14.47,14.539-17.926l12.364-6.184l0.817,1.635l-12.542,6.261c-9.608,3.203-13.352,7.749-13.352,16.214V84.302z"/>
	</g>
	<g clip-path="url(#SVGID_2_)">
		<path fill="#212929" d="M11.726,86.147H9.899V67.072c0-7.708-5.042-12.679-16.861-16.619c-0.063-0.021-0.124-0.049-0.181-0.083
			l-7.948-4.769l0.165-0.274l-11.967,6.648c-0.356,0.197-0.801,0.135-1.09-0.153l-5.713-5.712l-5.712,5.712
			c-0.288,0.288-0.731,0.351-1.09,0.153l-11.969-6.649l0.166,0.275l-7.948,4.769c-0.057,0.034-0.118,0.062-0.181,0.083
			c-11.818,3.94-16.86,8.91-16.86,16.619v19.075h-1.827V67.072c0-10.873,9.605-15.506,18.014-18.32l7.117-4.27l-0.817-0.454
			c-0.286-0.159-0.464-0.457-0.47-0.783c-0.005-0.326,0.164-0.631,0.443-0.799l7.948-4.77c0.208-0.125,0.456-0.162,0.692-0.103
			l2.043,0.511v-7.526c-4.393-4.151-6.262-10.675-6.355-15.56l-1.325-1.326c-0.171-0.171-0.268-0.403-0.268-0.646V-4.458
			c0-3.134,2.549-5.683,5.683-5.683h0.749c0.438-2.7,2.787-4.769,5.609-4.769h17.485c4.01,0,7.273,3.262,7.273,7.272v20.665
			c0,0.242-0.096,0.475-0.268,0.646L-16.891,15c-0.093,4.884-1.962,11.408-6.354,15.559v7.527l2.043-0.511
			c0.235-0.059,0.483-0.022,0.692,0.103l7.948,4.77c0.28,0.168,0.449,0.473,0.443,0.799c-0.006,0.326-0.185,0.624-0.47,0.783
			l-0.818,0.454l7.117,4.27c8.409,2.814,18.015,7.447,18.015,18.32V86.147z M-32.783,44.439l5.604,5.604l12.321-6.845l-6.268-3.761
			l-11.658,2.915V44.439z M-52.534,43.199l12.321,6.845l5.603-5.604v-2.088l-11.657-2.915L-52.534,43.199z M-42.646,38.46
			l8.95,2.238l8.951-2.238h-0.326v-6.422c-2.306,1.584-5.157,2.567-8.625,2.567c-3.467,0-6.317-0.982-8.624-2.566v6.421H-42.646z
			 M-50.268,12.649l1.321,1.323c0.171,0.171,0.268,0.403,0.268,0.646c0,7.021,4.067,18.161,14.982,18.161
			c10.915,0,14.982-11.139,14.982-18.161c0-0.242,0.096-0.475,0.268-0.646l1.323-1.322V9.171h-0.677
			c-2.256,0-4.092-1.836-4.092-4.092V1.9c0-1.25-1.016-2.266-2.265-2.266c-0.504,0-0.914-0.409-0.914-0.914V-2.98l-5.038,2.518
			c-0.126,0.063-0.267,0.097-0.408,0.097h-12.716c-1.249,0-2.265,1.017-2.265,2.266v3.179c0,2.256-1.836,4.092-4.094,4.092h-0.675
			V12.649z M-23.245-2.09c1.818,0.416,3.179,2.047,3.179,3.99v3.179c0,1.249,1.016,2.265,2.265,2.265h0.677V-7.638
			c0-3.002-2.443-5.445-5.446-5.445h-17.485c-2.126,0-3.855,1.729-3.855,3.855c0,0.504-0.409,0.914-0.914,0.914h-1.589
			c-2.126,0-3.855,1.73-3.855,3.856V7.344h0.675c1.25,0,2.267-1.016,2.267-2.265V1.9c0-2.257,1.836-4.093,4.092-4.093h12.5
			l6.167-3.082c0.283-0.142,0.618-0.127,0.889,0.04c0.269,0.167,0.433,0.46,0.433,0.777V-2.09z M-7.349,86.147h-1.827V73.431h1.827
			V86.147z M-58.216,86.147h-1.827V73.431h1.827V86.147z M-32.783,76.61h-1.827v-3.18h1.827V76.61z M-32.783,70.252h-1.827v-3.18
			h1.827V70.252z M-32.783,63.894h-1.827v-3.179h1.827V63.894z M-32.783,57.535h-1.827v-3.179h1.827V57.535z"/>
	</g>
	<g clip-path="url(#SVGID_2_)">
		<path fill="#212929" d="M294.85,86.148h-1.826V60.524c0-9.028-4.254-11.97-13.789-15.148l-10.712-4.587l-4.714,4.713l7.858,1.31
			c0.276,0.047,0.517,0.217,0.651,0.463s0.148,0.541,0.038,0.798l-9.536,22.249v15.827h-1.826V70.134
			c0-0.124,0.024-0.246,0.073-0.359l9.151-21.352l-8.462-1.41c-0.337-0.057-0.615-0.297-0.72-0.623
			c-0.104-0.325-0.018-0.683,0.225-0.924l8.821-8.821l-3.745-2.498l-5.118-1.279v5.236c0,0.242-0.096,0.475-0.268,0.646
			l-4.537,4.537v42.861h-1.826V42.909c0-0.242,0.096-0.475,0.268-0.646l4.537-4.538v-6.414c-2.229,1.8-5.092,2.901-8.696,2.901
			c-3.604,0-6.467-1.101-8.695-2.9v6.413l4.537,4.538c0.172,0.171,0.268,0.403,0.268,0.646v43.239h-1.826V43.287l-4.537-4.537
			c-0.172-0.171-0.268-0.404-0.268-0.646v-5.236l-5.118,1.279l-3.745,2.498l8.82,8.821c0.242,0.241,0.329,0.599,0.225,0.924
			c-0.104,0.326-0.383,0.566-0.72,0.623l-8.461,1.41l9.15,21.352c0.049,0.113,0.073,0.235,0.073,0.359v16.015h-1.826V70.321
			l-9.535-22.249c-0.11-0.258-0.097-0.552,0.038-0.798s0.375-0.416,0.651-0.463l7.857-1.31l-4.713-4.713L222.23,45.35
			c-9.604,3.205-13.858,6.146-13.858,15.175v25.624h-1.826V60.524c0-10.093,4.849-13.485,15.036-16.881l9.9-4.246l-2.249-2.249
			c-0.194-0.193-0.29-0.464-0.264-0.736c0.027-0.272,0.175-0.519,0.402-0.67l4.804-3.203c0.087-0.058,0.184-0.101,0.285-0.126
			l5.715-1.429v-1.458c-3.069-3.6-4.496-8.778-4.76-13.735c-2.126-1.471-3.146-4.457-3.2-4.624c-0.031-0.093-0.047-0.19-0.047-0.289
			V9.278c0-0.964,0.545-1.804,1.343-2.226l-1.297-3.897c-0.03-0.093-0.046-0.19-0.046-0.289v-8.002c0-3.153,2.564-5.718,5.717-5.718
			h0.761c0.438-2.72,2.804-4.805,5.646-4.805h17.615c4.036,0,7.319,3.284,7.319,7.32V2.877c0,0.098-0.016,0.196-0.047,0.289
			l-1.296,3.887c0.798,0.422,1.343,1.261,1.343,2.225v1.602c0,0.098-0.016,0.196-0.047,0.289c-0.055,0.167-1.075,3.154-3.201,4.625
			c-0.264,4.956-1.69,10.134-4.759,13.733v1.459l5.715,1.429c0.102,0.025,0.198,0.068,0.285,0.126l4.804,3.203
			c0.228,0.152,0.375,0.398,0.402,0.67c0.026,0.272-0.069,0.542-0.264,0.736l-2.249,2.249l9.97,4.272
			c10.118,3.369,14.967,6.762,14.967,16.854V86.148z M242.002,28.894c1.979,2.067,4.767,3.492,8.695,3.492s6.718-1.426,8.696-3.493
			v-0.398h0.363c3.102-3.543,4.048-8.702,4.327-11.937c-0.186,0.026-0.377,0.04-0.574,0.04h-4.805c-3.072,0-4.824-3.372-5.431-4.805
			h-5.154c-0.606,1.433-2.357,4.805-5.43,4.805h-4.805c-0.197,0-0.389-0.014-0.575-0.041c0.279,3.236,1.226,8.394,4.327,11.938
			h0.364V28.894z M254.813,10.725c0.453,1.245,1.891,4.046,3.892,4.046h4.805c0.236,0,0.463-0.038,0.68-0.106
			c0.006-0.226,0.008-0.421,0.008-0.583h1.021c1.229-1.02,1.991-2.864,2.182-3.364v-1.44c0-0.379-0.309-0.688-0.688-0.688h-11.211
			c-0.38,0-0.688,0.309-0.688,0.688V10.725z M237.205,14.662c0.219,0.07,0.445,0.109,0.681,0.109h4.805
			c2.228,0,3.623-3.352,3.891-4.053v-1.44c0-0.379-0.309-0.688-0.688-0.688h-11.211c-0.379,0-0.688,0.309-0.688,0.688v1.446
			c0.312,0.855,1.087,2.446,2.191,3.357h1.011C237.197,14.243,237.199,14.438,237.205,14.662z M248.407,9.966h4.58V9.278
			c0-1.387,1.128-2.515,2.515-2.515h10.553l1.346-4.035V-8.338c0-3.029-2.465-5.493-5.493-5.493h-17.615
			c-2.146,0-3.892,1.746-3.892,3.891c0,0.504-0.408,0.914-0.913,0.914h-1.602c-2.146,0-3.891,1.746-3.891,3.891v7.854l1.347,4.044
			h10.552c1.387,0,2.514,1.128,2.514,2.515V9.966z M278.836,86.148h-1.826V73.336h1.826V86.148z M224.386,86.148h-1.826V73.336
			h1.826V86.148z M264.423,2.872h-1.826v-3.203c0-1.262-1.027-2.289-2.29-2.289c-0.505,0-0.913-0.409-0.913-0.914v-1.725
			l-5.085,2.542c-0.127,0.063-0.267,0.097-0.408,0.097h-12.812c-1.263,0-2.29,1.026-2.29,2.289v3.203h-1.826v-3.203
			c0-2.27,1.847-4.116,4.116-4.116h12.596l6.214-3.106c0.283-0.142,0.62-0.126,0.889,0.04c0.27,0.166,0.433,0.46,0.433,0.777v2.392
			c1.832,0.417,3.203,2.058,3.203,4.014V2.872z"/>
	</g>
</g>
<g>
	<path fill="#212929" d="M134.702,83.819h-1.826V70.353h1.826V83.819z M80.836,83.819H79.01V70.353h1.826V83.819z"/>
</g>
<g>
	<defs>
		<rect id="SVGID_3_" x="-211.75" y="-15.657" width="513.616" height="111.157"/>
	</defs>
	<clipPath id="SVGID_4_">
		<use xlink:href="#SVGID_3_"  overflow="visible"/>
	</clipPath>
	<g clip-path="url(#SVGID_4_)">
		<path fill="#212929" d="M151.535,83.819h-1.826V65.303c0-9.52-4.481-12.619-14.526-15.967l-0.119-0.049l-13.466-6.733l0.816-1.635
			l13.408,6.705c10.646,3.555,15.713,7.119,15.713,17.679V83.819z M64.003,83.819h-1.826V65.303c0-10.56,5.067-14.124,15.713-17.679
			l13.408-6.705l0.816,1.635l-13.585,6.782c-10.045,3.348-14.526,6.447-14.526,15.967V83.819z M117.869,36.687h-1.826V28.27h1.826
			V36.687z M97.669,36.687h-1.826V28.27h1.826V36.687z"/>
	</g>
	<g clip-path="url(#SVGID_4_)">
		<path fill="#212929" d="M101.036,83.819H99.21v-3.367c0-3.653,2.661-9.362,6.781-14.79c-4.857-6.779-14.819-12.913-21.019-12.913
			c-0.337,0-0.646-0.185-0.806-0.482c-0.159-0.297-0.142-0.657,0.046-0.938L94.313,36.18c0.169-0.254,0.454-0.407,0.76-0.407h1.683
			c0.346,0,0.662,0.195,0.817,0.505l9.283,18.565l9.282-18.565c0.155-0.309,0.472-0.505,0.817-0.505h1.683
			c0.306,0,0.591,0.153,0.76,0.407l10.101,15.149c0.188,0.28,0.205,0.641,0.046,0.938c-0.159,0.298-0.469,0.482-0.806,0.482
			c-12.916,0-27.703,19.665-27.703,27.703V83.819z M86.605,51.033c6.614,0.856,15.65,6.573,20.56,13.14
			c5.357-6.554,12.734-12.366,19.929-13.158L118.149,37.6h-0.629l-9.847,19.694c-0.311,0.619-1.324,0.619-1.635,0L96.191,37.6
			h-0.629L86.605,51.033z M107.77,80.452h-1.826v-3.366h1.826V80.452z M106.856,32.55c-10.675,0-14.391-6.727-15.567-15.505
			l-0.13,0.173c-0.29-0.218-7.1-5.445-7.1-15.881c0-7.787,6.81-16.063,19.431-16.063h6.732c12.62,0,19.43,8.276,19.43,16.063
			c0,10.437-6.809,15.664-7.099,15.881l-0.13-0.173C121.247,25.823,117.531,32.55,106.856,32.55z M92.62,7.12v0.95
			c0,13.597,2.421,22.653,14.236,22.653s14.236-9.056,14.236-22.653V7.12c-1.506-0.547-3.332-2.283-4.324-4.412
			c-1.871,2.583-5.864,4.592-9.912,4.592c-4.049,0-8.042-2.009-9.913-4.592C95.951,4.837,94.126,6.573,92.62,7.12z M103.49-12.899
			c-11.435,0-17.604,7.334-17.604,14.236c0,6.854,3.29,11.305,5.142,13.267c-0.174-2.11-0.233-4.307-0.233-6.533V6.387
			c0-0.504,0.408-0.914,0.913-0.914c1.095,0,4.136-2.895,4.136-5.82c0-0.504,0.408-0.914,0.913-0.914s0.913,0.409,0.913,0.914
			c0,2.828,4.723,5.82,9.188,5.82c4.464,0,9.187-2.992,9.187-5.82c0-0.504,0.408-0.914,0.913-0.914s0.913,0.409,0.913,0.914
			c0,2.925,3.042,5.82,4.137,5.82c0.505,0,0.913,0.409,0.913,0.914V8.07c0,2.227-0.06,4.423-0.233,6.533
			c1.852-1.962,5.141-6.412,5.141-13.266c0-6.901-6.17-14.236-17.604-14.236H103.49z"/>
	</g>
	<g clip-path="url(#SVGID_4_)">
		<path fill="#FFFFFF" d="M287.09,92.836c7.832,0,14.181-6.352,14.181-14.18s-6.349-14.18-14.181-14.18s-14.182,6.352-14.182,14.18
			S279.258,92.836,287.09,92.836"/>
	</g>
</g>
<g>
	<rect x="286.732" y="72.965" fill="#FF7800" width="1.949" height="11.906"/>
</g>
<g>
	<rect x="281.391" y="77.943" fill="#FF7800" width="11.906" height="1.949"/>
</g>
<g>
	<defs>
		<rect id="SVGID_5_" x="-211.75" y="-15.657" width="513.616" height="111.157"/>
	</defs>
	<clipPath id="SVGID_6_">
		<use xlink:href="#SVGID_5_"  overflow="visible"/>
	</clipPath>
	<g clip-path="url(#SVGID_6_)">
		<path fill="#FF7800" d="M275.415,70.229c0.508,14.036,9.537,20.949,11.973,22.563c2.437-1.614,11.466-8.527,11.973-22.563h-3.547
			c-4.396,0-7.061-1.981-8.426-3.435c-1.365,1.453-4.028,3.435-8.422,3.435H275.415z M287.388,95.499h-0.239l-0.353-0.149
			c-0.138-0.074-13.888-7.677-13.888-26.363c0-0.685,0.561-1.242,1.245-1.242h4.812c5.089,0,7.263-3.459,7.355-3.605
			c0.412-0.719,1.711-0.738,2.145,0.019c0.081,0.128,2.256,3.587,7.348,3.587h4.813c0.684,0,1.239,0.558,1.239,1.242
			c0,18.687-13.75,26.289-13.89,26.364l-0.21,0.112L287.388,95.499z"/>
	</g>
	<g clip-path="url(#SVGID_6_)">
		<path fill="#FFFFFF" d="M144.402,92.836c7.832,0,14.181-6.352,14.181-14.18s-6.349-14.18-14.181-14.18s-14.181,6.352-14.181,14.18
			S136.57,92.836,144.402,92.836"/>
	</g>
</g>
<g>
	<rect x="144.045" y="72.965" fill="#FF7800" width="1.949" height="11.906"/>
</g>
<g>
	<rect x="138.703" y="77.943" fill="#FF7800" width="11.906" height="1.949"/>
</g>
<g>
	<defs>
		<rect id="SVGID_7_" x="-211.75" y="-15.657" width="513.616" height="111.157"/>
	</defs>
	<clipPath id="SVGID_8_">
		<use xlink:href="#SVGID_7_"  overflow="visible"/>
	</clipPath>
	<g clip-path="url(#SVGID_8_)">
		<path fill="#FF7800" d="M132.728,70.229c0.508,14.036,9.537,20.949,11.973,22.563c2.437-1.614,11.466-8.527,11.973-22.563h-3.547
			c-4.396,0-7.061-1.981-8.426-3.435c-1.365,1.453-4.028,3.435-8.422,3.435H132.728z M144.7,95.499h-0.239l-0.353-0.149
			c-0.138-0.074-13.888-7.677-13.888-26.363c0-0.685,0.561-1.242,1.245-1.242h4.812c5.089,0,7.263-3.459,7.355-3.605
			c0.412-0.719,1.711-0.738,2.145,0.019c0.081,0.128,2.256,3.587,7.348,3.587h4.813c0.684,0,1.239,0.558,1.239,1.242
			c0,18.687-13.75,26.289-13.89,26.364l-0.21,0.112L144.7,95.499z"/>
	</g>
	<g clip-path="url(#SVGID_8_)">
		<path fill="#FFFFFF" d="M1.715,92.836c7.832,0,14.181-6.352,14.181-14.18s-6.349-14.18-14.181-14.18s-14.181,6.352-14.181,14.18
			S-6.117,92.836,1.715,92.836"/>
	</g>
</g>
<g>
	<rect x="1.358" y="72.965" fill="#FF7800" width="1.95" height="11.906"/>
</g>
<g>
	<rect x="-3.984" y="77.943" fill="#FF7800" width="11.906" height="1.949"/>
</g>
<g>
	<defs>
		<rect id="SVGID_9_" x="-211.75" y="-15.657" width="513.616" height="111.157"/>
	</defs>
	<clipPath id="SVGID_10_">
		<use xlink:href="#SVGID_9_"  overflow="visible"/>
	</clipPath>
	<g clip-path="url(#SVGID_10_)">
		<path fill="#FF7800" d="M-9.96,70.229c0.508,14.036,9.537,20.949,11.973,22.563c2.437-1.614,11.466-8.527,11.973-22.563h-3.547
			c-4.396,0-7.061-1.981-8.426-3.435c-1.365,1.453-4.028,3.435-8.422,3.435H-9.96z M2.013,95.499H1.773L1.421,95.35
			c-0.138-0.074-13.888-7.677-13.888-26.363c0-0.685,0.561-1.242,1.245-1.242h4.812c5.089,0,7.263-3.459,7.355-3.605
			c0.412-0.719,1.711-0.738,2.145,0.019c0.081,0.128,2.256,3.587,7.348,3.587h4.813c0.684,0,1.239,0.558,1.239,1.242
			c0,18.687-13.75,26.289-13.89,26.364l-0.21,0.112L2.013,95.499z"/>
	</g>
	<g clip-path="url(#SVGID_10_)">
		<path fill="#FFFFFF" d="M-135.492,92.836c7.832,0,14.181-6.352,14.181-14.18s-6.349-14.18-14.181-14.18
			s-14.181,6.352-14.181,14.18S-143.324,92.836-135.492,92.836"/>
	</g>
</g>
<g>
	<rect x="-135.85" y="72.965" fill="#FF7800" width="1.95" height="11.906"/>
</g>
<g>
	<rect x="-141.187" y="77.943" fill="#FF7800" width="11.906" height="1.949"/>
</g>
<g>
	<defs>
		<rect id="SVGID_11_" x="-211.75" y="-15.657" width="513.616" height="111.157"/>
	</defs>
	<clipPath id="SVGID_12_">
		<use xlink:href="#SVGID_11_"  overflow="visible"/>
	</clipPath>
	<g clip-path="url(#SVGID_12_)">
		<path fill="#FF7800" d="M-147.167,70.229c0.508,14.036,9.537,20.949,11.973,22.563c2.437-1.614,11.466-8.527,11.973-22.563h-3.547
			c-4.397,0-7.061-1.981-8.426-3.435c-1.365,1.453-4.028,3.435-8.422,3.435H-147.167z M-135.194,95.499h-0.239l-0.353-0.149
			c-0.137-0.074-13.887-7.677-13.887-26.363c0-0.685,0.56-1.242,1.245-1.242h4.812c5.089,0,7.263-3.459,7.356-3.605
			c0.412-0.719,1.711-0.738,2.144,0.019c0.081,0.128,2.256,3.587,7.348,3.587h4.813c0.684,0,1.24,0.558,1.24,1.242
			c0,18.687-13.75,26.289-13.89,26.364l-0.21,0.112L-135.194,95.499z"/>
	</g>
</g>
</svg>
