<?xml version="1.0" encoding="utf-8"?>
<!-- Generator: Adobe Illustrator 15.0.2, SVG Export Plug-In . SVG Version: 6.00 Build 0)  -->
<!DOCTYPE svg PUBLIC "-//W3C//DTD SVG 1.1//EN" "http://www.w3.org/Graphics/SVG/1.1/DTD/svg11.dtd">
<svg version="1.1" id="Layer_1" xmlns="http://www.w3.org/2000/svg" xmlns:xlink="http://www.w3.org/1999/xlink" x="0px" y="0px"
	 width="95.294px" height="72.941px" viewBox="0 0 95.294 72.941" enable-background="new 0 0 95.294 72.941" xml:space="preserve">
<rect x="30.303" y="38.356" width="35.234" height="0.979"/>
<rect x="30.303" y="38.356" fill="none" stroke="#000000" stroke-width="0.3" stroke-miterlimit="10" width="35.234" height="0.979"/>
<g>
	<path d="M32.816,16.294c-3.904,0-7.081-3.176-7.081-7.08s3.177-7.081,7.081-7.081c3.904,0,7.081,3.177,7.081,7.081
		S36.72,16.294,32.816,16.294 M32.816,2.944c-3.457,0-6.27,2.812-6.27,6.27s2.813,6.27,6.27,6.27s6.269-2.812,6.269-6.27
		S36.273,2.944,32.816,2.944"/>
	<path d="M32.816,3.007c-3.423,0-6.207,2.784-6.207,6.207s2.784,6.206,6.207,6.206c3.422,0,6.206-2.783,6.206-6.206
		S36.238,3.007,32.816,3.007 M32.816,15.545c-3.492,0-6.332-2.84-6.332-6.331s2.84-6.333,6.332-6.333
		c3.491,0,6.332,2.842,6.332,6.333S36.307,15.545,32.816,15.545 M32.816,2.195c-3.87,0-7.018,3.149-7.018,7.019
		s3.148,7.018,7.018,7.018c3.87,0,7.018-3.148,7.018-7.018S36.686,2.195,32.816,2.195 M32.816,16.357
		c-3.939,0-7.144-3.204-7.144-7.144c0-3.938,3.205-7.144,7.144-7.144s7.144,3.205,7.144,7.144
		C39.96,13.153,36.755,16.357,32.816,16.357"/>
	<path d="M7.212,71.408H5.211c-1.929,0-3.498-2.042-3.498-4.552c-0.006-0.214-0.709-22.652-0.709-26.809
		c-0.001-4.113,1.385-7.963,4.491-12.48l0.669,0.46c-3.048,4.434-4.349,8.028-4.349,12.021c0,4.144,0.703,26.569,0.709,26.797
		c0.001,2.074,1.206,3.752,2.687,3.752h2.001c1.48,0,2.686-1.678,2.686-3.74V42.869l0.242-0.106c0.114-0.05,0.403-0.276,0.615-0.441
		c0.222-0.174,0.431-0.339,0.586-0.427l0.404,0.703c-0.105,0.061-0.31,0.221-0.49,0.362c-0.219,0.172-0.397,0.309-0.546,0.407
		v23.489C10.709,69.366,9.14,71.408,7.212,71.408 M24.37,43.871c-1.374,0-3.012-0.549-3.684-1.806l-0.016-0.034
		c-0.019-0.046-0.465-1.12-0.576-2.319l-0.001-0.038v-5.02c-1.495,1.757-3.194,3.631-4.507,4.968l-0.579-0.567
		c1.515-1.542,3.548-3.808,5.179-5.773l0.717-0.863v7.236c0.096,0.993,0.454,1.91,0.508,2.045c0.46,0.836,1.717,1.397,3.069,1.359
		c1.193-0.031,2.129-0.518,2.51-1.304c0.175-0.521,0.353-1.433,0.353-2.081V18.598c0-1.449-0.542-2.784-1.38-3.4l-0.023-0.019
		c-0.018-0.016-0.036-0.031-0.053-0.047c-0.012-0.012-0.024-0.022-0.036-0.032c-1.545-1.212-4.128-0.956-7.274,0.721
		c-3.246,1.731-6.659,4.753-9.607,8.512c-0.253,0.322-0.566,0.75-0.87,1.163c-0.2,0.273-0.392,0.535-0.55,0.744l-0.647-0.49
		c0.156-0.205,0.345-0.464,0.543-0.733c0.307-0.418,0.624-0.852,0.885-1.185c3.017-3.845,6.521-6.944,9.865-8.727
		c3.446-1.837,6.343-2.066,8.154-0.644c0.03,0.022,0.058,0.049,0.086,0.073l0.023,0.021c1.046,0.78,1.696,2.326,1.696,4.043v21.076
		c0,0.771-0.209,1.794-0.404,2.364l-0.017,0.042c-0.508,1.081-1.716,1.75-3.233,1.79C24.458,43.87,24.414,43.871,24.37,43.871"/>
	<path d="M20.156,34.484v5.226c0.107,1.14,0.524,2.181,0.571,2.295l0.016,0.033c0.698,1.307,2.39,1.771,3.627,1.771
		c0.044,0,0.087,0,0.13-0.001c1.492-0.039,2.68-0.695,3.178-1.754l0.014-0.038c0.194-0.563,0.4-1.579,0.4-2.342V18.598
		c0-1.695-0.64-3.225-1.67-3.993l-0.027-0.022c-0.028-0.026-0.056-0.051-0.084-0.073c-0.767-0.603-1.737-0.908-2.881-0.908
		c-1.513,0-3.264,0.525-5.205,1.56c-3.337,1.777-6.833,4.871-9.844,8.71c-0.269,0.344-0.61,0.809-0.884,1.183
		c-0.182,0.249-0.357,0.487-0.506,0.684l0.547,0.415c0.151-0.199,0.328-0.44,0.512-0.692l0.038-0.053
		c0.29-0.395,0.59-0.804,0.833-1.112c2.953-3.766,6.372-6.793,9.627-8.529c1.845-0.983,3.484-1.482,4.873-1.482
		c0.989,0,1.82,0.26,2.468,0.769c0.014,0.011,0.028,0.022,0.041,0.036c0.016,0.014,0.033,0.028,0.05,0.044l0.022,0.018
		c0.852,0.626,1.404,1.98,1.404,3.449v21.076c0,0.675-0.183,1.586-0.356,2.101c-0.394,0.815-1.353,1.315-2.568,1.347
		c-1.379,0.04-2.652-0.531-3.125-1.392c-0.073-0.178-0.422-1.086-0.516-2.068v-7.07l-0.607,0.73
		c-1.613,1.944-3.624,4.187-5.138,5.732l0.489,0.48c1.298-1.324,2.961-3.158,4.46-4.921L20.156,34.484z M24.37,43.934
		c-1.271,0-3.014-0.481-3.739-1.839l-0.017-0.036c-0.051-0.122-0.474-1.179-0.582-2.342l-0.002-0.041v-4.852
		c-1.489,1.744-3.125,3.546-4.399,4.843l-0.044,0.045l-0.668-0.657l0.044-0.044c1.517-1.545,3.548-3.809,5.175-5.769l0.828-0.998
		v7.41c0.092,0.959,0.436,1.854,0.503,2.022c0.448,0.812,1.666,1.36,3.01,1.319c1.167-0.03,2.085-0.504,2.455-1.269
		c0.169-0.506,0.346-1.417,0.346-2.054V18.598c0-1.431-0.531-2.745-1.354-3.35l-0.025-0.021c-0.02-0.016-0.038-0.033-0.056-0.05
		c-0.012-0.011-0.022-0.021-0.032-0.028c-0.627-0.492-1.432-0.742-2.392-0.742c-1.368,0-2.987,0.494-4.814,1.469
		c-3.24,1.727-6.645,4.744-9.587,8.495c-0.242,0.308-0.542,0.716-0.831,1.11l-0.038,0.051c-0.2,0.273-0.392,0.536-0.55,0.744
		l-0.038,0.051l-0.748-0.565l0.038-0.05c0.156-0.206,0.345-0.464,0.542-0.733c0.275-0.375,0.617-0.841,0.887-1.186
		c3.022-3.853,6.533-6.957,9.885-8.744c1.958-1.044,3.729-1.573,5.263-1.573c1.173,0,2.168,0.315,2.959,0.936
		c0.031,0.024,0.061,0.052,0.09,0.077l0.021,0.019c1.058,0.789,1.718,2.356,1.718,4.091v21.076c0,0.775-0.21,1.808-0.408,2.386
		l-0.017,0.044c-0.52,1.106-1.75,1.788-3.29,1.829C24.458,43.934,24.414,43.934,24.37,43.934 M5.512,27.654
		c-3.074,4.484-4.446,8.309-4.445,12.394c0,4.103,0.68,25.881,0.709,26.805c0,2.479,1.541,4.493,3.435,4.493h2.001
		c1.894,0,3.434-2.014,3.434-4.49V43.334l0.029-0.02c0.154-0.101,0.344-0.249,0.541-0.403c0.148-0.116,0.327-0.257,0.445-0.334
		l-0.342-0.597c-0.144,0.091-0.328,0.235-0.522,0.388l-0.015,0.012c-0.222,0.173-0.497,0.388-0.616,0.439L9.961,42.91v23.945
		c0,2.098-1.233,3.804-2.749,3.804H5.211c-1.515,0-2.749-1.712-2.749-3.815l-0.01-0.323c-0.21-6.796-0.699-22.979-0.699-26.473
		c0-3.991,1.294-7.584,4.324-12.004L5.512,27.654z M7.212,71.471H5.211c-1.963,0-3.56-2.07-3.56-4.615
		c-0.029-0.923-0.71-22.703-0.71-26.808c0-4.127,1.388-7.987,4.503-12.516l0.035-0.052l0.772,0.531l-0.035,0.051
		c-3.041,4.422-4.338,8.006-4.338,11.985c0,3.492,0.489,19.674,0.699,26.469l0.01,0.325c0.001,2.037,1.178,3.692,2.624,3.692h2.001
		c1.446,0,2.623-1.649,2.623-3.679V42.829l0.28-0.124c0.105-0.046,0.397-0.273,0.59-0.425l0.054,0.037l-0.039-0.049
		c0.222-0.174,0.432-0.339,0.591-0.429l0.054-0.031l0.466,0.812l-0.054,0.03c-0.104,0.061-0.323,0.231-0.484,0.357
		c-0.187,0.147-0.368,0.289-0.521,0.393v23.454C10.772,69.4,9.175,71.471,7.212,71.471"/>
	<path fill="#F47821" d="M13.086,45.307L13.086,45.307c-0.54,0-1.342-0.386-1.649-0.793c-0.171-0.217-0.171-0.416-0.139-0.545
		c0.027-0.115,0.235-0.783,0.536-1.434c-2.019,0.789-2.38,0.861-2.549,0.861C8.57,43.39,8.383,42.835,8.247,42.43
		c-0.033-0.102-0.069-0.208-0.115-0.317c-0.027-0.064-0.054-0.13-0.077-0.189c-0.117-0.297-0.182-0.547-0.105-0.79
		c0.11-0.347,0.444-0.491,0.776-0.61c0.248-0.087,1.311-0.377,2.418-0.663C7.56,36.21,5.747,29.2,5.41,27.784l-0.047-0.195
		l2.247-2.717l0.078,0.999c0.39,4.948,5.228,11.327,6.593,12.609c0.231,0.049,0.487,0.111,0.722,0.195
		c0.469,0.163,0.773,0.751,0.868,1.04c0.035,0.103,0.069,0.239,0.045,0.377c0.001,0.116-0.008,0.233-0.028,0.354
		c-0.181,1.072-2.008,4.246-2.216,4.604l-0.052,0.091l-0.089,0.054C13.409,45.269,13.259,45.307,13.086,45.307 M12.116,44.058
		c0.187,0.188,0.659,0.42,0.941,0.436c0.596-1.041,1.904-3.435,2.031-4.18c0.014-0.086,0.019-0.169,0.014-0.252l-0.005-0.107
		c-0.058-0.172-0.247-0.474-0.363-0.514c-0.227-0.081-0.496-0.14-0.728-0.188L13.9,39.229l-0.08-0.07
		C12.432,37.935,7.878,31.965,7,26.883l-0.753,0.91c0.445,1.806,2.329,8.682,5.883,11.891l0.09,0.08l0.164,0.618l-0.399,0.101
		c-1.364,0.344-2.75,0.722-2.988,0.806c-0.15,0.054-0.226,0.09-0.265,0.111c0.009,0.033,0.03,0.104,0.08,0.229
		c0.021,0.056,0.043,0.109,0.068,0.169c0.055,0.132,0.097,0.257,0.137,0.374c0.139,0.413,0.164,0.413,0.272,0.414
		c0.086-0.011,0.595-0.145,3.059-1.123c0.267-0.106,0.267-0.106,0.346-0.106h0.24l0.283,0.518l-0.181,0.214
		C12.651,42.537,12.238,43.652,12.116,44.058"/>
	<path d="M62.801,16.294c3.904,0,7.08-3.176,7.08-7.08s-3.176-7.081-7.08-7.081c-3.905,0-7.082,3.177-7.082,7.081
		S58.896,16.294,62.801,16.294 M62.801,2.944c3.457,0,6.269,2.812,6.269,6.27s-2.812,6.27-6.269,6.27s-6.27-2.812-6.27-6.27
		S59.344,2.944,62.801,2.944"/>
	<path d="M88.404,71.408h2.001c1.929,0,3.498-2.042,3.498-4.552c0.006-0.214,0.709-22.652,0.709-26.809
		c0-4.113-1.385-7.963-4.491-12.48l-0.669,0.46c3.048,4.434,4.349,8.028,4.349,12.021c0,4.144-0.703,26.569-0.709,26.797
		c0,2.074-1.205,3.752-2.687,3.752h-2.001c-1.48,0-2.686-1.678-2.686-3.74V42.869l-0.242-0.106c-0.114-0.05-0.404-0.276-0.615-0.441
		c-0.223-0.174-0.432-0.339-0.586-0.427l-0.404,0.703c0.105,0.061,0.311,0.221,0.49,0.362c0.219,0.172,0.396,0.309,0.546,0.407
		v23.489C84.907,69.366,86.477,71.408,88.404,71.408 M71.246,43.871c1.374,0,3.014-0.549,3.684-1.806l0.017-0.034
		c0.019-0.046,0.465-1.12,0.576-2.319l0.001-0.038v-5.02c1.494,1.757,3.193,3.631,4.507,4.968l0.579-0.567
		c-1.516-1.542-3.548-3.808-5.18-5.773l-0.717-0.863v7.236c-0.096,0.993-0.453,1.91-0.508,2.045c-0.46,0.836-1.718,1.397-3.07,1.359
		c-1.192-0.031-2.129-0.518-2.51-1.304c-0.174-0.521-0.352-1.433-0.352-2.081V18.598c0-1.449,0.541-2.784,1.38-3.4l0.022-0.019
		c0.019-0.016,0.037-0.031,0.055-0.047c0.011-0.012,0.021-0.022,0.035-0.032c1.545-1.212,4.127-0.956,7.272,0.721
		c3.247,1.731,6.66,4.753,9.608,8.512c0.253,0.322,0.566,0.75,0.869,1.163c0.201,0.273,0.392,0.535,0.55,0.744l0.647-0.49
		c-0.156-0.205-0.346-0.464-0.543-0.733c-0.307-0.418-0.625-0.852-0.886-1.185c-3.017-3.845-6.521-6.944-9.864-8.727
		c-3.445-1.837-6.342-2.066-8.154-0.644c-0.029,0.022-0.059,0.049-0.086,0.073l-0.022,0.021c-1.046,0.78-1.696,2.326-1.696,4.043
		v21.076c0,0.771,0.209,1.794,0.404,2.364l0.018,0.042c0.508,1.081,1.715,1.75,3.232,1.79C71.158,43.87,71.202,43.871,71.246,43.871
		"/>
	<path d="M62.801,3.007c-3.422,0-6.207,2.784-6.207,6.207s2.785,6.206,6.207,6.206s6.207-2.783,6.207-6.206
		S66.223,3.007,62.801,3.007 M62.801,15.545c-3.491,0-6.332-2.84-6.332-6.331s2.841-6.333,6.332-6.333
		c3.49,0,6.332,2.842,6.332,6.333S66.291,15.545,62.801,15.545 M62.801,2.195c-3.871,0-7.02,3.149-7.02,7.019
		s3.148,7.018,7.02,7.018c3.869,0,7.019-3.148,7.019-7.018S66.67,2.195,62.801,2.195 M62.801,16.357
		c-3.939,0-7.145-3.204-7.145-7.144c0-3.938,3.205-7.144,7.145-7.144c3.938,0,7.144,3.205,7.144,7.144
		C69.944,13.153,66.739,16.357,62.801,16.357"/>
	<path d="M71.246,43.934c-0.043,0-0.088-0.001-0.131-0.001c-1.543-0.041-2.771-0.723-3.291-1.826l-0.017-0.044
		c-0.198-0.581-0.409-1.612-0.409-2.389V18.598c0-1.733,0.66-3.302,1.721-4.094l0.021-0.018c0.025-0.023,0.056-0.051,0.087-0.074
		c0.792-0.621,1.788-0.937,2.961-0.937c1.533,0,3.305,0.529,5.262,1.573c3.352,1.786,6.861,4.891,9.885,8.744
		c0.258,0.33,0.566,0.749,0.887,1.186c0.197,0.27,0.387,0.527,0.542,0.732l0.038,0.05l-0.747,0.566l-0.038-0.051
		c-0.134-0.176-0.29-0.39-0.457-0.616l-0.129-0.176c-0.29-0.396-0.59-0.805-0.833-1.113c-2.942-3.751-6.347-6.769-9.588-8.495
		c-1.826-0.975-3.446-1.468-4.813-1.468c-0.959,0-1.765,0.25-2.391,0.74c-0.012,0.01-0.021,0.019-0.029,0.027l-0.082,0.07
		c-0.826,0.606-1.357,1.921-1.357,3.352v21.076c0,0.636,0.178,1.548,0.349,2.061c0.368,0.758,1.285,1.231,2.453,1.262
		c1.337,0.039,2.562-0.506,3.013-1.326c0.092-0.234,0.41-1.091,0.5-2.021v-7.404l0.828,0.997c1.627,1.962,3.659,4.226,5.176,5.77
		l0.043,0.044l-0.668,0.656l-0.043-0.044c-1.272-1.295-2.91-3.096-4.4-4.842l-0.001,4.888c-0.109,1.184-0.533,2.227-0.581,2.343
		l-0.018,0.036C74.26,43.452,72.518,43.934,71.246,43.934 M83.955,42.577c0.111,0.071,0.273,0.198,0.445,0.334
		c0.197,0.154,0.387,0.303,0.541,0.403l0.028,0.02v23.521c0,2.477,1.541,4.49,3.435,4.49h2.002c1.893,0,3.435-2.014,3.435-4.49
		l0.004-0.147c0.118-3.788,0.705-22.874,0.705-26.66c0-4.085-1.371-7.909-4.444-12.393l-0.565,0.389
		c3.03,4.42,4.323,8.013,4.323,12.004c0,3.494-0.488,19.677-0.698,26.473l-0.011,0.325c0,2.103-1.233,3.813-2.748,3.813h-2.002
		c-1.515,0-2.748-1.706-2.748-3.804V42.91l-0.205-0.091c-0.112-0.049-0.352-0.232-0.629-0.449c-0.198-0.155-0.383-0.299-0.525-0.39
		L83.955,42.577z M90.406,71.471h-2.002c-1.963,0-3.56-2.07-3.56-4.615V43.4c-0.153-0.103-0.334-0.243-0.522-0.392
		c-0.149-0.118-0.377-0.296-0.482-0.357l-0.055-0.03l0.467-0.812l0.054,0.031c0.157,0.089,0.365,0.253,0.587,0.425
		c0.204,0.161,0.501,0.394,0.608,0.44l0.28,0.124v24.026c0,2.029,1.177,3.679,2.623,3.679h2.002c1.445,0,2.623-1.655,2.623-3.69
		l0.01-0.327c0.21-6.795,0.699-22.977,0.699-26.469c0-3.979-1.297-7.564-4.338-11.985l-0.035-0.051l0.771-0.531l0.036,0.053
		c3.114,4.527,4.502,8.388,4.502,12.515c0,3.788-0.587,22.876-0.705,26.664l-0.004,0.146C93.966,69.4,92.369,71.471,90.406,71.471
		 M72.188,13.601c-1.145,0-2.115,0.307-2.883,0.909c-0.027,0.022-0.055,0.046-0.081,0.07l-0.024,0.021
		c-1.035,0.771-1.676,2.301-1.676,3.996v21.076c0,0.763,0.207,1.778,0.401,2.345l0.015,0.038c0.498,1.057,1.686,1.711,3.178,1.751
		c0.041,0.001,0.086,0.001,0.129,0.001c1.238,0,2.93-0.464,3.629-1.772l0.014-0.031c0.018-0.043,0.462-1.118,0.571-2.299
		l0.002-0.034v-5.188l0.11,0.13c1.5,1.764,3.164,3.599,4.459,4.92l0.49-0.48c-1.515-1.545-3.525-3.788-5.14-5.731l-0.606-0.731
		v7.064c-0.092,0.951-0.414,1.822-0.512,2.067c-0.462,0.84-1.666,1.4-3,1.4c-0.043,0-0.086-0.001-0.13-0.002
		c-1.215-0.031-2.174-0.531-2.563-1.339c-0.177-0.523-0.359-1.436-0.359-2.108V18.598c0-1.469,0.552-2.824,1.406-3.451l0.072-0.062
		c0.01-0.011,0.023-0.024,0.039-0.035c0.647-0.509,1.477-0.767,2.467-0.767c1.389,0,3.027,0.499,4.873,1.482
		c3.256,1.735,6.674,4.763,9.627,8.528c0.244,0.31,0.545,0.72,0.836,1.116l0.129,0.176c0.15,0.206,0.293,0.399,0.418,0.565
		l0.547-0.415c-0.148-0.196-0.323-0.436-0.506-0.684c-0.318-0.436-0.627-0.854-0.883-1.183c-3.013-3.839-6.51-6.933-9.845-8.71
		C75.451,14.125,73.699,13.601,72.188,13.601"/>
	<path fill="#ED3193" d="M80.582,39.967l-0.004,0.098c-0.006,0.077,0,0.155,0.013,0.238c0.118,0.696,1.305,2.903,2.004,4.125
		c0.261-0.031,0.655-0.229,0.835-0.389c-0.141-0.451-0.537-1.49-0.896-1.911l-0.209-0.246l0.321-0.588h0.278
		c0.091,0,0.096,0.001,0.367,0.11c2.588,1.027,2.988,1.111,3.043,1.117c0.064-0.001,0.082-0.001,0.207-0.37
		c0.037-0.112,0.082-0.243,0.139-0.379l0.006-0.015c0.021-0.053,0.042-0.102,0.061-0.152c0.026-0.065,0.048-0.124,0.063-0.174
		c-0.042-0.021-0.108-0.048-0.211-0.084c-0.239-0.084-1.624-0.462-2.983-0.805l-0.459-0.116l0.186-0.698l0.104-0.092
		c3.491-3.152,5.357-9.81,5.857-11.829l-0.648-0.78c-0.951,5.152-5.488,11.008-6.817,12.178l-0.093,0.082l-0.119,0.025
		c-0.232,0.05-0.497,0.107-0.721,0.188C80.822,39.528,80.645,39.787,80.582,39.967 M82.525,44.559l-0.02-0.033
		c-0.7-1.223-1.917-3.482-2.039-4.201c-0.016-0.094-0.02-0.182-0.014-0.267l0.008-0.123c0.055-0.166,0.25-0.501,0.402-0.554
		c0.229-0.082,0.5-0.142,0.735-0.191l0.087-0.019l0.069-0.06c1.332-1.174,5.909-7.084,6.801-12.239l0.022-0.134l0.86,1.039
		l-0.008,0.03c-0.489,1.989-2.366,8.729-5.901,11.922l-0.076,0.068l-0.143,0.538l0.336,0.086c1.362,0.343,2.751,0.722,2.994,0.807
		c0.127,0.047,0.219,0.085,0.273,0.116l0.043,0.024l-0.012,0.047c-0.019,0.064-0.045,0.142-0.082,0.235
		c-0.02,0.05-0.039,0.101-0.062,0.153l-0.006,0.016c-0.056,0.133-0.099,0.261-0.136,0.37c-0.137,0.404-0.174,0.455-0.332,0.456
		c-0.088-0.01-0.547-0.118-3.082-1.127c-0.256-0.102-0.256-0.102-0.322-0.102H82.72l-0.244,0.448l0.153,0.18
		c0.383,0.449,0.8,1.557,0.932,1.994l0.012,0.035l-0.026,0.026c-0.19,0.191-0.671,0.437-0.982,0.455L82.525,44.559z M82.044,45.096
		l0.073,0.046c0.115,0.068,0.252,0.103,0.412,0.103c0.524,0,1.301-0.373,1.6-0.769c0.156-0.198,0.156-0.378,0.129-0.491
		c-0.029-0.122-0.238-0.786-0.533-1.423l-0.066-0.141l0.146,0.056c1.929,0.753,2.354,0.857,2.526,0.857
		c0.672-0.007,0.843-0.515,0.98-0.924c0.036-0.108,0.071-0.213,0.116-0.322c0.028-0.064,0.053-0.129,0.076-0.187
		c0.114-0.288,0.176-0.525,0.104-0.75c-0.102-0.318-0.42-0.456-0.738-0.569c-0.235-0.083-1.25-0.361-2.412-0.662l-0.104-0.026
		l0.076-0.078c3.581-3.647,5.392-10.674,5.717-12.046l0.04-0.165l-2.128-2.572l-0.067,0.844c-0.381,4.863-5.149,11.277-6.611,12.65
		l-0.014,0.012l-0.017,0.004c-0.204,0.043-0.47,0.104-0.714,0.193c-0.447,0.154-0.738,0.722-0.83,1
		c-0.029,0.088-0.064,0.219-0.041,0.347c-0.001,0.124,0.008,0.239,0.027,0.354c0.179,1.063,2,4.226,2.207,4.583L82.044,45.096z
		 M82.529,45.369c-0.183,0-0.343-0.04-0.476-0.12l-0.103-0.062l-0.061-0.104c-0.209-0.358-2.041-3.539-2.225-4.625
		c-0.02-0.123-0.028-0.245-0.026-0.365c-0.028-0.143,0.013-0.296,0.047-0.396c0.099-0.299,0.413-0.908,0.907-1.079
		c0.243-0.087,0.506-0.149,0.712-0.193c1.468-1.39,6.181-7.742,6.56-12.556l0.092-1.153l2.365,2.859l-0.054,0.226
		c-0.325,1.368-2.121,8.335-5.676,12.027c1.122,0.291,2.087,0.556,2.319,0.638c0.347,0.124,0.695,0.276,0.814,0.649
		c0.083,0.26,0.018,0.521-0.107,0.833c-0.021,0.059-0.049,0.125-0.076,0.19c-0.045,0.105-0.078,0.207-0.111,0.306
		c-0.137,0.406-0.34,1.01-1.1,1.017c-0.178,0-0.514-0.064-2.43-0.809c0.266,0.599,0.449,1.188,0.478,1.304
		c0.034,0.142,0.034,0.36-0.152,0.599C83.912,44.972,83.086,45.369,82.529,45.369"/>
	<path fill="#F47821" d="M82.529,45.307L82.529,45.307c0.541,0,1.342-0.386,1.649-0.793c0.171-0.217,0.171-0.416,0.14-0.545
		c-0.027-0.115-0.235-0.783-0.537-1.434c2.02,0.789,2.381,0.861,2.549,0.861c0.716-0.007,0.904-0.562,1.039-0.967
		c0.035-0.102,0.07-0.208,0.115-0.317c0.028-0.064,0.055-0.13,0.076-0.189c0.119-0.297,0.184-0.547,0.106-0.79
		c-0.11-0.347-0.444-0.491-0.776-0.61c-0.246-0.087-1.311-0.377-2.418-0.663c3.584-3.649,5.396-10.659,5.734-12.075l0.047-0.195
		l-2.247-2.717l-0.078,0.999c-0.39,4.948-5.228,11.327-6.593,12.609c-0.232,0.049-0.487,0.111-0.723,0.195
		c-0.469,0.163-0.772,0.751-0.867,1.04c-0.034,0.103-0.069,0.239-0.045,0.377c0,0.116,0.009,0.233,0.027,0.354
		c0.182,1.072,2.008,4.246,2.217,4.604l0.051,0.091l0.09,0.054C82.209,45.269,82.357,45.307,82.529,45.307 M83.501,44.058
		c-0.187,0.188-0.659,0.42-0.941,0.436c-0.596-1.041-1.905-3.435-2.03-4.18c-0.015-0.086-0.02-0.169-0.015-0.252l0.005-0.107
		c0.059-0.172,0.246-0.474,0.363-0.514c0.227-0.081,0.495-0.14,0.729-0.188l0.104-0.023l0.08-0.07
		c1.389-1.224,5.942-7.193,6.821-12.275l0.754,0.91c-0.446,1.806-2.33,8.682-5.885,11.891l-0.088,0.08l-0.166,0.618l0.399,0.101
		c1.364,0.344,2.75,0.722,2.987,0.806c0.15,0.054,0.227,0.09,0.265,0.111c-0.009,0.033-0.028,0.104-0.079,0.229
		c-0.021,0.056-0.043,0.109-0.066,0.169c-0.056,0.132-0.099,0.257-0.139,0.374c-0.139,0.413-0.164,0.413-0.271,0.414
		c-0.086-0.011-0.594-0.145-3.059-1.123c-0.267-0.106-0.267-0.106-0.346-0.106h-0.241L82.4,41.873l0.18,0.214
		C82.966,42.537,83.379,43.652,83.501,44.058"/>
</g>
<rect x="34.055" y="39.607" width="0.978" height="30.667"/>
<rect x="34.054" y="39.607" fill="none" stroke="#000000" stroke-width="0.3" stroke-miterlimit="10" width="0.979" height="30.667"/>
<rect x="60.371" y="39.826" width="0.979" height="30.667"/>
<rect x="60.371" y="39.824" fill="none" stroke="#000000" stroke-width="0.3" stroke-miterlimit="10" width="0.979" height="30.668"/>
<polygon fill="#F47821" points="42.535,37.013 41.834,36.053 42.027,35.913 44.937,25.403 44.384,25.243 41.677,34.905 
	41.68,34.908 41.674,34.914 41.609,35.146 41.502,35.116 41.172,35.504 40.787,35.177 43.843,24.27 45.897,24.868 "/>
<path fill="#F47821" d="M31.383,36.172H41.76v-0.168l-0.477-0.407h-9.9V36.172z M42.542,36.955H30.6v-2.142h10.971l0.972,0.828
	V36.955z"/>
<polygon fill="#F47821" points="53.121,36.851 49.76,24.705 51.813,24.106 54.869,35.014 54.484,35.341 54.154,34.952 
	54.047,34.983 53.978,34.744 53.979,34.741 51.272,25.08 50.72,25.24 53.629,35.75 53.821,35.89 "/>
<path fill="#F47821" d="M53.897,36.009h10.378v-0.574h-9.9l-0.478,0.405V36.009z M65.057,36.791H53.114v-1.312l0.974-0.827h10.969
	V36.791z"/>
</svg>
