<?xml version="1.0" encoding="utf-8"?>
<!-- Generator: Adobe Illustrator 15.0.2, SVG Export Plug-In . SVG Version: 6.00 Build 0)  -->
<!DOCTYPE svg PUBLIC "-//W3C//DTD SVG 1.1//EN" "http://www.w3.org/Graphics/SVG/1.1/DTD/svg11.dtd">
<svg version="1.1" id="Layer_1" xmlns="http://www.w3.org/2000/svg" xmlns:xlink="http://www.w3.org/1999/xlink" x="0px" y="0px"
	 width="100px" height="145px" viewBox="0 0 100 145" enable-background="new 0 0 100 145" xml:space="preserve">
<g>
	<path fill="#FFFFFF" d="M93.334,117.936l-0.973-1.116l-20.764,20.466l-18.543-18.422c-0.219-0.221-1.896-2.037-2.09-2.358
		c-0.218,0.59-0.49,1.163-0.81,1.691c0.089,0.104,1.644,1.742,1.735,1.836l19.127,19.004c0.312,0.31,0.854,0.308,1.164-0.002"/>
	<path fill="none" stroke="#FFFFFF" stroke-width="0.55" stroke-miterlimit="10" d="M93.334,117.936l-0.973-1.116l-20.764,20.466
		l-18.543-18.422c-0.219-0.221-1.896-2.037-2.09-2.358c-0.218,0.59-0.49,1.163-0.81,1.691c0.089,0.104,1.644,1.742,1.735,1.836
		l19.127,19.004c0.312,0.31,0.854,0.308,1.164-0.002"/>
	<path fill="#FFFFFF" d="M29.66,139.6l1.164-1.157L10.149,117.81l14.727-16.897c1.025-1.176,1.868-3.322,1.92-4.89l0.693-22.829
		c0.841-3.095,8.248-30.521,9.377-40.435c0.21-1.822,0.953-3.479,2.091-4.667c0.816-0.858,2.239-1.884,4.371-1.884
		c2.292,0,4.303,1.201,5.449,3.006c0.223-0.587,0.5-1.146,0.828-1.673c-1.488-1.819-3.748-2.983-6.277-2.983
		c-2.12,0-4.096,0.85-5.565,2.395c-1.385,1.446-2.286,3.44-2.536,5.618c-1.167,10.245-9.3,40.078-9.381,40.379
		c-0.018,0.062-0.027,0.127-0.03,0.195l-0.669,22.827c-0.04,1.195-0.733,2.96-1.514,3.855L8.398,117.307
		c-0.284,0.325-0.267,0.818,0.039,1.125"/>
	<path fill="none" stroke="#FFFFFF" stroke-width="0.55" stroke-miterlimit="10" d="M29.66,139.6l1.164-1.157L10.149,117.81
		l14.727-16.897c1.025-1.176,1.868-3.322,1.92-4.89l0.693-22.829c0.841-3.095,8.248-30.521,9.377-40.435
		c0.21-1.822,0.953-3.479,2.091-4.667c0.816-0.858,2.239-1.884,4.371-1.884c2.292,0,4.303,1.201,5.449,3.006
		c0.223-0.587,0.5-1.146,0.828-1.673c-1.488-1.819-3.748-2.983-6.277-2.983c-2.12,0-4.096,0.85-5.565,2.395
		c-1.385,1.446-2.286,3.44-2.536,5.618c-1.167,10.245-9.3,40.078-9.381,40.379c-0.018,0.062-0.027,0.127-0.03,0.195l-0.669,22.827
		c-0.04,1.195-0.733,2.96-1.514,3.855L8.398,117.307c-0.284,0.325-0.267,0.818,0.039,1.125"/>
	<path fill="#FFFFFF" d="M37.599,67.27c-1.533,1.532-2.377,3.566-2.377,5.73v20.846h1.65V73c0-1.724,0.672-3.345,1.894-4.564
		c1.217-1.219,2.838-1.892,4.563-1.892c1.91,0,3.624,0.839,4.807,2.16v-2.217c-1.347-0.996-3.007-1.593-4.807-1.593
		C41.163,64.895,39.128,65.737,37.599,67.27"/>
	<path fill="none" stroke="#FFFFFF" stroke-width="0.55" stroke-miterlimit="10" d="M37.599,67.27
		c-1.533,1.532-2.377,3.566-2.377,5.73v20.846h1.65V73c0-1.724,0.672-3.345,1.894-4.564c1.217-1.219,2.838-1.892,4.563-1.892
		c1.91,0,3.624,0.839,4.807,2.16v-2.217c-1.347-0.996-3.007-1.593-4.807-1.593C41.163,64.895,39.128,65.737,37.599,67.27z"/>
	<path fill="#FFFFFF" d="M48.171,118.857l-18.545,18.426l1.163,1.172l18.547-18.43c0.091-0.092,0.177-0.198,0.265-0.301
		c-0.319-0.529-0.592-1.1-0.81-1.69C48.599,118.354,48.391,118.64,48.171,118.857"/>
	<path fill="none" stroke="#FFFFFF" stroke-width="0.55" stroke-miterlimit="10" d="M48.171,118.857l-18.545,18.426l1.163,1.172
		l18.547-18.43c0.091-0.092,0.177-0.198,0.265-0.301c-0.319-0.529-0.592-1.1-0.81-1.69C48.599,118.354,48.391,118.64,48.171,118.857
		z"/>
	<path fill="#FFFFFF" d="M50.204,114.373c0.11,0.685,0.091,3.059,0.407,3.739c0.317-0.682,0.802-3.057,0.912-3.742L50.204,114.373z"
		/>
	<path fill="none" stroke="#FFFFFF" stroke-width="0.55" stroke-miterlimit="10" d="M50.204,114.373
		c0.11,0.685,0.091,3.059,0.407,3.739c0.317-0.682,0.802-3.057,0.912-3.742L50.204,114.373z"/>
	<path fill="#FFFFFF" d="M48.791,118.035c0.219,0.59,0.491,1.16,0.81,1.689c0.187-0.221,0.368-0.459,0.536-0.724
		c-0.354-0.645-0.636-1.345-0.825-2.046C49.167,117.335,48.991,117.703,48.791,118.035"/>
	<path fill="none" stroke="#FFFFFF" stroke-width="0.55" stroke-miterlimit="10" d="M48.791,118.035
		c0.219,0.59,0.491,1.16,0.81,1.689c0.187-0.221,0.368-0.459,0.536-0.724c-0.354-0.645-0.636-1.345-0.825-2.046
		C49.167,117.335,48.991,117.703,48.791,118.035z"/>
	<path fill="#FFFFFF" d="M49.846,114.374c-0.066,0.304-0.414,2.269-0.534,2.581c0.189,0.702,0.471,1.401,0.825,2.046
		c0.174-0.279,0.33-0.58,0.475-0.889c-0.316-0.681-0.297-3.055-0.407-3.739L49.846,114.374z"/>
	<path fill="none" stroke="#FFFFFF" stroke-width="0.55" stroke-miterlimit="10" d="M49.846,114.374
		c-0.066,0.304-0.414,2.269-0.534,2.581c0.189,0.702,0.471,1.401,0.825,2.046c0.174-0.279,0.33-0.58,0.475-0.889
		c-0.316-0.681-0.297-3.055-0.407-3.739L49.846,114.374z"/>
	<path fill="#FFFFFF" d="M57.893,66.544c1.726,0,3.347,0.672,4.565,1.895c1.22,1.218,1.892,2.838,1.892,4.562v20.846H66V73
		c0-2.164-0.843-4.199-2.375-5.728c-1.529-1.534-3.566-2.378-5.732-2.378c-1.799,0-3.459,0.597-4.807,1.595v2.216
		C54.27,67.382,55.983,66.544,57.893,66.544"/>
	<path fill="none" stroke="#FFFFFF" stroke-width="0.55" stroke-miterlimit="10" d="M57.893,66.544c1.726,0,3.347,0.672,4.565,1.895
		c1.22,1.218,1.892,2.838,1.892,4.562v20.846H66V73c0-2.164-0.843-4.199-2.375-5.728c-1.529-1.534-3.566-2.378-5.732-2.378
		c-1.799,0-3.459,0.597-4.807,1.595v2.216C54.27,67.382,55.983,66.544,57.893,66.544z"/>
</g>
<polygon fill="#FFFFFF" points="49.799,77.313 49.873,114.372 51.35,114.369 51.422,77.313 "/>
<polygon fill="none" stroke="#FFFFFF" stroke-width="0.55" stroke-miterlimit="10" points="49.799,77.313 49.873,114.372 
	51.35,114.369 51.422,77.313 "/>
<polygon fill="#FFFFFF" points="51.423,79.513 51.35,114.37 51.523,114.37 51.449,79.513 "/>
<polygon fill="none" stroke="#FFFFFF" stroke-width="0.55" stroke-miterlimit="10" points="51.35,114.369 51.522,114.369 
	51.449,79.514 51.422,79.514 "/>
<g>
	<path fill="#FFFFFF" d="M57.893,26.207c2.134,0,3.559,1.029,4.379,1.894c1.133,1.181,1.873,2.836,2.084,4.655
		c0.633,5.55,3.228,16.57,5.539,25.752c0.466,1.843,0.918,3.618,1.342,5.254c0.124,0.478,0.246,0.947,0.365,1.401
		c0.187,0.722,0.367,1.409,0.537,2.06c0.256,0.975,0.492,1.861,0.701,2.643c0.104,0.396,0.205,0.772,0.295,1.109
		c0.285,1.065,0.492,1.833,0.598,2.219l0.029,0.193l0.664,22.645c0.051,1.561,0.896,3.705,1.92,4.879L92.1,119.037l1.244-1.084
		L77.588,99.826c-0.781-0.896-1.474-2.655-1.513-3.846l-0.67-22.839c-0.002-0.065-0.013-0.13-0.029-0.192
		c-0.003-0.009-0.013-0.048-0.03-0.113c-0.017-0.062-0.039-0.147-0.069-0.256c-0.058-0.21-0.138-0.505-0.237-0.877
		c-1.502-5.58-7.562-28.393-8.915-38.119c-0.05-0.356-0.093-0.696-0.129-1.017c-0.252-2.175-1.149-4.167-2.53-5.607
		c-1.473-1.551-3.451-2.402-5.572-2.402c-2.527,0-4.787,1.164-6.275,2.982c0.327,0.527,0.604,1.086,0.827,1.675
		C53.592,27.41,55.602,26.207,57.893,26.207"/>
	<path fill="none" stroke="#FFFFFF" stroke-width="0.55" stroke-miterlimit="10" d="M57.893,26.207c2.134,0,3.559,1.029,4.379,1.894
		c1.133,1.181,1.873,2.836,2.084,4.655c0.633,5.55,3.228,16.57,5.539,25.752c0.466,1.843,0.918,3.618,1.342,5.254
		c0.124,0.478,0.246,0.947,0.365,1.401c0.187,0.722,0.367,1.409,0.537,2.06c0.256,0.975,0.492,1.861,0.701,2.643
		c0.104,0.396,0.205,0.772,0.295,1.109c0.285,1.065,0.492,1.833,0.598,2.219l0.029,0.193l0.664,22.645
		c0.051,1.561,0.896,3.705,1.92,4.879L92.1,119.037l1.244-1.084L77.588,99.826c-0.781-0.896-1.474-2.655-1.513-3.846l-0.67-22.839
		c-0.002-0.065-0.013-0.13-0.029-0.192c-0.003-0.009-0.013-0.048-0.03-0.113c-0.017-0.062-0.039-0.147-0.069-0.256
		c-0.058-0.21-0.138-0.505-0.237-0.877c-1.502-5.58-7.562-28.393-8.915-38.119c-0.05-0.356-0.093-0.696-0.129-1.017
		c-0.252-2.175-1.149-4.167-2.53-5.607c-1.473-1.551-3.451-2.402-5.572-2.402c-2.527,0-4.787,1.164-6.275,2.982
		c0.327,0.527,0.604,1.086,0.827,1.675C53.592,27.41,55.602,26.207,57.893,26.207z"/>
	<path fill="#FFFFFF" d="M66.125,33.584c1.351,9.726,7.412,32.539,8.914,38.12C73.537,66.123,67.476,43.306,66.125,33.584"/>
	<path fill="none" stroke="#FFFFFF" stroke-width="0.55" stroke-miterlimit="10" d="M66.125,33.584
		c1.351,9.726,7.412,32.539,8.914,38.12C73.537,66.123,67.476,43.306,66.125,33.584z"/>
	<path fill="#FFFFFF" d="M75.039,71.704c0.1,0.372,0.18,0.667,0.237,0.877C75.219,72.371,75.139,72.076,75.039,71.704"/>
	<path fill="none" stroke="#FFFFFF" stroke-width="0.55" stroke-miterlimit="10" d="M75.039,71.704
		c0.1,0.372,0.18,0.667,0.237,0.877C75.219,72.371,75.139,72.076,75.039,71.704z"/>
	<path fill="#FFFFFF" d="M49.786,65.706c0.292,0.258,0.567,0.533,0.825,0.824c0.259-0.29,0.533-0.565,0.824-0.823V32.664
		c0-1.271-0.302-2.47-0.824-3.54c-0.523,1.07-0.825,2.269-0.825,3.54V65.706z"/>
	<path fill="none" stroke="#FFFFFF" stroke-width="0.55" stroke-miterlimit="10" d="M49.786,65.706
		c0.292,0.258,0.567,0.533,0.825,0.824c0.259-0.29,0.533-0.565,0.824-0.823V32.664c0-1.271-0.302-2.47-0.824-3.54
		c-0.523,1.07-0.825,2.269-0.825,3.54V65.706z"/>
	<path fill="#FFFFFF" d="M52.444,29.214c-0.224-0.588-0.5-1.146-0.827-1.674c-0.189,0.231-0.361,0.474-0.523,0.724
		c0.348,0.615,0.625,1.273,0.822,1.968C52.061,29.874,52.24,29.535,52.444,29.214"/>
	<path fill="none" stroke="#FFFFFF" stroke-width="0.55" stroke-miterlimit="10" d="M52.444,29.214
		c-0.224-0.588-0.5-1.146-0.827-1.674c-0.189,0.231-0.361,0.474-0.523,0.724c0.348,0.615,0.625,1.273,0.822,1.968
		C52.061,29.874,52.24,29.535,52.444,29.214z"/>
	<path fill="#FFFFFF" d="M51.916,30.23c-0.197-0.692-0.473-1.352-0.822-1.966c-0.18,0.275-0.338,0.562-0.482,0.859
		c0.522,1.071,0.824,2.269,0.824,3.54C51.436,31.803,51.609,30.981,51.916,30.23"/>
	<path fill="none" stroke="#FFFFFF" stroke-width="0.55" stroke-miterlimit="10" d="M51.916,30.23
		c-0.197-0.692-0.473-1.352-0.822-1.966c-0.18,0.275-0.338,0.562-0.482,0.859c0.522,1.071,0.824,2.269,0.824,3.54
		C51.436,31.803,51.609,30.981,51.916,30.23z"/>
	<path fill="#FFFFFF" d="M50.085,67.176c0.167-0.223,0.343-0.438,0.526-0.646c-0.258-0.291-0.533-0.566-0.825-0.824v1.141
		C49.888,66.954,49.988,67.062,50.085,67.176"/>
	<path fill="none" stroke="#FFFFFF" stroke-width="0.55" stroke-miterlimit="10" d="M50.085,67.176
		c0.167-0.223,0.343-0.438,0.526-0.646c-0.258-0.291-0.533-0.566-0.825-0.824v1.141C49.888,66.954,49.988,67.062,50.085,67.176z"/>
	<path fill="#FFFFFF" d="M50.085,67.176c-0.097-0.113-0.197-0.222-0.299-0.329v0.735C49.88,67.442,49.985,67.31,50.085,67.176"/>
	<path fill="none" stroke="#FFFFFF" stroke-width="0.55" stroke-miterlimit="10" d="M50.085,67.176
		c-0.097-0.113-0.197-0.222-0.299-0.329v0.735C49.88,67.442,49.985,67.31,50.085,67.176z"/>
	<path fill="#FFFFFF" d="M49.796,77.863h1.629l0.01-4.865c0-1.269-0.301-2.467-0.824-3.537c-0.523,1.072-0.825,2.271-0.825,3.542
		L49.796,77.863z"/>
	<path fill="none" stroke="#FFFFFF" stroke-width="0.55" stroke-miterlimit="10" d="M49.796,77.863h1.629l0.01-4.865
		c0-1.269-0.301-2.467-0.824-3.537c-0.523,1.072-0.825,2.271-0.825,3.542L49.796,77.863z"/>
	<path fill="#FFFFFF" d="M51.436,68.12c-0.119,0.157-0.234,0.316-0.342,0.482c0.123,0.218,0.236,0.442,0.342,0.672V68.12z"/>
	<path fill="none" stroke="#FFFFFF" stroke-width="0.55" stroke-miterlimit="10" d="M51.436,68.12
		c-0.119,0.157-0.234,0.316-0.342,0.482c0.123,0.218,0.236,0.442,0.342,0.672V68.12z"/>
	<path fill="#FFFFFF" d="M51.436,69.274c-0.105-0.229-0.219-0.454-0.342-0.672c-0.179,0.274-0.337,0.562-0.482,0.858
		c0.522,1.07,0.824,2.269,0.824,3.537V69.274z"/>
	<path fill="none" stroke="#FFFFFF" stroke-width="0.55" stroke-miterlimit="10" d="M51.436,69.274
		c-0.105-0.229-0.219-0.454-0.342-0.672c-0.179,0.274-0.337,0.562-0.482,0.858c0.522,1.07,0.824,2.269,0.824,3.537V69.274z"/>
	<path fill="#FFFFFF" d="M51.436,66.847v-1.14c-0.291,0.258-0.565,0.533-0.824,0.823c0.185,0.207,0.359,0.422,0.525,0.645
		C51.234,67.063,51.334,66.954,51.436,66.847"/>
	<path fill="none" stroke="#FFFFFF" stroke-width="0.55" stroke-miterlimit="10" d="M51.436,66.847v-1.14
		c-0.291,0.258-0.565,0.533-0.824,0.823c0.185,0.207,0.359,0.422,0.525,0.645C51.234,67.063,51.334,66.954,51.436,66.847z"/>
	<path fill="#FFFFFF" d="M50.129,68.602c-0.107-0.166-0.224-0.325-0.343-0.482v1.157C49.892,69.046,50.004,68.821,50.129,68.602"/>
	<path fill="none" stroke="#FFFFFF" stroke-width="0.55" stroke-miterlimit="10" d="M50.129,68.602
		c-0.107-0.166-0.224-0.325-0.343-0.482v1.157C49.892,69.046,50.004,68.821,50.129,68.602z"/>
	<path fill="#FFFFFF" d="M50.611,67.848c0.165-0.233,0.34-0.457,0.526-0.672c-0.167-0.224-0.341-0.438-0.526-0.646
		c-0.186,0.207-0.359,0.423-0.525,0.646C50.271,67.391,50.446,67.614,50.611,67.848"/>
	<path fill="none" stroke="#FFFFFF" stroke-width="0.55" stroke-miterlimit="10" d="M50.611,67.848
		c0.165-0.233,0.34-0.457,0.526-0.672c-0.167-0.224-0.341-0.438-0.526-0.646c-0.186,0.207-0.359,0.423-0.525,0.646
		C50.271,67.391,50.446,67.614,50.611,67.848z"/>
	<path fill="#FFFFFF" d="M49.786,68.118c0.119,0.157,0.235,0.317,0.343,0.483c0.148-0.26,0.311-0.512,0.482-0.754
		c-0.166-0.233-0.34-0.457-0.526-0.672c-0.1,0.135-0.205,0.266-0.299,0.405V68.118z"/>
	<path fill="none" stroke="#FFFFFF" stroke-width="0.55" stroke-miterlimit="10" d="M49.786,68.118
		c0.119,0.157,0.235,0.317,0.343,0.483c0.148-0.26,0.311-0.512,0.482-0.754c-0.166-0.233-0.34-0.457-0.526-0.672
		c-0.1,0.135-0.205,0.266-0.299,0.405V68.118z"/>
	<path fill="#FFFFFF" d="M51.436,66.847c-0.102,0.107-0.201,0.217-0.299,0.328c0.102,0.135,0.206,0.266,0.299,0.405V66.847z"/>
	<path fill="none" stroke="#FFFFFF" stroke-width="0.55" stroke-miterlimit="10" d="M51.436,66.847
		c-0.102,0.107-0.201,0.217-0.299,0.328c0.102,0.135,0.206,0.266,0.299,0.405V66.847z"/>
	<path fill="#FFFFFF" d="M49.786,73.271v0.007c0-1.345,0.303-2.612,0.827-3.747c-0.143-0.313-0.305-0.617-0.483-0.908
		c-0.125,0.23-0.238,0.47-0.344,0.713V73.271z"/>
	<path fill="none" stroke="#FFFFFF" stroke-width="0.55" stroke-miterlimit="10" d="M49.786,73.271v0.007
		c0-1.345,0.303-2.612,0.827-3.747c-0.143-0.313-0.305-0.617-0.483-0.908c-0.125,0.23-0.238,0.47-0.344,0.713V73.271z"/>
	<path fill="#FFFFFF" d="M51.436,68.12v-0.54c-0.093-0.14-0.197-0.27-0.299-0.405c-0.185,0.217-0.361,0.44-0.525,0.672
		c0.173,0.243,0.334,0.495,0.482,0.756C51.201,68.437,51.316,68.277,51.436,68.12"/>
	<path fill="none" stroke="#FFFFFF" stroke-width="0.55" stroke-miterlimit="10" d="M51.436,68.12v-0.54
		c-0.093-0.14-0.197-0.27-0.299-0.405c-0.185,0.217-0.361,0.44-0.525,0.672c0.173,0.243,0.334,0.495,0.482,0.756
		C51.201,68.437,51.316,68.277,51.436,68.12z"/>
	<path fill="#FFFFFF" d="M50.611,69.461c0.145-0.297,0.303-0.584,0.482-0.858c-0.148-0.26-0.311-0.513-0.482-0.755
		c-0.173,0.242-0.334,0.494-0.482,0.755C50.308,68.877,50.467,69.164,50.611,69.461"/>
	<path fill="none" stroke="#FFFFFF" stroke-width="0.55" stroke-miterlimit="10" d="M50.611,69.461
		c0.145-0.297,0.303-0.584,0.482-0.858c-0.148-0.26-0.311-0.513-0.482-0.755c-0.173,0.242-0.334,0.494-0.482,0.755
		C50.308,68.877,50.467,69.164,50.611,69.461z"/>
	<path fill="#FFFFFF" d="M64.355,32.756c0.633,5.55,3.227,16.571,5.54,25.752C67.582,49.327,64.988,38.306,64.355,32.756"/>
	<path fill="none" stroke="#FFFFFF" stroke-width="0.55" stroke-miterlimit="10" d="M64.355,32.756
		c0.633,5.55,3.227,16.571,5.54,25.752C67.582,49.327,64.988,38.306,64.355,32.756z"/>
	<path fill="#FFFFFF" d="M69.896,58.508c0.465,1.843,0.918,3.618,1.341,5.253C70.813,62.126,70.36,60.351,69.896,58.508"/>
	<path fill="none" stroke="#FFFFFF" stroke-width="0.55" stroke-miterlimit="10" d="M69.896,58.508
		c0.465,1.843,0.918,3.618,1.341,5.253C70.813,62.126,70.36,60.351,69.896,58.508z"/>
	<path fill="#FFFFFF" d="M75.578,15.113l-5.124,6.469c0.39,0.324,0.778,0.659,1.159,1.004l5.666-5.998
		C76.723,16.08,76.154,15.587,75.578,15.113"/>
	<path fill="none" stroke="#FFFFFF" stroke-width="0.55" stroke-miterlimit="10" d="M75.578,15.113l-5.124,6.469
		c0.39,0.324,0.778,0.659,1.159,1.004l5.666-5.998C76.723,16.08,76.154,15.587,75.578,15.113z"/>
	<path fill="#FFFFFF" d="M10.359,84.999c0.259,0.668,0.53,1.334,0.813,1.994l7.537-3.354c-0.211-0.496-0.417-1.003-0.618-1.517
		L10.359,84.999z"/>
	<path fill="none" stroke="#FFFFFF" stroke-width="0.55" stroke-miterlimit="10" d="M10.359,84.999
		c0.259,0.668,0.53,1.334,0.813,1.994l7.537-3.354c-0.211-0.496-0.417-1.003-0.618-1.517L10.359,84.999z"/>
	<path fill="#FFFFFF" d="M30.768,21.582l-5.123-6.469c-0.576,0.474-1.146,0.967-1.703,1.475l5.667,5.998
		C29.991,22.242,30.377,21.906,30.768,21.582"/>
	<path fill="none" stroke="#FFFFFF" stroke-width="0.55" stroke-miterlimit="10" d="M30.768,21.582l-5.123-6.469
		c-0.576,0.474-1.146,0.967-1.703,1.475l5.667,5.998C29.991,22.242,30.377,21.906,30.768,21.582z"/>
	<path fill="#FFFFFF" d="M10.822,35.769c-0.272,0.663-0.533,1.332-0.782,2.001l7.774,2.768c0.192-0.517,0.392-1.027,0.596-1.528
		L10.822,35.769z"/>
	<path fill="none" stroke="#FFFFFF" stroke-width="0.55" stroke-miterlimit="10" d="M10.822,35.769
		c-0.272,0.663-0.533,1.332-0.782,2.001l7.774,2.768c0.192-0.517,0.392-1.027,0.596-1.528L10.822,35.769z"/>
	<path fill="#FFFFFF" d="M51.463,14.14l0.344-8.24c-0.787-0.016-1.572-0.002-2.367,0.038l0.603,8.226
		C50.521,14.144,50.994,14.132,51.463,14.14"/>
	<path fill="none" stroke="#FFFFFF" stroke-width="0.55" stroke-miterlimit="10" d="M51.463,14.14l0.344-8.24
		c-0.787-0.016-1.572-0.002-2.367,0.038l0.603,8.226C50.521,14.144,50.994,14.132,51.463,14.14z"/>
	<path fill="#FFFFFF" d="M14.222,60.519l-8.248-0.163c-0.002,0.189-0.003,0.38-0.003,0.569c0,0.524,0.005,1.051,0.017,1.557
		l8.244-0.359c-0.008-0.4-0.011-0.799-0.011-1.197C14.221,60.789,14.221,60.654,14.222,60.519"/>
	<path fill="none" stroke="#FFFFFF" stroke-width="0.55" stroke-miterlimit="10" d="M14.222,60.519l-8.248-0.163
		c-0.002,0.189-0.003,0.38-0.003,0.569c0,0.524,0.005,1.051,0.017,1.557l8.244-0.359c-0.008-0.4-0.011-0.799-0.011-1.197
		C14.221,60.789,14.221,60.654,14.222,60.519z"/>
	<path fill="#FFFFFF" d="M87,60.519c0.001,0.136,0.001,0.271,0.001,0.406c0,0.398-0.003,0.797-0.011,1.197l8.244,0.359
		c0.012-0.507,0.017-1.032,0.017-1.557c0-0.189-0.001-0.38-0.003-0.569L87,60.519z"/>
	<path fill="none" stroke="#FFFFFF" stroke-width="0.55" stroke-miterlimit="10" d="M87,60.519c0.001,0.136,0.001,0.271,0.001,0.406
		c0,0.398-0.003,0.797-0.011,1.197l8.244,0.359c0.012-0.507,0.017-1.032,0.017-1.557c0-0.189-0.001-0.38-0.003-0.569L87,60.519z"/>
	<path fill="#FFFFFF" d="M83.131,82.122c-0.2,0.513-0.407,1.02-0.618,1.516l7.538,3.355c0.282-0.66,0.553-1.326,0.812-1.994
		L83.131,82.122z"/>
	<path fill="none" stroke="#FFFFFF" stroke-width="0.55" stroke-miterlimit="10" d="M83.131,82.122
		c-0.2,0.513-0.407,1.02-0.618,1.516l7.538,3.355c0.282-0.66,0.553-1.326,0.812-1.994L83.131,82.122z"/>
	<path fill="#FFFFFF" d="M91.182,37.77c-0.249-0.669-0.51-1.338-0.782-2.001l-7.588,3.24c0.204,0.501,0.404,1.012,0.597,1.529
		L91.182,37.77z"/>
	<path fill="none" stroke="#FFFFFF" stroke-width="0.55" stroke-miterlimit="10" d="M91.182,37.77
		c-0.249-0.669-0.51-1.338-0.782-2.001l-7.588,3.24c0.204,0.501,0.404,1.012,0.597,1.529L91.182,37.77z"/>
	<path fill="#FFFFFF" d="M95.234,62.482l-8.244-0.36c0.008-0.4,0.012-0.799,0.012-1.197c0-0.136-0.002-0.271-0.002-0.406
		l8.248-0.162c0.002,0.188,0.004,0.379,0.004,0.568C95.252,61.449,95.246,61.975,95.234,62.482"/>
	<path fill="none" stroke="#FFFFFF" stroke-width="0.55" stroke-miterlimit="10" d="M95.234,62.482l-8.244-0.36
		c0.008-0.4,0.012-0.799,0.012-1.197c0-0.136-0.002-0.271-0.002-0.406l8.248-0.162c0.002,0.188,0.004,0.379,0.004,0.568
		C95.252,61.449,95.246,61.975,95.234,62.482z"/>
	<path fill="#FFFFFF" d="M90.399,35.769c0.272,0.663,0.533,1.332,0.782,2.001l-7.773,2.768c-0.193-0.517-0.393-1.027-0.597-1.528
		L90.399,35.769z"/>
	<path fill="none" stroke="#FFFFFF" stroke-width="0.55" stroke-miterlimit="10" d="M90.399,35.769
		c0.272,0.663,0.533,1.332,0.782,2.001l-7.773,2.768c-0.193-0.517-0.393-1.027-0.597-1.528L90.399,35.769z"/>
	<path fill="#FFFFFF" d="M90.051,86.993l-7.539-3.355c0.213-0.496,0.418-1.003,0.619-1.516l7.732,2.877
		C90.604,85.667,90.334,86.333,90.051,86.993"/>
	<path fill="none" stroke="#FFFFFF" stroke-width="0.55" stroke-miterlimit="10" d="M90.051,86.993l-7.539-3.355
		c0.213-0.496,0.418-1.003,0.619-1.516l7.732,2.877C90.604,85.667,90.334,86.333,90.051,86.993z"/>
	<path fill="#FFFFFF" d="M17.814,40.537L10.04,37.77c0.249-0.669,0.51-1.338,0.782-2l7.589,3.239
		C18.206,39.51,18.007,40.021,17.814,40.537"/>
	<path fill="none" stroke="#FFFFFF" stroke-width="0.55" stroke-miterlimit="10" d="M17.814,40.537L10.04,37.77
		c0.249-0.669,0.51-1.338,0.782-2l7.589,3.239C18.206,39.51,18.007,40.021,17.814,40.537z"/>
	<path fill="#FFFFFF" d="M25.644,15.113l5.123,6.469c-0.389,0.324-0.777,0.659-1.159,1.004l-5.666-5.998
		C24.499,16.08,25.068,15.587,25.644,15.113"/>
	<path fill="none" stroke="#FFFFFF" stroke-width="0.55" stroke-miterlimit="10" d="M25.644,15.113l5.123,6.469
		c-0.389,0.324-0.777,0.659-1.159,1.004l-5.666-5.998C24.499,16.08,25.068,15.587,25.644,15.113z"/>
	<path fill="#FFFFFF" d="M51.807,5.899l-0.344,8.24c-0.469-0.008-0.941,0.003-1.42,0.023L49.44,5.938
		C50.234,5.897,51.02,5.884,51.807,5.899"/>
	<path fill="none" stroke="#FFFFFF" stroke-width="0.55" stroke-miterlimit="10" d="M51.807,5.899l-0.344,8.24
		c-0.469-0.008-0.941,0.003-1.42,0.023L49.44,5.938C50.234,5.897,51.02,5.884,51.807,5.899z"/>
	<path fill="#FFFFFF" d="M11.171,86.993c-0.283-0.66-0.554-1.326-0.813-1.994l7.733-2.877c0.2,0.513,0.406,1.02,0.618,1.516
		L11.171,86.993z"/>
	<path fill="none" stroke="#FFFFFF" stroke-width="0.55" stroke-miterlimit="10" d="M11.171,86.993
		c-0.283-0.66-0.554-1.326-0.813-1.994l7.733-2.877c0.2,0.513,0.406,1.02,0.618,1.516L11.171,86.993z"/>
	<path fill="#FFFFFF" d="M70.455,21.582l5.123-6.469c0.575,0.474,1.146,0.967,1.702,1.475l-5.667,5.998
		C71.231,22.242,70.845,21.906,70.455,21.582"/>
	<path fill="none" stroke="#FFFFFF" stroke-width="0.55" stroke-miterlimit="10" d="M70.455,21.582l5.123-6.469
		c0.575,0.474,1.146,0.967,1.702,1.475l-5.667,5.998C71.231,22.242,70.845,21.906,70.455,21.582z"/>
</g>
</svg>
