<?xml version="1.0" encoding="utf-8"?>
<!-- Generator: Adobe Illustrator 15.0.2, SVG Export Plug-In . SVG Version: 6.00 Build 0)  -->
<!DOCTYPE svg PUBLIC "-//W3C//DTD SVG 1.1//EN" "http://www.w3.org/Graphics/SVG/1.1/DTD/svg11.dtd">
<svg version="1.1" id="Layer_1" xmlns="http://www.w3.org/2000/svg" xmlns:xlink="http://www.w3.org/1999/xlink" x="0px" y="0px"
	 width="173.5px" height="131px" viewBox="0 0 173.5 131" enable-background="new 0 0 173.5 131" xml:space="preserve">
<g>
	<path fill="none" stroke="#FFFFFF" stroke-width="2.2" stroke-miterlimit="10" d="M139.1,128v-16c0-1.105,0.896-2,2-2h24
		c1.105,0,2,0.895,2,2v16 M149.1,118h-4 M135.1,70c-2.209,0-4,1.791-4,4v12l4,8l6,8v8 M163.1,60v16 M155.1,56v20 M147.1,56v20
		 M165.1,110v-4l6-20V60c0-2.209-1.791-4-4-4s-4,1.791-4,4v-4c0-2.209-1.791-4-4-4s-4,1.791-4,4v-4c0-2.209-1.791-4-4-4
		s-4,1.791-4,4v4c0-2.209-1.791-4-4-4s-4,1.791-4,4v26 M95.1,128V94c0-1.105,0.896-2,2-2h24c1.105,0,2,0.895,2,2v34 M105.1,100h-4
		 M91.1,52c-2.209,0-4,1.791-4,4v12l4,8l6,8v8 M119.1,42v16 M111.1,38v20 M103.1,38v20 M121.1,92v-4l6-20V42c0-2.209-1.791-4-4-4
		s-4,1.791-4,4v-4c0-2.209-1.791-4-4-4s-4,1.791-4,4v-4c0-2.209-1.791-4-4-4s-4,1.791-4,4v4c0-2.209-1.791-4-4-4s-4,1.791-4,4v26
		 M51.1,128V66c0-1.105,0.895-2,2-2h24c1.105,0,2,0.895,2,2v62 M61.1,72h-4 M47.1,24c-2.209,0-4,1.791-4,4v12l4,8l6,8v8 M75.1,14v16
		 M67.1,10v20 M59.1,10v20 M77.1,64v-4l6-20V14c0-2.209-1.791-4-4-4s-4,1.791-4,4v-4c0-2.209-1.791-4-4-4s-4,1.791-4,4V6
		c0-2.209-1.791-4-4-4s-4,1.791-4,4v4c0-2.209-1.791-4-4-4s-4,1.791-4,4v26 M11.1,128v-16c0-1.105,0.895-2,2-2h24
		c1.105,0,2,0.895,2,2v16 M21.1,118h-4 M7.1,70c-2.209,0-4,1.791-4,4v12l4,8l6,8v8 M35.1,60v16 M27.1,56v20 M19.1,56v20 M37.1,110
		v-4l6-20V60c0-2.209-1.791-4-4-4s-4,1.791-4,4v-4c0-2.209-1.791-4-4-4s-4,1.791-4,4v-4c0-2.209-1.791-4-4-4s-4,1.791-4,4v4
		c0-2.209-1.791-4-4-4s-4,1.791-4,4v26"/>
</g>
</svg>
