<?xml version="1.0" encoding="utf-8"?>
<!-- Generator: Adobe Illustrator 15.0.2, SVG Export Plug-In . SVG Version: 6.00 Build 0)  -->
<!DOCTYPE svg PUBLIC "-//W3C//DTD SVG 1.1//EN" "http://www.w3.org/Graphics/SVG/1.1/DTD/svg11.dtd">
<svg version="1.1" id="Layer_1" xmlns="http://www.w3.org/2000/svg" xmlns:xlink="http://www.w3.org/1999/xlink" x="0px" y="0px"
	 width="118px" height="122px" viewBox="120.5 120.5 118 122" enable-background="new 120.5 120.5 118 122" xml:space="preserve">
<path fill="none" stroke="#212929" stroke-width="2.342" stroke-linejoin="round" stroke-miterlimit="10" d="M219.591,199.096
	v-10.857h-79.632v10.857 M179.775,177.378v21.718"/>
<g>
	<g>
		<defs>
			<rect id="SVGID_1_" x="122.5" y="122.377" width="114.55" height="118.123"/>
		</defs>
		<clipPath id="SVGID_2_">
			<use xlink:href="#SVGID_1_"  overflow="visible"/>
		</clipPath>
		
			<path clip-path="url(#SVGID_2_)" fill="none" stroke="#FF7800" stroke-width="2.342" stroke-linejoin="round" stroke-miterlimit="10" d="
			M235.879,223.041c0,8.995-7.293,16.287-16.289,16.287s-16.287-7.292-16.287-16.287c0-8.996,7.291-16.288,16.287-16.288
			S235.879,214.045,235.879,223.041z M156.247,223.041c0,8.995-7.292,16.287-16.288,16.287s-16.288-7.292-16.288-16.287
			c0-8.996,7.292-16.288,16.288-16.288S156.247,214.045,156.247,223.041z M196.062,223.041c0,8.995-7.291,16.287-16.288,16.287
			c-8.996,0-16.288-7.292-16.288-16.287c0-8.996,7.292-16.288,16.288-16.288C188.771,206.753,196.062,214.045,196.062,223.041z"/>
	</g>
</g>
<polygon fill="#FF7800" points="138.212,232.441 130.788,225.02 133.395,222.411 138.212,227.229 147.894,217.547 150.5,220.154 "/>
<polygon fill="#FF7800" points="177.343,232.441 169.919,225.02 172.526,222.411 177.343,227.229 187.025,217.547 189.631,220.154 
	"/>
<polygon fill="#FF7800" points="217.475,232.441 210.051,225.02 212.657,222.411 217.475,227.229 227.156,217.547 229.762,220.154 
	"/>
<g>
	<path fill="none" stroke="#231F20" stroke-width="2.424" d="M179.983,123.987c1.966,1.723,9.539,7.729,19.775,8.02
		c-2.419,26.43-17.301,37.079-19.775,38.675c-2.474-1.596-17.356-12.245-19.774-38.675
		C170.445,131.716,178.017,125.71,179.983,123.987z"/>
</g>
</svg>
