<?xml version="1.0" encoding="utf-8"?>
<!-- Generator: Adobe Illustrator 15.0.2, SVG Export Plug-In . SVG Version: 6.00 Build 0)  -->
<!DOCTYPE svg PUBLIC "-//W3C//DTD SVG 1.1//EN" "http://www.w3.org/Graphics/SVG/1.1/DTD/svg11.dtd">
<svg version="1.1" id="Layer_1" xmlns="http://www.w3.org/2000/svg" xmlns:xlink="http://www.w3.org/1999/xlink" x="0px" y="0px"
	 width="76px" height="44px" viewBox="132.5 154.5 76 44" enable-background="new 132.5 154.5 76 44" xml:space="preserve">
<rect x="141.072" y="177.678" fill="none" stroke="#F4F4F4" stroke-width="1.224" stroke-miterlimit="10" width="59.362" height="2.924"/>
<path fill="none" stroke="#FFFFFF" stroke-width="1.224" stroke-linejoin="round" stroke-miterlimit="10" d="M191.677,174.23v3.447
	 M188.615,170.782v6.896 M180.705,170.954v6.724 M177.472,175.146v2.584 M164.232,175.146v2.584 M161.256,171.271v6.407
	 M147.943,175.632v2.046 M151.062,173.207v4.471 M153.906,169.312v8.365"/>
<rect x="141.072" y="177.678" fill="none" stroke="#231F20" stroke-width="1.224" stroke-linejoin="round" stroke-miterlimit="10" width="59.362" height="2.924"/>
<polygon fill="none" stroke="#F4F4F4" stroke-width="1.224" stroke-miterlimit="10" points="158.516,186.068 156.082,187.571 
	156.082,161.602 158.516,161.602 "/>
<rect x="156.082" y="164.422" fill="none" stroke="#F4F4F4" stroke-width="1.224" stroke-miterlimit="10" width="2.434" height="1.456"/>
<rect x="156.082" y="168.569" fill="none" stroke="#F4F4F4" stroke-width="1.224" stroke-miterlimit="10" width="2.434" height="1.456"/>
<rect x="156.082" y="172.715" fill="none" stroke="#F4F4F4" stroke-width="1.224" stroke-miterlimit="10" width="2.434" height="1.457"/>
<polygon fill="none" stroke="#231F20" stroke-width="1.224" stroke-linejoin="round" stroke-miterlimit="10" points="
	158.516,186.068 156.082,187.571 156.082,161.602 158.516,161.602 "/>
<polygon fill="none" stroke="#F4F4F4" stroke-width="1.224" stroke-miterlimit="10" points="185.695,186.794 184.856,185.916 
	183.262,187.08 183.262,161.602 185.695,161.602 "/>
<rect x="183.262" y="164.422" fill="none" stroke="#F4F4F4" stroke-width="1.224" stroke-miterlimit="10" width="2.434" height="1.456"/>
<rect x="183.262" y="168.569" fill="none" stroke="#F4F4F4" stroke-width="1.224" stroke-miterlimit="10" width="2.434" height="1.456"/>
<rect x="183.262" y="172.715" fill="none" stroke="#F4F4F4" stroke-width="1.224" stroke-miterlimit="10" width="2.434" height="1.457"/>
<polygon fill="none" stroke="#231F20" stroke-width="1.224" stroke-linejoin="round" stroke-miterlimit="10" points="
	185.695,186.794 185.002,185.81 183.262,187.08 183.262,161.602 185.695,161.602 "/>
<g>
	<defs>
		<rect id="SVGID_1_" x="137.5" y="159.16" width="66.139" height="34.34"/>
	</defs>
	<clipPath id="SVGID_2_">
		<use xlink:href="#SVGID_1_"  overflow="visible"/>
	</clipPath>
	
		<rect x="156.082" y="159.773" clip-path="url(#SVGID_2_)" fill="none" stroke="#231F20" stroke-width="1.224" stroke-linejoin="round" stroke-miterlimit="10" width="2.434" height="1.828"/>
	
		<rect x="156.082" y="159.773" clip-path="url(#SVGID_2_)" fill="none" stroke="#231F20" stroke-width="1.224" stroke-linejoin="round" stroke-miterlimit="10" width="2.434" height="1.828"/>
	
		<rect x="183.262" y="159.773" clip-path="url(#SVGID_2_)" fill="none" stroke="#F4F4F4" stroke-width="1.224" stroke-miterlimit="10" width="2.434" height="1.828"/>
	
		<rect x="183.262" y="159.773" clip-path="url(#SVGID_2_)" fill="none" stroke="#231F20" stroke-width="1.224" stroke-linejoin="round" stroke-miterlimit="10" width="2.434" height="1.828"/>
	
		<path clip-path="url(#SVGID_2_)" fill="none" stroke="#231F20" stroke-width="1.224" stroke-linecap="round" stroke-linejoin="round" stroke-miterlimit="10" d="
		M141.073,192.749l3.591-2.522l0.79,0.589c3.474,2.593,8.72,2.642,12.264,0.116l1.084-0.771l1.295,1.04
		c2.852,2.29,7.391,2.242,10.173-0.106l1.027-0.868l1,0.771c3.193,2.462,8.115,2.504,11.371,0.098l1.174-0.868l0.568,0.588
		c2.338,2.42,6.68,2.629,9.34,0.451l1.267-1.039l4.418,2.522 M141.073,188.454l3.591-2.522l0.79,0.589
		c3.474,2.593,8.72,2.642,12.264,0.116l1.084-0.771l1.295,1.041c2.852,2.289,7.391,2.242,10.173-0.106l1.027-0.868l1,0.771
		c3.193,2.461,8.115,2.504,11.371,0.098l1.174-0.868l0.568,0.588c2.338,2.42,6.68,2.629,9.34,0.45l1.267-1.038l4.418,2.522
		 M156.082,160.405c0,9.48-6.719,17.167-15.009,17.167 M200.256,177.678c-8.041,0-14.561-7.733-14.561-17.272 M183.262,160.64
		c0,9.358-5.54,16.944-12.373,16.944s-12.373-7.586-12.373-16.944"/>
	
		<rect x="138.112" y="173.348" clip-path="url(#SVGID_2_)" fill="none" stroke="#F4F4F4" stroke-width="1.224" stroke-miterlimit="10" width="2.592" height="16.378"/>
	
		<rect x="138.112" y="173.348" clip-path="url(#SVGID_2_)" fill="none" stroke="#231F20" stroke-width="1.224" stroke-linejoin="round" stroke-miterlimit="10" width="2.592" height="16.378"/>
	
		<rect x="200.434" y="172.965" clip-path="url(#SVGID_2_)" fill="none" stroke="#F4F4F4" stroke-width="1.224" stroke-miterlimit="10" width="2.594" height="16.378"/>
	
		<rect x="200.434" y="172.965" clip-path="url(#SVGID_2_)" fill="none" stroke="#231F20" stroke-width="1.224" stroke-linejoin="round" stroke-miterlimit="10" width="2.594" height="16.378"/>
</g>
</svg>
