<?xml version="1.0" encoding="utf-8"?>
<!-- Generator: Adobe Illustrator 15.0.2, SVG Export Plug-In . SVG Version: 6.00 Build 0)  -->
<!DOCTYPE svg PUBLIC "-//W3C//DTD SVG 1.1//EN" "http://www.w3.org/Graphics/SVG/1.1/DTD/svg11.dtd">
<svg version="1.1" id="Layer_1" xmlns="http://www.w3.org/2000/svg" xmlns:xlink="http://www.w3.org/1999/xlink" x="0px" y="0px"
	 width="109.5px" height="95.5px" viewBox="125 133 109.5 95.5" enable-background="new 125 133 109.5 95.5" xml:space="preserve">
<g>
	<path fill="#212929" d="M196.232,186.956l-0.529-1.587l34.58-11.527v-8.604h-57.75v-1.674h58.588c0.462,0,0.837,0.374,0.837,0.837
		v10.044c0,0.36-0.231,0.679-0.573,0.793L196.232,186.956z"/>
	<path fill="#212929" d="M132.358,190.348c-2.308,0-4.185,1.879-4.185,4.186c0,2.308,1.877,4.185,4.185,4.185
		s4.185-1.877,4.185-4.185C136.543,192.227,134.667,190.348,132.358,190.348 M132.358,200.391c-3.23,0-5.859-2.627-5.859-5.857
		s2.629-5.859,5.859-5.859s5.859,2.629,5.859,5.859S135.588,200.391,132.358,200.391"/>
	<path fill="#212929" d="M167.511,218.805c-13.383,0-24.272-10.89-24.272-24.271c0-13.383,10.889-24.272,24.272-24.272v1.675
		c-12.461,0-22.598,10.138-22.598,22.598s10.137,22.598,22.598,22.598c12.461,0,22.599-10.138,22.599-22.598h1.674
		C191.783,207.915,180.895,218.805,167.511,218.805"/>
	<path fill="#212929" d="M167.511,225.5c-17.076,0-30.968-13.893-30.968-30.968c0-17.076,13.892-30.968,30.968-30.968h0.837v6.695
		h7.533v1.674h-9.207v-6.684c-15.767,0.445-28.457,13.409-28.457,29.282c0,16.152,13.141,29.294,29.294,29.294
		c16.152,0,29.293-13.142,29.293-29.294c0-5.825-1.705-11.451-4.931-16.271l1.39-0.931c3.411,5.096,5.215,11.044,5.215,17.2
		C198.479,211.607,184.588,225.5,167.511,225.5"/>
</g>
<rect x="170.022" y="135.293" fill="#FF7800" width="1.674" height="16.739"/>
<rect x="144.738" y="147.839" transform="matrix(-0.5547 -0.832 0.832 -0.5547 110.7053 356.5967)" fill="#FF7800" width="12.07" height="1.674"/>
<rect x="190.109" y="142.639" transform="matrix(-0.8321 -0.5547 0.5547 -0.8321 267.3519 378.2958)" fill="#FF7800" width="1.672" height="12.071"/>
</svg>
