<?xml version="1.0" encoding="utf-8"?>
<!-- Generator: Adobe Illustrator 15.0.2, SVG Export Plug-In . SVG Version: 6.00 Build 0)  -->
<!DOCTYPE svg PUBLIC "-//W3C//DTD SVG 1.1//EN" "http://www.w3.org/Graphics/SVG/1.1/DTD/svg11.dtd">
<svg version="1.1" id="Layer_1" xmlns="http://www.w3.org/2000/svg" xmlns:xlink="http://www.w3.org/1999/xlink" x="0px" y="0px"
	 width="105.5px" height="151px" viewBox="1 -17.5 105.5 151" enable-background="new 1 -17.5 105.5 151" xml:space="preserve">
<g>
	<path fill="#1F1F1F" d="M70.893,63.895c-0.238-1.341-0.532-2.706-0.896-4.08c-0.187-0.707-0.911-1.13-1.618-0.942
		s-1.129,0.911-0.942,1.618c0.342,1.297,0.62,2.592,0.846,3.868c0.13,0.722,0.817,1.201,1.537,1.072
		C70.541,65.303,71.021,64.616,70.893,63.895 M97.103,77.575C98.209,78.566,97.342,78.95,97.103,77.575
		c-3.3-2.955-7.657-4.756-12.433-4.756c-5.031,0-9.584,2.008-12.933,5.249c0.047-0.964,0.08-2.053,0.08-3.257
		c0-0.612-0.009-1.254-0.026-1.917c-0.021-0.732-0.631-1.31-1.363-1.287c-0.731,0.02-1.306,0.629-1.285,1.361
		c0.018,0.639,0.025,1.255,0.025,1.843c0,1.589-0.058,2.98-0.131,4.11c-3.404-3.729-8.275-6.103-13.727-6.103
		c-5.604,0-10.6,2.503-14.011,6.415c-0.059-0.904-0.113-2.112-0.113-3.568c-0.006-5.97,0.915-15.889,5.866-24.271
		c0.372-0.631,0.161-1.443-0.47-1.813c-0.629-0.372-1.442-0.162-1.813,0.469c-5.322,9.055-6.226,19.388-6.233,25.615
		c0.001,0.968,0.024,1.823,0.057,2.573c-3.362-3.336-7.971-5.42-13.086-5.42c-4.954,0-9.452,1.939-12.787,5.094
		c-0.239,1.433-1.123,1.063,0,0c3.164-19.001,18.829-33.769,38.263-35.55c-0.483,0.438-0.967,0.875-1.411,1.335
		c-0.507,0.527-0.49,1.366,0.034,1.874c0.527,0.507,1.366,0.491,1.874-0.035c1.133-1.177,2.406-2.273,3.798-3.292
		c5.704,3.762,9.138,9.232,11.171,15.015c0.241,0.689,0.997,1.054,1.689,0.811c0.688-0.241,1.052-0.996,0.81-1.688
		c-1.765-5.033-4.612-9.979-9.028-13.893C78.762,44.675,93.868,59.071,97.103,77.575 M56.243,39.584v-5.948
		c0-0.731-0.593-1.324-1.325-1.324c-0.731,0-1.325,0.593-1.325,1.324v5.951c-23.522,0.692-42.562,19.2-44.026,42.526
		c-0.038,0.601,0.336,1.154,0.911,1.341c0.576,0.186,1.204-0.04,1.528-0.549c2.846-4.47,7.818-7.438,13.501-7.438
		c5.684,0,10.647,2.974,13.492,7.444c0.242,0.381,0.666,0.615,1.118,0.615H40.7c0.451,0,0.874-0.234,1.117-0.615
		c2.554-4.013,6.82-6.799,11.776-7.332v44.811c0,0.051,0.023,0.092,0.028,0.14c-0.002,0.029-0.017,0.053-0.017,0.083
		c0.003,4.226,3.427,7.65,7.653,7.652c4.229-0.002,7.651-3.427,7.653-7.652c0-0.732-0.593-1.325-1.323-1.325
		c-0.732,0-1.326,0.593-1.326,1.325c0,1.386-0.558,2.627-1.467,3.538c-0.906,0.908-2.15,1.464-3.537,1.465
		c-1.387-0.001-2.627-0.557-3.537-1.465c-0.907-0.911-1.467-2.152-1.467-3.538c0-0.049-0.021-0.091-0.027-0.14
		c0.002-0.028,0.017-0.053,0.017-0.083V75.529c5.289,0.308,9.878,3.159,12.565,7.383c0.229,0.359,0.623,0.571,1.045,0.596
		c0.002,0,0.003,0.001,0.005,0.001c0.001,0.001,0.001,0,0.002,0c0.022,0.002,0.043,0.019,0.067,0.019h0.125
		c0.045,0,0.084-0.029,0.129-0.034c0.14-0.014,0.269-0.046,0.394-0.101c0.06-0.026,0.115-0.048,0.17-0.081
		c0.151-0.096,0.281-0.215,0.386-0.361c0.01-0.016,0.029-0.022,0.039-0.038c2.846-4.473,7.815-7.444,13.5-7.444
		c5.476,0,10.295,2.749,13.188,6.945c0.34,0.493,0.965,0.697,1.531,0.499c0.565-0.201,0.926-0.75,0.879-1.348
		C98.543,58.485,79.603,40.249,56.243,39.584"/>
	<path fill="none" stroke="#FFFFFF" stroke-width="0.467" stroke-miterlimit="10" d="M70.893,63.895
		c-0.238-1.341-0.532-2.706-0.896-4.08c-0.187-0.707-0.911-1.13-1.618-0.942s-1.129,0.911-0.942,1.618
		c0.342,1.297,0.62,2.592,0.846,3.868c0.13,0.722,0.817,1.201,1.537,1.072C70.541,65.303,71.021,64.616,70.893,63.895z
		 M97.103,77.575C98.209,78.566,97.342,78.95,97.103,77.575c-3.3-2.955-7.657-4.756-12.433-4.756c-5.031,0-9.584,2.008-12.933,5.249
		c0.047-0.964,0.08-2.053,0.08-3.257c0-0.612-0.009-1.254-0.026-1.917c-0.021-0.732-0.631-1.31-1.363-1.287
		c-0.731,0.02-1.306,0.629-1.285,1.361c0.018,0.639,0.025,1.255,0.025,1.843c0,1.589-0.058,2.98-0.131,4.11
		c-3.404-3.729-8.275-6.103-13.727-6.103c-5.604,0-10.6,2.503-14.011,6.415c-0.059-0.904-0.113-2.112-0.113-3.568
		c-0.006-5.97,0.915-15.889,5.866-24.271c0.372-0.631,0.161-1.443-0.47-1.813c-0.629-0.372-1.442-0.162-1.813,0.469
		c-5.322,9.055-6.226,19.388-6.233,25.615c0.001,0.968,0.024,1.823,0.057,2.573c-3.362-3.336-7.971-5.42-13.086-5.42
		c-4.954,0-9.452,1.939-12.787,5.094c-0.239,1.433-1.123,1.063,0,0c3.164-19.001,18.829-33.769,38.263-35.55
		c-0.483,0.438-0.967,0.875-1.411,1.335c-0.507,0.527-0.49,1.366,0.034,1.874c0.527,0.507,1.366,0.491,1.874-0.035
		c1.133-1.177,2.406-2.273,3.798-3.292c5.704,3.762,9.138,9.232,11.171,15.015c0.241,0.689,0.997,1.054,1.689,0.811
		c0.688-0.241,1.052-0.996,0.81-1.688c-1.765-5.033-4.612-9.979-9.028-13.893C78.762,44.675,93.868,59.071,97.103,77.575z
		 M56.243,39.584v-5.948c0-0.731-0.593-1.324-1.325-1.324c-0.731,0-1.325,0.593-1.325,1.324v5.951
		c-23.522,0.692-42.562,19.2-44.026,42.526c-0.038,0.601,0.336,1.154,0.911,1.341c0.576,0.186,1.204-0.04,1.528-0.549
		c2.846-4.47,7.818-7.438,13.501-7.438c5.684,0,10.647,2.974,13.492,7.444c0.242,0.381,0.666,0.615,1.118,0.615H40.7
		c0.451,0,0.874-0.234,1.117-0.615c2.554-4.013,6.82-6.799,11.776-7.332v44.811c0,0.051,0.023,0.092,0.028,0.14
		c-0.002,0.029-0.017,0.053-0.017,0.083c0.003,4.226,3.427,7.65,7.653,7.652c4.229-0.002,7.651-3.427,7.653-7.652
		c0-0.732-0.593-1.325-1.323-1.325c-0.732,0-1.326,0.593-1.326,1.325c0,1.386-0.558,2.627-1.467,3.538
		c-0.906,0.908-2.15,1.464-3.537,1.465c-1.387-0.001-2.627-0.557-3.537-1.465c-0.907-0.911-1.467-2.152-1.467-3.538
		c0-0.049-0.021-0.091-0.027-0.14c0.002-0.028,0.017-0.053,0.017-0.083V75.529c5.289,0.308,9.878,3.159,12.565,7.383
		c0.229,0.359,0.623,0.571,1.045,0.596c0.002,0,0.003,0.001,0.005,0.001c0.001,0.001,0.001,0,0.002,0
		c0.022,0.002,0.043,0.019,0.067,0.019h0.125c0.045,0,0.084-0.029,0.129-0.034c0.14-0.014,0.269-0.046,0.394-0.101
		c0.06-0.026,0.115-0.048,0.17-0.081c0.151-0.096,0.281-0.215,0.386-0.361c0.01-0.016,0.029-0.022,0.039-0.038
		c2.846-4.473,7.815-7.444,13.5-7.444c5.476,0,10.295,2.749,13.188,6.945c0.34,0.493,0.965,0.697,1.531,0.499
		c0.565-0.201,0.926-0.75,0.879-1.348C98.543,58.485,79.603,40.249,56.243,39.584z"/>
</g>
<rect x="34.806" y="5.066" fill="#87BD30" width="1.879" height="3.758"/>
<rect x="12.258" y="16.34" fill="#87BD30" width="1.879" height="7.517"/>
<rect x="23.532" y="20.649" fill="#87BD30" width="1.879" height="3.758"/>
<rect x="27.29" y="13.133" fill="#87BD30" width="1.879" height="7.517"/>
<rect x="31.048" y="16.34" fill="#87BD30" width="1.879" height="3.758"/>
<rect x="38.563" y="-2.449" fill="#87BD30" width="1.879" height="7.517"/>
<rect x="23.532" y="5.066" fill="#87BD30" width="1.879" height="7.516"/>
<rect x="16.016" y="8.825" fill="#87BD30" width="1.879" height="3.758"/>
<rect x="16.016" y="16.34" fill="#87BD30" width="1.879" height="3.758"/>
<rect x="8.5" y="12.582" fill="#87BD30" width="1.879" height="3.758"/>
<rect x="8.5" y="20.098" fill="#87BD30" width="1.879" height="3.759"/>
<rect x="31.048" y="5.066" fill="#87BD30" width="1.879" height="3.758"/>
<rect x="34.806" y="-2.449" fill="#87BD30" width="1.879" height="3.758"/>
<rect x="34.806" y="12.583" fill="#87BD30" width="1.879" height="15.032"/>
<rect x="42.322" y="12.583" fill="#87BD30" width="1.879" height="3.758"/>
<rect x="42.322" y="1.309" fill="#87BD30" width="1.879" height="7.517"/>
<rect x="42.322" y="-6.207" fill="#87BD30" width="1.879" height="3.758"/>
<rect x="34.806" y="-6.207" fill="#87BD30" width="1.879" height="3.758"/>
<rect x="27.29" y="-8.542" fill="#87BD30" width="1.879" height="3.758"/>
<rect x="19.774" y="-2.449" fill="#87BD30" width="1.879" height="7.517"/>
<rect x="27.29" y="1.309" fill="#87BD30" width="1.879" height="3.759"/>
<rect x="8.5" y="-2.449" fill="#87BD30" width="1.879" height="7.517"/>
<rect x="12.258" y="-6.207" fill="#87BD30" width="1.879" height="3.758"/>
<rect x="46.079" y="8.825" fill="#87BD30" width="1.879" height="7.516"/>
<rect x="49.837" y="13.644" fill="#87BD30" width="1.879" height="7.517"/>
<rect x="49.837" y="-4.052" fill="#87BD30" width="1.879" height="15.032"/>
<rect x="68.627" y="25.777" fill="#87BD30" width="1.879" height="3.758"/>
<rect x="68.627" y="5.066" fill="#87BD30" width="1.879" height="7.516"/>
<rect x="64.869" y="11.308" fill="#87BD30" width="1.879" height="7.517"/>
<rect x="61.111" y="16.34" fill="#87BD30" width="1.879" height="3.758"/>
<rect x="53.595" y="20.098" fill="#87BD30" width="1.879" height="3.759"/>
<rect x="57.354" y="1.309" fill="#87BD30" width="1.879" height="7.517"/>
<rect x="64.869" y="-12.3" fill="#87BD30" width="1.879" height="7.516"/>
<rect x="61.111" y="-6.207" fill="#87BD30" width="1.879" height="3.758"/>
<rect x="53.595" y="-2.449" fill="#87BD30" width="1.879" height="7.517"/>
<rect x="57.354" y="-8.542" fill="#87BD30" width="1.879" height="3.758"/>
<rect x="98.516" y="4.355" fill="#87BD30" width="1.879" height="3.758"/>
<rect x="75.967" y="18.314" fill="#87BD30" width="1.879" height="7.516"/>
<rect x="87.241" y="19.482" fill="#87BD30" width="1.879" height="3.758"/>
<rect x="90.999" y="22.984" fill="#87BD30" width="1.879" height="7.516"/>
<rect x="94.757" y="15.629" fill="#87BD30" width="1.88" height="3.758"/>
<rect x="90.999" y="8.114" fill="#87BD30" width="1.879" height="7.516"/>
<rect x="87.241" y="4.355" fill="#87BD30" width="1.879" height="7.516"/>
<rect x="79.725" y="8.114" fill="#87BD30" width="1.879" height="3.758"/>
<rect x="83.482" y="13.133" fill="#87BD30" width="1.879" height="7.517"/>
<rect x="79.725" y="15.629" fill="#87BD30" width="1.879" height="3.758"/>
<rect x="72.209" y="7.805" fill="#87BD30" width="1.879" height="3.759"/>
<rect x="72.209" y="15.321" fill="#87BD30" width="1.879" height="3.758"/>
<rect x="94.757" y="4.355" fill="#87BD30" width="1.88" height="3.758"/>
<rect x="98.516" y="-3.16" fill="#87BD30" width="1.879" height="3.758"/>
<rect x="98.516" y="13.644" fill="#87BD30" width="1.879" height="15.032"/>
<rect x="98.516" y="-6.918" fill="#87BD30" width="1.879" height="3.758"/>
<rect x="90.999" y="-0.62" fill="#87BD30" width="1.879" height="3.758"/>
<rect x="83.482" y="-8.542" fill="#87BD30" width="1.879" height="7.516"/>
<rect x="79.725" y="-0.62" fill="#87BD30" width="1.879" height="3.758"/>
<rect x="75.967" y="-1.536" fill="#87BD30" width="1.879" height="3.758"/>
</svg>
