<?xml version="1.0" encoding="utf-8"?>
<!-- Generator: Adobe Illustrator 15.0.2, SVG Export Plug-In . SVG Version: 6.00 Build 0)  -->
<!DOCTYPE svg PUBLIC "-//W3C//DTD SVG 1.1//EN" "http://www.w3.org/Graphics/SVG/1.1/DTD/svg11.dtd">
<svg version="1.1" id="Layer_1" xmlns="http://www.w3.org/2000/svg" xmlns:xlink="http://www.w3.org/1999/xlink" x="0px" y="0px"
	 width="124px" height="107.75px" viewBox="118.5 125.75 124 107.75" enable-background="new 118.5 125.75 124 107.75"
	 xml:space="preserve">
<rect x="184.004" y="220.395" transform="matrix(-0.2873 -0.9578 0.9578 -0.2873 37.3134 470.4012)" fill="#212929" width="19.313" height="1.848"/>
<rect x="164.975" y="211.657" transform="matrix(-0.9578 -0.2873 0.2873 -0.9578 261.2141 480.9636)" fill="#212929" width="1.849" height="19.314"/>
<rect x="155.725" y="229.65" fill="#212929" width="48.1" height="1.85"/>
<rect x="177.925" y="203.75" fill="#212929" width="3.7" height="1.85"/>
<g>
	<path fill="#87BD30" d="M179.625,153.811c-3.195,0-5.795,2.599-5.795,5.795c0,3.195,2.6,5.794,5.795,5.794
		c3.195,0,5.795-2.599,5.795-5.794C185.42,156.409,182.82,153.811,179.625,153.811 M179.625,165.978
		c-3.514,0-6.373-2.858-6.373-6.372s2.859-6.373,6.373-6.373c3.514,0,6.374,2.859,6.374,6.373S183.139,165.978,179.625,165.978
		 M177.693,172.059l3.829,0.005l2.262,3.28c1.396-0.368,2.738-0.923,3.992-1.65l-0.711-3.917l2.711-2.704l3.916,0.722
		c0.731-1.253,1.289-2.593,1.66-3.989l-3.273-2.269l0.006-3.83l3.279-2.259c-0.369-1.397-0.924-2.738-1.65-3.994l-3.918,0.711
		l-2.703-2.711l0.723-3.916c-1.252-0.73-2.592-1.288-3.989-1.659l-2.269,3.274l-3.83-0.006l-2.259-3.28
		c-1.398,0.369-2.739,0.923-3.994,1.65l0.711,3.918l-2.711,2.703l-3.916-0.722c-0.731,1.253-1.288,2.593-1.661,3.989l3.275,2.269
		l-0.005,3.83l-3.28,2.259c0.368,1.396,0.923,2.739,1.65,3.994l3.917-0.711l2.704,2.711l-0.721,3.916
		c1.252,0.73,2.592,1.289,3.989,1.661L177.693,172.059z M183.535,176.003l-2.316-3.362l-3.222-0.004l-2.325,3.355l-0.195-0.049
		c-1.585-0.4-3.103-1.033-4.51-1.877l-0.172-0.103l0.74-4.015l-2.276-2.28l-4.014,0.728l-0.103-0.172
		c-0.841-1.41-1.468-2.929-1.865-4.516l-0.049-0.194l3.362-2.316l0.004-3.222l-3.356-2.325l0.049-0.194
		c0.401-1.586,1.033-3.104,1.877-4.511l0.103-0.172l4.013,0.74l2.282-2.276l-0.728-4.014l0.172-0.104
		c1.409-0.84,2.929-1.468,4.515-1.864l0.195-0.05l2.316,3.362l3.222,0.004l2.324-3.355l0.193,0.049
		c1.586,0.401,3.104,1.033,4.512,1.877l0.172,0.103l-0.74,4.015l2.275,2.282l4.016-0.729l0.104,0.172
		c0.841,1.409,1.468,2.929,1.865,4.517l0.049,0.193l-3.362,2.316l-0.004,3.222l3.356,2.325l-0.051,0.194
		c-0.4,1.586-1.031,3.103-1.877,4.511l-0.104,0.172l-4.014-0.74l-2.281,2.276l0.729,4.014l-0.172,0.104
		c-1.41,0.841-2.93,1.468-4.516,1.864L183.535,176.003z"/>
	<path fill="none" stroke="#FF7800" stroke-width="1.734" stroke-miterlimit="10" d="M179.625,153.811
		c-3.195,0-5.795,2.599-5.795,5.795c0,3.195,2.6,5.794,5.795,5.794c3.195,0,5.795-2.599,5.795-5.794
		C185.42,156.409,182.82,153.811,179.625,153.811z M179.625,165.978c-3.514,0-6.373-2.858-6.373-6.372s2.859-6.373,6.373-6.373
		c3.514,0,6.374,2.859,6.374,6.373S183.139,165.978,179.625,165.978z M177.693,172.059l3.829,0.005l2.262,3.28
		c1.396-0.368,2.738-0.923,3.992-1.65l-0.711-3.917l2.711-2.704l3.916,0.722c0.731-1.253,1.289-2.593,1.66-3.989l-3.273-2.269
		l0.006-3.83l3.279-2.259c-0.369-1.397-0.924-2.738-1.65-3.994l-3.918,0.711l-2.703-2.711l0.723-3.916
		c-1.252-0.73-2.592-1.288-3.989-1.659l-2.269,3.274l-3.83-0.006l-2.259-3.28c-1.398,0.369-2.739,0.923-3.994,1.65l0.711,3.918
		l-2.711,2.703l-3.916-0.722c-0.731,1.253-1.288,2.593-1.661,3.989l3.275,2.269l-0.005,3.83l-3.28,2.259
		c0.368,1.396,0.923,2.739,1.65,3.994l3.917-0.711l2.704,2.711l-0.721,3.916c1.252,0.73,2.592,1.289,3.989,1.661L177.693,172.059z
		 M183.535,176.003l-2.316-3.362l-3.222-0.004l-2.325,3.355l-0.195-0.049c-1.585-0.4-3.103-1.033-4.51-1.877l-0.172-0.103
		l0.74-4.015l-2.276-2.28l-4.014,0.728l-0.103-0.172c-0.841-1.41-1.468-2.929-1.865-4.516l-0.049-0.194l3.362-2.316l0.004-3.222
		l-3.356-2.325l0.049-0.194c0.401-1.586,1.033-3.104,1.877-4.511l0.103-0.172l4.013,0.74l2.282-2.276l-0.728-4.014l0.172-0.104
		c1.409-0.84,2.929-1.468,4.515-1.864l0.195-0.05l2.316,3.362l3.222,0.004l2.324-3.355l0.193,0.049
		c1.586,0.401,3.104,1.033,4.512,1.877l0.172,0.103l-0.74,4.015l2.275,2.282l4.016-0.729l0.104,0.172
		c0.841,1.409,1.468,2.929,1.865,4.517l0.049,0.193l-3.362,2.316l-0.004,3.222l3.356,2.325l-0.051,0.194
		c-0.4,1.586-1.031,3.103-1.877,4.511l-0.104,0.172l-4.014-0.74l-2.281,2.276l0.729,4.014l-0.172,0.104
		c-1.41,0.841-2.93,1.468-4.516,1.864L183.535,176.003z"/>
	<path d="M179.616,185.859L179.616,185.859v-0.577c1.815,0,3.633-0.191,5.405-0.57c0.039-0.008,0.076-0.019,0.115-0.024
		c0.004-0.002,0.008-0.002,0.012-0.004l0.062,0.283l-0.05-0.285l0.124,0.564l-0.074-0.279l0.062,0.282
		c-0.123,0.026-0.248,0.053-0.371,0.078C183.167,185.682,181.391,185.859,179.616,185.859 M179.625,191.025
		c-8.31,0-16.118-3.189-22.023-8.988l-2.752,2.753l-4.606-13.817l0.274-0.091l0.091-0.274l13.373,4.457l-0.091,0.274l0.204,0.205
		l-2.426,2.426c1.45,1.419,3.039,2.646,4.736,3.667c0.002,0.002,0.002,0.002,0.003,0.002c3.948,2.377,8.48,3.645,13.208,3.645v0.578
		h-0.002c-6.979,0-13.541-2.703-18.489-7.615c-0.024-0.023-0.047-0.047-0.07-0.069l0.204-0.205l-0.204-0.204l2.301-2.301
		l-12.381-4.127l4.127,12.381l2.5-2.5l0.204,0.205c5.819,5.818,13.568,9.022,21.819,9.022V191.025L179.625,191.025z
		 M179.625,191.025v-0.578c8.251,0,16-3.204,21.818-9.022c5.801-5.8,8.994-13.512,8.992-21.714v-0.104l0.578-0.003v0.107
		c0.002,8.356-3.252,16.213-9.16,22.122C195.925,187.761,188.031,191.025,179.625,191.025"/>
	<path fill="none" stroke="#000000" stroke-width="1.168" stroke-miterlimit="10" d="M179.616,185.859L179.616,185.859v-0.577
		c1.815,0,3.633-0.191,5.405-0.57c0.039-0.008,0.076-0.019,0.115-0.024c0.004-0.002,0.008-0.002,0.012-0.004l0.062,0.283
		l-0.05-0.285l0.124,0.564l-0.074-0.279l0.062,0.282c-0.123,0.026-0.248,0.053-0.371,0.078
		C183.167,185.682,181.391,185.859,179.616,185.859z M179.625,191.025c-8.31,0-16.118-3.189-22.023-8.988l-2.752,2.753
		l-4.606-13.817l0.274-0.091l0.091-0.274l13.373,4.457l-0.091,0.274l0.204,0.205l-2.426,2.426c1.45,1.419,3.039,2.646,4.736,3.667
		c0.002,0.002,0.002,0.002,0.003,0.002c3.948,2.377,8.48,3.645,13.208,3.645v0.578h-0.002c-6.979,0-13.541-2.703-18.489-7.615
		c-0.024-0.023-0.047-0.047-0.07-0.069l0.204-0.205l-0.204-0.204l2.301-2.301l-12.381-4.127l4.127,12.381l2.5-2.5l0.204,0.205
		c5.819,5.818,13.568,9.022,21.819,9.022V191.025L179.625,191.025z M179.625,191.025v-0.578c8.251,0,16-3.204,21.818-9.022
		c5.801-5.8,8.994-13.512,8.992-21.714v-0.104l0.578-0.003v0.107c0.002,8.356-3.252,16.213-9.16,22.122
		C195.925,187.761,188.031,191.025,179.625,191.025z"/>
	<path d="M187.543,184.645l-0.174-0.552c0.725-0.229,1.42-0.479,2.064-0.745l0.223,0.533
		C188.994,184.152,188.283,184.409,187.543,184.645"/>
	<path fill="none" stroke="#000000" stroke-width="1.168" stroke-miterlimit="10" d="M187.543,184.645l-0.174-0.552
		c0.725-0.229,1.42-0.479,2.064-0.745l0.223,0.533C188.994,184.152,188.283,184.409,187.543,184.645z"/>
	<path d="M191.773,182.895l-0.269-0.514c0.621-0.322,1.242-0.684,1.899-1.104l0.31,0.488
		C193.045,182.193,192.409,182.562,191.773,182.895"/>
	<path fill="none" stroke="#000000" stroke-width="1.168" stroke-miterlimit="10" d="M191.773,182.895l-0.269-0.514
		c0.621-0.322,1.242-0.684,1.899-1.104l0.31,0.488C193.045,182.193,192.409,182.562,191.773,182.895z"/>
	<path d="M195.629,180.422l-0.354-0.458c0.61-0.472,1.16-0.933,1.682-1.409l0.391,0.426
		C196.814,179.469,196.252,179.94,195.629,180.422"/>
	<path fill="none" stroke="#000000" stroke-width="1.168" stroke-miterlimit="10" d="M195.629,180.422l-0.354-0.458
		c0.61-0.472,1.16-0.933,1.682-1.409l0.391,0.426C196.814,179.469,196.252,179.94,195.629,180.422z"/>
	<path d="M174.088,134.529l-0.124-0.565c0.011-0.002,0.022-0.004,0.032-0.007c1.848-0.403,3.744-0.608,5.637-0.608v0.578
		C177.771,133.927,175.905,134.13,174.088,134.529 M148.236,159.606v-0.118c0.001-8.353,3.255-16.205,9.161-22.111
		c5.928-5.928,13.822-9.191,22.228-9.191c8.309,0,16.118,3.188,22.021,8.988l2.754-2.754l4.604,13.817l-0.272,0.092l-0.092,0.274
		l-13.373-4.458l0.092-0.274l-0.205-0.204l2.427-2.427c-4.823-4.718-11.185-7.313-17.947-7.313v-0.578
		c7.013,0,13.604,2.73,18.562,7.687l-0.205,0.204l0.205,0.205l-2.301,2.301l12.381,4.127l-4.127-12.381l-2.5,2.499l-0.205-0.204
		c-5.818-5.819-13.566-9.023-21.818-9.023s-16.001,3.204-21.82,9.023c-5.796,5.797-8.99,13.504-8.991,21.702v0.116L148.236,159.606z
		"/>
	<path fill="none" stroke="#000000" stroke-width="1.168" stroke-miterlimit="10" d="M174.088,134.529l-0.124-0.565
		c0.011-0.002,0.022-0.004,0.032-0.007c1.848-0.403,3.744-0.608,5.637-0.608v0.578C177.771,133.927,175.905,134.13,174.088,134.529z
		 M148.236,159.606v-0.118c0.001-8.353,3.255-16.205,9.161-22.111c5.928-5.928,13.822-9.191,22.228-9.191
		c8.309,0,16.118,3.188,22.021,8.988l2.754-2.754l4.604,13.817l-0.272,0.092l-0.092,0.274l-13.373-4.458l0.092-0.274l-0.205-0.204
		l2.427-2.427c-4.823-4.718-11.185-7.313-17.947-7.313v-0.578c7.013,0,13.604,2.73,18.562,7.687l-0.205,0.204l0.205,0.205
		l-2.301,2.301l12.381,4.127l-4.127-12.381l-2.5,2.499l-0.205-0.204c-5.818-5.819-13.566-9.023-21.818-9.023
		s-16.001,3.204-21.82,9.023c-5.796,5.797-8.99,13.504-8.991,21.702v0.116L148.236,159.606z"/>
	<path d="M165.845,137.933l-0.31-0.488c0.676-0.43,1.31-0.799,1.94-1.128l0.268,0.512
		C167.127,137.15,166.507,137.512,165.845,137.933"/>
	<path fill="none" stroke="#000000" stroke-width="1.168" stroke-miterlimit="10" d="M165.845,137.933l-0.31-0.488
		c0.676-0.43,1.31-0.799,1.94-1.128l0.268,0.512C167.127,137.15,166.507,137.512,165.845,137.933z"/>
	<path d="M162.292,140.656l-0.391-0.427c0.534-0.488,1.097-0.96,1.721-1.44l0.352,0.458
		C163.364,139.718,162.813,140.178,162.292,140.656"/>
	<path fill="none" stroke="#000000" stroke-width="1.168" stroke-miterlimit="10" d="M162.292,140.656l-0.391-0.427
		c0.534-0.488,1.097-0.96,1.721-1.44l0.352,0.458C163.364,139.718,162.813,140.178,162.292,140.656z"/>
	<path fill="#212929" d="M238.05,206.525v-68c0-3.57-2.905-6.476-6.476-6.476h-14.299v1.851h14.299c2.552,0,4.625,2.074,4.625,4.625
		v68c0,2.55-2.073,4.625-4.625,4.625h-103.6c-2.551,0-4.625-2.075-4.625-4.625v-68c0-2.551,2.074-4.625,4.625-4.625h14.3v-1.851
		h-14.3c-3.57,0-6.475,2.905-6.475,6.476v68c0,3.568,2.905,6.475,6.475,6.475h103.6C235.145,213,238.05,210.096,238.05,206.525"/>
	<path fill="#212929" d="M230.65,197.275v-56.9c0-0.511-0.414-0.925-0.926-0.925H217.5v1.85h11.3v55.052h-98.05V141.3h11.75v-1.85
		h-12.675c-0.511,0-0.925,0.414-0.925,0.925v56.9c0,0.511,0.414,0.925,0.925,0.925h99.899
		C230.236,198.2,230.65,197.786,230.65,197.275"/>
</g>
</svg>
