<?xml version="1.0" encoding="utf-8"?>
<!-- Generator: Adobe Illustrator 15.0.2, SVG Export Plug-In . SVG Version: 6.00 Build 0)  -->
<!DOCTYPE svg PUBLIC "-//W3C//DTD SVG 1.1//EN" "http://www.w3.org/Graphics/SVG/1.1/DTD/svg11.dtd">
<svg version="1.1" id="Layer_1" xmlns="http://www.w3.org/2000/svg" xmlns:xlink="http://www.w3.org/1999/xlink" x="0px" y="0px"
	 width="94.667px" height="97.334px" viewBox="132.167 132.5 94.667 97.334" enable-background="new 132.167 132.5 94.667 97.334"
	 xml:space="preserve">
<g>
	<g>
		<defs>
			<rect id="SVGID_1_" x="133.5" y="133.798" width="92.238" height="93.702"/>
		</defs>
		<clipPath id="SVGID_2_">
			<use xlink:href="#SVGID_1_"  overflow="visible"/>
		</clipPath>
		<path clip-path="url(#SVGID_2_)" fill="#FF7800" d="M169.371,176.988c-1.211,0-2.197,0.985-2.197,2.196v17.569
			c0,1.211,0.986,2.196,2.197,2.196h20.496c1.212,0,2.197-0.985,2.197-2.196v-17.569c0-1.211-0.985-2.196-2.197-2.196H169.371z
			 M189.867,200.414h-20.496c-2.019,0-3.66-1.643-3.66-3.66v-17.569c0-2.019,1.641-3.661,3.66-3.661h20.496
			c2.02,0,3.66,1.643,3.66,3.661v17.569C193.527,198.771,191.887,200.414,189.867,200.414"/>
	</g>
	<g>
		<defs>
			<rect id="SVGID_3_" x="133.5" y="133.798" width="92.238" height="93.702"/>
		</defs>
		<clipPath id="SVGID_4_">
			<use xlink:href="#SVGID_3_"  overflow="visible"/>
		</clipPath>
		<path clip-path="url(#SVGID_4_)" fill="#FF7800" d="M190.6,176.256h-1.463V170.4c0-4.44-3.613-8.054-8.054-8.054h-2.928
			c-4.44,0-8.053,3.613-8.053,8.054v5.855h-1.464V170.4c0-5.248,4.27-9.518,9.517-9.518h2.928c5.248,0,9.517,4.27,9.517,9.518
			V176.256z"/>
	</g>
	<g>
		<defs>
			<rect id="SVGID_5_" x="133.5" y="133.798" width="92.238" height="93.702"/>
		</defs>
		<clipPath id="SVGID_6_">
			<use xlink:href="#SVGID_5_"  overflow="visible"/>
		</clipPath>
		<path clip-path="url(#SVGID_6_)" fill="#FF7800" d="M179.62,184.311c-0.403,0-0.732,0.326-0.732,0.73s0.329,0.732,0.732,0.732
			c0.403,0,0.732-0.328,0.732-0.732S180.022,184.311,179.62,184.311 M179.62,187.236c-1.211,0-2.196-0.984-2.196-2.195
			s0.985-2.195,2.196-2.195c1.21,0,2.196,0.984,2.196,2.195S180.83,187.236,179.62,187.236"/>
	</g>
</g>
<rect x="178.887" y="186.504" fill="#FF7800" width="1.464" height="7.321"/>
<rect x="143.017" y="179.917" fill="#212929" width="13.177" height="1.464"/>
<g>
	<g>
		<defs>
			<rect id="SVGID_7_" x="133.5" y="133.798" width="92.238" height="93.702"/>
		</defs>
		<clipPath id="SVGID_8_">
			<use xlink:href="#SVGID_7_"  overflow="visible"/>
		</clipPath>
		<path clip-path="url(#SVGID_8_)" fill="#212929" d="M138.625,176.988c-2.019,0-3.66,1.643-3.66,3.661
			c0,2.019,1.641,3.66,3.66,3.66s3.66-1.643,3.66-3.66S140.644,176.988,138.625,176.988 M138.625,185.773
			c-2.825,0-5.124-2.299-5.124-5.125c0-2.825,2.299-5.125,5.124-5.125s5.124,2.299,5.124,5.125
			C143.749,183.475,141.45,185.773,138.625,185.773"/>
	</g>
</g>
<rect x="203.045" y="179.917" fill="#212929" width="13.178" height="1.464"/>
<g>
	<g>
		<defs>
			<rect id="SVGID_9_" x="133.5" y="133.798" width="92.238" height="93.702"/>
		</defs>
		<clipPath id="SVGID_10_">
			<use xlink:href="#SVGID_9_"  overflow="visible"/>
		</clipPath>
		<path clip-path="url(#SVGID_10_)" fill="#212929" d="M220.613,176.988c-2.018,0-3.659,1.643-3.659,3.661
			c0,2.019,1.642,3.66,3.659,3.66c2.02,0,3.66-1.643,3.66-3.66S222.633,176.988,220.613,176.988 M220.613,185.773
			c-2.824,0-5.123-2.299-5.123-5.125c0-2.825,2.299-5.125,5.123-5.125c2.826,0,5.125,2.299,5.125,5.125
			C225.738,183.475,223.439,185.773,220.613,185.773"/>
	</g>
	<g>
		<defs>
			<rect id="SVGID_11_" x="133.5" y="133.798" width="92.238" height="93.702"/>
		</defs>
		<clipPath id="SVGID_12_">
			<use xlink:href="#SVGID_11_"  overflow="visible"/>
		</clipPath>
		<path clip-path="url(#SVGID_12_)" fill="#212929" d="M209.633,205.539h-1.463v-8.785c0-2.824-2.3-5.124-5.125-5.124h-5.855v-1.464
			h5.855c3.633,0,6.588,2.955,6.588,6.588V205.539z"/>
	</g>
	<g>
		<defs>
			<rect id="SVGID_13_" x="133.5" y="133.798" width="92.238" height="93.702"/>
		</defs>
		<clipPath id="SVGID_14_">
			<use xlink:href="#SVGID_13_"  overflow="visible"/>
		</clipPath>
		<path clip-path="url(#SVGID_14_)" fill="#212929" d="M208.9,206.271c-2.019,0-3.659,1.642-3.659,3.66
			c0,2.018,1.642,3.66,3.659,3.66c2.019,0,3.66-1.643,3.66-3.66C212.561,207.913,210.92,206.271,208.9,206.271 M208.9,215.057
			c-2.824,0-5.125-2.3-5.125-5.125c0-2.826,2.301-5.125,5.125-5.125c2.826,0,5.125,2.299,5.125,5.125
			C214.025,212.757,211.727,215.057,208.9,215.057"/>
	</g>
	<g>
		<defs>
			<rect id="SVGID_15_" x="133.5" y="133.798" width="92.238" height="93.702"/>
		</defs>
		<clipPath id="SVGID_16_">
			<use xlink:href="#SVGID_15_"  overflow="visible"/>
		</clipPath>
		<path clip-path="url(#SVGID_16_)" fill="#212929" d="M151.069,205.539h-1.464v-8.785c0-3.633,2.955-6.588,6.588-6.588h5.857v1.464
			h-5.857c-2.825,0-5.124,2.3-5.124,5.124V205.539z"/>
	</g>
	<g>
		<defs>
			<rect id="SVGID_17_" x="133.5" y="133.798" width="92.238" height="93.702"/>
		</defs>
		<clipPath id="SVGID_18_">
			<use xlink:href="#SVGID_17_"  overflow="visible"/>
		</clipPath>
		<path clip-path="url(#SVGID_18_)" fill="#212929" d="M150.337,206.271c-2.019,0-3.66,1.642-3.66,3.66
			c0,2.018,1.641,3.66,3.66,3.66s3.66-1.643,3.66-3.66C153.997,207.913,152.356,206.271,150.337,206.271 M150.337,215.057
			c-2.825,0-5.124-2.3-5.124-5.125c0-2.826,2.299-5.125,5.124-5.125c2.825,0,5.125,2.299,5.125,5.125
			C155.462,212.757,153.162,215.057,150.337,215.057"/>
	</g>
	<g>
		<defs>
			<rect id="SVGID_19_" x="133.5" y="133.798" width="92.238" height="93.702"/>
		</defs>
		<clipPath id="SVGID_20_">
			<use xlink:href="#SVGID_19_"  overflow="visible"/>
		</clipPath>
		<path clip-path="url(#SVGID_20_)" fill="#212929" d="M203.045,171.132h-5.855v-1.464h5.855c2.825,0,5.124-2.299,5.124-5.124
			v-8.784h1.464v8.784C209.633,168.177,206.678,171.132,203.045,171.132"/>
	</g>
	<g>
		<defs>
			<rect id="SVGID_21_" x="133.5" y="133.798" width="92.238" height="93.702"/>
		</defs>
		<clipPath id="SVGID_22_">
			<use xlink:href="#SVGID_21_"  overflow="visible"/>
		</clipPath>
		<path clip-path="url(#SVGID_22_)" fill="#212929" d="M208.9,147.706c-2.019,0-3.659,1.643-3.659,3.66
			c0,2.02,1.642,3.661,3.659,3.661c2.019,0,3.66-1.642,3.66-3.661C212.562,149.349,210.92,147.706,208.9,147.706 M208.9,156.491
			c-2.824,0-5.125-2.299-5.125-5.125c0-2.825,2.301-5.124,5.125-5.124c2.826,0,5.125,2.299,5.125,5.124
			C214.025,154.192,211.727,156.491,208.9,156.491"/>
	</g>
	<g>
		<defs>
			<rect id="SVGID_23_" x="133.5" y="133.798" width="92.238" height="93.702"/>
		</defs>
		<clipPath id="SVGID_24_">
			<use xlink:href="#SVGID_23_"  overflow="visible"/>
		</clipPath>
		<path clip-path="url(#SVGID_24_)" fill="#212929" d="M162.05,171.132h-5.856c-3.634,0-6.589-2.955-6.589-6.588v-8.784h1.464v8.784
			c0,2.825,2.299,5.124,5.125,5.124h5.856V171.132z"/>
	</g>
	<g>
		<defs>
			<rect id="SVGID_25_" x="133.5" y="133.798" width="92.238" height="93.702"/>
		</defs>
		<clipPath id="SVGID_26_">
			<use xlink:href="#SVGID_25_"  overflow="visible"/>
		</clipPath>
		<path clip-path="url(#SVGID_26_)" fill="#212929" d="M150.337,147.706c-2.019,0-3.66,1.643-3.66,3.66
			c0,2.02,1.641,3.661,3.66,3.661s3.66-1.642,3.66-3.661C153.997,149.349,152.356,147.706,150.337,147.706 M150.337,156.491
			c-2.825,0-5.124-2.299-5.124-5.125c0-2.825,2.299-5.124,5.124-5.124c2.825,0,5.125,2.299,5.125,5.124
			C155.462,154.192,153.162,156.491,150.337,156.491"/>
	</g>
	<g>
		<defs>
			<rect id="SVGID_27_" x="133.5" y="133.798" width="92.238" height="93.702"/>
		</defs>
		<clipPath id="SVGID_28_">
			<use xlink:href="#SVGID_27_"  overflow="visible"/>
		</clipPath>
		<path clip-path="url(#SVGID_28_)" fill="#212929" d="M170.834,206.271c-2.019,0-3.66,1.642-3.66,3.66
			c0,2.018,1.641,3.66,3.66,3.66s3.66-1.643,3.66-3.66C174.494,207.913,172.854,206.271,170.834,206.271 M170.834,215.057
			c-2.825,0-5.124-2.3-5.124-5.125c0-2.826,2.299-5.125,5.124-5.125s5.124,2.299,5.124,5.125
			C175.958,212.757,173.66,215.057,170.834,215.057"/>
	</g>
</g>
<rect x="170.102" y="214.323" fill="#212929" width="1.464" height="13.177"/>
<g>
	<g>
		<defs>
			<rect id="SVGID_29_" x="133.5" y="133.798" width="92.238" height="93.702"/>
		</defs>
		<clipPath id="SVGID_30_">
			<use xlink:href="#SVGID_29_"  overflow="visible"/>
		</clipPath>
		<path clip-path="url(#SVGID_30_)" fill="#212929" d="M188.404,206.271c-2.021,0-3.66,1.642-3.66,3.66
			c0,2.018,1.641,3.66,3.66,3.66c2.019,0,3.66-1.643,3.66-3.66C192.064,207.913,190.423,206.271,188.404,206.271 M188.404,215.057
			c-2.826,0-5.125-2.3-5.125-5.125c0-2.826,2.299-5.125,5.125-5.125c2.824,0,5.125,2.299,5.125,5.125
			C193.529,212.757,191.229,215.057,188.404,215.057"/>
	</g>
</g>
<rect x="187.672" y="214.323" fill="#212929" width="1.465" height="13.177"/>
<g>
	<g>
		<defs>
			<rect id="SVGID_31_" x="133.5" y="133.798" width="92.238" height="93.702"/>
		</defs>
		<clipPath id="SVGID_32_">
			<use xlink:href="#SVGID_31_"  overflow="visible"/>
		</clipPath>
		<path clip-path="url(#SVGID_32_)" fill="#212929" d="M170.834,147.706c-2.019,0-3.66,1.643-3.66,3.66
			c0,2.02,1.641,3.661,3.66,3.661s3.66-1.642,3.66-3.661C174.495,149.349,172.854,147.706,170.834,147.706 M170.834,156.491
			c-2.825,0-5.124-2.299-5.124-5.125c0-2.825,2.299-5.124,5.124-5.124s5.124,2.299,5.124,5.124
			C175.958,154.192,173.66,156.491,170.834,156.491"/>
	</g>
</g>
<rect x="170.103" y="133.798" fill="#212929" width="1.464" height="13.177"/>
<g>
	<path fill="#212929" d="M188.404,147.706c-2.021,0-3.66,1.643-3.66,3.66c0,2.02,1.641,3.661,3.66,3.661
		c2.019,0,3.66-1.642,3.66-3.661C192.064,149.349,190.423,147.706,188.404,147.706 M188.404,156.491
		c-2.826,0-5.125-2.299-5.125-5.125c0-2.825,2.299-5.124,5.125-5.124c2.824,0,5.125,2.299,5.125,5.124
		C193.529,154.192,191.229,156.491,188.404,156.491"/>
</g>
<rect x="187.672" y="133.798" fill="#212929" width="1.465" height="13.177"/>
<rect x="197.189" y="179.917" fill="#212929" width="2.928" height="1.464"/>
<rect x="159.122" y="179.917" fill="#212929" width="2.928" height="1.464"/>
</svg>
