<?xml version="1.0" encoding="utf-8"?>
<!-- Generator: Adobe Illustrator 15.0.2, SVG Export Plug-In . SVG Version: 6.00 Build 0)  -->
<!DOCTYPE svg PUBLIC "-//W3C//DTD SVG 1.1//EN" "http://www.w3.org/Graphics/SVG/1.1/DTD/svg11.dtd">
<svg version="1.1" id="Layer_1" xmlns="http://www.w3.org/2000/svg" xmlns:xlink="http://www.w3.org/1999/xlink" x="0px" y="0px"
	 width="262px" height="263px" viewBox="45.5 49.5 262 263" enable-background="new 45.5 49.5 262 263" xml:space="preserve">
<g>
	<g>
		<g>
			<g>
				<g opacity="0.3">
					<g>
						<path fill="none" stroke="#4F4F50" stroke-width="2" stroke-miterlimit="10" d="M225.798,274.281
							c22.433,0.197,45.985-10.031,58.914-25.383c-12.172-6.898-36.479-18.914-60.356-23.309
							c-11.869,13.777-31.576,28.107-47.229,36.741C191.913,268.665,211.68,274.159,225.798,274.281 M284.295,248.643
							c-25.713,31.228-69.527,30.961-107.17,13.689c-20.372-9.346-38.911-23.646-51.765-40.564
							c-0.964-1.197-1.875-2.436-2.756-3.692c-12.956,10.252-32.16,22.557-55.471,28.923c-0.088,0.021-0.183,0.052-0.273,0.075
							c22.26,36.663,62.334,61.366,108.379,61.769c46.071,0.402,86.592-23.632,109.473-59.941
							C284.573,248.814,284.439,248.729,284.295,248.643"/>
					</g>
				</g>
				<g>
					<path fill="#6C9A33" d="M69.268,240.578"/>
				</g>
			</g>
		</g>
	</g>
	<g>
		<path fill="#E06F1E" d="M104.122,140.288c-15.787,12.292-31.039,27.292-37.848,42.813c-7.016,15.988-11.148,38.824-4.656,53.963
			c0.497,1.158,1.734,3.015,2.402,4.527c0.375-0.23,0.094-0.029,0.488-0.277c12.349-7.722,33.822-22.937,48.738-41.066
			C106.276,183.82,103.349,159.521,104.122,140.288"/>
		<path fill="#F37721" d="M172.94,50.619C103.299,53.5,47.968,111.073,48.507,181.305c0.166,21.844,5.801,42.332,15.471,60.319
			c0.092,0.168,0.229-0.022,0.369-0.142c0.15-0.127,0.301-0.194,0.207-0.414c-15.423-36.146,6.648-75.865,41.011-101.131
			c19.43-14.287,42.789-23.927,65.518-25.707c-2.693-16.613-4.095-39.755,1.846-63.57C172.932,50.648,172.937,50.633,172.94,50.619"
			/>
	</g>
	<g>
		<g>
			<g>
				<g opacity="0.3">
					<g>
						<path fill="none" stroke="#4F4F50" stroke-width="2" stroke-miterlimit="10" d="M234.463,90.583
							c-10.765-19.683-31.178-35.26-50.885-39.063c-0.09,13.991,1.271,41.072,9.076,64.061
							c17.816,3.647,39.936,13.867,55.104,23.325C246.079,122.905,241.24,102.969,234.463,90.583 M183.559,52.008
							c39.799,7.226,60.93,45.611,64.201,86.896c1.771,22.344-1.676,45.502-10.182,64.973c-0.574,1.426-1.211,2.824-1.88,4.207
							c15.267,6.312,35.374,17.082,52.298,34.33c0.062,0.066,0.133,0.135,0.197,0.202c21.159-37.31,23.188-84.342,1.093-124.74
							c-22.11-40.423-62.851-64.083-105.708-66.357C183.572,51.682,183.562,51.839,183.559,52.008"/>
					</g>
				</g>
				<g>
					<path fill="#6C9A33" d="M281.352,243.682"/>
				</g>
			</g>
		</g>
	</g>
</g>
</svg>
