<?xml version="1.0" encoding="utf-8"?>
<!-- Generator: Adobe Illustrator 15.0.2, SVG Export Plug-In . SVG Version: 6.00 Build 0)  -->
<!DOCTYPE svg PUBLIC "-//W3C//DTD SVG 1.1//EN" "http://www.w3.org/Graphics/SVG/1.1/DTD/svg11.dtd">
<svg version="1.1" id="Layer_1" xmlns="http://www.w3.org/2000/svg" xmlns:xlink="http://www.w3.org/1999/xlink" x="0px" y="0px"
	 width="264px" height="266px" viewBox="38.5 38.5 264 266" enable-background="new 38.5 38.5 264 266" xml:space="preserve">
<g>
	<g>
		<path fill="#E06F1E" d="M98.602,132.284c-15.787,12.292-31.039,27.292-37.848,42.813c-7.016,15.989-11.148,38.825-4.656,53.963
			c0.497,1.158,1.734,3.015,2.402,4.527c0.375-0.23,0.094-0.029,0.488-0.277c12.349-7.722,33.822-22.937,48.738-41.066
			C100.756,175.816,97.828,151.517,98.602,132.284"/>
		<path fill="#F37721" d="M167.42,42.615C97.778,45.497,42.447,103.069,42.986,173.3c0.166,21.845,5.801,42.333,15.471,60.32
			c0.092,0.168,0.229-0.022,0.369-0.142c0.15-0.127,0.301-0.194,0.207-0.414c-15.423-36.146,6.648-75.865,41.011-101.131
			c19.43-14.287,42.789-23.927,65.518-25.707c-2.693-16.613-4.095-39.755,1.846-63.57C167.411,42.644,167.416,42.629,167.42,42.615"
			/>
	</g>
	<g>
		<path fill="#E06F1E" d="M242.156,130.477c-2.225-19.884-7.036-40.728-16.707-54.647c-9.961-14.34-27.268-29.803-43.564-32.184
			c-1.248-0.182-3.477-0.098-5.117-0.319c0.002,0.44-0.022,0.096-0.019,0.562c0.126,14.563,1.868,40.823,9.524,63.018
			C203.922,109.553,226.165,119.762,242.156,130.477"/>
		<path fill="#F37721" d="M282.611,236.021c33.956-60.872,13.808-138.14-46.342-174.398c-18.707-11.279-39.117-17.188-59.506-18.349
			c-0.191-0.01-0.101,0.206-0.074,0.388c0.031,0.194,0.01,0.358,0.246,0.394c38.875,5.751,61.193,45.333,64.765,87.834
			c2.021,24.032-1.976,48.984-12.341,69.29c15.57,6.393,36.029,17.297,53.224,34.812C282.592,236,282.604,236.012,282.611,236.021"
			/>
	</g>
	<g>
		<path fill="#E06F1E" d="M172.828,254.219c18.535,7.534,39.148,13.254,55.995,11.397c17.354-1.909,39.202-9.739,49.073-22.925
			c0.756-1.01,1.744-3.01,2.723-4.346c-0.389-0.207-0.074-0.064-0.484-0.283c-12.859-6.84-36.768-17.842-59.925-21.705
			C209.462,230.604,189.875,245.279,172.828,254.219"/>
		<path fill="#F37721" d="M60.771,239.398c37.288,58.891,114.804,78.06,175.374,42.508c18.838-11.059,33.772-26.174,44.523-43.538
			c0.102-0.163-0.133-0.187-0.307-0.249c-0.187-0.064-0.319-0.163-0.463,0.027c-23.606,31.418-69.041,32.142-108.094,14.996
			c-22.084-9.692-42.104-25.111-55.001-43.912c-13.047,10.634-32.394,23.408-55.99,30.16
			C60.8,239.393,60.784,239.396,60.771,239.398"/>
	</g>
</g>
</svg>
