<?xml version="1.0" encoding="utf-8"?>
<!-- Generator: Adobe Illustrator 15.0.2, SVG Export Plug-In . SVG Version: 6.00 Build 0)  -->
<!DOCTYPE svg PUBLIC "-//W3C//DTD SVG 1.1//EN" "http://www.w3.org/Graphics/SVG/1.1/DTD/svg11.dtd">
<svg version="1.1" id="Layer_1" xmlns="http://www.w3.org/2000/svg" xmlns:xlink="http://www.w3.org/1999/xlink" x="0px" y="0px"
	 width="106px" height="116px" viewBox="127.5 123.5 106 116" enable-background="new 127.5 123.5 106 116" xml:space="preserve">
<g>
	<g>
		<defs>
			<rect id="SVGID_1_" x="131" y="124.942" width="98.021" height="110.058"/>
		</defs>
		<clipPath id="SVGID_2_">
			<use xlink:href="#SVGID_1_"  overflow="visible"/>
		</clipPath>
		<g clip-path="url(#SVGID_2_)">
			<g>
				<path fill="none" d="M179.84,163.751"/>
				
					<linearGradient id="SVGID_3_" gradientUnits="userSpaceOnUse" x1="179.8398" y1="163.752" x2="179.8398" y2="163.752" gradientTransform="matrix(0.001 0 0 0.001 -75.4914 -8655.6348)">
					<stop  offset="0" style="stop-color:#303493"/>
					<stop  offset="0.35" style="stop-color:#ED3293"/>
					<stop  offset="1" style="stop-color:#ED3293"/>
				</linearGradient>
				<path fill="url(#SVGID_3_)" d="M179.84,163.752L179.84,163.752z"/>
			</g>
		</g>
		<path clip-path="url(#SVGID_2_)" fill="none" stroke="#000000" d="M179.839,163.751"/>
		<g clip-path="url(#SVGID_2_)">
			<g>
				<defs>
					<rect id="SVGID_4_" x="131" y="124.942" width="98.021" height="110.058"/>
				</defs>
				<clipPath id="SVGID_5_">
					<use xlink:href="#SVGID_4_"  overflow="visible"/>
				</clipPath>
				<path clip-path="url(#SVGID_5_)" d="M229.021,235h-1.721v-17.197c0-9.556-11.004-14.512-21.768-18.1l-10.432-5.206l0.77-1.538
					l10.318,5.159c11.231,3.735,22.83,9.036,22.83,19.685V235H229.021z"/>
			</g>
			<g>
				<defs>
					<rect id="SVGID_6_" x="131" y="124.942" width="98.021" height="110.058"/>
				</defs>
				<clipPath id="SVGID_7_">
					<use xlink:href="#SVGID_6_"  overflow="visible"/>
				</clipPath>
				<path clip-path="url(#SVGID_7_)" d="M132.719,235H131v-17.197c0-10.646,11.597-15.949,22.943-19.73l10.205-5.112l0.769,1.538
					l-10.318,5.159c-10.877,3.635-21.88,8.591-21.88,18.146V235z"/>
			</g>
		</g>
		<rect x="148.196" y="224.682" clip-path="url(#SVGID_2_)" width="1.72" height="10.318"/>
		<rect x="210.104" y="224.682" clip-path="url(#SVGID_2_)" width="1.722" height="10.318"/>
		<rect x="168.833" y="179.971" clip-path="url(#SVGID_2_)" width="1.719" height="8.599"/>
		<rect x="189.468" y="179.971" clip-path="url(#SVGID_2_)" width="1.72" height="8.599"/>
		<g clip-path="url(#SVGID_2_)">
			<path d="M180.01,184.271c-12.966,0-17.916-12.812-18.053-21.138l-1.723-1.723v-3.796h1.719v3.083l1.72,1.72v0.356
				c0,7.646,4.435,19.776,16.337,19.776c11.901,0,16.336-12.131,16.336-19.776v-0.356l1.721-1.72v-3.083h1.72v3.796l-1.724,1.723
				C197.926,171.459,192.977,184.271,180.01,184.271"/>
			<path d="M180.01,194.588c4.314,0,7.961,2.902,9.094,6.857l5.373-9.402l-2.748-4.121l-11.379,4.877
				c-0.219,0.094-0.46,0.094-0.679,0l-11.379-4.877l-2.747,4.121l5.372,9.402C172.048,197.49,175.695,194.588,180.01,194.588
				 M188.607,204.906c-0.073,0-0.146-0.01-0.219-0.029c-0.38-0.1-0.642-0.441-0.642-0.831c0-4.267-3.472-7.737-7.738-7.737
				c-4.268,0-7.739,3.471-7.739,7.737c0,0.39-0.262,0.731-0.64,0.831c-0.364,0.1-0.772-0.064-0.967-0.404l-6.879-12.037
				c-0.161-0.283-0.149-0.633,0.032-0.902l3.439-5.159c0.231-0.347,0.674-0.476,1.055-0.313l11.699,5.015l11.699-5.015
				c0.383-0.162,0.825-0.031,1.056,0.313l3.438,5.159c0.181,0.271,0.193,0.619,0.031,0.902l-6.879,12.037
				C189.199,204.746,188.91,204.906,188.607,204.906"/>
			<path d="M175.711,235h-1.72v-24.075c0-0.228,0.091-0.446,0.252-0.606l4.551-4.551l-6.271-6.271l1.216-1.216l6.879,6.879
				c0.336,0.335,0.336,0.88,0,1.216l-4.907,4.907V235z"/>
			<path d="M186.029,235h-1.721v-23.719l-4.907-4.907c-0.336-0.336-0.336-0.881,0-1.216l6.877-6.879l1.216,1.216l-6.271,6.271
				l4.551,4.551c0.16,0.162,0.252,0.381,0.252,0.607V235H186.029z"/>
			<path d="M188.607,172.232h-3.438c-2.188,0-4.104-1.173-5.16-2.921c-1.055,1.748-2.973,2.921-5.159,2.921h-3.44v-1.72h3.44
				c2.371,0,4.299-1.928,4.299-4.299h1.72c0,2.371,1.926,4.299,4.299,4.299h3.438V172.232L188.607,172.232z"/>
			<path d="M180.01,160.194c-11.089,0-19.776-4.909-19.776-11.178h1.719c0,5.127,8.269,9.459,18.057,9.459
				c9.787,0,18.057-4.332,18.057-9.459h1.72C199.786,155.285,191.098,160.194,180.01,160.194"/>
			<path d="M199.684,145.985l-1.516-0.814c0.045-0.081,3.768-7.078,4.798-13.676c-2.185,1.185-5.636,1.186-7.479,1.186
				c-3.711,0-6.002-2.188-7.053-4.601c-1.588,2.476-4.824,4.601-8.422,4.601c-3.599,0-6.835-2.125-8.423-4.601
				c-1.052,2.413-3.343,4.601-7.054,4.601c-1.843,0-5.294,0-7.478-1.186c1.027,6.603,4.752,13.595,4.795,13.676l-1.514,0.814
				c-0.215-0.4-5.261-9.878-5.261-17.604h1.719c0,1.76,2.459,2.58,7.739,2.58c4.151,0,6.018-3.521,6.018-6.019h1.72
				c0,2.377,3.466,6.019,7.739,6.019c4.272,0,7.737-3.642,7.737-6.019h1.721c0,2.498,1.867,6.019,6.018,6.019
				c5.281,0,7.74-0.82,7.74-2.58h1.719C204.945,136.107,199.898,145.585,199.684,145.985"/>
			<path d="M195.441,214.229c0.063,7.498,5.257,10.848,5.904,11.236c0.647-0.39,5.842-3.738,5.904-11.236h-2.059
				c-2.321,0-3.49-1.318-3.848-1.812c-0.355,0.493-1.523,1.812-3.844,1.812H195.441z M201.346,225.761
				c-0.021,0-0.045-0.006-0.063-0.018c-0.062-0.032-6.113-3.429-6.113-11.653c0-0.076,0.062-0.138,0.138-0.138h2.196
				c2.629,0,3.713-1.835,3.726-1.853c0.049-0.086,0.189-0.086,0.237,0c0.013,0.018,1.099,1.853,3.728,1.853h2.197
				c0.075,0,0.135,0.062,0.135,0.138c0,8.225-6.049,11.621-6.112,11.653C201.391,225.755,201.369,225.761,201.346,225.761"/>
			<path fill="#ED3293" d="M195.883,214.657c0.23,6.405,4.352,9.562,5.463,10.298c1.112-0.736,5.233-3.893,5.465-10.298h-1.617
				c-2.008,0-3.225-0.905-3.848-1.568c-0.623,0.663-1.838,1.568-3.844,1.568H195.883z M201.346,226.189h-0.107l-0.161-0.068
				c-0.062-0.032-6.339-3.503-6.339-12.031c0-0.312,0.256-0.566,0.566-0.566h2.197c2.323,0,3.314-1.58,3.357-1.646
				c0.188-0.327,0.781-0.336,0.979,0.01c0.037,0.059,1.029,1.637,3.354,1.637h2.197c0.312,0,0.564,0.256,0.564,0.567
				c0,8.528-6.273,11.999-6.34,12.032l-0.096,0.052L201.346,226.189z"/>
			<path fill="#ED3293" d="M161.953,148.157h36.113v-5.159h-36.113V148.157z M198.926,149.877h-37.833
				c-0.475,0-0.859-0.385-0.859-0.86v-6.879c0-0.474,0.384-0.858,0.859-0.858h37.833c0.477,0,0.86,0.385,0.86,0.858v6.879
				C199.786,149.492,199.402,149.877,198.926,149.877"/>
		</g>
	</g>
</g>
</svg>
