<?xml version="1.0" encoding="utf-8"?>
<!-- Generator: Adobe Illustrator 15.0.2, SVG Export Plug-In . SVG Version: 6.00 Build 0)  -->
<!DOCTYPE svg PUBLIC "-//W3C//DTD SVG 1.1//EN" "http://www.w3.org/Graphics/SVG/1.1/DTD/svg11.dtd">
<svg version="1.1" id="Layer_1" xmlns="http://www.w3.org/2000/svg" xmlns:xlink="http://www.w3.org/1999/xlink" x="0px" y="0px"
	 width="85px" height="122.667px" viewBox="138.5 120.5 85 122.667" enable-background="new 138.5 120.5 85 122.667"
	 xml:space="preserve">
<g>
	<path fill="#1F2020" d="M195.434,186.753c-0.203-1.147-0.455-2.317-0.768-3.494c-0.159-0.604-0.779-0.968-1.385-0.807
		c-0.606,0.161-0.969,0.78-0.809,1.386c0.293,1.11,0.53,2.221,0.725,3.312c0.111,0.617,0.699,1.027,1.316,0.92
		C195.132,187.96,195.543,187.371,195.434,186.753 M217.879,198.469C218.826,199.318,218.084,199.646,217.879,198.469
		c-2.824-2.529-6.557-4.072-10.646-4.072c-4.309,0-8.207,1.722-11.075,4.496c0.041-0.826,0.069-1.759,0.069-2.789
		c0-0.524-0.009-1.072-0.022-1.643c-0.019-0.627-0.541-1.121-1.168-1.102c-0.627,0.017-1.119,0.537-1.101,1.166
		c0.017,0.547,0.021,1.074,0.021,1.576c0,1.361-0.049,2.555-0.111,3.521c-2.916-3.193-7.088-5.227-11.758-5.227
		c-4.798,0-9.077,2.144-11.998,5.494c-0.051-0.774-0.097-1.81-0.097-3.057c-0.005-5.113,0.784-13.607,5.024-20.786
		c0.318-0.54,0.138-1.236-0.402-1.553c-0.54-0.318-1.236-0.138-1.553,0.401c-4.558,7.754-5.332,16.604-5.338,21.938
		c0,0.829,0.02,1.561,0.048,2.203c-2.879-2.857-6.826-4.643-11.206-4.643c-4.243,0-8.095,1.662-10.951,4.363
		c-0.205,1.229-0.962,0.909,0,0c2.709-16.271,16.125-28.92,32.769-30.446c-0.414,0.375-0.829,0.749-1.209,1.144
		c-0.435,0.452-0.42,1.17,0.029,1.604c0.452,0.435,1.17,0.422,1.605-0.029c0.97-1.008,2.06-1.946,3.251-2.819
		c4.888,3.221,7.826,7.906,9.566,12.858c0.207,0.591,0.855,0.902,1.447,0.693c0.59-0.207,0.9-0.854,0.693-1.445
		c-1.511-4.311-3.949-8.545-7.73-11.897C202.172,170.294,215.109,182.623,217.879,198.469 M182.889,165.934v-5.094
		c0-0.627-0.51-1.135-1.137-1.135s-1.134,0.508-1.134,1.135v5.096c-20.144,0.595-36.449,16.444-37.704,36.419
		c-0.032,0.516,0.288,0.988,0.781,1.148c0.493,0.159,1.031-0.033,1.308-0.47c2.438-3.828,6.695-6.369,11.563-6.369
		c4.867,0,9.118,2.546,11.554,6.375c0.207,0.326,0.571,0.526,0.957,0.526h0.499c0.387,0,0.749-0.2,0.958-0.526
		c2.186-3.437,5.841-5.822,10.084-6.278v38.377c0,0.041,0.021,0.077,0.024,0.118c-0.002,0.024-0.015,0.045-0.015,0.07
		c0.002,3.62,2.935,6.553,6.556,6.555c3.621-0.002,6.551-2.935,6.553-6.555c0-0.627-0.508-1.134-1.133-1.134
		c-0.627,0-1.136,0.507-1.136,1.134c-0.001,1.188-0.478,2.25-1.257,3.03c-0.775,0.776-1.842,1.254-3.027,1.254
		c-1.188,0-2.252-0.478-3.031-1.254c-0.776-0.78-1.254-1.844-1.254-3.03c0-0.042-0.021-0.077-0.024-0.118
		c0.002-0.025,0.015-0.046,0.015-0.07v-38.422c4.528,0.264,8.461,2.705,10.762,6.323c0.195,0.308,0.533,0.489,0.895,0.511
		c0.002,0,0.004,0.002,0.004,0.002c0.002,0,0.002,0,0.002,0c0.021,0,0.037,0.016,0.059,0.016h0.105c0.039,0,0.072-0.025,0.111-0.029
		c0.119-0.012,0.23-0.04,0.338-0.087c0.051-0.022,0.098-0.04,0.145-0.069c0.131-0.08,0.24-0.183,0.33-0.309
		c0.01-0.016,0.025-0.02,0.033-0.033c2.438-3.831,6.695-6.375,11.562-6.375c4.688,0,8.816,2.354,11.293,5.948
		c0.291,0.422,0.826,0.597,1.311,0.427c0.486-0.172,0.793-0.643,0.755-1.154C219.113,182.12,202.893,166.503,182.889,165.934"/>
	<path fill="none" stroke="#FFFFFF" stroke-width="0.4" stroke-miterlimit="10" d="M195.434,186.753
		c-0.203-1.147-0.455-2.317-0.768-3.494c-0.159-0.604-0.779-0.968-1.385-0.807c-0.606,0.161-0.969,0.78-0.809,1.386
		c0.293,1.11,0.53,2.221,0.725,3.312c0.111,0.617,0.699,1.027,1.316,0.92C195.132,187.96,195.543,187.371,195.434,186.753z
		 M217.879,198.469C218.826,199.318,218.084,199.646,217.879,198.469c-2.824-2.529-6.557-4.072-10.646-4.072
		c-4.309,0-8.207,1.722-11.075,4.496c0.041-0.826,0.069-1.759,0.069-2.789c0-0.524-0.009-1.072-0.022-1.643
		c-0.019-0.627-0.541-1.121-1.168-1.102c-0.627,0.017-1.119,0.537-1.101,1.166c0.017,0.547,0.021,1.074,0.021,1.576
		c0,1.361-0.049,2.555-0.111,3.521c-2.916-3.193-7.088-5.227-11.758-5.227c-4.798,0-9.077,2.144-11.998,5.494
		c-0.051-0.774-0.097-1.81-0.097-3.057c-0.005-5.113,0.784-13.607,5.024-20.786c0.318-0.54,0.138-1.236-0.402-1.553
		c-0.54-0.318-1.236-0.138-1.553,0.401c-4.558,7.754-5.332,16.604-5.338,21.938c0,0.829,0.02,1.561,0.048,2.203
		c-2.879-2.857-6.826-4.643-11.206-4.643c-4.243,0-8.095,1.662-10.951,4.363c-0.205,1.229-0.962,0.909,0,0
		c2.709-16.271,16.125-28.92,32.769-30.446c-0.414,0.375-0.829,0.749-1.209,1.144c-0.435,0.452-0.42,1.17,0.029,1.604
		c0.452,0.435,1.17,0.422,1.605-0.029c0.97-1.008,2.06-1.946,3.251-2.819c4.888,3.221,7.826,7.906,9.566,12.858
		c0.207,0.591,0.855,0.902,1.447,0.693c0.59-0.207,0.9-0.854,0.693-1.445c-1.511-4.311-3.949-8.545-7.73-11.897
		C202.172,170.294,215.109,182.623,217.879,198.469z M182.889,165.934v-5.094c0-0.627-0.51-1.135-1.137-1.135
		s-1.134,0.508-1.134,1.135v5.096c-20.144,0.595-36.449,16.444-37.704,36.419c-0.032,0.516,0.288,0.988,0.781,1.148
		c0.493,0.159,1.031-0.033,1.308-0.47c2.438-3.828,6.695-6.369,11.563-6.369c4.867,0,9.118,2.546,11.554,6.375
		c0.207,0.326,0.571,0.526,0.957,0.526h0.499c0.387,0,0.749-0.2,0.958-0.526c2.186-3.437,5.841-5.822,10.084-6.278v38.377
		c0,0.041,0.021,0.077,0.024,0.118c-0.002,0.024-0.015,0.045-0.015,0.07c0.002,3.62,2.935,6.553,6.556,6.555
		c3.621-0.002,6.551-2.935,6.553-6.555c0-0.627-0.508-1.134-1.133-1.134c-0.627,0-1.136,0.507-1.136,1.134
		c-0.001,1.188-0.478,2.25-1.257,3.03c-0.775,0.776-1.842,1.254-3.027,1.254c-1.188,0-2.252-0.478-3.031-1.254
		c-0.776-0.78-1.254-1.844-1.254-3.03c0-0.042-0.021-0.077-0.024-0.118c0.002-0.025,0.015-0.046,0.015-0.07v-38.422
		c4.528,0.264,8.461,2.705,10.762,6.323c0.195,0.308,0.533,0.489,0.895,0.511c0.002,0,0.004,0.002,0.004,0.002
		c0.002,0,0.002,0,0.002,0c0.021,0,0.037,0.016,0.059,0.016h0.105c0.039,0,0.072-0.025,0.111-0.029
		c0.119-0.012,0.23-0.04,0.338-0.087c0.051-0.022,0.098-0.04,0.145-0.069c0.131-0.08,0.24-0.183,0.33-0.309
		c0.01-0.016,0.025-0.02,0.033-0.033c2.438-3.831,6.695-6.375,11.562-6.375c4.688,0,8.816,2.354,11.293,5.948
		c0.291,0.422,0.826,0.597,1.311,0.427c0.486-0.172,0.793-0.643,0.755-1.154C219.113,182.12,202.893,166.503,182.889,165.934z"/>
</g>
<rect x="164.528" y="136.373" fill="#ED3293" width="1.609" height="3.218"/>
<rect x="145.218" y="146.028" fill="#ED3293" width="1.609" height="6.437"/>
<rect x="154.873" y="149.718" fill="#ED3293" width="1.609" height="3.218"/>
<rect x="158.092" y="143.281" fill="#ED3293" width="1.609" height="6.437"/>
<rect x="161.31" y="146.028" fill="#ED3293" width="1.609" height="3.218"/>
<rect x="167.746" y="129.936" fill="#ED3293" width="1.609" height="6.438"/>
<rect x="154.873" y="136.373" fill="#ED3293" width="1.609" height="6.437"/>
<rect x="148.437" y="139.591" fill="#ED3293" width="1.609" height="3.218"/>
<rect x="148.437" y="146.028" fill="#ED3293" width="1.609" height="3.218"/>
<rect x="142" y="142.81" fill="#ED3293" width="1.609" height="3.219"/>
<rect x="142" y="149.246" fill="#ED3293" width="1.609" height="3.218"/>
<rect x="161.31" y="136.373" fill="#ED3293" width="1.609" height="3.218"/>
<rect x="164.528" y="129.936" fill="#ED3293" width="1.609" height="3.22"/>
<rect x="164.528" y="142.81" fill="#ED3293" width="1.609" height="12.873"/>
<rect x="170.965" y="142.81" fill="#ED3293" width="1.609" height="3.22"/>
<rect x="170.965" y="133.155" fill="#ED3293" width="1.609" height="6.437"/>
<rect x="170.965" y="126.718" fill="#ED3293" width="1.609" height="3.218"/>
<rect x="164.528" y="126.718" fill="#ED3293" width="1.609" height="3.218"/>
<rect x="158.092" y="124.718" fill="#ED3293" width="1.609" height="3.218"/>
<rect x="151.655" y="129.936" fill="#ED3293" width="1.609" height="6.438"/>
<rect x="158.092" y="133.155" fill="#ED3293" width="1.609" height="3.218"/>
<rect x="142" y="129.936" fill="#ED3293" width="1.609" height="6.438"/>
<rect x="145.218" y="126.718" fill="#ED3293" width="1.609" height="3.218"/>
<rect x="174.183" y="139.591" fill="#ED3293" width="1.609" height="6.438"/>
<rect x="177.401" y="143.718" fill="#ED3293" width="1.609" height="6.438"/>
<rect x="177.401" y="128.563" fill="#ED3293" width="1.609" height="12.872"/>
<rect x="193.493" y="154.109" fill="#ED3293" width="1.608" height="3.218"/>
<rect x="193.493" y="136.373" fill="#ED3293" width="1.608" height="6.437"/>
<rect x="190.275" y="141.718" fill="#ED3293" width="1.607" height="6.438"/>
<rect x="187.057" y="146.028" fill="#ED3293" width="1.608" height="3.218"/>
<rect x="180.62" y="149.246" fill="#ED3293" width="1.608" height="3.218"/>
<rect x="183.838" y="133.155" fill="#ED3293" width="1.609" height="6.437"/>
<rect x="190.275" y="121.5" fill="#ED3293" width="1.607" height="6.438"/>
<rect x="187.057" y="126.718" fill="#ED3293" width="1.608" height="3.218"/>
<rect x="180.62" y="129.936" fill="#ED3293" width="1.608" height="6.438"/>
<rect x="183.838" y="124.718" fill="#ED3293" width="1.609" height="3.218"/>
<rect x="219.089" y="135.764" fill="#ED3293" width="1.609" height="3.219"/>
<rect x="199.779" y="147.718" fill="#ED3293" width="1.609" height="6.438"/>
<rect x="209.434" y="148.718" fill="#ED3293" width="1.609" height="3.218"/>
<rect x="212.652" y="151.718" fill="#ED3293" width="1.608" height="6.438"/>
<rect x="215.871" y="145.419" fill="#ED3293" width="1.609" height="3.218"/>
<rect x="212.652" y="138.982" fill="#ED3293" width="1.608" height="6.437"/>
<rect x="209.434" y="135.764" fill="#ED3293" width="1.609" height="6.438"/>
<rect x="202.998" y="138.982" fill="#ED3293" width="1.609" height="3.218"/>
<rect x="206.216" y="143.281" fill="#ED3293" width="1.609" height="6.437"/>
<rect x="202.998" y="145.419" fill="#ED3293" width="1.609" height="3.218"/>
<rect x="196.561" y="138.718" fill="#ED3293" width="1.609" height="3.22"/>
<rect x="196.561" y="145.155" fill="#ED3293" width="1.609" height="3.218"/>
<rect x="215.871" y="135.764" fill="#ED3293" width="1.609" height="3.219"/>
<rect x="219.089" y="129.327" fill="#ED3293" width="1.609" height="3.219"/>
<rect x="219.089" y="143.718" fill="#ED3293" width="1.609" height="12.873"/>
<rect x="219.089" y="126.109" fill="#ED3293" width="1.609" height="3.218"/>
<rect x="212.652" y="131.503" fill="#ED3293" width="1.608" height="3.218"/>
<rect x="206.216" y="124.718" fill="#ED3293" width="1.609" height="6.438"/>
<rect x="202.998" y="131.503" fill="#ED3293" width="1.609" height="3.218"/>
<rect x="199.779" y="130.718" fill="#ED3293" width="1.609" height="3.218"/>
</svg>
