<?xml version="1.0" encoding="utf-8"?>
<!-- Generator: Adobe Illustrator 15.0.2, SVG Export Plug-In . SVG Version: 6.00 Build 0)  -->
<!DOCTYPE svg PUBLIC "-//W3C//DTD SVG 1.1//EN" "http://www.w3.org/Graphics/SVG/1.1/DTD/svg11.dtd">
<svg version="1.1" id="Layer_1" xmlns="http://www.w3.org/2000/svg" xmlns:xlink="http://www.w3.org/1999/xlink" x="0px" y="0px"
	 width="85px" height="122.667px" viewBox="0 0 85 122.667" enable-background="new 0 0 85 122.667" xml:space="preserve">
<g>
	<path fill="#87BD30" d="M57.434,65.253c-0.203-1.146-0.455-2.316-0.768-3.495c-0.159-0.604-0.779-0.969-1.385-0.807
		c-0.606,0.16-0.969,0.779-0.809,1.383c0.293,1.111,0.528,2.224,0.725,3.312c0.111,0.617,0.699,1.027,1.316,0.92
		C57.132,66.46,57.543,65.871,57.434,65.253 M79.879,76.968C80.826,77.818,80.084,78.146,79.879,76.968
		c-2.824-2.527-6.557-4.07-10.646-4.07c-4.309,0-8.207,1.721-11.073,4.496c0.041-0.826,0.067-1.76,0.067-2.789
		c0-0.525-0.009-1.072-0.021-1.645c-0.021-0.627-0.541-1.121-1.168-1.103s-1.119,0.537-1.103,1.166
		c0.019,0.547,0.021,1.074,0.021,1.576c0,1.36-0.049,2.555-0.111,3.521c-2.916-3.192-7.088-5.227-11.758-5.227
		c-4.798,0-9.076,2.143-11.998,5.494c-0.051-0.775-0.097-1.811-0.097-3.059c-0.005-5.113,0.784-13.606,5.024-20.786
		c0.317-0.541,0.137-1.236-0.402-1.553c-0.54-0.318-1.236-0.139-1.553,0.4c-4.559,7.754-5.332,16.603-5.338,21.937
		c0,0.83,0.02,1.562,0.047,2.203c-2.879-2.855-6.826-4.643-11.205-4.643c-4.243,0-8.096,1.662-10.951,4.363
		c-0.205,1.229-0.963,0.908,0,0C10.324,60.984,23.74,48.336,40.384,46.81c-0.413,0.375-0.829,0.749-1.209,1.144
		c-0.435,0.452-0.42,1.17,0.029,1.604c0.452,0.435,1.17,0.422,1.604-0.029c0.971-1.008,2.061-1.946,3.252-2.819
		c4.888,3.222,7.826,7.906,9.564,12.858c0.207,0.591,0.854,0.901,1.447,0.692c0.59-0.207,0.898-0.854,0.691-1.444
		c-1.511-4.312-3.949-8.545-7.729-11.897C64.172,48.795,77.109,61.123,79.879,76.968 M44.889,44.435V39.34
		c0-0.627-0.51-1.135-1.137-1.135s-1.134,0.508-1.134,1.135v5.097C22.475,45.031,6.169,60.881,4.914,80.855
		c-0.032,0.516,0.288,0.988,0.781,1.148c0.492,0.158,1.031-0.033,1.308-0.471c2.438-3.828,6.695-6.369,11.563-6.369
		c4.867,0,9.117,2.547,11.554,6.375c0.207,0.326,0.571,0.526,0.957,0.526h0.499c0.387,0,0.749-0.2,0.958-0.526
		c2.187-3.437,5.841-5.822,10.084-6.277v38.377c0,0.041,0.021,0.076,0.024,0.117c-0.002,0.024-0.016,0.045-0.016,0.07
		c0.002,3.62,2.937,6.553,6.558,6.555c3.621-0.002,6.551-2.935,6.553-6.555c0-0.627-0.508-1.134-1.133-1.134
		c-0.627,0-1.138,0.507-1.138,1.134c-0.001,1.188-0.478,2.25-1.257,3.03c-0.773,0.774-1.842,1.254-3.025,1.254
		c-1.188,0-2.252-0.479-3.031-1.254c-0.776-0.78-1.254-1.844-1.254-3.03c0-0.041-0.021-0.076-0.024-0.117
		c0.002-0.025,0.015-0.047,0.015-0.07V75.216c4.528,0.264,8.461,2.705,10.762,6.322c0.195,0.309,0.533,0.489,0.896,0.512
		c0.002,0,0.004,0.002,0.004,0.002c0.002,0,0.002,0,0.002,0c0.021,0,0.037,0.016,0.061,0.016h0.104c0.039,0,0.072-0.025,0.111-0.029
		c0.117-0.012,0.229-0.039,0.338-0.086c0.051-0.021,0.1-0.041,0.146-0.07c0.131-0.077,0.238-0.182,0.33-0.309
		c0.01-0.016,0.023-0.02,0.031-0.033c2.438-3.83,6.695-6.375,11.562-6.375c4.688,0,8.815,2.355,11.293,5.949
		c0.291,0.422,0.826,0.596,1.312,0.426c0.486-0.172,0.793-0.643,0.755-1.151C81.113,60.621,64.893,45.004,44.889,44.435"/>
	<path fill="#87BD30" d="M57.434,65.253c-0.203-1.146-0.455-2.316-0.768-3.495c-0.159-0.604-0.779-0.969-1.385-0.807
		c-0.606,0.16-0.969,0.779-0.809,1.383c0.293,1.111,0.528,2.224,0.725,3.312c0.111,0.617,0.699,1.027,1.316,0.92
		C57.132,66.46,57.543,65.871,57.434,65.253z M79.879,76.968C80.826,77.818,80.084,78.146,79.879,76.968
		c-2.824-2.527-6.557-4.07-10.646-4.07c-4.309,0-8.207,1.721-11.073,4.496c0.041-0.826,0.067-1.76,0.067-2.789
		c0-0.525-0.009-1.072-0.021-1.645c-0.021-0.627-0.541-1.121-1.168-1.103s-1.119,0.537-1.103,1.166
		c0.019,0.547,0.021,1.074,0.021,1.576c0,1.36-0.049,2.555-0.111,3.521c-2.916-3.192-7.088-5.227-11.758-5.227
		c-4.798,0-9.076,2.143-11.998,5.494c-0.051-0.775-0.097-1.811-0.097-3.059c-0.005-5.113,0.784-13.606,5.024-20.786
		c0.317-0.541,0.137-1.236-0.402-1.553c-0.54-0.318-1.236-0.139-1.553,0.4c-4.559,7.754-5.332,16.603-5.338,21.937
		c0,0.83,0.02,1.562,0.047,2.203c-2.879-2.855-6.826-4.643-11.205-4.643c-4.243,0-8.096,1.662-10.951,4.363
		c-0.205,1.229-0.963,0.908,0,0C10.324,60.984,23.74,48.336,40.384,46.81c-0.413,0.375-0.829,0.749-1.209,1.144
		c-0.435,0.452-0.42,1.17,0.029,1.604c0.452,0.435,1.17,0.422,1.604-0.029c0.971-1.008,2.061-1.946,3.252-2.819
		c4.888,3.222,7.826,7.906,9.564,12.858c0.207,0.591,0.854,0.901,1.447,0.692c0.59-0.207,0.898-0.854,0.691-1.444
		c-1.511-4.312-3.949-8.545-7.729-11.897C64.172,48.795,77.109,61.123,79.879,76.968z M44.889,44.435V39.34
		c0-0.627-0.51-1.135-1.137-1.135s-1.134,0.508-1.134,1.135v5.097C22.475,45.031,6.169,60.881,4.914,80.855
		c-0.032,0.516,0.288,0.988,0.781,1.148c0.492,0.158,1.031-0.033,1.308-0.471c2.438-3.828,6.695-6.369,11.563-6.369
		c4.867,0,9.117,2.547,11.554,6.375c0.207,0.326,0.571,0.526,0.957,0.526h0.499c0.387,0,0.749-0.2,0.958-0.526
		c2.187-3.437,5.841-5.822,10.084-6.277v38.377c0,0.041,0.021,0.076,0.024,0.117c-0.002,0.024-0.016,0.045-0.016,0.07
		c0.002,3.62,2.937,6.553,6.558,6.555c3.621-0.002,6.551-2.935,6.553-6.555c0-0.627-0.508-1.134-1.133-1.134
		c-0.627,0-1.138,0.507-1.138,1.134c-0.001,1.188-0.478,2.25-1.257,3.03c-0.773,0.774-1.842,1.254-3.025,1.254
		c-1.188,0-2.252-0.479-3.031-1.254c-0.776-0.78-1.254-1.844-1.254-3.03c0-0.041-0.021-0.076-0.024-0.117
		c0.002-0.025,0.015-0.047,0.015-0.07V75.216c4.528,0.264,8.461,2.705,10.762,6.322c0.195,0.309,0.533,0.489,0.896,0.512
		c0.002,0,0.004,0.002,0.004,0.002c0.002,0,0.002,0,0.002,0c0.021,0,0.037,0.016,0.061,0.016h0.104c0.039,0,0.072-0.025,0.111-0.029
		c0.117-0.012,0.229-0.039,0.338-0.086c0.051-0.021,0.1-0.041,0.146-0.07c0.131-0.077,0.238-0.182,0.33-0.309
		c0.01-0.016,0.023-0.02,0.031-0.033c2.438-3.83,6.695-6.375,11.562-6.375c4.688,0,8.815,2.355,11.293,5.949
		c0.291,0.422,0.826,0.596,1.312,0.426c0.486-0.172,0.793-0.643,0.755-1.151C81.113,60.621,64.893,45.004,44.889,44.435z"/>
</g>
<rect x="26.527" y="14.873" fill="#231F20" width="1.609" height="3.219"/>
<rect x="7.218" y="24.528" fill="#231F20" width="1.609" height="6.437"/>
<rect x="16.873" y="28.219" fill="#231F20" width="1.609" height="3.218"/>
<rect x="20.092" y="21.781" fill="#231F20" width="1.609" height="6.438"/>
<rect x="23.311" y="24.528" fill="#231F20" width="1.608" height="3.218"/>
<rect x="29.746" y="8.437" fill="#231F20" width="1.609" height="6.438"/>
<rect x="16.873" y="14.873" fill="#231F20" width="1.609" height="6.438"/>
<rect x="10.438" y="18.092" fill="#231F20" width="1.608" height="3.218"/>
<rect x="10.438" y="24.528" fill="#231F20" width="1.608" height="3.218"/>
<rect x="4" y="21.311" fill="#231F20" width="1.609" height="3.219"/>
<rect x="4" y="27.746" fill="#231F20" width="1.609" height="3.219"/>
<rect x="23.311" y="14.873" fill="#231F20" width="1.608" height="3.219"/>
<rect x="26.527" y="8.437" fill="#231F20" width="1.609" height="3.22"/>
<rect x="26.527" y="21.311" fill="#231F20" width="1.609" height="12.873"/>
<rect x="32.965" y="21.311" fill="#231F20" width="1.609" height="3.22"/>
<rect x="32.965" y="11.655" fill="#231F20" width="1.609" height="6.437"/>
<rect x="32.965" y="5.219" fill="#231F20" width="1.609" height="3.218"/>
<rect x="26.527" y="5.219" fill="#231F20" width="1.609" height="3.218"/>
<rect x="20.092" y="3.219" fill="#231F20" width="1.609" height="3.218"/>
<rect x="13.654" y="8.437" fill="#231F20" width="1.609" height="6.438"/>
<rect x="20.092" y="11.655" fill="#231F20" width="1.609" height="3.218"/>
<rect x="4" y="8.437" fill="#231F20" width="1.609" height="6.438"/>
<rect x="7.218" y="5.219" fill="#231F20" width="1.609" height="3.218"/>
<rect x="36.184" y="18.092" fill="#231F20" width="1.608" height="6.438"/>
<rect x="39.4" y="22.219" fill="#231F20" width="1.609" height="6.438"/>
<rect x="39.4" y="7.063" fill="#231F20" width="1.609" height="12.872"/>
<rect x="55.493" y="32.609" fill="#231F20" width="1.608" height="3.219"/>
<rect x="55.493" y="14.873" fill="#231F20" width="1.608" height="6.438"/>
<rect x="52.275" y="20.219" fill="#231F20" width="1.605" height="6.438"/>
<rect x="49.057" y="24.528" fill="#231F20" width="1.608" height="3.218"/>
<rect x="42.62" y="27.746" fill="#231F20" width="1.608" height="3.219"/>
<rect x="45.838" y="11.655" fill="#231F20" width="1.609" height="6.437"/>
<rect x="52.275" fill="#231F20" width="1.605" height="6.438"/>
<rect x="49.057" y="5.219" fill="#231F20" width="1.608" height="3.218"/>
<rect x="42.62" y="8.437" fill="#231F20" width="1.608" height="6.438"/>
<rect x="45.838" y="3.219" fill="#231F20" width="1.609" height="3.218"/>
<rect x="81.089" y="14.265" fill="#231F20" width="1.609" height="3.219"/>
<rect x="61.779" y="26.219" fill="#231F20" width="1.609" height="6.438"/>
<rect x="71.434" y="27.219" fill="#231F20" width="1.609" height="3.218"/>
<rect x="74.652" y="30.219" fill="#231F20" width="1.606" height="6.438"/>
<rect x="77.871" y="23.92" fill="#231F20" width="1.609" height="3.218"/>
<rect x="74.652" y="17.482" fill="#231F20" width="1.606" height="6.438"/>
<rect x="71.434" y="14.265" fill="#231F20" width="1.609" height="6.438"/>
<rect x="64.998" y="17.482" fill="#231F20" width="1.609" height="3.219"/>
<rect x="68.216" y="21.781" fill="#231F20" width="1.609" height="6.438"/>
<rect x="64.998" y="23.92" fill="#231F20" width="1.609" height="3.218"/>
<rect x="58.561" y="17.219" fill="#231F20" width="1.609" height="3.22"/>
<rect x="58.561" y="23.655" fill="#231F20" width="1.609" height="3.218"/>
<rect x="77.871" y="14.265" fill="#231F20" width="1.609" height="3.219"/>
<rect x="81.089" y="7.828" fill="#231F20" width="1.609" height="3.219"/>
<rect x="81.089" y="22.219" fill="#231F20" width="1.609" height="12.873"/>
<rect x="81.089" y="4.609" fill="#231F20" width="1.609" height="3.219"/>
<rect x="74.652" y="10.004" fill="#231F20" width="1.606" height="3.218"/>
<rect x="68.216" y="3.219" fill="#231F20" width="1.609" height="6.438"/>
<rect x="64.998" y="10.004" fill="#231F20" width="1.609" height="3.218"/>
<rect x="61.779" y="9.219" fill="#231F20" width="1.609" height="3.218"/>
</svg>
