<?xml version="1.0" encoding="utf-8"?>
<!-- Generator: Adobe Illustrator 15.0.2, SVG Export Plug-In . SVG Version: 6.00 Build 0)  -->
<!DOCTYPE svg PUBLIC "-//W3C//DTD SVG 1.1//EN" "http://www.w3.org/Graphics/SVG/1.1/DTD/svg11.dtd">
<svg version="1.1" id="Layer_1" xmlns="http://www.w3.org/2000/svg" xmlns:xlink="http://www.w3.org/1999/xlink" x="0px" y="0px"
	 width="96px" height="95px" viewBox="132.5 130.5 96 95" enable-background="new 132.5 130.5 96 95" xml:space="preserve">
<g>
	<path fill="#212929" d="M136.722,216.578l4.7,4.699l44.664-44.663l-4.701-4.7L136.722,216.578z M141.422,223
		c-0.183,0-0.365-0.068-0.504-0.209l-5.709-5.709c-0.279-0.279-0.279-0.73,0-1.009L180.88,170.4c0.279-0.278,0.729-0.278,1.011,0
		l5.709,5.709c0.278,0.278,0.278,0.73,0,1.01l-45.673,45.672C141.788,222.932,141.605,223,141.422,223"/>
	<path fill="#212929" d="M190.454,174.265l-1.009-1.01l9.486-9.486l-4.701-4.699l-9.485,9.486l-1.009-1.01l9.99-9.99
		c0.277-0.279,0.729-0.279,1.01,0l5.709,5.709c0.279,0.278,0.279,0.729,0,1.009L190.454,174.265z"/>
	<path fill="#ED3293" d="M157.787,143.073l5.364,4.146c0.236,0.182,0.333,0.491,0.245,0.776l-2.05,6.628l5.322-4.259
		c0.262-0.208,0.63-0.208,0.892,0l5.249,4.2l-2.091-6.271c-0.094-0.284-0.001-0.598,0.232-0.783l5.547-4.438h-6.529
		c-0.306,0-0.579-0.196-0.677-0.487l-2.177-6.533l-2.177,6.533c-0.098,0.291-0.371,0.487-0.678,0.487h-6.472V143.073z
		 M174.25,157.346c-0.157,0-0.316-0.052-0.446-0.156l-6.69-5.353l-6.691,5.353c-0.243,0.195-0.589,0.208-0.847,0.032
		c-0.259-0.176-0.373-0.501-0.28-0.801l2.591-8.374l-6.628-5.122c-0.241-0.188-0.337-0.507-0.239-0.796
		c0.099-0.288,0.371-0.483,0.676-0.483h8.049l2.692-8.075c0.194-0.583,1.159-0.583,1.354,0l2.691,8.075h8.05
		c0.302,0,0.573,0.192,0.673,0.479c0.101,0.285,0.01,0.604-0.227,0.793l-6.748,5.398l2.698,8.091
		c0.098,0.301-0.01,0.631-0.269,0.812C174.536,157.304,174.392,157.346,174.25,157.346"/>
	<path fill="#212929" d="M184.24,214.438c-9.349,0-18.479-3.252-25.709-9.154l0.903-1.104c6.976,5.693,15.786,8.831,24.807,8.831
		L184.24,214.438L184.24,214.438z"/>
	<path fill="#212929" d="M217.627,197.004l-1.172-0.816c4.604-6.599,7.035-14.354,7.035-22.429c0-4.316-0.695-8.559-2.066-12.608
		l1.352-0.458c1.422,4.197,2.144,8.594,2.144,13.066C224.918,182.128,222.396,190.166,217.627,197.004"/>
	<path fill="#212929" d="M198.258,137.086c-4.47-1.709-9.186-2.576-14.018-2.576v-1.427c5.007,0,9.895,0.897,14.527,2.67
		L198.258,137.086z"/>
	<path fill="#212929" d="M152.717,199.471c-5.903-7.229-9.153-16.359-9.153-25.711c0-8.369,2.521-16.407,7.292-23.245l1.171,0.817
		c-4.602,6.597-7.036,14.353-7.036,22.428c0,9.022,3.136,17.834,8.832,24.807L152.717,199.471z"/>
	<path fill="#212929" d="M205.648,173.047c-0.394,0-0.713,0.318-0.713,0.713c0,0.394,0.319,0.714,0.713,0.714
		c0.395,0,0.715-0.32,0.715-0.714C206.363,173.365,206.043,173.047,205.648,173.047 M205.648,175.9c-1.181,0-2.142-0.96-2.142-2.141
		c0-1.181,0.961-2.142,2.142-2.142c1.182,0,2.143,0.961,2.143,2.142C207.791,174.94,206.83,175.9,205.648,175.9"/>
	<path fill="#212929" d="M189.949,143.073c-0.393,0-0.713,0.319-0.713,0.714c0,0.394,0.32,0.714,0.713,0.714
		c0.394,0,0.713-0.32,0.713-0.714S190.343,143.073,189.949,143.073 M189.949,145.928c-1.182,0-2.141-0.96-2.141-2.141
		c0-1.181,0.959-2.142,2.141-2.142c1.181,0,2.142,0.961,2.142,2.142C192.091,144.968,191.13,145.928,189.949,145.928"/>
	<path fill="#212929" d="M167.113,163.056c-0.393,0-0.713,0.319-0.713,0.713s0.32,0.714,0.713,0.714c0.393,0,0.714-0.32,0.714-0.714
		S167.506,163.056,167.113,163.056 M167.113,165.91c-1.181,0-2.141-0.961-2.141-2.142s0.96-2.141,2.141-2.141
		c1.181,0,2.141,0.96,2.141,2.141S168.294,165.91,167.113,165.91"/>
	<path fill="#212929" d="M187.096,190.173c-0.394,0-0.715,0.319-0.715,0.714s0.321,0.715,0.715,0.715
		c0.393,0,0.713-0.32,0.713-0.715S187.488,190.173,187.096,190.173 M187.096,193.027c-1.182,0-2.142-0.961-2.142-2.142
		s0.96-2.142,2.142-2.142c1.18,0,2.141,0.961,2.141,2.142S188.275,193.027,187.096,193.027"/>
	<path fill="#212929" d="M211.357,184.465c-0.394,0-0.713,0.318-0.713,0.713s0.319,0.715,0.713,0.715
		c0.395,0,0.715-0.32,0.715-0.715S211.752,184.465,211.357,184.465 M211.357,187.318c-1.181,0-2.142-0.961-2.142-2.142
		s0.961-2.142,2.142-2.142c1.182,0,2.143,0.961,2.143,2.142S212.539,187.318,211.357,187.318"/>
	<path fill="#212929" d="M158.808,193.368c-4.371-5.66-6.681-12.44-6.681-19.608h1.428c0,6.85,2.206,13.328,6.382,18.735
		L158.808,193.368z"/>
</g>
<rect x="181.387" y="153.064" fill="#212929" width="2.854" height="1.427"/>
<rect x="165.687" y="171.619" fill="#212929" width="2.854" height="1.427"/>
<rect x="151.414" y="168.764" fill="#212929" width="2.854" height="1.428"/>
<rect x="178.532" y="201.592" fill="#212929" width="2.854" height="1.428"/>
<g>
	<path fill="#ED3293" d="M211.357,157.346c-2.754,0-4.994-2.241-4.994-4.995h1.428c0,1.967,1.6,3.568,3.566,3.568
		c1.968,0,3.567-1.602,3.567-3.568c0-1.552-2.858-3.182-3.858-3.63c-0.48-0.216-4.703-2.187-4.703-4.934
		c0-2.755,2.24-4.995,4.994-4.995s4.996,2.24,4.996,4.995h-1.429c0-1.968-1.6-3.568-3.567-3.568c-1.967,0-3.566,1.601-3.566,3.568
		c0,1.552,2.857,3.182,3.859,3.63c0.481,0.217,4.703,2.186,4.703,4.934C216.354,155.104,214.111,157.346,211.357,157.346"/>
</g>
<rect x="210.645" y="135.223" fill="#ED3293" width="1.429" height="4.282"/>
<rect x="210.645" y="156.632" fill="#ED3293" width="1.429" height="4.282"/>
<g>
	<path fill="#ED3293" d="M199.939,207.301c-2.754,0-4.996-2.24-4.996-4.996h1.43c0,1.969,1.6,3.568,3.566,3.568
		c1.968,0,3.567-1.602,3.567-3.568c0-1.552-2.858-3.183-3.858-3.629c-0.48-0.218-4.705-2.188-4.705-4.935
		c0-2.755,2.242-4.996,4.996-4.996s4.996,2.241,4.996,4.996h-1.429c0-1.968-1.6-3.568-3.567-3.568c-1.967,0-3.566,1.603-3.566,3.568
		c0,1.552,2.857,3.182,3.859,3.63c0.479,0.216,4.703,2.188,4.703,4.934C204.938,205.061,202.693,207.301,199.939,207.301"/>
</g>
<rect x="199.227" y="185.177" fill="#ED3293" width="1.428" height="4.282"/>
<rect x="199.227" y="206.586" fill="#ED3293" width="1.428" height="4.282"/>
</svg>
