<?xml version="1.0" encoding="utf-8"?>
<!-- Generator: Adobe Illustrator 15.0.2, SVG Export Plug-In . SVG Version: 6.00 Build 0)  -->
<!DOCTYPE svg PUBLIC "-//W3C//DTD SVG 1.1//EN" "http://www.w3.org/Graphics/SVG/1.1/DTD/svg11.dtd">
<svg version="1.1" id="Layer_1" xmlns="http://www.w3.org/2000/svg" xmlns:xlink="http://www.w3.org/1999/xlink" x="0px" y="0px"
	 width="113px" height="102px" viewBox="124.167 129.5 113 102" enable-background="new 124.167 129.5 113 102"
	 xml:space="preserve">
<g>
	<path fill="#212929" d="M134.219,226.254h93.562l6.473-6.475v-2.256h-40.671l-3.235,3.235c-0.164,0.164-0.386,0.257-0.617,0.257
		h-17.459c-0.232,0-0.454-0.093-0.618-0.257l-3.236-3.235h-40.67v2.257L134.219,226.254z M228.143,227.999h-94.286
		c-0.232,0-0.454-0.092-0.617-0.256l-6.984-6.983c-0.164-0.164-0.256-0.386-0.256-0.617v-3.492c0-0.48,0.391-0.873,0.873-0.873
		h41.905c0.232,0,0.453,0.093,0.617,0.257l3.236,3.235h16.738l3.236-3.235c0.162-0.164,0.385-0.257,0.617-0.257h41.903
		c0.481,0,0.873,0.393,0.873,0.873v3.492c0,0.231-0.092,0.453-0.256,0.617l-6.984,6.983
		C228.596,227.907,228.374,227.999,228.143,227.999"/>
	<path fill="#212929" d="M134.73,211.412h-1.746v-52.381c0-3.37,2.742-6.111,6.111-6.111h12.222v1.746h-12.222
		c-2.407,0-4.365,1.958-4.365,4.365V211.412z"/>
	<path fill="#212929" d="M229.016,211.412h-1.746v-52.381c0-2.407-1.957-4.365-4.365-4.365h-12.221v-1.746h12.221
		c3.369,0,6.111,2.741,6.111,6.111V211.412L229.016,211.412z"/>
	<path fill="#212929" d="M221.158,207.047h-20.951l-0.652-0.844l0.652-0.902h20.078v-43.65h-9.604v-1.746h10.477
		c0.482,0,0.873,0.391,0.873,0.873v45.396C222.031,206.656,221.641,207.047,221.158,207.047"/>
	<path fill="#212929" d="M196.553,207.047h-55.711c-0.482,0-0.873-0.391-0.873-0.873v-45.396c0-0.482,0.391-0.873,0.873-0.873
		l9.221,0.053l0.491,0.746l-0.491,1l-8.348-0.053v43.65h54.838V207.047z"/>
	<path fill="#212929" d="M157.429,181.281L181,198.117l23.57-16.836V134.1l-12.787,4.796c-0.324,0.12-0.682,0.042-0.924-0.2
		l-4.983-4.982h-9.752l-4.983,4.982c-0.242,0.242-0.6,0.32-0.924,0.2l-12.788-4.796V181.281L157.429,181.281z M181,200.062
		c-0.177,0-0.355-0.055-0.508-0.162l-24.445-17.461c-0.228-0.164-0.364-0.429-0.364-0.709V132.84c0-0.286,0.139-0.554,0.375-0.718
		c0.236-0.163,0.535-0.2,0.804-0.1l13.442,5.041l4.841-4.841c0.163-0.164,0.385-0.256,0.617-0.256h10.476
		c0.232,0,0.453,0.092,0.617,0.256l4.84,4.841l13.443-5.041c0.271-0.101,0.567-0.063,0.803,0.1c0.235,0.164,0.375,0.432,0.375,0.718
		v48.891c0,0.28-0.135,0.545-0.363,0.709L181.508,199.9C181.355,200.009,181.177,200.062,181,200.062"/>
</g>
<rect x="169.651" y="138.079" fill="#212929" width="1.746" height="6.984"/>
<rect x="190.604" y="138.079" fill="#212929" width="1.746" height="6.984"/>
<g>
	<path fill="#ED3293" d="M179.254,170.381c-0.223,0-0.447-0.085-0.617-0.256l-5.238-5.238l1.234-1.235l4.621,4.621l8.113-8.112
		l1.234,1.234l-8.73,8.73C179.701,170.296,179.478,170.381,179.254,170.381"/>
	<path fill="#212929" d="M181,151.175c-7.221,0-13.095,5.874-13.095,13.095s5.874,13.095,13.095,13.095
		c7.221,0,13.096-5.874,13.096-13.095S188.221,151.175,181,151.175 M181,179.11c-8.183,0-14.841-6.658-14.841-14.841
		c0-8.184,6.658-14.841,14.841-14.841c8.184,0,14.841,6.657,14.841,14.841C195.841,172.452,189.184,179.11,181,179.11"/>
</g>
<polyline fill="none" stroke="#212929" stroke-width="1.5" points="203.076,210.482 199.23,206.262 203.076,202.039 "/>
<polyline fill="none" stroke="#212929" stroke-width="1.5" points="146.553,156.703 150.399,160.924 146.553,165.146 "/>
</svg>
