<?xml version="1.0" encoding="utf-8"?>
<!-- Generator: Adobe Illustrator 15.0.2, SVG Export Plug-In . SVG Version: 6.00 Build 0)  -->
<!DOCTYPE svg PUBLIC "-//W3C//DTD SVG 1.1//EN" "http://www.w3.org/Graphics/SVG/1.1/DTD/svg11.dtd">
<svg version="1.1" id="Layer_1" xmlns="http://www.w3.org/2000/svg" xmlns:xlink="http://www.w3.org/1999/xlink" x="0px" y="0px"
	 width="107px" height="98px" viewBox="126.5 129.5 107 98" enable-background="new 126.5 129.5 107 98" xml:space="preserve">
<g>
	<path fill="#251F21" d="M134.632,133.887c-2.219,0-4.023,1.805-4.023,4.023v64.365c0,2.219,1.804,4.022,4.023,4.022h90.113
		c2.219,0,4.022-1.805,4.022-4.022V137.91c0-2.219-1.805-4.023-4.022-4.023H134.632L134.632,133.887z M224.745,207.908h-90.113
		c-3.105,0-5.632-2.527-5.632-5.633V137.91c0-3.105,2.527-5.632,5.632-5.632h90.113c3.104,0,5.632,2.526,5.632,5.632v64.365
		C230.377,205.381,227.85,207.908,224.745,207.908"/>
</g>
<rect x="183.365" y="214.346" transform="matrix(-0.2874 -0.9578 0.9578 -0.2874 40.8029 460.6588)" fill="#251F21" width="16.8" height="1.609"/>
<rect x="166.807" y="206.742" transform="matrix(-0.958 -0.2867 0.2867 -0.958 266.4956 469.3093)" fill="#251F21" width="1.608" height="16.8"/>
<rect x="158.769" y="222.391" fill="#251F21" width="41.838" height="1.609"/>
<rect x="178.079" y="199.863" fill="#251F21" width="3.219" height="1.607"/>
<g>
	<path fill="#251F21" d="M137.045,193.426h85.287v-53.102h-85.287V193.426z M223.137,195.035h-86.895
		c-0.445,0-0.805-0.36-0.805-0.805v-54.712c0-0.443,0.36-0.805,0.805-0.805h86.895c0.443,0,0.805,0.361,0.805,0.805v54.712
		C223.939,194.675,223.58,195.035,223.137,195.035"/>
</g>
<rect x="155.551" y="161.243" fill="#ED3293" width="3.218" height="1.608"/>
<rect x="190.952" y="161.243" fill="#ED3293" width="6.437" height="1.608"/>
<rect x="197.389" y="164.461" fill="#ED3293" width="6.438" height="1.609"/>
<rect x="200.607" y="167.679" fill="#ED3293" width="3.219" height="1.609"/>
<rect x="197.389" y="170.898" fill="#ED3293" width="3.219" height="1.608"/>
<rect x="197.389" y="174.116" fill="#ED3293" width="6.438" height="1.608"/>
<rect x="203.825" y="170.898" fill="#ED3293" width="6.437" height="1.608"/>
<rect x="190.952" y="167.679" fill="#ED3293" width="3.219" height="1.609"/>
<rect x="187.734" y="164.461" fill="#ED3293" width="6.437" height="1.609"/>
<rect x="184.516" y="170.898" fill="#ED3293" width="3.219" height="1.608"/>
<rect x="181.298" y="167.679" fill="#ED3293" width="3.218" height="1.609"/>
<rect x="184.516" y="174.116" fill="#ED3293" width="6.438" height="1.608"/>
<rect x="184.516" y="177.334" fill="#ED3293" width="3.219" height="1.609"/>
<rect x="190.952" y="177.334" fill="#ED3293" width="3.219" height="1.609"/>
<rect x="190.952" y="180.553" fill="#ED3293" width="3.219" height="1.609"/>
<rect x="187.734" y="183.771" fill="#ED3293" width="3.218" height="1.607"/>
<rect x="200.607" y="180.553" fill="#ED3293" width="3.219" height="1.609"/>
<rect x="210.264" y="180.553" fill="#ED3293" width="3.217" height="1.609"/>
<rect x="197.389" y="183.771" fill="#ED3293" width="3.219" height="1.607"/>
<rect x="203.825" y="183.771" fill="#ED3293" width="6.437" height="1.607"/>
<rect x="178.079" y="183.771" fill="#ED3293" width="6.437" height="1.607"/>
<rect x="174.861" y="180.553" fill="#ED3293" width="3.218" height="1.609"/>
<rect x="165.206" y="180.553" fill="#ED3293" width="6.437" height="1.609"/>
<rect x="171.643" y="170.898" fill="#ED3293" width="3.218" height="1.608"/>
<rect x="168.424" y="167.679" fill="#ED3293" width="6.437" height="1.609"/>
<rect x="165.206" y="164.461" fill="#ED3293" width="3.218" height="1.609"/>
<rect x="158.769" y="167.679" fill="#ED3293" width="6.437" height="1.609"/>
<rect x="149.114" y="158.025" fill="#ED3293" width="6.437" height="1.608"/>
<rect x="155.551" y="170.898" fill="#ED3293" width="6.437" height="1.608"/>
<rect x="158.77" y="177.334" fill="#ED3293" width="3.218" height="1.609"/>
<rect x="165.206" y="174.116" fill="#ED3293" width="6.437" height="1.608"/>
<rect x="165.206" y="177.334" fill="#ED3293" width="3.218" height="1.609"/>
<rect x="161.987" y="183.771" fill="#ED3293" width="3.219" height="1.607"/>
<rect x="168.425" y="183.771" fill="#ED3293" width="3.218" height="1.607"/>
<rect x="174.861" y="177.334" fill="#ED3293" width="6.437" height="1.609"/>
<rect x="178.079" y="170.898" fill="#ED3293" width="3.219" height="1.608"/>
<rect x="174.861" y="164.461" fill="#ED3293" width="6.437" height="1.609"/>
<rect x="155.551" y="164.461" fill="#ED3293" width="3.218" height="1.609"/>
<rect x="152.332" y="180.553" fill="#ED3293" width="6.437" height="1.609"/>
<rect x="174.861" y="151.588" fill="#ED3293" width="6.437" height="1.609"/>
<rect x="178.079" y="158.025" fill="#ED3293" width="9.655" height="1.608"/>
<rect x="168.424" y="154.806" fill="#ED3293" width="9.655" height="1.609"/>
<rect x="181.298" y="161.243" fill="#ED3293" width="3.218" height="1.608"/>
<rect x="149.114" y="161.243" fill="#ED3293" width="3.219" height="1.608"/>
<rect x="161.988" y="161.243" fill="#ED3293" width="12.873" height="1.608"/>
<rect x="190.953" y="154.806" fill="#ED3293" width="12.873" height="1.609"/>
<rect x="207.044" y="177.334" fill="#ED3293" width="6.437" height="1.609"/>
<rect x="210.264" y="174.116" fill="#ED3293" width="3.217" height="1.608"/>
<rect x="207.044" y="167.679" fill="#ED3293" width="6.437" height="1.609"/>
<rect x="203.825" y="161.243" fill="#ED3293" width="6.437" height="1.608"/>
<rect x="200.607" y="161.243" fill="#ED3293" width="3.219" height="1.608"/>
<rect x="210.264" y="158.025" fill="#ED3293" width="3.217" height="1.608"/>
<rect x="207.044" y="154.806" fill="#ED3293" width="6.437" height="1.609"/>
<rect x="200.607" y="151.588" fill="#ED3293" width="6.437" height="1.609"/>
<rect x="210.264" y="148.37" fill="#ED3293" width="3.217" height="1.608"/>
<rect x="197.389" y="148.37" fill="#ED3293" width="6.438" height="1.608"/>
<rect x="194.171" y="151.588" fill="#ED3293" width="3.218" height="1.609"/>
<rect x="187.734" y="148.37" fill="#ED3293" width="6.437" height="1.608"/>
<rect x="184.516" y="151.588" fill="#ED3293" width="3.219" height="1.609"/>
<rect x="184.516" y="154.806" fill="#ED3293" width="3.219" height="1.609"/>
<rect x="161.987" y="154.806" fill="#ED3293" width="3.219" height="1.609"/>
<rect x="152.332" y="154.806" fill="#ED3293" width="6.437" height="1.609"/>
<rect x="145.896" y="154.806" fill="#ED3293" width="3.218" height="1.609"/>
<rect x="145.896" y="161.243" fill="#ED3293" width="3.218" height="1.608"/>
<rect x="145.896" y="167.679" fill="#ED3293" width="3.218" height="1.609"/>
<rect x="149.114" y="174.116" fill="#ED3293" width="6.437" height="1.608"/>
<rect x="152.333" y="167.679" fill="#ED3293" width="3.218" height="1.609"/>
<rect x="145.896" y="177.334" fill="#ED3293" width="3.218" height="1.609"/>
<rect x="149.114" y="183.771" fill="#ED3293" width="6.437" height="1.607"/>
<rect x="145.896" y="180.553" fill="#ED3293" width="3.218" height="1.609"/>
<rect x="158.769" y="151.588" fill="#ED3293" width="6.437" height="1.609"/>
<rect x="165.206" y="148.37" fill="#ED3293" width="6.437" height="1.608"/>
<rect x="145.896" y="148.37" fill="#ED3293" width="12.873" height="1.608"/>
<rect x="178.079" y="148.37" fill="#ED3293" width="6.437" height="1.608"/>
</svg>
