<?xml version="1.0" encoding="utf-8"?>
<!-- Generator: Adobe Illustrator 15.0.2, SVG Export Plug-In . SVG Version: 6.00 Build 0)  -->
<!DOCTYPE svg PUBLIC "-//W3C//DTD SVG 1.1//EN" "http://www.w3.org/Graphics/SVG/1.1/DTD/svg11.dtd">
<svg version="1.1" id="Layer_1" xmlns="http://www.w3.org/2000/svg" xmlns:xlink="http://www.w3.org/1999/xlink" x="0px" y="0px"
	 width="117px" height="98.5px" viewBox="122.5 130 117 98.5" enable-background="new 122.5 130 117 98.5" xml:space="preserve">
<g>
	<g>
		<defs>
			<rect id="SVGID_1_" x="125" y="131.66" width="111.096" height="96.34"/>
		</defs>
		<clipPath id="SVGID_2_">
			<use xlink:href="#SVGID_1_"  overflow="visible"/>
		</clipPath>
		<path clip-path="url(#SVGID_2_)" fill="#212929" d="M177.076,224.527h-29.51v-1.735h29.51c1.436,0,2.604-1.168,2.604-2.604v-1.735
			h1.736v1.735C181.416,222.581,179.47,224.527,177.076,224.527"/>
	</g>
</g>
<rect x="133.679" y="219.32" fill="#212929" width="3.472" height="1.736"/>
<g>
	<path fill="#212929" d="M180.547,198.49h-6.944v-1.735h6.944c1.436,0,2.604-1.168,2.604-2.604v-1.735
		c0-1.435-1.168-2.603-2.604-2.603h-15.623c-0.268,0-0.52-0.125-0.685-0.334c-0.164-0.211-0.222-0.486-0.157-0.746l3.446-13.782
		v-5.101c0-0.042-0.044-4.339-2.604-4.339c-4.29,0-4.339,4.162-4.339,4.339c0,0.071-0.009,0.142-0.026,0.211l-1.736,6.943
		c-0.025,0.097-0.064,0.188-0.12,0.271l-10.415,15.623c-0.161,0.242-0.433,0.387-0.722,0.387h-5.208v-1.734h4.743l10.074-15.112
		l1.675-6.698c0.044-2.127,1.351-5.964,6.074-5.964c3.433,0,4.34,3.974,4.34,6.075v5.208c0,0.071-0.009,0.141-0.026,0.21
		l-3.202,12.809h14.511c2.395,0,4.34,1.946,4.34,4.339v1.736C184.889,196.544,182.941,198.49,180.547,198.49"/>
	<path fill="#212929" d="M178.812,215.85h-5.208v-1.735h5.208c1.436,0,2.604-1.169,2.604-2.604v-1.734h1.734v1.734
		C183.15,213.902,181.205,215.85,178.812,215.85"/>
	<path fill="#212929" d="M180.547,207.17h-6.944v-1.736h6.944c1.436,0,2.604-1.168,2.604-2.604v-1.734h1.736v1.734
		C184.889,205.223,182.941,207.17,180.547,207.17"/>
	<path fill="#212929" d="M142.358,228H125v-1.736h16.491v-32.979H125v-1.736h17.359c0.48,0,0.868,0.39,0.868,0.868v34.717
		C143.227,227.611,142.838,228,142.358,228"/>
	<path fill="#212929" d="M181.416,149.019h-1.736v-1.736c0-2.393,1.945-4.339,4.339-4.339h29.51v1.735h-29.51
		c-1.436,0-2.604,1.168-2.604,2.604V149.019z"/>
	<path fill="#212929" d="M196.17,203.698c-3.434,0-4.34-3.976-4.34-6.076v-5.207c0-0.071,0.01-0.142,0.025-0.211l3.203-12.808
		h-14.512c-2.393,0-4.339-1.947-4.339-4.341v-1.735c0-2.393,1.946-4.339,4.339-4.339h6.944v1.735h-6.944
		c-1.436,0-2.604,1.168-2.604,2.604v1.735c0,1.437,1.168,2.604,2.604,2.604h15.623c0.268,0,0.521,0.123,0.686,0.334
		c0.166,0.211,0.223,0.484,0.158,0.745l-3.447,13.784v5.1c0,0.042,0.045,4.34,2.604,4.34c4.291,0,4.341-4.162,4.341-4.34
		c0-0.07,0.008-0.141,0.024-0.21l1.735-6.944c0.025-0.096,0.063-0.188,0.119-0.27l10.416-15.623
		c0.162-0.242,0.434-0.387,0.723-0.387h5.207v1.735h-4.742l-10.074,15.112l-1.675,6.698
		C202.2,199.861,200.893,203.698,196.17,203.698"/>
	<path fill="#212929" d="M179.68,157.698h-1.736v-1.736c0-2.394,1.946-4.339,4.339-4.339h5.207v1.734h-5.207
		c-1.436,0-2.604,1.168-2.604,2.604L179.68,157.698L179.68,157.698z"/>
	<path fill="#212929" d="M177.943,166.377h-1.736v-1.736c0-2.393,1.946-4.34,4.34-4.34h6.943v1.736h-6.943
		c-1.436,0-2.604,1.168-2.604,2.604V166.377z"/>
	<path fill="#212929" d="M236.096,175.924h-17.359c-0.479,0-0.867-0.389-0.867-0.867v-34.718c0-0.479,0.389-0.867,0.867-0.867
		h17.359v1.735h-16.492v32.981h16.492V175.924z"/>
</g>
<rect x="223.943" y="146.415" fill="#212929" width="3.473" height="1.736"/>
<rect x="152.706" y="140.337" transform="matrix(-0.7071 -0.7071 0.7071 -0.7071 171.3209 353.3708)" fill="#ED3293" width="12.274" height="1.736"/>
<rect x="169.264" y="131.66" fill="#ED3293" width="1.736" height="10.415"/>
<rect x="149.302" y="151.622" fill="#ED3293" width="10.415" height="1.736"/>
<rect x="204.805" y="214.98" transform="matrix(-0.7071 -0.7071 0.7071 -0.7071 207.4733 517.6326)" fill="#ED3293" width="12.274" height="1.735"/>
<rect x="198.773" y="214.98" fill="#ED3293" width="1.735" height="10.416"/>
<rect x="210.057" y="203.698" fill="#ED3293" width="10.416" height="1.735"/>
</svg>
