<?xml version="1.0" encoding="utf-8"?>
<!-- Generator: Adobe Illustrator 15.0.2, SVG Export Plug-In . SVG Version: 6.00 Build 0)  -->
<!DOCTYPE svg PUBLIC "-//W3C//DTD SVG 1.1//EN" "http://www.w3.org/Graphics/SVG/1.1/DTD/svg11.dtd">
<svg version="1.1" id="Layer_1" xmlns="http://www.w3.org/2000/svg" xmlns:xlink="http://www.w3.org/1999/xlink" x="0px" y="0px"
	 width="129px" height="95px" viewBox="116.5 133.5 129 95" enable-background="new 116.5 133.5 129 95" xml:space="preserve">
<rect x="158.315" y="182.789" width="45.979" height="1.277"/>
<g>
	<path d="M161.595,153.998c-5.095,0-9.24-4.145-9.24-9.24c0-5.095,4.145-9.24,9.24-9.24c5.095,0,9.24,4.146,9.24,9.24
		C170.835,149.854,166.69,153.998,161.595,153.998 M161.595,136.576c-4.511,0-8.182,3.67-8.182,8.182
		c0,4.512,3.671,8.181,8.182,8.181c4.511,0,8.181-3.669,8.181-8.181C169.776,140.246,166.106,136.576,161.595,136.576"/>
	<path d="M161.595,136.657c-4.466,0-8.1,3.635-8.1,8.101c0,4.466,3.634,8.099,8.1,8.099c4.466,0,8.099-3.633,8.099-8.099
		C169.694,140.292,166.061,136.657,161.595,136.657 M161.595,153.021c-4.556,0-8.263-3.707-8.263-8.263
		c0-4.556,3.707-8.263,8.263-8.263c4.556,0,8.263,3.707,8.263,8.263C169.858,149.314,166.151,153.021,161.595,153.021
		 M161.595,135.6c-5.05,0-9.158,4.108-9.158,9.158c0,5.05,4.108,9.158,9.158,9.158c5.05,0,9.158-4.108,9.158-9.158
		C170.753,139.708,166.645,135.6,161.595,135.6 M161.595,154.08c-5.14,0-9.322-4.183-9.322-9.322c0-5.139,4.182-9.322,9.322-9.322
		c5.14,0,9.322,4.183,9.322,9.322C170.917,149.897,166.735,154.08,161.595,154.08"/>
	<path d="M128.183,225.918h-2.611c-2.517,0-4.564-2.664-4.564-5.939c-0.008-0.278-0.926-29.56-0.926-34.983
		c0-5.368,1.807-10.391,5.861-16.286l0.873,0.602c-3.978,5.784-5.675,10.475-5.675,15.685c0,5.408,0.917,34.672,0.925,34.968
		c0.001,2.708,1.573,4.897,3.506,4.897h2.611c1.932,0,3.505-2.189,3.505-4.881v-31.303l0.317-0.141
		c0.149-0.062,0.526-0.359,0.802-0.575c0.289-0.228,0.562-0.44,0.765-0.558l0.527,0.919c-0.137,0.079-0.404,0.288-0.64,0.472
		c-0.285,0.227-0.517,0.403-0.712,0.532v30.651C132.747,223.254,130.699,225.918,128.183,225.918 M150.574,189.984
		c-1.793,0-3.931-0.717-4.807-2.357l-0.022-0.044c-0.024-0.06-0.606-1.461-0.751-3.026l-0.002-0.051v-6.55
		c-1.951,2.293-4.167,4.739-5.881,6.483l-0.755-0.741c1.977-2.013,4.629-4.968,6.758-7.534l0.936-1.127v9.443
		c0.125,1.297,0.592,2.494,0.663,2.67c0.6,1.091,2.241,1.822,4.005,1.771c1.556-0.04,2.778-0.675,3.276-1.699
		c0.227-0.682,0.459-1.869,0.459-2.718v-27.504c0-1.89-0.706-3.632-1.8-4.436l-0.03-0.025c-0.024-0.019-0.047-0.04-0.07-0.061
		c-0.015-0.016-0.031-0.029-0.047-0.042c-2.016-1.582-5.386-1.248-9.491,0.94c-4.237,2.259-8.69,6.203-12.537,11.107
		c-0.33,0.421-0.739,0.979-1.135,1.518c-0.261,0.357-0.511,0.699-0.718,0.972l-0.845-0.641c0.204-0.268,0.451-0.604,0.709-0.957
		c0.4-0.546,0.815-1.11,1.155-1.546c3.937-5.017,8.509-9.062,12.873-11.388c4.497-2.397,8.277-2.696,10.641-0.84
		c0.039,0.03,0.076,0.063,0.112,0.097l0.03,0.026c1.365,1.017,2.213,3.035,2.213,5.274v27.504c0,1.006-0.272,2.342-0.527,3.088
		l-0.022,0.054c-0.663,1.412-2.24,2.283-4.219,2.336C150.688,189.982,150.63,189.984,150.574,189.984"/>
	<path d="M145.074,177.735l0.001,6.817c0.138,1.488,0.683,2.847,0.745,2.996l0.02,0.042c0.911,1.706,3.12,2.312,4.734,2.312
		c0.057,0,0.113-0.002,0.17-0.002c1.946-0.053,3.496-0.907,4.146-2.289l0.019-0.049c0.252-0.737,0.521-2.062,0.521-3.059v-27.503
		c0-2.212-0.835-4.208-2.179-5.21l-0.035-0.03c-0.036-0.034-0.073-0.065-0.109-0.096c-1.002-0.785-2.268-1.184-3.761-1.184
		c-1.974,0-4.259,0.684-6.791,2.033c-4.355,2.32-8.917,6.357-12.847,11.366c-0.351,0.448-0.796,1.057-1.153,1.544
		c-0.238,0.324-0.466,0.635-0.661,0.894l0.715,0.541c0.196-0.262,0.427-0.576,0.667-0.905l0.05-0.067
		c0.379-0.515,0.77-1.049,1.087-1.453c3.854-4.911,8.315-8.864,12.563-11.129c2.407-1.283,4.547-1.934,6.359-1.934
		c1.291,0,2.374,0.337,3.221,1.001c0.018,0.014,0.036,0.031,0.054,0.048c0.02,0.019,0.042,0.038,0.064,0.057l0.03,0.023
		c1.111,0.817,1.831,2.585,1.831,4.501v27.503c0,0.881-0.239,2.07-0.464,2.742c-0.515,1.062-1.766,1.716-3.351,1.757
		c-1.8,0.052-3.461-0.692-4.079-1.813c-0.094-0.233-0.55-1.418-0.673-2.701v-9.226l-0.792,0.953
		c-2.105,2.537-4.728,5.463-6.705,7.48l0.638,0.627c1.694-1.729,3.864-4.121,5.82-6.42L145.074,177.735z M150.574,190.066
		c-1.66,0-3.933-0.631-4.88-2.401l-0.022-0.046c-0.066-0.16-0.619-1.539-0.76-3.057l-0.002-0.055v-6.33
		c-1.943,2.275-4.078,4.625-5.741,6.318l-0.058,0.059l-0.871-0.855l0.057-0.059c1.98-2.017,4.631-4.971,6.754-7.529l1.081-1.302
		v9.67c0.12,1.254,0.568,2.418,0.656,2.64c0.585,1.062,2.173,1.774,3.927,1.722c1.523-0.039,2.721-0.658,3.205-1.656
		c0.22-0.658,0.451-1.848,0.451-2.68v-27.503c0-1.866-0.693-3.582-1.767-4.371l-0.033-0.026c-0.026-0.021-0.05-0.042-0.073-0.064
		c-0.016-0.015-0.029-0.027-0.042-0.037c-0.818-0.642-1.868-0.968-3.121-0.968c-1.785,0-3.898,0.644-6.282,1.915
		c-4.228,2.254-8.672,6.19-12.511,11.086c-0.316,0.402-0.706,0.934-1.084,1.449l-0.05,0.066c-0.261,0.357-0.512,0.699-0.718,0.973
		l-0.049,0.063l-0.976-0.738l0.05-0.064c0.204-0.269,0.45-0.604,0.707-0.956c0.359-0.489,0.805-1.097,1.157-1.548
		c3.944-5.026,8.525-9.078,12.899-11.41c2.556-1.362,4.867-2.053,6.868-2.053c1.531,0,2.83,0.411,3.862,1.22
		c0.041,0.033,0.08,0.068,0.117,0.102l0.028,0.024c1.381,1.029,2.241,3.075,2.241,5.338v27.503c0,1.013-0.274,2.36-0.532,3.114
		l-0.022,0.057c-0.678,1.443-2.283,2.334-4.293,2.389C150.689,190.064,150.631,190.066,150.574,190.066 M125.964,168.823
		c-4.011,5.85-5.801,10.841-5.8,16.172c0,5.354,0.888,33.772,0.925,34.979c0.001,3.234,2.011,5.862,4.483,5.862h2.611
		c2.471,0,4.482-2.628,4.482-5.858v-30.694l0.037-0.025c0.201-0.133,0.449-0.325,0.707-0.526c0.192-0.151,0.426-0.334,0.58-0.437
		l-0.447-0.778c-0.187,0.119-0.428,0.308-0.68,0.506l-0.021,0.017c-0.288,0.226-0.648,0.506-0.804,0.574l-0.267,0.118v31.246
		c0,2.737-1.609,4.965-3.587,4.965h-2.611c-1.978,0-3.587-2.234-3.588-4.979l-0.013-0.422c-0.274-8.868-0.912-29.985-0.912-34.545
		c0-5.209,1.688-9.897,5.643-15.665L125.964,168.823z M128.183,226h-2.611c-2.562,0-4.646-2.702-4.646-6.021
		c-0.038-1.205-0.926-29.627-0.926-34.982c-0.001-5.387,1.812-10.423,5.876-16.332l0.046-0.068l1.007,0.693l-0.046,0.067
		c-3.968,5.77-5.661,10.446-5.661,15.64c0,4.556,0.638,25.673,0.913,34.54l0.013,0.425c0.001,2.657,1.536,4.818,3.424,4.818h2.611
		c1.887,0,3.423-2.153,3.423-4.801v-31.354l0.366-0.161c0.136-0.061,0.517-0.355,0.769-0.553l0.071,0.048l-0.051-0.063
		c0.29-0.228,0.564-0.441,0.771-0.56l0.07-0.041l0.609,1.06l-0.071,0.041c-0.135,0.078-0.422,0.303-0.631,0.465
		c-0.245,0.193-0.481,0.377-0.68,0.514v30.605C132.829,223.298,130.744,226,128.183,226"/>
	<path fill="#ED3193" d="M135.85,191.857L135.85,191.857c-0.706,0-1.752-0.504-2.153-1.035c-0.223-0.283-0.223-0.543-0.182-0.711
		c0.036-0.15,0.307-1.022,0.701-1.87c-2.635,1.028-3.106,1.123-3.327,1.123c-0.933-0.009-1.177-0.733-1.355-1.261
		c-0.045-0.133-0.091-0.271-0.151-0.416c-0.036-0.084-0.07-0.168-0.1-0.246c-0.154-0.389-0.238-0.715-0.137-1.031
		c0.143-0.452,0.578-0.641,1.013-0.795c0.322-0.114,1.709-0.493,3.155-0.866c-4.677-4.764-7.043-13.909-7.483-15.757l-0.062-0.256
		l2.933-3.544l0.102,1.303c0.508,6.458,6.822,14.78,8.603,16.454c0.302,0.064,0.636,0.145,0.943,0.254
		c0.612,0.213,1.009,0.98,1.132,1.357c0.045,0.135,0.09,0.313,0.058,0.491c0.002,0.151-0.01,0.308-0.036,0.462
		c-0.236,1.399-2.62,5.541-2.891,6.01l-0.068,0.117l-0.116,0.07C136.269,191.809,136.075,191.857,135.85,191.857 M134.582,190.229
		c0.244,0.244,0.86,0.547,1.228,0.568c0.778-1.357,2.485-4.482,2.651-5.456c0.017-0.11,0.024-0.22,0.018-0.327l-0.007-0.141
		c-0.075-0.225-0.322-0.619-0.474-0.671c-0.296-0.106-0.646-0.183-0.95-0.247l-0.137-0.029l-0.104-0.092
		c-1.813-1.598-7.755-9.387-8.901-16.019l-0.983,1.187c0.581,2.357,3.04,11.329,7.678,15.518l0.117,0.104l0.214,0.806l-0.52,0.133
		c-1.781,0.447-3.589,0.941-3.9,1.052c-0.196,0.069-0.295,0.116-0.346,0.145c0.012,0.043,0.039,0.138,0.104,0.298
		c0.027,0.073,0.056,0.146,0.089,0.223c0.071,0.172,0.127,0.335,0.179,0.486c0.181,0.539,0.214,0.539,0.355,0.541
		c0.112-0.015,0.776-0.188,3.992-1.467c0.348-0.138,0.348-0.138,0.451-0.138h0.314l0.369,0.676l-0.236,0.278
		C135.281,188.244,134.742,189.698,134.582,190.229"/>
	<path fill="#ED3193" d="M134.675,190.203c0.232,0.207,0.748,0.466,1.089,0.507c0.912-1.594,2.461-4.474,2.615-5.382
		c0.018-0.107,0.024-0.211,0.018-0.311l-0.007-0.129c-0.082-0.236-0.314-0.574-0.419-0.609c-0.292-0.104-0.639-0.18-0.941-0.244
		l-0.157-0.034l-0.121-0.104c-1.734-1.528-7.655-9.168-8.896-15.895l-0.844,1.021c0.651,2.633,3.083,11.318,7.643,15.436l0.135,0.12
		l0.242,0.911l-0.601,0.15c-1.774,0.447-3.58,0.94-3.892,1.051c-0.134,0.048-0.22,0.084-0.276,0.109
		c0.016,0.049,0.041,0.122,0.082,0.225c0.028,0.074,0.056,0.144,0.088,0.221c0.071,0.17,0.125,0.328,0.177,0.48
		c0.167,0.496,0.189,0.496,0.283,0.498c0.061-0.011,0.586-0.119,3.961-1.459c0.356-0.144,0.362-0.146,0.481-0.146h0.363l0.419,0.769
		l-0.273,0.319C135.376,188.259,134.858,189.613,134.675,190.203 M135.855,190.881l-0.051-0.003
		c-0.407-0.022-1.033-0.344-1.28-0.594l-0.035-0.034l0.014-0.047c0.117-0.385,0.664-1.953,1.217-2.602l0.2-0.234l-0.32-0.584h-0.265
		c-0.087,0-0.087,0-0.42,0.132c-3.309,1.315-3.908,1.458-4.013,1.472c-0.217-0.001-0.265-0.068-0.442-0.597
		c-0.056-0.163-0.109-0.315-0.177-0.481c-0.033-0.078-0.062-0.148-0.09-0.224c-0.068-0.169-0.095-0.265-0.106-0.306l-0.017-0.062
		l0.056-0.032c0.072-0.041,0.193-0.09,0.358-0.149c0.317-0.11,2.129-0.604,3.907-1.054l0.44-0.111l-0.187-0.703l-0.098-0.089
		c-4.618-4.169-7.064-12.962-7.703-15.558l-0.01-0.04l0.027-0.031l1.096-1.324l0.03,0.176c1.163,6.726,7.136,14.439,8.874,15.972
		l0.089,0.078l0.115,0.023c0.307,0.064,0.66,0.143,0.961,0.249c0.197,0.069,0.451,0.507,0.524,0.724l0.004,0.021l0.007,0.14
		c0.006,0.111,0,0.226-0.019,0.345c-0.161,0.941-1.748,3.891-2.661,5.483L135.855,190.881z M134.375,188.091l-0.086,0.185
		c-0.385,0.832-0.66,1.707-0.695,1.854c-0.036,0.149-0.037,0.384,0.167,0.642c0.39,0.518,1.404,1.004,2.088,1.004
		c0.209,0,0.39-0.045,0.537-0.133l0.098-0.061l0.058-0.1c0.107-0.187,2.641-4.561,2.881-5.981c0.025-0.149,0.036-0.302,0.035-0.446
		c0.031-0.185-0.016-0.354-0.054-0.469c-0.119-0.361-0.498-1.104-1.082-1.307c-0.318-0.113-0.666-0.193-0.933-0.252l-0.022-0.004
		l-0.017-0.015c-1.907-1.792-8.129-10.164-8.628-16.509l-0.086-1.101l-2.778,3.356l0.052,0.217
		c0.426,1.79,2.788,10.958,7.461,15.717l0.099,0.103l-0.137,0.035c-1.516,0.392-2.84,0.755-3.148,0.864
		c-0.414,0.146-0.831,0.326-0.962,0.742c-0.093,0.293-0.013,0.603,0.136,0.977c0.03,0.078,0.063,0.162,0.099,0.246
		c0.061,0.146,0.109,0.291,0.152,0.42c0.18,0.533,0.403,1.197,1.28,1.205c0.225,0,0.781-0.135,3.295-1.117L134.375,188.091z
		 M135.849,191.938c-0.726,0-1.804-0.519-2.218-1.066c-0.243-0.309-0.241-0.594-0.196-0.778c0.035-0.146,0.272-0.909,0.623-1.702
		c-2.502,0.973-2.939,1.055-3.169,1.055c-0.994-0.008-1.258-0.795-1.433-1.316c-0.042-0.125-0.09-0.268-0.149-0.406
		c-0.036-0.087-0.071-0.173-0.1-0.25c-0.162-0.406-0.247-0.746-0.14-1.087c0.154-0.487,0.61-0.686,1.064-0.848
		c0.302-0.104,1.562-0.453,3.025-0.832c-4.638-4.818-6.98-13.91-7.405-15.693l-0.071-0.297l0.026-0.03l3.061-3.7l0.118,1.505
		c0.494,6.281,6.645,14.569,8.561,16.385c0.269,0.058,0.613,0.14,0.93,0.252c0.644,0.224,1.056,1.021,1.183,1.408
		c0.044,0.131,0.098,0.328,0.061,0.532c0.003,0.141-0.009,0.301-0.035,0.462c-0.241,1.427-2.631,5.569-2.902,6.036l-0.096,0.146
		l-0.117,0.071C136.296,191.887,136.088,191.938,135.849,191.938"/>
	<path d="M200.723,153.998c5.096,0,9.24-4.145,9.24-9.24c0-5.095-4.145-9.24-9.24-9.24c-5.095,0-9.24,4.146-9.24,9.24
		C191.482,149.854,195.628,153.998,200.723,153.998 M200.723,136.576c4.512,0,8.182,3.67,8.182,8.182
		c0,4.512-3.67,8.181-8.182,8.181c-4.511,0-8.181-3.669-8.181-8.181C192.542,140.246,196.212,136.576,200.723,136.576"/>
	<path d="M234.137,225.918h2.609c2.518,0,4.564-2.664,4.564-5.939c0.008-0.278,0.924-29.56,0.924-34.983
		c0.002-5.368-1.807-10.391-5.859-16.286l-0.873,0.602c3.979,5.784,5.676,10.475,5.676,15.685c0,5.408-0.918,34.672-0.926,34.968
		c-0.002,2.708-1.572,4.897-3.506,4.897h-2.609c-1.934,0-3.506-2.189-3.506-4.881v-31.303l-0.316-0.141
		c-0.149-0.062-0.526-0.359-0.801-0.575c-0.291-0.228-0.563-0.44-0.768-0.558l-0.525,0.919c0.137,0.079,0.402,0.288,0.639,0.472
		c0.285,0.227,0.517,0.403,0.714,0.532v30.651C229.572,223.254,231.619,225.918,234.137,225.918 M211.744,189.984
		c1.793,0,3.932-0.717,4.808-2.357l0.021-0.044c0.024-0.06,0.606-1.461,0.752-3.026l0.002-0.051v-6.55
		c1.95,2.293,4.166,4.739,5.881,6.483l0.756-0.741c-1.978-2.013-4.631-4.968-6.758-7.534l-0.938-1.127v9.443
		c-0.123,1.297-0.592,2.494-0.66,2.67c-0.602,1.091-2.241,1.822-4.008,1.771c-1.557-0.04-2.776-0.675-3.274-1.699
		c-0.228-0.682-0.459-1.869-0.459-2.718v-27.504c0-1.89,0.707-3.632,1.801-4.436l0.028-0.025c0.023-0.019,0.048-0.04,0.07-0.061
		c0.017-0.016,0.029-0.029,0.047-0.042c2.017-1.582,5.388-1.248,9.49,0.94c4.238,2.259,8.691,6.203,12.538,11.107
		c0.331,0.421,0.739,0.979,1.136,1.518c0.262,0.357,0.51,0.699,0.717,0.972l0.845-0.641c-0.203-0.268-0.451-0.604-0.707-0.957
		c-0.399-0.546-0.815-1.11-1.156-1.546c-3.937-5.017-8.508-9.062-12.872-11.388c-4.496-2.397-8.277-2.696-10.642-0.84
		c-0.039,0.03-0.076,0.063-0.111,0.097l-0.03,0.026c-1.363,1.017-2.213,3.035-2.213,5.274v27.504c0,1.006,0.272,2.342,0.526,3.088
		l0.022,0.054c0.662,1.412,2.24,2.283,4.22,2.336C211.629,189.982,211.688,189.984,211.744,189.984"/>
	<path d="M200.723,136.657c-4.465,0-8.1,3.635-8.1,8.101c0,4.466,3.635,8.099,8.1,8.099c4.467,0,8.102-3.633,8.102-8.099
		C208.824,140.292,205.189,136.657,200.723,136.657 M200.723,153.021c-4.556,0-8.263-3.707-8.263-8.263
		c0-4.556,3.707-8.263,8.263-8.263c4.557,0,8.264,3.707,8.264,8.263C208.986,149.314,205.279,153.021,200.723,153.021
		 M200.723,135.6c-5.051,0-9.158,4.108-9.158,9.158c0,5.05,4.107,9.158,9.158,9.158s9.16-4.108,9.16-9.158
		C209.883,139.708,205.773,135.6,200.723,135.6 M200.723,154.08c-5.14,0-9.322-4.183-9.322-9.322c0-5.139,4.184-9.322,9.322-9.322
		c5.142,0,9.322,4.183,9.322,9.322C210.045,149.897,205.863,154.08,200.723,154.08"/>
	<path d="M211.745,190.064c-0.058,0-0.116,0-0.173,0c-2.012-0.055-3.615-0.944-4.293-2.383l-0.022-0.059
		c-0.259-0.758-0.532-2.104-0.532-3.117v-27.504c0-2.262,0.86-4.309,2.246-5.342l0.025-0.021c0.033-0.032,0.072-0.067,0.113-0.099
		c1.033-0.812,2.332-1.222,3.861-1.222c2.002,0,4.312,0.691,6.868,2.054c4.373,2.329,8.954,6.383,12.897,11.409
		c0.336,0.431,0.74,0.979,1.156,1.549c0.258,0.351,0.506,0.687,0.709,0.955l0.049,0.065l-0.976,0.738l-0.049-0.065
		c-0.174-0.229-0.379-0.509-0.597-0.805l-0.168-0.229c-0.379-0.517-0.771-1.05-1.088-1.453c-3.838-4.896-8.281-8.831-12.51-11.086
		c-2.385-1.271-4.498-1.916-6.281-1.916c-1.254,0-2.306,0.326-3.121,0.969c-0.016,0.011-0.027,0.021-0.039,0.033l-0.107,0.093
		c-1.076,0.791-1.771,2.507-1.771,4.373v27.504c0,0.83,0.232,2.02,0.457,2.689c0.479,0.988,1.678,1.605,3.199,1.646
		c1.746,0.052,3.344-0.659,3.935-1.729c0.118-0.305,0.534-1.424,0.651-2.639v-9.663l1.08,1.302c2.123,2.56,4.774,5.515,6.754,7.529
		l0.058,0.058l-0.871,0.856l-0.058-0.058c-1.662-1.69-3.797-4.04-5.741-6.319l-0.003,6.378c-0.143,1.545-0.695,2.906-0.758,3.058
		l-0.021,0.047C215.678,189.438,213.404,190.064,211.745,190.064 M228.329,188.295c0.144,0.094,0.356,0.26,0.581,0.436
		c0.258,0.203,0.506,0.396,0.705,0.528l0.037,0.023v30.696c0,3.229,2.012,5.857,4.481,5.857h2.611c2.471,0,4.481-2.628,4.481-5.857
		l0.006-0.194c0.154-4.942,0.92-29.849,0.92-34.79c0-5.329-1.789-10.32-5.799-16.172l-0.74,0.509
		c3.955,5.767,5.645,10.455,5.645,15.663c0,4.561-0.638,25.678-0.912,34.546l-0.014,0.425c0,2.743-1.607,4.977-3.587,4.977h-2.611
		c-1.978,0-3.586-2.227-3.586-4.963V188.73l-0.269-0.119c-0.146-0.062-0.459-0.303-0.819-0.586c-0.26-0.202-0.499-0.391-0.687-0.508
		L228.329,188.295z M236.746,226h-2.611c-2.561,0-4.645-2.701-4.645-6.021V189.37c-0.199-0.136-0.438-0.318-0.682-0.513
		c-0.195-0.152-0.492-0.385-0.631-0.465l-0.07-0.041l0.607-1.06l0.071,0.041c0.205,0.115,0.478,0.328,0.765,0.556
		c0.268,0.209,0.654,0.512,0.795,0.572l0.365,0.162v31.354c0,2.646,1.536,4.799,3.423,4.799h2.611c1.888,0,3.424-2.159,3.424-4.813
		l0.015-0.429c0.272-8.866,0.912-29.982,0.912-34.54c0-5.192-1.693-9.869-5.66-15.639l-0.049-0.068l1.01-0.691l0.047,0.066
		c4.062,5.909,5.875,10.946,5.873,16.332c0,4.942-0.767,29.853-0.918,34.796l-0.006,0.189C241.393,223.299,239.309,226,236.746,226
		 M212.973,150.482c-1.494,0-2.759,0.399-3.762,1.187c-0.036,0.027-0.072,0.06-0.105,0.092l-0.032,0.028
		c-1.351,1.006-2.187,3.003-2.187,5.214v27.504c0,0.995,0.271,2.319,0.523,3.06l0.02,0.051c0.648,1.377,2.198,2.232,4.146,2.285
		c0.055,0,0.111,0,0.169,0c1.614,0,3.823-0.604,4.733-2.312l0.02-0.041c0.023-0.056,0.602-1.458,0.744-3l0.003-0.044v-6.77
		l0.144,0.169c1.959,2.303,4.129,4.696,5.82,6.421l0.639-0.627c-1.976-2.017-4.601-4.942-6.707-7.479l-0.791-0.954v9.217
		c-0.119,1.242-0.541,2.381-0.668,2.699c-0.602,1.098-2.174,1.827-3.914,1.827c-0.057,0-0.113-0.001-0.17-0.003
		c-1.584-0.041-2.836-0.693-3.346-1.747c-0.23-0.683-0.469-1.872-0.469-2.751v-27.504c0-1.916,0.721-3.685,1.834-4.502l0.095-0.081
		c0.015-0.016,0.03-0.032,0.052-0.046c0.846-0.664,1.928-1.001,3.221-1.001c1.812,0,3.949,0.65,6.356,1.935
		c4.249,2.264,8.712,6.216,12.563,11.128c0.32,0.406,0.711,0.94,1.091,1.458l0.168,0.23c0.196,0.267,0.384,0.521,0.546,0.736
		l0.714-0.541c-0.192-0.257-0.422-0.568-0.659-0.893c-0.416-0.569-0.817-1.115-1.154-1.544c-3.93-5.009-8.491-9.046-12.846-11.366
		C217.232,151.167,214.947,150.482,212.973,150.482"/>
	<path fill="#ED3193" d="M223.928,184.891l-0.007,0.127c-0.006,0.101,0,0.203,0.019,0.312c0.153,0.907,1.703,3.787,2.615,5.382
		c0.34-0.041,0.855-0.3,1.088-0.507c-0.183-0.589-0.699-1.942-1.17-2.495l-0.272-0.32l0.42-0.768h0.362
		c0.119,0,0.125,0.002,0.48,0.145c3.376,1.342,3.9,1.449,3.973,1.459c0.082,0,0.104,0,0.269-0.484
		c0.049-0.145,0.106-0.316,0.183-0.493l0.008-0.019c0.027-0.069,0.055-0.133,0.078-0.199c0.034-0.086,0.062-0.162,0.082-0.228
		c-0.055-0.026-0.142-0.062-0.273-0.11c-0.314-0.108-2.121-0.603-3.893-1.049l-0.603-0.151l0.243-0.911l0.134-0.12
		c4.56-4.114,6.991-12.802,7.646-15.436l-0.846-1.021c-1.24,6.726-7.163,14.365-8.896,15.894l-0.119,0.105l-0.158,0.034
		c-0.301,0.063-0.646,0.141-0.939,0.243C224.24,184.316,224.009,184.652,223.928,184.891 M226.463,190.881l-0.025-0.044
		c-0.914-1.595-2.502-4.544-2.66-5.481c-0.021-0.121-0.024-0.235-0.02-0.349l0.012-0.159c0.071-0.217,0.326-0.654,0.524-0.724
		c0.3-0.106,0.653-0.185,0.96-0.249l0.113-0.023l0.09-0.078c1.738-1.531,7.712-9.246,8.875-15.973l0.031-0.175l1.121,1.355
		l-0.01,0.04c-0.64,2.597-3.088,11.391-7.701,15.558l-0.101,0.089l-0.187,0.703l0.438,0.111c1.776,0.447,3.589,0.942,3.906,1.054
		c0.166,0.062,0.286,0.11,0.358,0.149l0.055,0.032l-0.016,0.062c-0.023,0.084-0.059,0.186-0.106,0.307
		c-0.024,0.066-0.052,0.133-0.08,0.201l-0.009,0.021c-0.071,0.172-0.129,0.34-0.178,0.481c-0.178,0.528-0.227,0.596-0.433,0.597
		c-0.114-0.014-0.714-0.156-4.021-1.472c-0.334-0.132-0.334-0.132-0.422-0.132h-0.267l-0.317,0.584l0.199,0.234
		c0.5,0.586,1.043,2.031,1.217,2.602l0.014,0.047l-0.034,0.034c-0.247,0.25-0.874,0.569-1.28,0.594L226.463,190.881z
		 M225.835,191.582l0.097,0.061c0.148,0.088,0.328,0.133,0.537,0.133c0.684,0,1.698-0.486,2.088-1.002
		c0.203-0.26,0.203-0.492,0.168-0.644c-0.039-0.157-0.311-1.024-0.697-1.854l-0.086-0.185l0.19,0.074
		c2.515,0.981,3.071,1.117,3.298,1.117c0.875-0.009,1.098-0.673,1.278-1.205c0.047-0.142,0.093-0.278,0.151-0.42
		c0.037-0.084,0.068-0.168,0.099-0.245c0.149-0.376,0.229-0.686,0.136-0.979c-0.131-0.414-0.547-0.596-0.962-0.742
		c-0.308-0.108-1.631-0.473-3.147-0.863l-0.137-0.035l0.101-0.102c4.672-4.76,7.034-13.928,7.461-15.718l0.052-0.217l-2.777-3.357
		l-0.086,1.102c-0.5,6.346-6.722,14.717-8.631,16.509l-0.017,0.014l-0.021,0.006c-0.269,0.058-0.613,0.138-0.933,0.252
		c-0.584,0.203-0.963,0.943-1.084,1.306c-0.037,0.115-0.084,0.286-0.054,0.452c0,0.162,0.011,0.312,0.035,0.464
		c0.234,1.388,2.611,5.515,2.881,5.979L225.835,191.582z M226.469,191.938c-0.238,0-0.447-0.052-0.621-0.155l-0.135-0.082
		l-0.078-0.136c-0.271-0.469-2.662-4.619-2.902-6.037c-0.024-0.16-0.037-0.319-0.034-0.476c-0.037-0.188,0.018-0.387,0.062-0.519
		c0.129-0.389,0.539-1.186,1.184-1.408c0.317-0.113,0.662-0.193,0.93-0.252c1.916-1.812,8.066-10.103,8.562-16.385l0.117-1.505
		l3.086,3.73l-0.068,0.297c-0.426,1.783-2.769,10.875-7.407,15.693c1.465,0.379,2.726,0.727,3.026,0.832
		c0.453,0.162,0.908,0.359,1.063,0.848c0.108,0.34,0.022,0.682-0.142,1.088c-0.027,0.076-0.062,0.162-0.1,0.248
		c-0.058,0.137-0.103,0.271-0.146,0.398c-0.179,0.529-0.442,1.318-1.435,1.326c-0.231,0-0.671-0.084-3.173-1.055
		c0.347,0.78,0.589,1.551,0.625,1.701c0.044,0.186,0.046,0.471-0.198,0.78C228.271,191.42,227.195,191.938,226.469,191.938"/>
	<path fill="#ED3193" d="M226.469,191.857L226.469,191.857c0.705,0,1.752-0.504,2.152-1.035c0.223-0.283,0.223-0.543,0.184-0.711
		c-0.037-0.15-0.309-1.022-0.703-1.87c2.637,1.028,3.106,1.123,3.328,1.123c0.934-0.009,1.178-0.733,1.355-1.261
		c0.044-0.133,0.09-0.271,0.15-0.416c0.035-0.084,0.068-0.168,0.099-0.246c0.155-0.389,0.239-0.715,0.138-1.031
		c-0.143-0.452-0.578-0.641-1.012-0.795c-0.323-0.114-1.71-0.493-3.155-0.866c4.677-4.764,7.043-13.909,7.483-15.757l0.06-0.256
		l-2.932-3.544l-0.103,1.303c-0.509,6.458-6.822,14.78-8.604,16.454c-0.302,0.064-0.636,0.145-0.941,0.254
		c-0.612,0.213-1.009,0.98-1.133,1.357c-0.045,0.135-0.091,0.313-0.058,0.491c-0.002,0.151,0.01,0.308,0.033,0.462
		c0.238,1.399,2.621,5.541,2.894,6.01l0.067,0.117l0.115,0.07C226.051,191.809,226.243,191.857,226.469,191.857 M227.736,190.229
		c-0.245,0.244-0.86,0.547-1.228,0.568c-0.778-1.357-2.487-4.482-2.651-5.456c-0.019-0.11-0.024-0.22-0.019-0.327l0.007-0.141
		c0.074-0.225,0.32-0.619,0.475-0.671c0.296-0.106,0.646-0.183,0.951-0.247l0.135-0.029l0.104-0.092
		c1.812-1.598,7.755-9.387,8.901-16.019l0.982,1.187c-0.582,2.357-3.041,11.329-7.678,15.518l-0.117,0.104l-0.215,0.806l0.52,0.133
		c1.781,0.447,3.59,0.941,3.9,1.052c0.195,0.069,0.295,0.116,0.344,0.145c-0.01,0.043-0.037,0.138-0.103,0.298
		c-0.026,0.073-0.056,0.146-0.088,0.223c-0.071,0.172-0.128,0.335-0.181,0.486c-0.18,0.539-0.213,0.539-0.354,0.541
		c-0.113-0.015-0.777-0.188-3.992-1.467c-0.348-0.138-0.348-0.138-0.451-0.138h-0.313l-0.369,0.676l0.236,0.278
		C227.037,188.244,227.576,189.698,227.736,190.229"/>
</g>
<rect x="163.212" y="184.42" width="1.277" height="40.02"/>
<rect x="197.555" y="184.704" width="1.276" height="40.019"/>
<polygon fill="#ED3193" points="174.278,181.034 173.364,179.782 173.615,179.598 177.412,165.884 176.691,165.674 173.158,178.283 
	173.162,178.287 173.154,178.295 173.069,178.598 172.93,178.56 172.5,179.065 171.997,178.638 175.985,164.405 178.666,165.186 "/>
<path fill="#ED3193" d="M159.724,179.937h13.542v-0.219l-0.623-0.531h-12.919V179.937L159.724,179.937z M174.288,180.958h-15.586
	v-2.793h14.317l1.269,1.079V180.958z"/>
<polygon fill="#ED3193" points="188.093,180.822 183.705,164.973 186.387,164.192 190.373,178.425 189.871,178.852 189.439,178.347 
	189.301,178.386 189.209,178.074 189.213,178.07 185.682,165.461 184.959,165.672 188.756,179.386 189.007,179.569 "/>
<path fill="#ED3193" d="M189.104,179.723h13.543v-0.749h-12.918l-0.625,0.53V179.723z M203.668,180.745h-15.585v-1.713l1.269-1.08
	h14.316V180.745L203.668,180.745z"/>
</svg>
