<?xml version="1.0" encoding="utf-8"?>
<!-- Generator: Adobe Illustrator 15.0.2, SVG Export Plug-In . SVG Version: 6.00 Build 0)  -->
<!DOCTYPE svg PUBLIC "-//W3C//DTD SVG 1.1//EN" "http://www.w3.org/Graphics/SVG/1.1/DTD/svg11.dtd">
<svg version="1.1" id="Layer_1" xmlns="http://www.w3.org/2000/svg" xmlns:xlink="http://www.w3.org/1999/xlink" x="0px" y="0px"
	 width="93px" height="104px" viewBox="134.5 128.5 93 104" enable-background="new 134.5 128.5 93 104" xml:space="preserve">
<rect x="159.668" y="168.641" fill="#212929" width="3.095" height="1.549"/>
<rect x="153.477" y="168.641" fill="#212929" width="3.095" height="1.549"/>
<g>
	<path fill="#212929" d="M165.858,176.38h-21.667v-1.548h21.667c0.427,0,0.774-0.348,0.774-0.773v-27.857
		c0-0.428-0.347-0.774-0.774-0.774H138v-1.548h27.858c1.28,0,2.321,1.042,2.321,2.322v27.857
		C168.179,175.339,167.138,176.38,165.858,176.38"/>
	<path fill="#212929" d="M207.645,153.165v-1.548c1.279,0,2.32-1.041,2.32-2.321v-1.548c0-1.28-1.041-2.321-2.32-2.321h-20.119
		v-1.548h20.119c2.133,0,3.869,1.736,3.869,3.869v1.548C211.514,151.429,209.777,153.165,207.645,153.165"/>
	<path fill="#212929" d="M209.191,160.903h-4.644v-1.548h4.644c1.281,0,2.322-1.041,2.322-2.321v-1.548
		c0-1.28-1.041-2.321-2.322-2.321h-4.644v-1.548h4.644c2.134,0,3.869,1.736,3.869,3.869v1.548
		C213.061,159.167,211.325,160.903,209.191,160.903"/>
	<path fill="#212929" d="M207.645,168.642h-4.643v-1.548h4.643c1.279,0,2.32-1.041,2.32-2.321v-1.548c0-1.28-1.041-2.321-2.32-2.321
		v-1.548c2.133,0,3.869,1.736,3.869,3.869v1.548C211.514,166.905,209.777,168.642,207.645,168.642"/>
	<path fill="#212929" d="M206.098,176.38h-18.572c-0.062,0-0.127-0.008-0.188-0.023l-12.289-3.071h-7.643v-1.549h7.738
		c0.063,0,0.126,0.009,0.187,0.023l12.289,3.072h18.478c1.279,0,2.32-1.041,2.32-2.321v-1.548c0-1.28-1.041-2.321-2.32-2.321v-1.548
		c2.133,0,3.868,1.736,3.868,3.869v1.548C209.966,174.644,208.23,176.38,206.098,176.38"/>
	<path fill="#212929" d="M172.048,148.521h-4.643v-1.548h4.323l9.059-9.059c0.107-0.108,0.246-0.183,0.395-0.211l7.737-1.548
		l0.306,1.517l-7.509,1.502l-9.121,9.12C172.451,148.439,172.254,148.521,172.048,148.521"/>
	<path fill="#212929" d="M192.773,143.879h8.076l2.709-10.833h-13.494L192.773,143.879z M201.454,145.427h-9.286
		c-0.355,0-0.664-0.242-0.75-0.586l-3.096-12.381c-0.059-0.231-0.006-0.477,0.141-0.664c0.146-0.188,0.372-0.298,0.609-0.298h15.477
		c0.238,0,0.465,0.109,0.609,0.298c0.146,0.188,0.199,0.433,0.142,0.664l-3.096,12.381
		C202.117,145.185,201.809,145.427,201.454,145.427"/>
	<path fill="#212929" d="M195.264,229c-17.394,0-28.632-9.416-28.632-23.989c0-8.89,6.043-16.069,11.375-22.405
		c2.249-2.673,4.373-5.197,5.755-7.547l1.334,0.784c-1.447,2.462-3.613,5.035-5.905,7.76c-5.161,6.133-11.011,13.084-11.011,21.409
		c0,13.634,10.631,22.441,27.083,22.441c16.453,0,27.084-8.81,27.084-22.441c0-8.327-5.853-15.278-11.016-21.413
		c-2.291-2.724-4.457-5.296-5.906-7.757l1.336-0.785c1.381,2.35,3.506,4.873,5.754,7.545c5.334,6.336,11.381,13.519,11.381,22.409
		C223.896,219.584,212.656,229,195.264,229"/>
	<path fill="#ED3293" d="M195.264,211.977c-2.986,0-5.418-2.431-5.418-5.418h1.549c0,2.133,1.736,3.869,3.869,3.869
		s3.869-1.736,3.869-3.869c0-1.683-3.101-3.449-4.188-3.937c-0.521-0.233-5.1-2.37-5.1-5.351c0-2.985,2.43-5.416,5.418-5.416
		c2.985,0,5.416,2.431,5.416,5.416h-1.548c0-2.133-1.735-3.869-3.868-3.869c-2.134,0-3.869,1.736-3.869,3.869
		c0,1.686,3.1,3.451,4.186,3.938c0.521,0.233,5.1,2.371,5.1,5.349C200.68,209.546,198.25,211.977,195.264,211.977"/>
</g>
<rect x="194.488" y="187.986" fill="#ED3293" width="1.549" height="4.644"/>
<rect x="194.488" y="211.202" fill="#ED3293" width="1.549" height="4.644"/>
<rect x="204.55" y="201.143" fill="#212929" width="3.095" height="1.549"/>
<rect x="182.882" y="201.143" fill="#212929" width="3.095" height="1.549"/>
</svg>
