<?xml version="1.0" encoding="utf-8"?>
<!-- Generator: Adobe Illustrator 15.0.2, SVG Export Plug-In . SVG Version: 6.00 Build 0)  -->
<!DOCTYPE svg PUBLIC "-//W3C//DTD SVG 1.1//EN" "http://www.w3.org/Graphics/SVG/1.1/DTD/svg11.dtd">
<svg version="1.1" id="Layer_1" xmlns="http://www.w3.org/2000/svg" xmlns:xlink="http://www.w3.org/1999/xlink" x="0px" y="0px"
	 width="38.667px" height="42px" viewBox="161.833 159.167 38.667 42" enable-background="new 161.833 159.167 38.667 42"
	 xml:space="preserve">
<g>
	<path fill="#242B34" d="M165.564,166.234c-0.151,0.259-0.165,0.725-0.041,1.423c1.245,6.992,4.546,13.332,9.547,18.334
		c5.042,5.042,11.7,8.503,18.266,9.493c0.541,0.08,1.133,0.141,1.441-0.041c0.084-0.051,0.119-0.099,0.123-0.11l1.158-5.185
		c0.041-0.188-0.047-0.412-0.242-0.607c-0.047-0.002-0.907-0.342-1.666-0.641c-1.349-0.534-3.028-1.197-4.092-1.719
		c-0.414-0.199-0.916-0.113-1.096,0.187l-0.714,1.231c-0.345,0.59-0.92,1.023-1.578,1.188c-2.519,0.629-9.055-5.841-9.332-6.118
		c-0.285-0.285-6.972-7.016-6.333-9.52c0.161-0.653,0.593-1.229,1.183-1.572l1.228-0.712c0.307-0.184,0.396-0.676,0.191-1.095
		c-0.818-1.676-1.28-3.205-1.815-4.979c-0.173-0.569-0.597-0.908-0.93-0.843c-0.012,0.001-0.373,0.083-5.193,1.16
		C165.659,166.113,165.616,166.15,165.564,166.234 M194.164,197c-0.344,0-0.697-0.041-1.043-0.094
		c-6.863-1.035-13.815-4.646-19.068-9.898c-5.211-5.21-8.649-11.814-9.946-19.099c-0.13-0.729-0.222-1.661,0.22-2.409l0.002-0.003
		c0.257-0.429,0.614-0.703,1.034-0.793c4.896-1.092,5.178-1.158,5.192-1.161c1.088-0.223,2.22,0.531,2.584,1.724
		c0.55,1.823,0.996,3.303,1.764,4.873c0.532,1.094,0.201,2.396-0.753,2.966l-1.237,0.719c-0.254,0.146-0.441,0.395-0.511,0.677
		c-0.251,0.984,2.995,5.188,5.955,8.153c2.466,2.465,6.893,6.007,7.963,5.737c0.287-0.07,0.537-0.261,0.686-0.518l0.719-1.236
		c0.569-0.953,1.867-1.277,2.963-0.75c1.017,0.496,2.666,1.146,3.992,1.672c1.805,0.715,1.986,0.797,2.154,0.963
		c0.546,0.548,0.775,1.252,0.631,1.933l-1.158,5.185c-0.088,0.416-0.371,0.791-0.797,1.041C195.105,196.921,194.643,197,194.164,197
		"/>
	<path fill="#242B34" d="M190.967,179.468c-0.396,0-0.719-0.32-0.719-0.72c0-5.244-4.268-9.511-9.512-9.511
		c-0.397,0-0.719-0.322-0.719-0.72s0.322-0.72,0.719-0.72c6.037,0,10.949,4.91,10.949,10.95
		C191.686,179.147,191.365,179.468,190.967,179.468"/>
	<path fill="#242B34" d="M195.301,179.468c-0.398,0-0.719-0.32-0.719-0.72c0-7.636-6.213-13.846-13.846-13.846
		c-0.397,0-0.719-0.322-0.719-0.72s0.322-0.72,0.719-0.72c8.428,0,15.283,6.857,15.283,15.285
		C196.02,179.147,195.697,179.468,195.301,179.468"/>
</g>
</svg>
