<?xml version="1.0" encoding="utf-8"?>
<!-- Generator: Adobe Illustrator 15.0.2, SVG Export Plug-In . SVG Version: 6.00 Build 0)  -->
<!DOCTYPE svg PUBLIC "-//W3C//DTD SVG 1.1//EN" "http://www.w3.org/Graphics/SVG/1.1/DTD/svg11.dtd">
<svg version="1.1" id="Layer_1" xmlns="http://www.w3.org/2000/svg" xmlns:xlink="http://www.w3.org/1999/xlink" x="0px" y="0px"
	 width="76px" height="44px" viewBox="132.5 154.5 76 44" enable-background="new 132.5 154.5 76 44" xml:space="preserve">
<g>
	<defs>
		<rect id="SVGID_1_" x="146.5" y="158.15" width="53.9" height="35.35"/>
	</defs>
	<clipPath id="SVGID_2_">
		<use xlink:href="#SVGID_1_"  overflow="visible"/>
	</clipPath>
	<path clip-path="url(#SVGID_2_)" fill="#231F20" d="M148.36,191.64H193.9V168.32H148.36V191.64z M194.779,193.4H147.48
		c-0.486,0-0.88-0.395-0.88-0.881V167.44c0-0.486,0.394-0.881,0.88-0.881h47.299c0.486,0,0.881,0.395,0.881,0.881v25.079
		C195.66,193.006,195.266,193.4,194.779,193.4"/>
	<path clip-path="url(#SVGID_2_)" fill="none" stroke="#FFFFFF" stroke-width="0.2" stroke-miterlimit="10" d="M148.36,191.64H193.9
		V168.32H148.36V191.64z M194.779,193.4H147.48c-0.486,0-0.88-0.395-0.88-0.881V167.44c0-0.486,0.394-0.881,0.88-0.881h47.299
		c0.486,0,0.881,0.395,0.881,0.881v25.079C195.66,193.006,195.266,193.4,194.779,193.4z"/>
	<path clip-path="url(#SVGID_2_)" fill="#231F20" d="M170.955,172.205c-4.334,0-7.86,3.525-7.86,7.86c0,4.334,3.526,7.86,7.86,7.86
		s7.86-3.526,7.86-7.86C178.815,175.73,175.289,172.205,170.955,172.205 M170.955,189.686c-5.305,0-9.62-4.316-9.62-9.62
		c0-5.305,4.315-9.621,9.62-9.621s9.62,4.316,9.62,9.621C180.575,185.369,176.26,189.686,170.955,189.686"/>
	<path clip-path="url(#SVGID_2_)" fill="none" stroke="#FFFFFF" stroke-width="0.2" stroke-miterlimit="10" d="M170.955,172.205
		c-4.334,0-7.86,3.525-7.86,7.86c0,4.334,3.526,7.86,7.86,7.86s7.86-3.526,7.86-7.86
		C178.815,175.73,175.289,172.205,170.955,172.205z M170.955,189.686c-5.305,0-9.62-4.316-9.62-9.62c0-5.305,4.315-9.621,9.62-9.621
		s9.62,4.316,9.62,9.621C180.575,185.369,176.26,189.686,170.955,189.686z"/>
	<path clip-path="url(#SVGID_2_)" fill="#231F20" d="M193.541,175.235l-0.879-0.035c-2.965-0.12-5.387-2.536-5.515-5.499
		l-0.038-0.881l1.758-0.075l0.039,0.88c0.088,2.056,1.77,3.732,3.826,3.816l0.881,0.036L193.541,175.235z"/>
	<path clip-path="url(#SVGID_2_)" fill="none" stroke="#FFFFFF" stroke-width="0.2" stroke-miterlimit="10" d="M193.541,175.235
		l-0.879-0.035c-2.965-0.12-5.387-2.536-5.515-5.499l-0.038-0.881l1.758-0.075l0.039,0.88c0.088,2.056,1.77,3.732,3.826,3.816
		l0.881,0.036L193.541,175.235z"/>
	<path clip-path="url(#SVGID_2_)" fill="#231F20" d="M148.889,175.235l-0.072-1.758l0.88-0.036c2.057-0.084,3.738-1.761,3.827-3.816
		l0.038-0.88l1.758,0.075l-0.038,0.881c-0.128,2.963-2.55,5.379-5.514,5.499L148.889,175.235z"/>
	<path clip-path="url(#SVGID_2_)" fill="none" stroke="#FFFFFF" stroke-width="0.2" stroke-miterlimit="10" d="M148.889,175.235
		l-0.072-1.758l0.88-0.036c2.057-0.084,3.738-1.761,3.827-3.816l0.038-0.88l1.758,0.075l-0.038,0.881
		c-0.128,2.963-2.55,5.379-5.514,5.499L148.889,175.235z"/>
	<path clip-path="url(#SVGID_2_)" fill="#231F20" d="M188.535,191.721l-1.759-0.076l0.038-0.879c0.128-2.964,2.551-5.379,5.514-5.5
		l0.879-0.035l0.072,1.759l-0.88,0.036c-2.057,0.083-3.737,1.76-3.827,3.816L188.535,191.721z"/>
	<path clip-path="url(#SVGID_2_)" fill="none" stroke="#FFFFFF" stroke-width="0.2" stroke-miterlimit="10" d="M188.535,191.721
		l-1.759-0.076l0.038-0.879c0.128-2.964,2.551-5.379,5.514-5.5l0.879-0.035l0.072,1.759l-0.88,0.036
		c-2.057,0.083-3.737,1.76-3.827,3.816L188.535,191.721z"/>
	<path clip-path="url(#SVGID_2_)" fill="#231F20" d="M153.229,191.721l-0.038-0.879c-0.089-2.057-1.77-3.733-3.827-3.816
		l-0.88-0.036l0.072-1.759l0.879,0.035c2.964,0.121,5.386,2.536,5.514,5.5l0.038,0.879L153.229,191.721z"/>
	<path clip-path="url(#SVGID_2_)" fill="none" stroke="#FFFFFF" stroke-width="0.2" stroke-miterlimit="10" d="M153.229,191.721
		l-0.038-0.879c-0.089-2.057-1.77-3.733-3.827-3.816l-0.88-0.036l0.072-1.759l0.879,0.035c2.964,0.121,5.386,2.536,5.514,5.5
		l0.038,0.879L153.229,191.721z"/>
	<path clip-path="url(#SVGID_2_)" fill="#231F20" d="M194.508,185.636c-0.42,0-0.791-0.3-0.865-0.727
		c-0.085-0.479,0.234-0.936,0.713-1.021l4.046-0.714l-4.065-23.025l-44.708,7.896c-0.479,0.084-0.935-0.235-1.02-0.714
		c-0.084-0.479,0.235-0.936,0.714-1.02l45.574-8.048c0.479-0.085,0.936,0.235,1.02,0.713l4.371,24.758
		c0.041,0.23-0.011,0.468-0.145,0.658c-0.135,0.191-0.338,0.321-0.568,0.362l-4.912,0.867
		C194.609,185.632,194.559,185.636,194.508,185.636"/>
	<path clip-path="url(#SVGID_2_)" fill="none" stroke="#FFFFFF" stroke-width="0.2" stroke-miterlimit="10" d="M194.508,185.636
		c-0.42,0-0.791-0.3-0.865-0.727c-0.085-0.479,0.234-0.936,0.713-1.021l4.046-0.714l-4.065-23.025l-44.708,7.896
		c-0.479,0.084-0.935-0.235-1.02-0.714c-0.084-0.479,0.235-0.936,0.714-1.02l45.574-8.048c0.479-0.085,0.936,0.235,1.02,0.713
		l4.371,24.758c0.041,0.23-0.011,0.468-0.145,0.658c-0.135,0.191-0.338,0.321-0.568,0.362l-4.912,0.867
		C194.609,185.632,194.559,185.636,194.508,185.636z"/>
	<path clip-path="url(#SVGID_2_)" fill="#231F20" d="M193.579,167.249c-2.649,0-5.042-1.862-5.628-4.508l-0.189-0.859l1.718-0.381
		l0.19,0.859c0.445,2.01,2.394,3.367,4.433,3.094l0.872-0.118l0.236,1.744l-0.873,0.118
		C194.084,167.232,193.83,167.249,193.579,167.249"/>
	<path clip-path="url(#SVGID_2_)" fill="none" stroke="#FFFFFF" stroke-width="0.2" stroke-miterlimit="10" d="M193.579,167.249
		c-2.649,0-5.042-1.862-5.628-4.508l-0.189-0.859l1.718-0.381l0.19,0.859c0.445,2.01,2.394,3.367,4.433,3.094l0.872-0.118
		l0.236,1.744l-0.873,0.118C194.084,167.232,193.83,167.249,193.579,167.249z"/>
	<path clip-path="url(#SVGID_2_)" fill="#231F20" d="M194.724,179.385l-0.636-1.642l0.82-0.317c0.275-0.107,0.562-0.193,0.853-0.258
		l0.858-0.188l0.377,1.72l-0.859,0.188c-0.202,0.044-0.4,0.104-0.593,0.178L194.724,179.385z"/>
	<path clip-path="url(#SVGID_2_)" fill="none" stroke="#FFFFFF" stroke-width="0.2" stroke-miterlimit="10" d="M194.724,179.385
		l-0.636-1.642l0.82-0.317c0.275-0.107,0.562-0.193,0.853-0.258l0.858-0.188l0.377,1.72l-0.859,0.188
		c-0.202,0.044-0.4,0.104-0.593,0.178L194.724,179.385z"/>
	<path clip-path="url(#SVGID_2_)" fill="#231F20" d="M170.984,185.655c-0.042,0-0.083-0.001-0.125-0.002
		c-1.601-0.052-3.106-1.07-3.661-2.479l-0.322-0.818l1.637-0.646l0.323,0.819c0.3,0.762,1.174,1.336,2.079,1.364
		c0.389,0.015,1.088-0.075,1.432-0.806c0.17-0.363,0.196-0.677,0.081-0.988c-0.209-0.562-0.905-1.153-1.862-1.581
		c-0.835-0.372-2.285-1.2-2.613-2.555c-0.127-0.523-0.129-1.337,0.584-2.229c0.628-0.785,1.598-1.276,2.533-1.283h0.02
		c0.646,0,1.586,0.22,2.437,1.253l0.56,0.68l-1.359,1.119l-0.559-0.68c-0.335-0.406-0.698-0.612-1.079-0.612h-0.007
		c-0.5,0.003-0.943,0.337-1.171,0.622c-0.324,0.405-0.269,0.63-0.249,0.715c0.106,0.436,0.742,0.97,1.621,1.363
		c0.823,0.367,2.279,1.189,2.794,2.575c0.279,0.752,0.231,1.563-0.139,2.35C173.401,184.982,172.302,185.655,170.984,185.655"/>
	<path clip-path="url(#SVGID_2_)" fill="none" stroke="#FFFFFF" stroke-width="0.2" stroke-miterlimit="10" d="M170.984,185.655
		c-0.042,0-0.083-0.001-0.125-0.002c-1.601-0.052-3.106-1.07-3.661-2.479l-0.322-0.818l1.637-0.646l0.323,0.819
		c0.3,0.762,1.174,1.336,2.079,1.364c0.389,0.015,1.088-0.075,1.432-0.806c0.17-0.363,0.196-0.677,0.081-0.988
		c-0.209-0.562-0.905-1.153-1.862-1.581c-0.835-0.372-2.285-1.2-2.613-2.555c-0.127-0.523-0.129-1.337,0.584-2.229
		c0.628-0.785,1.598-1.276,2.533-1.283h0.02c0.646,0,1.586,0.22,2.437,1.253l0.56,0.68l-1.359,1.119l-0.559-0.68
		c-0.335-0.406-0.698-0.612-1.079-0.612h-0.007c-0.5,0.003-0.943,0.337-1.171,0.622c-0.324,0.405-0.269,0.63-0.249,0.715
		c0.106,0.436,0.742,0.97,1.621,1.363c0.823,0.367,2.279,1.189,2.794,2.575c0.279,0.752,0.231,1.563-0.139,2.35
		C173.401,184.982,172.302,185.655,170.984,185.655z"/>
	<path clip-path="url(#SVGID_2_)" fill="#231F20" d="M169.946,187.062l-0.012-0.88c0,0-0.005-0.404-0.015-1.279l-0.009-0.88
		l1.76-0.019l0.009,0.879c0.009,0.87,0.015,1.273,0.015,1.274l0.012,0.88L169.946,187.062z"/>
	<path clip-path="url(#SVGID_2_)" fill="none" stroke="#FFFFFF" stroke-width="0.2" stroke-miterlimit="10" d="M169.946,187.062
		l-0.012-0.88c0,0-0.005-0.404-0.015-1.279l-0.009-0.88l1.76-0.019l0.009,0.879c0.009,0.87,0.015,1.273,0.015,1.274l0.012,0.88
		L169.946,187.062z"/>
</g>
<rect x="169.024" y="173.561" transform="matrix(0.0102 0.9999 -0.9999 0.0102 343.3771 1.9716)" fill="#231F20" width="3.338" height="1.76"/>
<rect x="169.024" y="173.561" transform="matrix(0.0102 0.9999 -0.9999 0.0102 343.3771 1.9716)" fill="none" stroke="#FFFFFF" stroke-width="0.2" stroke-miterlimit="10" width="3.338" height="1.76"/>
</svg>
