<?xml version="1.0" encoding="utf-8"?>
<!-- Generator: Adobe Illustrator 15.0.2, SVG Export Plug-In . SVG Version: 6.00 Build 0)  -->
<!DOCTYPE svg PUBLIC "-//W3C//DTD SVG 1.1//EN" "http://www.w3.org/Graphics/SVG/1.1/DTD/svg11.dtd">
<svg version="1.1" id="Layer_1" xmlns="http://www.w3.org/2000/svg" xmlns:xlink="http://www.w3.org/1999/xlink" x="0px" y="0px"
	 width="261px" height="263px" viewBox="39.5 48.5 261 263" enable-background="new 39.5 48.5 261 263" xml:space="preserve">
<g>
	<g>
		<g>
			<g>
				<g opacity="0.3">
					<g>
						<path fill="none" stroke="#4F4F50" stroke-width="2" stroke-miterlimit="10" d="M220.277,274.277
							c22.433,0.197,45.984-10.031,58.914-25.383c-12.172-6.898-36.479-18.914-60.356-23.309
							c-11.87,13.777-31.577,28.107-47.23,36.741C186.393,268.661,206.158,274.154,220.277,274.277 M278.773,248.639
							c-25.713,31.228-69.527,30.961-107.169,13.689c-20.372-9.346-38.911-23.646-51.765-40.564
							c-0.964-1.197-1.875-2.436-2.756-3.693c-12.956,10.253-32.16,22.558-55.471,28.924c-0.088,0.021-0.183,0.052-0.273,0.074
							c22.26,36.664,62.333,61.367,108.378,61.77c46.073,0.402,86.592-23.632,109.473-59.941
							C279.053,248.811,278.92,248.727,278.773,248.639"/>
					</g>
				</g>
				<g>
					<path fill="#6C9A33" d="M63.747,240.574"/>
				</g>
			</g>
		</g>
	</g>
	<g>
		<path fill="#E06F1E" d="M98.602,140.284c-15.787,12.292-31.039,27.292-37.848,42.813c-7.016,15.988-11.148,38.824-4.656,53.963
			c0.497,1.158,1.734,3.015,2.402,4.527c0.375-0.23,0.094-0.029,0.488-0.277c12.349-7.722,33.822-22.937,48.738-41.066
			C100.756,183.816,97.828,159.517,98.602,140.284"/>
		<path fill="#F37721" d="M167.42,50.615C97.778,53.497,42.447,111.069,42.986,181.3c0.166,21.845,5.801,42.333,15.471,60.32
			c0.092,0.168,0.229-0.022,0.369-0.142c0.15-0.127,0.301-0.194,0.207-0.414c-15.423-36.146,6.648-75.865,41.011-101.131
			c19.43-14.287,42.789-23.927,65.518-25.707c-2.693-16.613-4.095-39.755,1.846-63.57C167.411,50.644,167.416,50.629,167.42,50.615"
			/>
	</g>
	<g>
		<path fill="#E06F1E" d="M242.156,138.477c-2.225-19.884-7.036-40.728-16.707-54.647c-9.961-14.34-27.268-29.803-43.564-32.184
			c-1.248-0.182-3.477-0.098-5.117-0.319c0.002,0.44-0.022,0.096-0.019,0.562c0.126,14.563,1.868,40.823,9.524,63.018
			C203.922,117.553,226.165,127.762,242.156,138.477"/>
		<path fill="#F37721" d="M282.611,244.021c33.956-60.871,13.808-138.14-46.342-174.398c-18.707-11.279-39.117-17.188-59.506-18.349
			c-0.191-0.01-0.101,0.206-0.074,0.388c0.031,0.194,0.01,0.358,0.246,0.394c38.875,5.751,61.193,45.333,64.765,87.834
			c2.021,24.032-1.976,48.984-12.341,69.29c15.57,6.393,36.029,17.297,53.224,34.812C282.592,244,282.604,244.012,282.611,244.021"
			/>
	</g>
</g>
</svg>
