<?xml version="1.0" encoding="utf-8"?>
<!-- Generator: Adobe Illustrator 15.0.2, SVG Export Plug-In . SVG Version: 6.00 Build 0)  -->
<!DOCTYPE svg PUBLIC "-//W3C//DTD SVG 1.1//EN" "http://www.w3.org/Graphics/SVG/1.1/DTD/svg11.dtd">
<svg version="1.1" id="Layer_1" xmlns="http://www.w3.org/2000/svg" xmlns:xlink="http://www.w3.org/1999/xlink" x="0px" y="0px"
	 width="261.765px" height="135.883px" viewBox="0 0 261.765 135.883" enable-background="new 0 0 261.765 135.883"
	 xml:space="preserve">
<g>
	<g>
		<path fill="#87BD40" d="M27.036,129.235c-0.298,0-0.593-0.105-0.827-0.311c-0.398-0.348-0.536-0.909-0.343-1.401l8.102-20.768
			h-8.515c-10.564,0-19.158-5.589-19.158-12.458V60.693c0-6.87,8.594-12.458,19.158-12.458H130.92
			c10.564,0,19.159,5.588,19.159,12.458v33.604c0,6.869-8.595,12.458-19.159,12.458H67.915l-40.271,22.322
			C27.453,129.184,27.244,129.235,27.036,129.235z M25.452,50.747c-9.179,0-16.646,4.462-16.646,9.946v33.604
			c0,5.484,7.468,9.946,16.646,9.946h10.353c0.415,0,0.803,0.205,1.037,0.547c0.234,0.343,0.284,0.779,0.133,1.165l-7.505,19.237
			l37.511-20.792c0.187-0.104,0.396-0.157,0.609-0.157h63.33c9.18,0,16.647-4.462,16.647-9.946V60.693
			c0-5.484-7.468-9.946-16.647-9.946H25.452z"/>
	</g>
	<g>
		<path d="M126.352,83.248v-5.597l5.337-6.75h-1.246l-4.612,5.913l-4.611-5.913h-1.302l5.411,6.806v5.541H126.352z M114.99,72.128
			l3.347,7.216h-6.75l3.366-7.216H114.99z M120.16,83.248h1.134l-5.838-12.347h-0.967l-5.82,12.347h1.097l1.394-2.975h7.605
			L120.16,83.248z M97.902,82.318V71.831h3.626c3.44,0,5.522,1.972,5.522,5.226c0,3.272-2.082,5.262-5.522,5.262H97.902z
			 M96.879,70.901v12.347h4.686c4.053,0,6.526-2.343,6.526-6.191c0-3.812-2.473-6.155-6.526-6.155H96.879z M88.512,84.735h0.874
			l5.262-14.392h-0.893L88.512,84.735z M82.506,70.716c-2.659,0-4.426,1.412-4.426,3.532c0,2.027,1.135,2.882,4.333,3.218
			c2.845,0.298,3.719,0.967,3.719,2.454c0,1.617-1.321,2.584-3.515,2.584c-1.971,0-3.57-0.575-4.648-1.673h-0.056v1.208
			c1.041,0.894,2.715,1.396,4.686,1.396c2.808,0,4.555-1.339,4.555-3.515c0-2.194-1.19-3.143-4.518-3.459
			c-2.696-0.26-3.533-0.874-3.533-2.23c0-1.525,1.395-2.585,3.403-2.585c1.729,0,3.198,0.521,3.998,1.432h0.055v-1.209
			C85.741,71.144,84.254,70.716,82.506,70.716 M67.593,77.279v-5.448h4.258c2.139,0,3.217,0.931,3.217,2.733
			c0,1.804-1.078,2.715-3.217,2.715H67.593z M67.593,83.248v-5.039h4.277l3.366,5.039h1.245l-3.514-5.113
			c2.083-0.298,3.142-1.507,3.142-3.57c0-2.417-1.431-3.663-4.22-3.663h-5.318v12.347H67.593z M63.447,83.248V70.901h-1.023v5.597
			H53.89v-5.597h-1.023v12.347h1.023v-5.819h8.535v5.819H63.447z M37.249,79.716l6.526-7.55v7.55H37.249z M44.76,83.248v-2.659
			h1.896v-0.873H44.76v-8.814h-1.023l-7.661,8.87v0.817h7.698v2.659H44.76z M33.38,82.374h-7.233v-0.037l1.655-1.245
			c4.295-3.273,5.578-4.854,5.578-6.824c0-2.287-1.562-3.552-4.407-3.552c-1.413,0-2.919,0.521-3.96,1.357v1.097h0.055
			c1.004-0.985,2.473-1.581,3.905-1.581c2.231,0,3.421,0.968,3.421,2.734c0,1.599-1.19,2.993-5.262,6.173l-2.287,1.785v0.967h8.535
			V82.374z"/>
	</g>
	<g>
		<path d="M230.178,41.607v-5.95l6.897,5.95h1.525l-7.363-6.248l7.178-6.1h-1.47l-6.768,5.839V29.26h-1.023v12.348H230.178z
			 M222.963,41.607l4.184-12.348h-1.06l-3.607,10.767h-0.038l-3.681-10.767h-0.911l-3.682,10.729h-0.037l-3.589-10.729h-1.098
			l4.185,12.348h1.021l3.626-10.562h0.037l3.626,10.562H222.963z M202.192,43.094h0.874l5.262-14.392h-0.892L202.192,43.094z
			 M196.187,29.074c-2.659,0-4.425,1.413-4.425,3.533c0,2.026,1.134,2.882,4.332,3.217c2.845,0.297,3.719,0.967,3.719,2.454
			c0,1.617-1.32,2.585-3.514,2.585c-1.972,0-3.57-0.576-4.649-1.673h-0.055v1.208c1.041,0.893,2.714,1.395,4.685,1.395
			c2.809,0,4.557-1.339,4.557-3.515c0-2.194-1.19-3.143-4.519-3.458c-2.697-0.261-3.533-0.874-3.533-2.232
			c0-1.524,1.395-2.584,3.402-2.584c1.73,0,3.199,0.521,3.998,1.432h0.056v-1.209C199.423,29.502,197.935,29.074,196.187,29.074
			 M186.053,41.607V36.01l5.337-6.75h-1.246l-4.611,5.913l-4.611-5.913h-1.301l5.41,6.807v5.541H186.053z M174.691,30.487
			l3.347,7.215h-6.75l3.366-7.215H174.691z M179.86,41.607h1.135l-5.838-12.348h-0.968l-5.819,12.348h1.097l1.395-2.976h7.605
			L179.86,41.607z M157.604,40.677V30.19h3.626c3.439,0,5.521,1.971,5.521,5.225c0,3.271-2.082,5.262-5.521,5.262H157.604z
			 M156.581,29.26v12.348h4.686c4.054,0,6.527-2.344,6.527-6.192c0-3.812-2.474-6.155-6.527-6.155H156.581z M150.147,30.227V29.26
			h-9.893v0.874h8.869l-7.754,11.474h1.135L150.147,30.227z"/>
	</g>
	<g>
		<path fill="#87BD40" d="M236.596,88.143c-0.224,0-0.448-0.06-0.648-0.18L198.94,65.664h-41.912c-0.693,0-1.256-0.562-1.256-1.256
			s0.562-1.256,1.256-1.256h42.262c0.229,0,0.452,0.062,0.648,0.18l34.283,20.658l-6.874-19.158
			c-0.138-0.385-0.08-0.813,0.155-1.147c0.235-0.334,0.618-0.533,1.027-0.533h9.521c8.389,0,15.213-4.462,15.213-9.946V19.601
			c0-5.484-6.824-9.946-15.213-9.946h-97.016c-8.388,0-15.212,4.462-15.212,9.946v22.15c0,0.694-0.562,1.256-1.256,1.256
			s-1.256-0.562-1.256-1.256v-22.15c0-6.87,7.951-12.458,17.724-12.458h97.016c9.773,0,17.725,5.588,17.725,12.458v33.605
			c0,6.87-7.951,12.458-17.725,12.458h-7.736l7.463,20.799c0.179,0.5,0.024,1.059-0.387,1.396
			C237.162,88.047,236.879,88.143,236.596,88.143z"/>
	</g>
</g>
</svg>
