<?xml version="1.0" encoding="utf-8"?>
<!-- Generator: Adobe Illustrator 15.0.2, SVG Export Plug-In . SVG Version: 6.00 Build 0)  -->
<!DOCTYPE svg PUBLIC "-//W3C//DTD SVG 1.1//EN" "http://www.w3.org/Graphics/SVG/1.1/DTD/svg11.dtd">
<svg version="1.1" id="Layer_1" xmlns="http://www.w3.org/2000/svg" xmlns:xlink="http://www.w3.org/1999/xlink" x="0px" y="0px"
	 width="272px" height="144px" viewBox="517.5 89.5 272 144" enable-background="new 517.5 89.5 272 144" xml:space="preserve">
<g>
	<path fill="#FFFFFF" d="M698.234,170.152c-0.7-3.209-1.546-6.351-2.511-9.334c-0.188-0.579-0.83-0.983-1.561-0.983
		c-0.139,0-0.277,0.016-0.416,0.045c-0.865,0.188-1.381,0.91-1.153,1.612c0.944,2.919,1.768,5.989,2.448,9.125
		c0.156,0.707,0.998,1.199,1.881,1.07C697.802,171.561,698.39,170.871,698.234,170.152 M778.542,204.213
		c-0.353,0.752-1.215,1.236-2.196,1.236c-1.51,0-2.738-1.092-3.311-2.895c-9.278-6.598-21.129-10.225-33.448-10.225
		c-13.223,0-25.771,4.154-35.33,11.697l-3.912,3.088l0.266-4.438c0.15-2.527,0.224-4.975,0.224-7.479
		c0-1.389-0.024-2.871-0.073-4.404c-0.024-0.717-0.734-1.281-1.614-1.281c-0.486,0.012-0.887,0.156-1.184,0.412
		c-0.297,0.256-0.452,0.592-0.439,0.945c0.049,1.412,0.074,2.869,0.074,4.328c0,3.271-0.128,6.521-0.378,9.664l-0.329,4.119
		l-3.411-3.049c-9.672-8.646-23.34-13.605-37.499-13.605c-14.612,0-28.563,5.211-38.277,14.299l-3.432,3.211l-0.34-4.252
		c-0.215-2.701-0.324-5.527-0.324-8.398c-0.019-12.594,2.167-36.781,17.003-57.268c0.219-0.302,0.28-0.657,0.171-1
		c-0.108-0.34-0.373-0.625-0.744-0.803c-0.775-0.373-1.778-0.145-2.218,0.463c-14.385,19.963-17.431,42.889-17.452,58.607
		c0.001,1.973,0.053,3.902,0.159,5.896l0.238,4.484l-3.906-3.162c-9.622-7.789-22.318-12.078-35.747-12.078
		c-12.812,0-25.015,3.895-34.441,10.977c-0.562,1.918-1.784,3.039-3.351,3.041h-0.001c-0.965,0-1.821-0.477-2.181-1.211
		c-0.502-1.029,0.032-2.258,1.548-3.572l0.009-0.031c9.52-44.997,54.967-79.274,110.77-83.445l6.42-0.48l-4.908,3.627
		c-1.344,0.991-2.611,1.929-3.783,2.921c-0.619,0.525-0.6,1.363,0.043,1.871c0.616,0.484,1.689,0.47,2.288-0.037
		c3.238-2.743,6.97-5.383,11.093-7.844l1.207-0.722l1.25,0.672c14.894,8.01,25.881,20.04,32.659,35.758
		c0.287,0.67,1.227,1.047,2.062,0.808c0.843-0.24,1.285-0.997,0.989-1.686c-5.538-12.885-13.984-23.494-25.104-31.533l-5.12-3.702
		l6.797,0.643c26.734,2.533,51.229,11.87,70.839,27.005c19.359,14.941,32.067,34.062,36.783,55.33l0.009,0.033
		C778.466,201.986,779.017,203.201,778.542,204.213 M781.859,211.02c-4.874-53.144-57.874-94.363-123.284-95.88l-2.092-0.049V99.568
		c0-0.728-0.728-1.32-1.62-1.32c-0.894,0-1.621,0.592-1.621,1.32v15.527l-2.09,0.05c-66.144,1.589-119.145,43.344-123.286,97.125
		c-0.046,0.602,0.411,1.148,1.112,1.336c0.685,0.18,1.479-0.049,1.869-0.547c8.84-11.324,23.892-18.086,40.263-18.086
		c16.353,0,31.396,6.766,40.238,18.102c0.295,0.379,0.816,0.615,1.364,0.615h1.66c0.546,0,1.069-0.236,1.366-0.615
		c7.851-10.062,20.651-16.562,35.119-17.832l2.384-0.211v33.359h3.241v-33.385l2.279,0.109c15.258,0.725,29.268,7.438,37.475,17.959
		c0.26,0.332,0.739,0.547,1.283,0.572l0.241,0.021c0.1-0.02,0.215-0.037,0.342-0.049c0.189-0.016,0.335-0.045,0.479-0.098
		l0.244-0.086c0.164-0.084,0.319-0.201,0.439-0.342c0.066-0.078,0.137-0.146,0.205-0.205c8.864-11.229,23.839-17.92,40.115-17.92
		c15.689,0,30.392,6.314,39.327,16.891c0.409,0.482,1.187,0.695,1.872,0.498C781.481,212.158,781.914,211.619,781.859,211.02"/>
</g>
</svg>
