<?xml version="1.0" encoding="utf-8"?>
<!-- Generator: Adobe Illustrator 15.0.2, SVG Export Plug-In . SVG Version: 6.00 Build 0)  -->
<!DOCTYPE svg PUBLIC "-//W3C//DTD SVG 1.1//EN" "http://www.w3.org/Graphics/SVG/1.1/DTD/svg11.dtd">
<svg version="1.1" id="Layer_1" xmlns="http://www.w3.org/2000/svg" xmlns:xlink="http://www.w3.org/1999/xlink" x="0px" y="0px"
	 width="133.5px" height="132.75px" viewBox="-76.5 -21.75 133.5 132.75" enable-background="new -76.5 -21.75 133.5 132.75"
	 xml:space="preserve">
<g>
	<g>
		<path fill="#212929" d="M-9.196,109.464h-1.119C-45.982,109.464-75,80.446-75,44.778s29.018-64.686,64.686-64.686h1.119V109.464z
			 M-28.644,76.654c3.612,17.268,10.006,29.345,17.211,30.484V-17.582c-7.205,1.14-13.599,13.217-17.211,30.484h12.177v2.237
			h-12.624c-1.632,8.565-2.592,18.291-2.658,28.521h15.282v2.236h-15.282c0.065,10.23,1.026,19.956,2.658,28.521h12.624v2.236
			H-28.644z M-48.134,76.654c6.471,15.41,17.483,26.555,30.394,29.683c-5.717-4.994-10.422-15.657-13.272-29.683H-48.134z
			 M-64,76.654c8.05,13.505,21.046,23.732,36.473,28.161c-9.747-5.49-17.859-15.498-23.005-28.161H-64z M-49.03,74.418h17.584
			c-1.574-8.526-2.479-18.193-2.54-28.521h-20.315C-54.173,56.199-52.278,65.902-49.03,74.418z M-65.271,74.418H-51.4
			c-3.172-8.573-5.013-18.261-5.138-28.521h-16.215C-72.571,56.199-69.882,65.902-65.271,74.418z M-54.301,43.66h20.315
			c0.061-10.328,0.966-19.995,2.54-28.521H-49.03C-52.278,23.654-54.173,33.358-54.301,43.66z M-72.753,43.66h16.215
			c0.125-10.261,1.966-19.948,5.138-28.521h-13.871C-69.882,23.654-72.571,33.358-72.753,43.66z M-48.134,12.902h17.122
			c2.85-14.024,7.555-24.688,13.272-29.683C-30.651-13.652-41.664-2.508-48.134,12.902z M-64,12.902h13.467
			c5.146-12.662,13.259-22.67,23.005-28.161C-42.953-10.831-55.95-0.602-64,12.902z"/>
	</g>
	<g>
		<path fill="#FF7800" d="M-2.957,109.75l-0.175-2.23c3.449-0.271,5.965-0.976,9.152-1.868l0.619-0.172l0.55-8.693l0.715-0.238
			c0.988-0.329,1.96-0.683,2.889-1.052l0.702-0.278l6.005,6.302c3.073-1.456,6.041-3.174,8.842-5.116l-2.458-8.353l0.59-0.469
			c0.856-0.681,1.625-1.325,2.352-1.971l0.564-0.502l7.802,3.872c2.385-2.412,4.589-5.038,6.567-7.824l-5.162-7.004l0.396-0.643
			c0.592-0.96,1.098-1.83,1.546-2.661l0.358-0.664l8.654,0.968c1.425-3.094,2.598-6.312,3.494-9.588l-7.251-4.821l0.151-0.738
			c0.194-0.947,0.364-1.938,0.521-3.031l0.107-0.75l8.461-2.049c0.144-1.742,0.217-3.456,0.217-5.107
			c0-1.652-0.073-3.366-0.217-5.107l-8.461-2.051l-0.107-0.75c-0.156-1.092-0.327-2.083-0.521-3.03l-0.151-0.738l7.251-4.822
			c-0.896-3.275-2.069-6.494-3.494-9.587l-8.654,0.968l-0.358-0.664c-0.451-0.836-0.957-1.707-1.546-2.662l-0.396-0.643l5.162-7.003
			c-1.976-2.783-4.18-5.41-6.568-7.825L27.39,5.027l-0.564-0.502c-0.723-0.644-1.492-1.289-2.351-1.972l-0.59-0.469l2.458-8.351
			c-2.795-1.939-5.763-3.657-8.842-5.116l-6.005,6.299L10.794-5.36C9.85-5.734,8.878-6.087,7.906-6.409L7.189-6.646l-0.55-8.697
			l-0.605-0.168c-3.191-0.893-5.712-1.599-9.166-1.872l0.177-2.23c3.671,0.291,6.415,1.059,9.592,1.948l2.134,0.592L9.326-8.29
			c0.532,0.184,1.062,0.376,1.586,0.576l6.073-6.371l0.725,0.333c3.707,1.699,7.267,3.758,10.581,6.122l0.648,0.462l-2.485,8.443
			c0.45,0.366,0.877,0.724,1.289,1.079l7.888-3.915L36.199-1c2.892,2.851,5.536,6,7.858,9.361l0.453,0.657l-5.218,7.08
			c0.304,0.506,0.587,0.991,0.852,1.464l8.749-0.979l0.343,0.719c1.753,3.681,3.16,7.542,4.182,11.475l0.2,0.771l-7.333,4.876
			c0.102,0.537,0.196,1.09,0.286,1.668l8.549,2.072l0.074,0.794c0.196,2.083,0.296,4.138,0.296,6.11c0,1.971-0.1,4.026-0.296,6.11
			l-0.074,0.795l-8.549,2.07c-0.09,0.578-0.185,1.132-0.286,1.669l7.333,4.875l-0.2,0.771c-1.021,3.935-2.429,7.795-4.182,11.476
			l-0.343,0.719l-8.749-0.979c-0.264,0.472-0.546,0.956-0.852,1.463l5.218,7.082l-0.453,0.656c-2.325,3.364-4.969,6.514-7.858,9.36
			l-0.568,0.56l-7.887-3.914c-0.412,0.355-0.839,0.713-1.289,1.078l2.485,8.444l-0.648,0.463c-3.322,2.367-6.882,4.427-10.581,6.121
			l-0.725,0.332l-6.073-6.371c-0.52,0.198-1.05,0.392-1.586,0.577l-0.556,8.783l-2.147,0.596
			C3.45,108.694,0.709,109.462-2.957,109.75z M-9.197,89.248v-2.236c23.128,0,41.943-18.815,41.943-41.943
			c0-23.127-18.815-41.943-41.943-41.943V0.888c24.361,0,44.181,19.819,44.181,44.18C34.984,69.43,15.165,89.248-9.197,89.248z
			 M-2.836,76.925l-0.416-2.197c1.73-0.328,3.235-1.111,4.829-1.941c0.391-0.204,0.784-0.408,1.182-0.607l-0.187-6.8l0.548-0.338
			c1.05-0.649,2.021-1.351,2.884-2.084l0.491-0.417l6.378,2.269c1.364-1.519,2.552-3.138,3.543-4.829l-4.139-5.379l0.245-0.596
			c0.423-1.031,0.788-2.173,1.084-3.395l0.152-0.627l6.511-1.919c0.119-1.097,0.175-2.063,0.175-2.996
			c0-0.934-0.056-1.9-0.175-2.996l-6.511-1.919l-0.152-0.627c-0.296-1.222-0.661-2.364-1.084-3.394l-0.245-0.596l4.139-5.379
			c-0.99-1.69-2.179-3.309-3.543-4.829l-6.378,2.269L6.003,27.18c-0.866-0.736-1.836-1.437-2.884-2.085l-0.548-0.338l0.187-6.799
			c-0.397-0.199-0.788-0.402-1.178-0.605c-1.595-0.831-3.102-1.615-4.833-1.943l0.417-2.198c2.056,0.39,3.781,1.289,5.45,2.158
			c0.579,0.301,1.161,0.605,1.76,0.888l0.661,0.312l-0.191,6.971c0.743,0.484,1.449,0.993,2.107,1.521l6.559-2.333l0.501,0.533
			c1.875,1.995,3.465,4.165,4.725,6.45l0.354,0.642l-4.259,5.535c0.295,0.783,0.56,1.614,0.791,2.483l6.691,1.972l0.092,0.727
			c0.189,1.499,0.278,2.77,0.278,4c0,1.229-0.088,2.5-0.278,4.001l-0.092,0.726l-6.691,1.972c-0.231,0.869-0.496,1.7-0.791,2.483
			l4.259,5.535l-0.354,0.642c-1.261,2.286-2.851,4.457-4.725,6.45l-0.501,0.532L6.95,65.076c-0.657,0.527-1.362,1.036-2.107,1.521
			l0.191,6.972l-0.661,0.312c-0.601,0.283-1.184,0.587-1.764,0.89C0.942,75.639-0.782,76.536-2.836,76.925z M-9.197,60.54v-2.236
			c7.298,0,13.235-5.938,13.235-13.235c0-7.298-5.938-13.236-13.235-13.236v-2.237c8.532,0,15.473,6.941,15.473,15.473
			C6.276,53.6-0.665,60.54-9.197,60.54z"/>
	</g>
</g>
</svg>
