<?xml version="1.0" encoding="utf-8"?>
<!-- Generator: Adobe Illustrator 15.0.2, SVG Export Plug-In . SVG Version: 6.00 Build 0)  -->
<!DOCTYPE svg PUBLIC "-//W3C//DTD SVG 1.1//EN" "http://www.w3.org/Graphics/SVG/1.1/DTD/svg11.dtd">
<svg version="1.1" id="Layer_1" xmlns="http://www.w3.org/2000/svg" xmlns:xlink="http://www.w3.org/1999/xlink" x="0px" y="0px"
	 width="1578px" height="330px" viewBox="-725.333 -108.5 1578 330" enable-background="new -725.333 -108.5 1578 330"
	 xml:space="preserve">
<rect x="663.656" y="-44.472" fill="#FF05A1" width="5.071" height="10.143"/>
<rect x="602.804" y="-14.045" fill="#FF05A1" width="5.071" height="20.283"/>
<rect x="633.229" y="-2.417" fill="#FF05A1" width="5.071" height="10.143"/>
<rect x="643.372" y="-22.7" fill="#FF05A1" width="5.071" height="20.284"/>
<rect x="653.514" y="-14.045" fill="#FF05A1" width="5.07" height="10.142"/>
<rect x="673.797" y="-64.755" fill="#FF05A1" width="5.071" height="20.283"/>
<rect x="633.229" y="-44.472" fill="#FF05A1" width="5.071" height="20.284"/>
<rect x="612.946" y="-34.329" fill="#FF05A1" width="5.07" height="10.142"/>
<rect x="612.946" y="-14.045" fill="#FF05A1" width="5.07" height="10.142"/>
<rect x="592.663" y="-24.188" fill="#FF05A1" width="5.07" height="10.143"/>
<rect x="592.663" y="-3.903" fill="#FF05A1" width="5.07" height="10.142"/>
<rect x="653.514" y="-44.472" fill="#FF05A1" width="5.07" height="10.143"/>
<rect x="663.656" y="-64.755" fill="#FF05A1" width="5.071" height="10.142"/>
<rect x="663.656" y="-24.188" fill="#FF05A1" width="5.071" height="40.568"/>
<rect x="683.94" y="-24.188" fill="#FF05A1" width="5.069" height="10.143"/>
<rect x="683.94" y="-54.613" fill="#FF05A1" width="5.069" height="20.284"/>
<rect x="683.94" y="-74.897" fill="#FF05A1" width="5.069" height="10.143"/>
<rect x="663.656" y="-74.897" fill="#FF05A1" width="5.071" height="10.143"/>
<rect x="643.372" y="-81.2" fill="#FF05A1" width="5.071" height="10.143"/>
<rect x="623.088" y="-64.755" fill="#FF05A1" width="5.07" height="20.283"/>
<rect x="643.372" y="-54.613" fill="#FF05A1" width="5.071" height="10.142"/>
<rect x="592.663" y="-64.755" fill="#FF05A1" width="5.07" height="20.283"/>
<rect x="602.804" y="-74.897" fill="#FF05A1" width="5.071" height="10.143"/>
<rect x="694.082" y="-34.329" fill="#FF05A1" width="5.071" height="20.284"/>
<rect x="704.223" y="-21.324" fill="#FF05A1" width="5.071" height="20.283"/>
<rect x="704.223" y="-69.083" fill="#FF05A1" width="5.071" height="40.568"/>
<rect x="754.933" y="11.42" fill="#FF05A1" width="5.071" height="10.143"/>
<rect x="754.933" y="-44.472" fill="#FF05A1" width="5.071" height="20.284"/>
<rect x="744.792" y="-27.627" fill="#FF05A1" width="5.07" height="20.283"/>
<rect x="734.649" y="-14.045" fill="#FF05A1" width="5.07" height="10.142"/>
<rect x="714.366" y="-3.903" fill="#FF05A1" width="5.069" height="10.142"/>
<rect x="724.507" y="-54.613" fill="#FF05A1" width="5.071" height="20.284"/>
<rect x="744.792" y="-91.341" fill="#FF05A1" width="5.07" height="20.283"/>
<rect x="734.649" y="-74.897" fill="#FF05A1" width="5.07" height="10.143"/>
<rect x="714.366" y="-64.755" fill="#FF05A1" width="5.069" height="20.283"/>
<rect x="724.507" y="-81.2" fill="#FF05A1" width="5.071" height="10.143"/>
<rect x="835.595" y="-46.391" fill="#FF05A1" width="5.071" height="10.143"/>
<rect x="774.744" y="-8.719" fill="#FF05A1" width="5.071" height="20.283"/>
<rect x="805.169" y="-5.568" fill="#FF05A1" width="5.071" height="10.143"/>
<rect x="815.311" y="3.887" fill="#FF05A1" width="5.071" height="20.284"/>
<rect x="825.454" y="-15.964" fill="#FF05A1" width="5.07" height="10.142"/>
<rect x="815.311" y="-36.248" fill="#FF05A1" width="5.071" height="20.284"/>
<rect x="805.169" y="-46.391" fill="#FF05A1" width="5.071" height="20.284"/>
<rect x="784.885" y="-36.248" fill="#FF05A1" width="5.071" height="10.142"/>
<rect x="795.028" y="-22.7" fill="#FF05A1" width="5.069" height="20.283"/>
<rect x="784.885" y="-15.964" fill="#FF05A1" width="5.071" height="10.142"/>
<rect x="764.602" y="-37.081" fill="#FF05A1" width="5.07" height="10.143"/>
<rect x="764.602" y="-16.797" fill="#FF05A1" width="5.07" height="10.142"/>
<rect x="825.454" y="-46.391" fill="#FF05A1" width="5.07" height="10.143"/>
<rect x="835.595" y="-66.674" fill="#FF05A1" width="5.071" height="10.142"/>
<rect x="835.595" y="-21.324" fill="#FF05A1" width="5.071" height="40.568"/>
<rect x="835.595" y="-76.816" fill="#FF05A1" width="5.071" height="10.143"/>
<rect x="815.311" y="-59.82" fill="#FF05A1" width="5.071" height="10.143"/>
<rect x="795.028" y="-81.199" fill="#FF05A1" width="5.069" height="20.283"/>
<rect x="784.885" y="-59.82" fill="#FF05A1" width="5.071" height="10.143"/>
<rect x="774.744" y="-62.292" fill="#FF05A1" width="5.071" height="10.143"/>
<rect x="400.661" y="-44.472" fill="#FF05A1" width="5.071" height="10.143"/>
<rect x="339.809" y="-14.045" fill="#FF05A1" width="5.071" height="20.283"/>
<rect x="370.235" y="-2.417" fill="#FF05A1" width="5.07" height="10.143"/>
<rect x="380.376" y="-22.7" fill="#FF05A1" width="5.071" height="20.284"/>
<rect x="390.52" y="-14.045" fill="#FF05A1" width="5.069" height="10.142"/>
<rect x="410.802" y="-64.755" fill="#FF05A1" width="5.071" height="20.283"/>
<rect x="370.235" y="-44.472" fill="#FF05A1" width="5.07" height="20.284"/>
<rect x="349.951" y="-34.329" fill="#FF05A1" width="5.071" height="10.142"/>
<rect x="349.951" y="-14.045" fill="#FF05A1" width="5.071" height="10.142"/>
<rect x="329.667" y="-24.188" fill="#FF05A1" width="5.07" height="10.143"/>
<rect x="329.667" y="-3.903" fill="#FF05A1" width="5.07" height="10.142"/>
<rect x="390.52" y="-44.472" fill="#FF05A1" width="5.069" height="10.143"/>
<rect x="400.661" y="-64.755" fill="#FF05A1" width="5.071" height="10.142"/>
<rect x="400.661" y="-24.188" fill="#FF05A1" width="5.071" height="40.568"/>
<rect x="420.945" y="-24.188" fill="#FF05A1" width="5.069" height="10.143"/>
<rect x="420.945" y="-54.613" fill="#FF05A1" width="5.069" height="20.284"/>
<rect x="420.945" y="-74.897" fill="#FF05A1" width="5.069" height="10.143"/>
<rect x="400.661" y="-74.897" fill="#FF05A1" width="5.071" height="10.143"/>
<rect x="380.376" y="-81.2" fill="#FF05A1" width="5.071" height="10.143"/>
<rect x="360.093" y="-64.755" fill="#FF05A1" width="5.07" height="20.283"/>
<rect x="380.376" y="-54.613" fill="#FF05A1" width="5.071" height="10.142"/>
<rect x="329.667" y="-64.755" fill="#FF05A1" width="5.07" height="20.283"/>
<rect x="339.809" y="-74.897" fill="#FF05A1" width="5.071" height="10.143"/>
<rect x="431.086" y="-34.329" fill="#FF05A1" width="5.071" height="20.284"/>
<rect x="441.229" y="-21.324" fill="#FF05A1" width="5.07" height="20.283"/>
<rect x="441.229" y="-69.083" fill="#FF05A1" width="5.07" height="40.568"/>
<rect x="491.938" y="11.42" fill="#FF05A1" width="5.07" height="10.143"/>
<rect x="491.938" y="-44.472" fill="#FF05A1" width="5.07" height="20.284"/>
<rect x="481.796" y="-27.627" fill="#FF05A1" width="5.07" height="20.283"/>
<rect x="471.654" y="-14.045" fill="#FF05A1" width="5.071" height="10.142"/>
<rect x="451.371" y="-3.903" fill="#FF05A1" width="5.069" height="10.142"/>
<rect x="461.512" y="-54.613" fill="#FF05A1" width="5.071" height="20.284"/>
<rect x="481.796" y="-91.341" fill="#FF05A1" width="5.07" height="20.283"/>
<rect x="471.654" y="-74.897" fill="#FF05A1" width="5.071" height="10.143"/>
<rect x="451.371" y="-64.755" fill="#FF05A1" width="5.069" height="20.283"/>
<rect x="461.512" y="-81.2" fill="#FF05A1" width="5.071" height="10.143"/>
<rect x="572.6" y="-46.391" fill="#FF05A1" width="5.071" height="10.143"/>
<rect x="511.749" y="-8.719" fill="#FF05A1" width="5.071" height="20.283"/>
<rect x="542.174" y="-5.568" fill="#FF05A1" width="5.071" height="10.143"/>
<rect x="552.316" y="3.887" fill="#FF05A1" width="5.07" height="20.284"/>
<rect x="562.458" y="-15.964" fill="#FF05A1" width="5.07" height="10.142"/>
<rect x="552.316" y="-36.248" fill="#FF05A1" width="5.07" height="20.284"/>
<rect x="542.174" y="-46.391" fill="#FF05A1" width="5.071" height="20.284"/>
<rect x="521.89" y="-36.248" fill="#FF05A1" width="5.071" height="10.142"/>
<rect x="532.033" y="-22.7" fill="#FF05A1" width="5.069" height="20.283"/>
<rect x="521.89" y="-15.964" fill="#FF05A1" width="5.071" height="10.142"/>
<rect x="501.606" y="-37.081" fill="#FF05A1" width="5.07" height="10.143"/>
<rect x="501.606" y="-16.797" fill="#FF05A1" width="5.07" height="10.142"/>
<rect x="562.458" y="-46.391" fill="#FF05A1" width="5.07" height="10.143"/>
<rect x="572.6" y="-66.674" fill="#FF05A1" width="5.071" height="10.142"/>
<rect x="572.6" y="-21.324" fill="#FF05A1" width="5.071" height="40.568"/>
<rect x="572.6" y="-76.816" fill="#FF05A1" width="5.071" height="10.143"/>
<rect x="552.316" y="-59.82" fill="#FF05A1" width="5.07" height="10.143"/>
<rect x="532.033" y="-81.199" fill="#FF05A1" width="5.069" height="20.283"/>
<rect x="521.89" y="-59.82" fill="#FF05A1" width="5.071" height="10.143"/>
<rect x="511.749" y="-62.292" fill="#FF05A1" width="5.071" height="10.143"/>
<rect x="146.656" y="-44.472" fill="#FF05A1" width="5.07" height="10.143"/>
<rect x="85.804" y="-14.045" fill="#FF05A1" width="5.071" height="20.283"/>
<rect x="116.229" y="-2.417" fill="#FF05A1" width="5.071" height="10.143"/>
<rect x="126.372" y="-22.7" fill="#FF05A1" width="5.071" height="20.284"/>
<rect x="136.514" y="-14.045" fill="#FF05A1" width="5.07" height="10.142"/>
<rect x="156.797" y="-64.755" fill="#FF05A1" width="5.071" height="20.283"/>
<rect x="116.229" y="-44.472" fill="#FF05A1" width="5.071" height="20.284"/>
<rect x="95.946" y="-34.329" fill="#FF05A1" width="5.07" height="10.142"/>
<rect x="95.946" y="-14.045" fill="#FF05A1" width="5.07" height="10.142"/>
<rect x="75.663" y="-24.188" fill="#FF05A1" width="5.07" height="10.143"/>
<rect x="75.663" y="-3.903" fill="#FF05A1" width="5.07" height="10.142"/>
<rect x="136.514" y="-44.472" fill="#FF05A1" width="5.07" height="10.143"/>
<rect x="146.656" y="-64.755" fill="#FF05A1" width="5.07" height="10.142"/>
<rect x="146.656" y="-24.188" fill="#FF05A1" width="5.07" height="40.568"/>
<rect x="166.94" y="-24.188" fill="#FF05A1" width="5.069" height="10.143"/>
<rect x="166.94" y="-54.613" fill="#FF05A1" width="5.069" height="20.284"/>
<rect x="166.94" y="-74.897" fill="#FF05A1" width="5.069" height="10.143"/>
<rect x="146.656" y="-74.897" fill="#FF05A1" width="5.07" height="10.143"/>
<rect x="126.372" y="-81.2" fill="#FF05A1" width="5.071" height="10.143"/>
<rect x="106.088" y="-64.755" fill="#FF05A1" width="5.07" height="20.283"/>
<rect x="126.372" y="-54.613" fill="#FF05A1" width="5.071" height="10.142"/>
<rect x="75.663" y="-64.755" fill="#FF05A1" width="5.07" height="20.283"/>
<rect x="85.804" y="-74.897" fill="#FF05A1" width="5.071" height="10.143"/>
<rect x="177.082" y="-34.329" fill="#FF05A1" width="5.071" height="20.284"/>
<rect x="187.223" y="-21.324" fill="#FF05A1" width="5.071" height="20.283"/>
<rect x="187.223" y="-69.083" fill="#FF05A1" width="5.071" height="40.568"/>
<rect x="237.933" y="11.42" fill="#FF05A1" width="5.071" height="10.143"/>
<rect x="237.933" y="-44.472" fill="#FF05A1" width="5.071" height="20.284"/>
<rect x="227.792" y="-27.627" fill="#FF05A1" width="5.07" height="20.283"/>
<rect x="217.649" y="-14.045" fill="#FF05A1" width="5.07" height="10.142"/>
<rect x="197.366" y="-3.903" fill="#FF05A1" width="5.069" height="10.142"/>
<rect x="207.507" y="-54.613" fill="#FF05A1" width="5.071" height="20.284"/>
<rect x="227.792" y="-91.341" fill="#FF05A1" width="5.07" height="20.283"/>
<rect x="217.649" y="-74.897" fill="#FF05A1" width="5.07" height="10.143"/>
<rect x="197.366" y="-64.755" fill="#FF05A1" width="5.069" height="20.283"/>
<rect x="207.507" y="-81.2" fill="#FF05A1" width="5.071" height="10.143"/>
<rect x="318.595" y="-46.391" fill="#FF05A1" width="5.071" height="10.143"/>
<rect x="257.744" y="-8.719" fill="#FF05A1" width="5.071" height="20.283"/>
<rect x="288.169" y="-5.568" fill="#FF05A1" width="5.071" height="10.143"/>
<rect x="298.311" y="3.887" fill="#FF05A1" width="5.071" height="20.284"/>
<rect x="308.454" y="-15.964" fill="#FF05A1" width="5.07" height="10.142"/>
<rect x="298.311" y="-36.248" fill="#FF05A1" width="5.071" height="20.284"/>
<rect x="288.169" y="-46.391" fill="#FF05A1" width="5.071" height="20.284"/>
<rect x="267.885" y="-36.248" fill="#FF05A1" width="5.071" height="10.142"/>
<rect x="278.028" y="-22.7" fill="#FF05A1" width="5.069" height="20.283"/>
<rect x="267.885" y="-15.964" fill="#FF05A1" width="5.071" height="10.142"/>
<rect x="247.602" y="-37.081" fill="#FF05A1" width="5.07" height="10.143"/>
<rect x="247.602" y="-16.797" fill="#FF05A1" width="5.07" height="10.142"/>
<rect x="308.454" y="-46.391" fill="#FF05A1" width="5.07" height="10.143"/>
<rect x="318.595" y="-66.674" fill="#FF05A1" width="5.071" height="10.142"/>
<rect x="318.595" y="-21.324" fill="#FF05A1" width="5.071" height="40.568"/>
<rect x="318.595" y="-76.816" fill="#FF05A1" width="5.071" height="10.143"/>
<rect x="298.311" y="-59.82" fill="#FF05A1" width="5.071" height="10.143"/>
<rect x="278.028" y="-81.199" fill="#FF05A1" width="5.069" height="20.283"/>
<rect x="267.885" y="-59.82" fill="#FF05A1" width="5.071" height="10.143"/>
<rect x="257.744" y="-62.292" fill="#FF05A1" width="5.071" height="10.143"/>
<rect x="-116.339" y="-38.657" fill="#FF05A1" width="5.071" height="10.143"/>
<rect x="-177.191" y="-14.045" fill="#FF05A1" width="5.071" height="20.283"/>
<rect x="-126.48" y="-16.518" fill="#FF05A1" width="5.069" height="10.142"/>
<rect x="-106.198" y="-64.755" fill="#FF05A1" width="5.071" height="20.283"/>
<rect x="-146.765" y="-2.472" fill="#FF05A1" width="5.07" height="20.284"/>
<rect x="-167.049" y="-34.329" fill="#FF05A1" width="5.071" height="10.142"/>
<rect x="-167.049" y="-14.045" fill="#FF05A1" width="5.071" height="10.142"/>
<rect x="-187.333" y="-24.188" fill="#FF05A1" width="5.07" height="10.143"/>
<rect x="-187.333" y="-3.903" fill="#FF05A1" width="5.07" height="10.142"/>
<rect x="-126.48" y="-44.472" fill="#FF05A1" width="5.069" height="10.143"/>
<rect x="-116.339" y="-64.755" fill="#FF05A1" width="5.071" height="10.142"/>
<rect x="-96.055" y="-54.613" fill="#FF05A1" width="5.069" height="20.284"/>
<rect x="-96.055" y="-74.897" fill="#FF05A1" width="5.069" height="10.143"/>
<rect x="-116.339" y="-74.897" fill="#FF05A1" width="5.071" height="10.143"/>
<rect x="-136.624" y="-81.2" fill="#FF05A1" width="5.071" height="10.143"/>
<rect x="-156.907" y="-64.755" fill="#FF05A1" width="5.07" height="20.283"/>
<rect x="-136.624" y="-54.613" fill="#FF05A1" width="5.071" height="10.142"/>
<rect x="-187.333" y="-64.755" fill="#FF05A1" width="5.07" height="20.283"/>
<rect x="-177.191" y="-74.897" fill="#FF05A1" width="5.071" height="10.143"/>
<rect x="-85.914" y="-30.149" fill="#FF05A1" width="5.071" height="20.284"/>
<rect x="-75.771" y="-60.718" fill="#FF05A1" width="5.07" height="40.568"/>
<polygon fill="#FF05A1" points="-25.062,-32.883 -25.062,-53.167 -19.991,-53.167 -19.991,-32.802 "/>
<rect x="-55.488" y="-43.728" fill="#FF05A1" width="5.071" height="20.284"/>
<rect x="-35.204" y="-91.341" fill="#FF05A1" width="5.07" height="20.283"/>
<rect x="-45.346" y="-74.897" fill="#FF05A1" width="5.07" height="10.143"/>
<rect x="-65.629" y="-64.755" fill="#FF05A1" width="5.07" height="20.283"/>
<rect x="-55.488" y="-81.2" fill="#FF05A1" width="5.071" height="10.143"/>
<rect x="55.6" y="-46.391" fill="#FF05A1" width="5.071" height="10.143"/>
<rect x="25.174" y="5.766" fill="#FF05A1" width="5.071" height="10.143"/>
<rect x="35.316" y="-2.604" fill="#FF05A1" width="5.07" height="20.284"/>
<rect x="45.458" y="-15.964" fill="#FF05A1" width="5.07" height="10.142"/>
<rect x="35.316" y="-36.248" fill="#FF05A1" width="5.07" height="20.284"/>
<rect x="25.174" y="-46.391" fill="#FF05A1" width="5.071" height="20.284"/>
<rect x="4.89" y="-36.248" fill="#FF05A1" width="5.071" height="10.142"/>
<rect x="15.033" y="-22.7" fill="#FF05A1" width="5.069" height="20.283"/>
<rect x="4.89" y="-15.964" fill="#FF05A1" width="5.071" height="10.142"/>
<rect x="-15.393" y="-30.292" fill="#FF05A1" width="5.069" height="10.143"/>
<rect x="45.458" y="-46.391" fill="#FF05A1" width="5.07" height="10.143"/>
<rect x="55.6" y="-66.674" fill="#FF05A1" width="5.071" height="10.142"/>
<rect x="55.6" y="-31.324" fill="#FF05A1" width="5.071" height="40.568"/>
<rect x="55.6" y="-76.816" fill="#FF05A1" width="5.071" height="10.143"/>
<rect x="35.316" y="-59.82" fill="#FF05A1" width="5.07" height="10.143"/>
<rect x="15.033" y="-81.199" fill="#FF05A1" width="5.069" height="20.283"/>
<rect x="4.89" y="-59.82" fill="#FF05A1" width="5.071" height="10.143"/>
<rect x="-5.251" y="-44.573" fill="#FF05A1" width="5.071" height="10.143"/>
<rect x="-35.204" y="-45.518" fill="#FF05A1" width="5.07" height="20.283"/>
<rect x="-375.343" y="-50.388" fill="#FF05A1" width="5.07" height="10.143"/>
<rect x="-436.195" y="-19.961" fill="#FF05A1" width="5.071" height="20.283"/>
<rect x="-405.769" y="-8.334" fill="#FF05A1" width="5.07" height="10.143"/>
<rect x="-395.627" y="-28.616" fill="#FF05A1" width="5.071" height="20.284"/>
<rect x="-385.485" y="-19.961" fill="#FF05A1" width="5.07" height="10.142"/>
<rect x="-365.202" y="-70.671" fill="#FF05A1" width="5.071" height="20.283"/>
<rect x="-405.769" y="-50.388" fill="#FF05A1" width="5.07" height="20.284"/>
<rect x="-426.053" y="-40.245" fill="#FF05A1" width="5.07" height="10.142"/>
<rect x="-426.053" y="-19.961" fill="#FF05A1" width="5.07" height="10.142"/>
<rect x="-446.336" y="-30.104" fill="#FF05A1" width="5.07" height="10.143"/>
<rect x="-446.336" y="-9.819" fill="#FF05A1" width="5.07" height="10.142"/>
<rect x="-385.485" y="-50.388" fill="#FF05A1" width="5.07" height="10.143"/>
<rect x="-375.343" y="-70.671" fill="#FF05A1" width="5.07" height="10.142"/>
<rect x="-375.343" y="-30.104" fill="#FF05A1" width="5.07" height="40.568"/>
<rect x="-355.059" y="-30.104" fill="#FF05A1" width="5.069" height="10.143"/>
<rect x="-355.059" y="-60.529" fill="#FF05A1" width="5.069" height="20.284"/>
<rect x="-355.059" y="-80.813" fill="#FF05A1" width="5.069" height="10.143"/>
<rect x="-375.343" y="-80.813" fill="#FF05A1" width="5.07" height="10.143"/>
<rect x="-395.627" y="-87.116" fill="#FF05A1" width="5.071" height="10.143"/>
<rect x="-415.911" y="-70.671" fill="#FF05A1" width="5.07" height="20.283"/>
<rect x="-395.627" y="-60.529" fill="#FF05A1" width="5.071" height="10.142"/>
<rect x="-446.336" y="-70.671" fill="#FF05A1" width="5.07" height="20.283"/>
<rect x="-436.195" y="-80.813" fill="#FF05A1" width="5.071" height="10.143"/>
<rect x="-344.917" y="-40.245" fill="#FF05A1" width="5.071" height="20.284"/>
<rect x="-334.776" y="-27.24" fill="#FF05A1" width="5.071" height="20.283"/>
<rect x="-334.776" y="-74.999" fill="#FF05A1" width="5.071" height="40.568"/>
<rect x="-284.066" y="5.504" fill="#FF05A1" width="5.071" height="10.143"/>
<rect x="-284.066" y="-50.388" fill="#FF05A1" width="5.071" height="20.284"/>
<rect x="-294.208" y="-33.543" fill="#FF05A1" width="5.07" height="20.283"/>
<rect x="-304.35" y="-19.961" fill="#FF05A1" width="5.07" height="10.142"/>
<rect x="-324.633" y="-9.819" fill="#FF05A1" width="5.069" height="10.142"/>
<rect x="-314.492" y="-60.529" fill="#FF05A1" width="5.071" height="20.284"/>
<rect x="-294.208" y="-97.257" fill="#FF05A1" width="5.07" height="20.283"/>
<rect x="-304.35" y="-80.813" fill="#FF05A1" width="5.07" height="10.143"/>
<rect x="-324.633" y="-70.671" fill="#FF05A1" width="5.069" height="20.283"/>
<rect x="-314.492" y="-87.116" fill="#FF05A1" width="5.071" height="10.143"/>
<rect x="-203.404" y="-52.308" fill="#FF05A1" width="5.071" height="10.143"/>
<rect x="-264.255" y="-14.635" fill="#FF05A1" width="5.071" height="20.283"/>
<rect x="-233.83" y="-11.484" fill="#FF05A1" width="5.071" height="10.143"/>
<rect x="-223.687" y="-2.03" fill="#FF05A1" width="5.07" height="20.284"/>
<rect x="-213.545" y="-21.881" fill="#FF05A1" width="5.07" height="10.142"/>
<rect x="-223.687" y="-42.165" fill="#FF05A1" width="5.07" height="20.284"/>
<rect x="-233.83" y="-52.308" fill="#FF05A1" width="5.071" height="20.284"/>
<rect x="-254.114" y="-42.165" fill="#FF05A1" width="5.071" height="10.142"/>
<rect x="-243.971" y="-28.617" fill="#FF05A1" width="5.069" height="20.283"/>
<rect x="-254.114" y="-21.881" fill="#FF05A1" width="5.071" height="10.142"/>
<rect x="-274.396" y="-42.998" fill="#FF05A1" width="5.069" height="10.143"/>
<rect x="-274.396" y="-22.714" fill="#FF05A1" width="5.069" height="10.142"/>
<rect x="-213.545" y="-52.308" fill="#FF05A1" width="5.07" height="10.143"/>
<rect x="-203.404" y="-72.591" fill="#FF05A1" width="5.071" height="10.142"/>
<rect x="-203.404" y="-27.24" fill="#FF05A1" width="5.071" height="40.568"/>
<rect x="-203.404" y="-82.733" fill="#FF05A1" width="5.071" height="10.143"/>
<rect x="-223.687" y="-65.737" fill="#FF05A1" width="5.07" height="10.143"/>
<rect x="-243.971" y="-87.116" fill="#FF05A1" width="5.069" height="20.283"/>
<rect x="-254.114" y="-65.737" fill="#FF05A1" width="5.071" height="10.143"/>
<rect x="-264.255" y="-68.208" fill="#FF05A1" width="5.071" height="10.143"/>
<rect x="-638.339" y="-50.388" fill="#FF05A1" width="5.071" height="10.143"/>
<rect x="-699.19" y="-19.961" fill="#FF05A1" width="5.071" height="20.283"/>
<rect x="-668.766" y="-8.334" fill="#FF05A1" width="5.071" height="10.143"/>
<rect x="-658.624" y="-28.616" fill="#FF05A1" width="5.071" height="20.284"/>
<rect x="-648.48" y="-19.961" fill="#FF05A1" width="5.07" height="10.142"/>
<rect x="-628.197" y="-70.671" fill="#FF05A1" width="5.071" height="20.283"/>
<rect x="-668.766" y="-50.388" fill="#FF05A1" width="5.071" height="20.284"/>
<rect x="-689.049" y="-40.245" fill="#FF05A1" width="5.071" height="10.142"/>
<rect x="-689.049" y="-19.961" fill="#FF05A1" width="5.071" height="10.142"/>
<rect x="-709.333" y="-30.104" fill="#FF05A1" width="5.07" height="10.143"/>
<rect x="-709.333" y="-9.819" fill="#FF05A1" width="5.07" height="10.142"/>
<rect x="-648.48" y="-50.388" fill="#FF05A1" width="5.07" height="10.143"/>
<rect x="-638.339" y="-70.671" fill="#FF05A1" width="5.071" height="10.142"/>
<rect x="-638.339" y="-30.104" fill="#FF05A1" width="5.071" height="40.568"/>
<rect x="-618.056" y="-30.104" fill="#FF05A1" width="5.07" height="10.143"/>
<rect x="-618.056" y="-60.529" fill="#FF05A1" width="5.07" height="20.284"/>
<rect x="-618.056" y="-80.813" fill="#FF05A1" width="5.07" height="10.143"/>
<rect x="-638.339" y="-80.813" fill="#FF05A1" width="5.071" height="10.143"/>
<rect x="-658.624" y="-87.116" fill="#FF05A1" width="5.071" height="10.143"/>
<rect x="-678.907" y="-70.671" fill="#FF05A1" width="5.07" height="20.283"/>
<rect x="-658.624" y="-60.529" fill="#FF05A1" width="5.071" height="10.142"/>
<rect x="-709.333" y="-70.671" fill="#FF05A1" width="5.07" height="20.283"/>
<rect x="-699.19" y="-80.813" fill="#FF05A1" width="5.071" height="10.143"/>
<rect x="-607.914" y="-40.245" fill="#FF05A1" width="5.071" height="20.284"/>
<rect x="-597.771" y="-27.24" fill="#FF05A1" width="5.071" height="20.283"/>
<rect x="-597.771" y="-74.999" fill="#FF05A1" width="5.071" height="40.568"/>
<rect x="-547.062" y="5.504" fill="#FF05A1" width="5.071" height="10.143"/>
<rect x="-547.062" y="-50.388" fill="#FF05A1" width="5.071" height="20.284"/>
<rect x="-557.204" y="-33.543" fill="#FF05A1" width="5.07" height="20.283"/>
<rect x="-567.347" y="-19.961" fill="#FF05A1" width="5.071" height="10.142"/>
<rect x="-587.629" y="-9.819" fill="#FF05A1" width="5.07" height="10.142"/>
<rect x="-577.487" y="-60.529" fill="#FF05A1" width="5.071" height="20.284"/>
<rect x="-557.204" y="-97.257" fill="#FF05A1" width="5.07" height="20.283"/>
<rect x="-567.347" y="-80.813" fill="#FF05A1" width="5.071" height="10.143"/>
<rect x="-587.629" y="-70.671" fill="#FF05A1" width="5.07" height="20.283"/>
<rect x="-577.487" y="-87.116" fill="#FF05A1" width="5.071" height="10.143"/>
<rect x="-466.4" y="-52.308" fill="#FF05A1" width="5.071" height="10.143"/>
<rect x="-527.251" y="-14.635" fill="#FF05A1" width="5.071" height="20.283"/>
<rect x="-496.826" y="-11.484" fill="#FF05A1" width="5.071" height="10.143"/>
<rect x="-486.684" y="-2.03" fill="#FF05A1" width="5.07" height="20.284"/>
<rect x="-476.542" y="-21.881" fill="#FF05A1" width="5.07" height="10.142"/>
<rect x="-486.684" y="-42.165" fill="#FF05A1" width="5.07" height="20.284"/>
<rect x="-496.826" y="-52.308" fill="#FF05A1" width="5.071" height="20.284"/>
<rect x="-517.11" y="-42.165" fill="#FF05A1" width="5.071" height="10.142"/>
<rect x="-506.967" y="-28.617" fill="#FF05A1" width="5.069" height="20.283"/>
<rect x="-517.11" y="-21.881" fill="#FF05A1" width="5.071" height="10.142"/>
<rect x="-537.394" y="-42.998" fill="#FF05A1" width="5.07" height="10.143"/>
<rect x="-537.394" y="-22.714" fill="#FF05A1" width="5.07" height="10.142"/>
<rect x="-476.542" y="-52.308" fill="#FF05A1" width="5.07" height="10.143"/>
<rect x="-466.4" y="-72.591" fill="#FF05A1" width="5.071" height="10.142"/>
<rect x="-466.4" y="-27.24" fill="#FF05A1" width="5.071" height="40.568"/>
<rect x="-466.4" y="-82.733" fill="#FF05A1" width="5.071" height="10.143"/>
<rect x="-486.684" y="-65.737" fill="#FF05A1" width="5.07" height="10.143"/>
<rect x="-506.967" y="-87.116" fill="#FF05A1" width="5.069" height="20.283"/>
<rect x="-517.11" y="-65.737" fill="#FF05A1" width="5.071" height="10.143"/>
<rect x="-527.251" y="-68.208" fill="#FF05A1" width="5.071" height="10.143"/>
<g>
	<defs>
		<rect id="SVGID_1_" x="-709.333" y="-97.258" width="1550" height="310.758"/>
	</defs>
	<clipPath id="SVGID_2_">
		<use xlink:href="#SVGID_1_"  overflow="visible"/>
	</clipPath>
	<path clip-path="url(#SVGID_2_)" fill="#FFFFFF" d="M-27.963,63.794c-0.7-3.209-1.546-6.35-2.511-9.334
		c-0.188-0.579-0.83-0.984-1.561-0.984c-0.139,0-0.277,0.016-0.416,0.046c-0.865,0.187-1.381,0.909-1.153,1.612
		c0.944,2.919,1.768,5.989,2.448,9.126c0.156,0.706,0.998,1.198,1.881,1.069C-28.395,65.202-27.807,64.513-27.963,63.794
		 M52.344,97.856c-0.353,0.751-1.215,1.236-2.196,1.236c-1.51,0-2.738-1.093-3.311-2.895c-9.278-6.598-21.129-10.225-33.448-10.225
		c-13.223,0-25.771,4.154-35.33,11.697l-3.912,3.088l0.266-4.436c0.15-2.528,0.224-4.975,0.224-7.479
		c0-1.389-0.024-2.872-0.073-4.405c-0.024-0.717-0.734-1.281-1.614-1.281c-0.486,0.011-0.887,0.157-1.184,0.413
		c-0.297,0.255-0.452,0.591-0.439,0.944c0.049,1.413,0.074,2.87,0.074,4.329c0,3.271-0.128,6.521-0.378,9.664l-0.329,4.118
		l-3.411-3.049c-9.672-8.646-23.34-13.604-37.499-13.604c-14.612,0-28.563,5.211-38.277,14.298l-3.432,3.211l-0.34-4.251
		c-0.215-2.702-0.324-5.528-0.324-8.4c-0.019-12.593,2.167-36.78,17.003-57.267c0.219-0.302,0.28-0.657,0.171-1
		c-0.108-0.34-0.373-0.625-0.744-0.803c-0.775-0.373-1.778-0.145-2.218,0.463c-14.385,19.963-17.431,42.89-17.452,58.608
		c0.001,1.973,0.053,3.903,0.159,5.897l0.238,4.483l-3.906-3.162c-9.622-7.789-22.318-12.078-35.747-12.078
		c-12.812,0-25.015,3.894-34.441,10.977c-0.562,1.917-1.784,3.04-3.351,3.041h-0.001c-0.965,0-1.821-0.477-2.181-1.211
		c-0.502-1.029,0.032-2.257,1.548-3.572l0.009-0.031c9.52-44.997,54.967-79.275,110.77-83.446l6.42-0.48l-4.908,3.627
		c-1.344,0.991-2.611,1.929-3.783,2.921c-0.619,0.525-0.6,1.363,0.043,1.871c0.616,0.484,1.689,0.47,2.288-0.037
		c3.238-2.743,6.97-5.383,11.093-7.844l1.207-0.722l1.25,0.672c14.894,8.01,25.881,20.04,32.659,35.758
		c0.287,0.67,1.227,1.047,2.062,0.808c0.843-0.24,1.285-0.997,0.989-1.686c-5.538-12.885-13.984-23.494-25.104-31.533l-5.12-3.702
		l6.797,0.643C-30.105,14.557-5.61,23.894,14,39.029c19.359,14.941,32.067,34.062,36.783,55.33l0.009,0.034
		C52.269,95.629,52.82,96.844,52.344,97.856 M55.662,104.662C50.788,51.518-2.212,10.299-67.622,8.781l-2.092-0.049V-6.79
		c0-0.728-0.728-1.32-1.62-1.32c-0.894,0-1.621,0.592-1.621,1.32V8.737l-2.09,0.05c-66.144,1.589-119.145,43.344-123.286,97.125
		c-0.046,0.601,0.411,1.148,1.112,1.336c0.685,0.18,1.479-0.049,1.869-0.548c8.84-11.324,23.892-18.086,40.263-18.086
		c16.353,0,31.396,6.767,40.238,18.103c0.295,0.379,0.816,0.614,1.364,0.614h1.66c0.546,0,1.069-0.236,1.366-0.615
		c7.851-10.062,20.651-16.562,35.119-17.832l2.384-0.21v33.358h3.241V88.649l2.279,0.108c15.258,0.725,29.268,7.438,37.475,17.959
		c0.26,0.333,0.739,0.547,1.283,0.573l0.241,0.021c0.1-0.02,0.215-0.037,0.342-0.049c0.189-0.015,0.335-0.045,0.479-0.097
		l0.244-0.086c0.164-0.085,0.319-0.202,0.439-0.342c0.066-0.078,0.137-0.147,0.205-0.205c8.864-11.228,23.839-17.919,40.115-17.919
		c15.689,0,30.392,6.313,39.327,16.889c0.409,0.484,1.187,0.696,1.872,0.499C55.284,105.801,55.717,105.262,55.662,104.662"/>
	<path clip-path="url(#SVGID_2_)" fill="#FFFFFF" d="M-71.266,197.09l0.022,0.166l-0.015,0.166
		c-0.009,0.091-0.024,0.173-0.042,0.243c0.13,8.742,8.893,15.83,19.641,15.835c10.826-0.005,19.638-7.192,19.641-16.021
		c0-0.728-0.726-1.319-1.617-1.319c-0.893,0-1.62,0.592-1.62,1.32c-0.004,3.568-1.71,6.927-4.804,9.458
		c-3.098,2.525-7.214,3.916-11.598,3.92c-4.379-0.004-8.496-1.394-11.598-3.916c-3.05-2.502-4.749-5.792-4.804-9.287
		c-0.031-0.104-0.054-0.203-0.068-0.307l-0.018-0.139l0.008-0.141c0.007-0.108,0.024-0.205,0.044-0.29v-14.062h-3.24v14.073
		C-71.302,196.892-71.28,196.988-71.266,197.09"/>
</g>
</svg>
