<?xml version="1.0" encoding="utf-8"?>
<!-- Generator: Adobe Illustrator 15.0.2, SVG Export Plug-In . SVG Version: 6.00 Build 0)  -->
<!DOCTYPE svg PUBLIC "-//W3C//DTD SVG 1.1//EN" "http://www.w3.org/Graphics/SVG/1.1/DTD/svg11.dtd">
<svg version="1.1" id="Layer_1" xmlns="http://www.w3.org/2000/svg" xmlns:xlink="http://www.w3.org/1999/xlink" x="0px" y="0px"
	 width="106px" height="116px" viewBox="0 0 106 116" enable-background="new 0 0 106 116" xml:space="preserve">
<g>
	<g>
		<g>
			<defs>
				<rect id="SVGID_1_" x="4" y="2.941" width="98.021" height="110.059"/>
			</defs>
			<clipPath id="SVGID_2_">
				<use xlink:href="#SVGID_1_"  overflow="visible"/>
			</clipPath>
			<g clip-path="url(#SVGID_2_)">
				<g>
					<g>
						<path fill="none" d="M52.84,41.751"/>
					</g>
					<g>
						<g>
							<defs>
								<path id="SVGID_3_" d="M52.84,41.752L52.84,41.752z"/>
							</defs>
							<clipPath id="SVGID_4_">
								<use xlink:href="#SVGID_3_"  overflow="visible"/>
							</clipPath>
						</g>
					</g>
				</g>
			</g>
		</g>
		<g>
			<defs>
				<rect id="SVGID_5_" x="4" y="2.941" width="98.021" height="110.059"/>
			</defs>
			<clipPath id="SVGID_6_">
				<use xlink:href="#SVGID_5_"  overflow="visible"/>
			</clipPath>
			<g clip-path="url(#SVGID_6_)">
				<path fill="none" stroke="#000000" d="M52.839,41.751"/>
			</g>
		</g>
		<g>
			<defs>
				<rect id="SVGID_7_" x="4" y="2.941" width="98.021" height="110.059"/>
			</defs>
			<clipPath id="SVGID_8_">
				<use xlink:href="#SVGID_7_"  overflow="visible"/>
			</clipPath>
			<g clip-path="url(#SVGID_8_)">
				<g>
					<g>
						<defs>
							<rect id="SVGID_9_" x="4" y="2.941" width="98.021" height="110.059"/>
						</defs>
						<clipPath id="SVGID_10_">
							<use xlink:href="#SVGID_9_"  overflow="visible"/>
						</clipPath>
						<g clip-path="url(#SVGID_10_)">
							<path d="M102.021,113H100.3V95.803c0-9.556-11.004-14.512-21.768-18.1L68.1,72.497l0.771-1.538l10.317,5.159
								c11.231,3.735,22.83,9.036,22.83,19.685V113H102.021z"/>
						</g>
					</g>
					<g>
						<g>
							<defs>
								<rect id="SVGID_11_" x="4" y="2.941" width="98.021" height="110.059"/>
							</defs>
							<clipPath id="SVGID_12_">
								<use xlink:href="#SVGID_11_"  overflow="visible"/>
							</clipPath>
							<g clip-path="url(#SVGID_12_)">
								<path d="M5.719,113H4V95.803c0-10.646,11.598-15.949,22.943-19.729l10.205-5.112l0.769,1.538L27.6,77.658
									C16.723,81.293,5.719,86.249,5.719,95.805V113z"/>
							</g>
						</g>
					</g>
					<g>
						<defs>
							<rect id="SVGID_13_" x="4" y="2.941" width="98.021" height="110.059"/>
						</defs>
						<clipPath id="SVGID_14_">
							<use xlink:href="#SVGID_13_"  overflow="visible"/>
						</clipPath>
						<g clip-path="url(#SVGID_14_)">
							<rect x="21.195" y="102.682" width="1.721" height="10.318"/>
						</g>
					</g>
					<g>
						<defs>
							<rect id="SVGID_15_" x="4" y="2.941" width="98.021" height="110.059"/>
						</defs>
						<clipPath id="SVGID_16_">
							<use xlink:href="#SVGID_15_"  overflow="visible"/>
						</clipPath>
						<g clip-path="url(#SVGID_16_)">
							<rect x="83.104" y="102.682" width="1.723" height="10.318"/>
						</g>
					</g>
					<g>
						<defs>
							<rect id="SVGID_17_" x="4" y="2.941" width="98.021" height="110.059"/>
						</defs>
						<clipPath id="SVGID_18_">
							<use xlink:href="#SVGID_17_"  overflow="visible"/>
						</clipPath>
						<g clip-path="url(#SVGID_18_)">
							<polygon points="41.833,57.971 43.552,57.971 43.552,66.57 41.833,65.57 							"/>
						</g>
					</g>
					<g>
						<g>
							<polygon points="62.468,57.971 64.188,57.971 64.188,65.57 62.468,66.57 							"/>
						</g>
					</g>
					<g>
						<g>
							<g>
								<path d="M53.01,62.271c-12.966,0-17.916-12.812-18.053-21.139l-1.723-1.723v-3.797h1.719v3.084l1.72,1.72v0.356
									c0,7.646,4.435,19.775,16.337,19.775c11.901,0,16.336-12.131,16.336-19.775v-0.356l1.721-1.72v-3.084h1.721v3.797
									l-1.725,1.723C70.926,49.459,65.977,62.271,53.01,62.271"/>
							</g>
							<g>
								<path d="M53.01,74.588c4.314,0,7.961,2.902,9.094,6.857l5.373-11.402l-2.748-4.121L53.35,70.799
									c-0.219,0.094-0.459,0.094-0.679,0l-11.379-4.877l-2.747,4.121l5.372,11.402C45.048,77.49,48.695,74.588,53.01,74.588
									 M61.607,84.906c-0.073,0-0.146-0.01-0.219-0.029c-0.381-0.1-0.643-0.441-0.643-0.831c0-4.267-3.473-7.737-7.738-7.737
									c-4.268,0-7.738,3.471-7.738,7.737c0,0.39-0.263,0.731-0.641,0.831c-0.363,0.1-0.771-0.064-0.967-0.404l-6.879-14.037
									c-0.161-0.283-0.149-0.633,0.031-0.901l3.439-5.159c0.23-0.348,0.674-0.477,1.055-0.312l11.699,5.015l11.699-5.015
									c0.383-0.162,0.825-0.031,1.057,0.312l3.438,5.159c0.181,0.271,0.193,0.618,0.031,0.901l-6.879,14.037
									C62.199,84.746,61.91,84.906,61.607,84.906"/>
							</g>
							<g>
								<path d="M53.01,38.193c-11.089,0-19.775-4.908-19.775-11.178h1.719c0,5.127,8.27,9.459,18.057,9.459
									s18.057-4.332,18.057-9.459h1.721C72.786,33.285,64.098,38.193,53.01,38.193"/>
							</g>
							<g>
								<path d="M72.684,23.984l-1.516-0.813c0.045-0.081,3.768-7.078,4.798-13.676c-2.185,1.185-5.636,1.187-7.479,1.187
									c-3.711,0-6.002-2.188-7.053-4.602c-1.588,2.477-4.824,4.602-8.422,4.602c-3.599,0-6.835-2.125-8.423-4.602
									c-1.052,2.413-3.343,4.602-7.054,4.602c-1.844,0-5.294,0-7.479-1.187c1.027,6.603,4.752,13.595,4.795,13.676l-1.514,0.813
									c-0.215-0.399-5.261-9.877-5.261-17.604h1.719c0,1.76,2.459,2.58,7.739,2.58c4.15,0,6.018-3.521,6.018-6.02h1.721
									c0,2.377,3.465,6.02,7.738,6.02c4.272,0,7.737-3.643,7.737-6.02h1.722c0,2.498,1.866,6.02,6.018,6.02
									c5.281,0,7.74-0.82,7.74-2.58h1.719C77.945,14.107,72.898,23.585,72.684,23.984"/>
							</g>
							<g>
								<path d="M65.148,91.203c0.076,9.14,6.408,13.225,7.197,13.697c0.788-0.476,7.121-4.558,7.195-13.697h-2.51
									c-2.828,0-4.254-1.605-4.69-2.208c-0.434,0.602-1.856,2.208-4.686,2.208H65.148z M72.346,105.262
									c-0.025,0-0.055-0.008-0.076-0.022c-0.076-0.039-7.452-4.18-7.452-14.205c0-0.093,0.076-0.168,0.17-0.168h2.676
									c3.204,0,4.525-2.236,4.542-2.258c0.06-0.104,0.229-0.104,0.288,0c0.017,0.021,1.341,2.258,4.545,2.258h2.679
									c0.09,0,0.164,0.075,0.164,0.168c0,10.025-7.373,14.166-7.45,14.205C72.4,105.254,72.374,105.262,72.346,105.262"/>
							</g>
							<g>
								<path fill="#ED3293" d="M65.687,91.727c0.281,7.808,5.305,11.654,6.659,12.552c1.355-0.897,6.379-4.744,6.661-12.552h-1.971
									c-2.448,0-3.931-1.104-4.69-1.912c-0.76,0.809-2.24,1.912-4.686,1.912H65.687z M72.346,105.783h-0.131L72.02,105.7
									c-0.076-0.04-7.728-4.271-7.728-14.666c0-0.381,0.312-0.69,0.69-0.69h2.678c2.832,0,4.04-1.926,4.093-2.006
									c0.229-0.398,0.952-0.409,1.192,0.014c0.046,0.071,1.255,1.995,4.088,1.995h2.679c0.381,0,0.688,0.312,0.688,0.69
									c0,10.396-7.646,14.626-7.728,14.666l-0.116,0.063L72.346,105.783z"/>
							</g>
							<g>
								<path fill="#ED3293" d="M34.953,26.157h36.113v-5.159H34.953V26.157z M71.926,27.877H34.093
									c-0.475,0-0.858-0.385-0.858-0.859v-6.879c0-0.475,0.384-0.859,0.858-0.859h37.833c0.477,0,0.86,0.386,0.86,0.859v6.879
									C72.786,27.492,72.402,27.877,71.926,27.877"/>
							</g>
						</g>
					</g>
				</g>
			</g>
		</g>
	</g>
</g>
<g>
	<path d="M53.541,87.312c-1.821,0-3.302-1.481-3.302-3.302s1.481-3.302,3.302-3.302c1.82,0,3.301,1.481,3.301,3.302
		S55.361,87.312,53.541,87.312z M53.541,82.209c-0.994,0-1.802,0.809-1.802,1.802s0.809,1.802,1.802,1.802
		c0.993,0,1.801-0.809,1.801-1.802S54.534,82.209,53.541,82.209z"/>
</g>
<g>
	<path d="M53.668,99.969c-1.821,0-3.303-1.481-3.303-3.302s1.481-3.302,3.303-3.302c1.82,0,3.301,1.481,3.301,3.302
		S55.488,99.969,53.668,99.969z M53.668,94.865c-0.994,0-1.803,0.809-1.803,1.802s0.809,1.802,1.803,1.802
		c0.993,0,1.801-0.809,1.801-1.802S54.661,94.865,53.668,94.865z"/>
</g>
<g>
	<path d="M53.835,112.136c-1.821,0-3.303-1.481-3.303-3.302s1.481-3.302,3.303-3.302c1.82,0,3.301,1.481,3.301,3.302
		S55.655,112.136,53.835,112.136z M53.835,107.032c-0.994,0-1.803,0.809-1.803,1.802s0.809,1.802,1.803,1.802
		c0.993,0,1.801-0.809,1.801-1.802S54.828,107.032,53.835,107.032z"/>
</g>
</svg>
