<?xml version="1.0" encoding="utf-8"?>
<!-- Generator: Adobe Illustrator 15.0.2, SVG Export Plug-In . SVG Version: 6.00 Build 0)  -->
<!DOCTYPE svg PUBLIC "-//W3C//DTD SVG 1.1//EN" "http://www.w3.org/Graphics/SVG/1.1/DTD/svg11.dtd">
<svg version="1.1" id="Layer_1" xmlns="http://www.w3.org/2000/svg" xmlns:xlink="http://www.w3.org/1999/xlink" x="0px" y="0px"
	 width="132.333px" height="118px" viewBox="0 0 132.333 118" enable-background="new 0 0 132.333 118" xml:space="preserve">
<g>
	<path fill="#241F21" d="M18.645,11.844c-2.355,0-4.27,1.916-4.27,4.27v68.326c0,2.355,1.915,4.271,4.27,4.271h95.656
		c2.355,0,4.271-1.916,4.271-4.271V16.113c0-2.354-1.916-4.27-4.271-4.27H18.645z M114.301,90.419H18.645
		c-3.296,0-5.978-2.683-5.978-5.979V16.113c0-3.296,2.682-5.978,5.978-5.978h95.656c3.297,0,5.979,2.682,5.979,5.978v68.326
		C120.281,87.736,117.598,90.419,114.301,90.419"/>
</g>
<rect x="70.368" y="97.252" transform="matrix(0.2874 0.9578 -0.9578 0.2874 150.4685 -6.0278)" fill="#241F21" width="17.834" height="1.708"/>
<rect x="52.809" y="89.189" transform="matrix(0.9577 0.2878 -0.2878 0.9577 30.5015 -11.2925)" fill="#241F21" width="1.707" height="17.833"/>
<rect x="44.268" y="105.792" fill="#241F21" width="44.413" height="1.708"/>
<rect x="64.765" y="81.878" fill="#241F21" width="3.417" height="1.708"/>
<g>
	<path fill="#241F21" d="M21.208,75.045h90.532V18.676H21.208V75.045z M112.594,76.753H20.354c-0.472,0-0.855-0.382-0.855-0.854
		V17.822c0-0.472,0.383-0.854,0.855-0.854h92.241c0.472,0,0.854,0.383,0.854,0.854v58.077
		C113.448,76.371,113.066,76.753,112.594,76.753"/>
</g>
<rect x="40.851" y="40.882" fill="#87BD30" width="3.417" height="1.708"/>
<rect x="78.43" y="40.882" fill="#87BD30" width="6.834" height="1.708"/>
<rect x="85.262" y="44.299" fill="#87BD30" width="6.834" height="1.708"/>
<rect x="88.68" y="47.715" fill="#87BD30" width="3.416" height="1.708"/>
<rect x="85.262" y="51.131" fill="#87BD30" width="3.418" height="1.708"/>
<rect x="85.262" y="54.547" fill="#87BD30" width="6.834" height="1.708"/>
<rect x="92.096" y="51.131" fill="#87BD30" width="6.832" height="1.708"/>
<rect x="78.43" y="47.715" fill="#87BD30" width="3.416" height="1.708"/>
<rect x="75.014" y="44.299" fill="#87BD30" width="6.832" height="1.708"/>
<rect x="71.598" y="51.131" fill="#87BD30" width="3.416" height="1.708"/>
<rect x="68.182" y="47.715" fill="#87BD30" width="3.416" height="1.708"/>
<rect x="71.598" y="54.547" fill="#87BD30" width="6.832" height="1.708"/>
<rect x="71.598" y="57.964" fill="#87BD30" width="3.416" height="1.708"/>
<rect x="78.43" y="57.964" fill="#87BD30" width="3.416" height="1.708"/>
<rect x="78.43" y="61.38" fill="#87BD30" width="3.416" height="1.708"/>
<rect x="75.014" y="64.796" fill="#87BD30" width="3.416" height="1.708"/>
<rect x="88.68" y="61.38" fill="#87BD30" width="3.416" height="1.708"/>
<rect x="98.928" y="61.38" fill="#87BD30" width="3.416" height="1.708"/>
<rect x="85.262" y="64.796" fill="#87BD30" width="3.418" height="1.708"/>
<rect x="92.096" y="64.796" fill="#87BD30" width="6.832" height="1.708"/>
<rect x="64.766" y="64.796" fill="#87BD30" width="6.833" height="1.708"/>
<rect x="61.35" y="61.38" fill="#87BD30" width="3.416" height="1.708"/>
<rect x="51.1" y="61.38" fill="#87BD30" width="6.833" height="1.708"/>
<rect x="57.933" y="51.131" fill="#87BD30" width="3.417" height="1.708"/>
<rect x="54.517" y="47.715" fill="#87BD30" width="6.833" height="1.708"/>
<rect x="51.1" y="44.299" fill="#87BD30" width="3.417" height="1.708"/>
<rect x="44.268" y="47.715" fill="#87BD30" width="6.833" height="1.708"/>
<rect x="34.019" y="37.466" fill="#87BD30" width="6.833" height="1.708"/>
<rect x="40.851" y="51.131" fill="#87BD30" width="6.833" height="1.708"/>
<rect x="44.268" y="57.964" fill="#87BD30" width="3.416" height="1.708"/>
<rect x="51.1" y="54.547" fill="#87BD30" width="6.833" height="1.708"/>
<rect x="51.1" y="57.964" fill="#87BD30" width="3.417" height="1.708"/>
<rect x="47.684" y="64.796" fill="#87BD30" width="3.417" height="1.708"/>
<rect x="54.517" y="64.796" fill="#87BD30" width="3.416" height="1.708"/>
<rect x="61.349" y="57.964" fill="#87BD30" width="6.833" height="1.708"/>
<rect x="64.765" y="51.131" fill="#87BD30" width="3.417" height="1.708"/>
<rect x="61.349" y="44.299" fill="#87BD30" width="6.833" height="1.708"/>
<rect x="40.851" y="44.299" fill="#87BD30" width="3.417" height="1.708"/>
<rect x="37.435" y="61.38" fill="#87BD30" width="6.833" height="1.708"/>
<rect x="61.349" y="30.633" fill="#87BD30" width="6.833" height="1.708"/>
<rect x="64.766" y="37.466" fill="#87BD30" width="10.249" height="1.708"/>
<rect x="54.517" y="34.05" fill="#87BD30" width="10.249" height="1.708"/>
<rect x="68.182" y="40.882" fill="#87BD30" width="3.416" height="1.708"/>
<rect x="34.019" y="40.882" fill="#87BD30" width="3.417" height="1.708"/>
<rect x="47.684" y="40.882" fill="#87BD30" width="13.666" height="1.708"/>
<rect x="78.43" y="34.05" fill="#87BD30" width="13.666" height="1.708"/>
<rect x="95.512" y="57.964" fill="#87BD30" width="6.832" height="1.708"/>
<rect x="98.928" y="54.547" fill="#87BD30" width="3.416" height="1.708"/>
<rect x="95.512" y="47.715" fill="#87BD30" width="6.832" height="1.708"/>
<rect x="92.096" y="40.882" fill="#87BD30" width="6.832" height="1.708"/>
<rect x="88.68" y="40.882" fill="#87BD30" width="3.416" height="1.708"/>
<rect x="98.928" y="37.466" fill="#87BD30" width="3.416" height="1.708"/>
<rect x="95.512" y="34.05" fill="#87BD30" width="6.832" height="1.708"/>
<rect x="88.68" y="30.633" fill="#87BD30" width="6.832" height="1.708"/>
<rect x="98.928" y="27.217" fill="#87BD30" width="3.416" height="1.708"/>
<rect x="85.262" y="27.217" fill="#87BD30" width="6.834" height="1.708"/>
<rect x="81.846" y="30.633" fill="#87BD30" width="3.418" height="1.708"/>
<rect x="75.014" y="27.217" fill="#87BD30" width="6.832" height="1.708"/>
<rect x="71.598" y="30.633" fill="#87BD30" width="3.416" height="1.708"/>
<rect x="71.598" y="34.05" fill="#87BD30" width="3.416" height="1.708"/>
<rect x="47.684" y="34.05" fill="#87BD30" width="3.417" height="1.708"/>
<rect x="37.435" y="34.05" fill="#87BD30" width="6.833" height="1.708"/>
<rect x="30.602" y="34.05" fill="#87BD30" width="3.417" height="1.708"/>
<rect x="30.602" y="40.882" fill="#87BD30" width="3.417" height="1.708"/>
<rect x="30.602" y="47.715" fill="#87BD30" width="3.417" height="1.708"/>
<rect x="34.019" y="54.547" fill="#87BD30" width="6.833" height="1.708"/>
<rect x="37.436" y="47.715" fill="#87BD30" width="3.416" height="1.708"/>
<rect x="30.602" y="57.964" fill="#87BD30" width="3.417" height="1.708"/>
<rect x="34.019" y="64.796" fill="#87BD30" width="6.833" height="1.708"/>
<rect x="30.602" y="61.38" fill="#87BD30" width="3.417" height="1.708"/>
<rect x="44.268" y="30.633" fill="#87BD30" width="6.833" height="1.708"/>
<rect x="51.1" y="27.217" fill="#87BD30" width="6.833" height="1.708"/>
<rect x="30.602" y="27.217" fill="#87BD30" width="13.666" height="1.708"/>
<rect x="64.766" y="27.217" fill="#87BD30" width="6.833" height="1.708"/>
</svg>
