<?xml version="1.0" encoding="utf-8"?>
<!-- Generator: Adobe Illustrator 15.0.2, SVG Export Plug-In . SVG Version: 6.00 Build 0)  -->
<!DOCTYPE svg PUBLIC "-//W3C//DTD SVG 1.1//EN" "http://www.w3.org/Graphics/SVG/1.1/DTD/svg11.dtd">
<svg version="1.1" id="Layer_1" xmlns="http://www.w3.org/2000/svg" xmlns:xlink="http://www.w3.org/1999/xlink" x="0px" y="0px"
	 width="108px" height="118px" viewBox="11.667 0 108 118" enable-background="new 11.667 0 108 118" xml:space="preserve">
<rect x="42.326" y="45.807" fill="#212929" width="3.523" height="1.762"/>
<rect x="35.28" y="45.807" fill="#212929" width="3.523" height="1.762"/>
<g>
	<path fill="#212929" d="M49.371,54.613H24.712v-1.761h24.659c0.486,0,0.881-0.396,0.881-0.881V20.267
		c0-0.485-0.395-0.882-0.881-0.882H17.667v-1.761h31.705c1.457,0,2.642,1.186,2.642,2.643v31.705
		C52.013,53.428,50.828,54.613,49.371,54.613"/>
	<path fill="#212929" d="M96.928,28.192v-1.761c1.457,0,2.643-1.187,2.643-2.643v-1.762c0-1.457-1.186-2.642-2.643-2.642H74.03
		v-1.762h22.898c2.428,0,4.403,1.976,4.403,4.403v1.762C101.332,26.217,99.356,28.192,96.928,28.192"/>
	<path fill="#212929" d="M98.69,36.999h-5.284v-1.761h5.284c1.457,0,2.643-1.186,2.643-2.642v-1.763
		c0-1.457-1.186-2.642-2.643-2.642h-5.284v-1.761h5.284c2.428,0,4.402,1.975,4.402,4.402v1.763
		C103.092,35.023,101.118,36.999,98.69,36.999"/>
	<path fill="#212929" d="M96.928,45.807h-5.283v-1.762h5.283c1.457,0,2.643-1.186,2.643-2.642v-1.762
		c0-1.457-1.186-2.643-2.643-2.643v-1.761c2.428,0,4.403,1.975,4.403,4.403v1.762C101.332,43.83,99.356,45.807,96.928,45.807"/>
	<path fill="#212929" d="M95.167,54.613H74.031c-0.073,0-0.144-0.009-0.214-0.026L59.831,51.09h-8.698v-1.761h8.806
		c0.073,0,0.144,0.009,0.214,0.026l13.986,3.497h21.027c1.457,0,2.643-1.187,2.643-2.643v-1.762c0-1.457-1.186-2.642-2.643-2.642
		v-1.762c2.429,0,4.403,1.976,4.403,4.403v1.762C99.57,52.637,97.595,54.613,95.167,54.613"/>
	<path fill="#212929" d="M56.417,22.908h-5.284v-1.761h4.919l10.311-10.312c0.123-0.122,0.279-0.206,0.45-0.239l8.806-1.763
		l0.347,1.728l-8.545,1.709L57.04,22.65C56.875,22.815,56.651,22.908,56.417,22.908"/>
	<path fill="#212929" d="M80.002,17.625h9.192l3.082-12.33H76.92L80.002,17.625z M89.883,19.386H79.315
		c-0.404,0-0.756-0.275-0.854-0.667L74.938,4.628c-0.066-0.264-0.008-0.542,0.16-0.756c0.167-0.214,0.423-0.339,0.693-0.339h17.614
		c0.271,0,0.527,0.125,0.694,0.339s0.226,0.492,0.16,0.756l-3.523,14.091C90.639,19.11,90.288,19.386,89.883,19.386"/>
	<path fill="#212929" d="M82.837,114.5c-19.795,0-32.586-10.717-32.586-27.301c0-10.119,6.877-18.291,12.946-25.501
		c2.559-3.042,4.977-5.915,6.549-8.589l1.52,0.893c-1.648,2.801-4.113,5.729-6.721,8.83c-5.875,6.979-12.532,14.891-12.532,24.367
		c0,15.515,12.099,25.54,30.824,25.54c18.726,0,30.824-10.025,30.824-25.54c0-9.479-6.66-17.391-12.536-24.371
		c-2.607-3.101-5.072-6.027-6.721-8.828l1.519-0.894c1.573,2.674,3.99,5.546,6.55,8.588c6.069,7.211,12.949,15.384,12.949,25.505
		C115.422,103.783,102.632,114.5,82.837,114.5"/>
	<path fill="#87BD30" d="M82.837,95.125c-3.399,0-6.165-2.767-6.165-6.165h1.762c0,2.428,1.976,4.404,4.403,4.404
		c2.429,0,4.403-1.977,4.403-4.404c0-1.916-3.528-3.927-4.764-4.48c-0.594-0.266-5.805-2.697-5.805-6.088
		c0-3.398,2.766-6.165,6.165-6.165s6.165,2.767,6.165,6.165h-1.762c0-2.428-1.975-4.403-4.403-4.403
		c-2.428,0-4.403,1.976-4.403,4.403c0,1.916,3.527,3.927,4.764,4.48c0.594,0.266,5.805,2.697,5.805,6.088
		C89.002,92.358,86.237,95.125,82.837,95.125"/>
</g>
<rect x="81.958" y="67.824" fill="#87BD30" width="1.761" height="5.284"/>
<rect x="81.958" y="94.244" fill="#87BD30" width="1.761" height="5.284"/>
<rect x="93.405" y="82.796" fill="#212929" width="3.523" height="1.761"/>
<rect x="68.747" y="82.796" fill="#212929" width="3.523" height="1.761"/>
</svg>
