<?xml version="1.0" encoding="utf-8"?>
<!-- Generator: Adobe Illustrator 15.0.2, SVG Export Plug-In . SVG Version: 6.00 Build 0)  -->
<!DOCTYPE svg PUBLIC "-//W3C//DTD SVG 1.1//EN" "http://www.w3.org/Graphics/SVG/1.1/DTD/svg11.dtd">
<svg version="1.1" id="Layer_1" xmlns="http://www.w3.org/2000/svg" xmlns:xlink="http://www.w3.org/1999/xlink" x="0px" y="0px"
	 width="91.5px" height="80px" viewBox="0 0 91.5 80" enable-background="new 0 0 91.5 80" xml:space="preserve">
<g>
	<defs>
		<rect id="SVGID_1_" x="1" y="1" width="89.503" height="77.616"/>
	</defs>
	<clipPath id="SVGID_2_">
		<use xlink:href="#SVGID_1_"  overflow="visible"/>
	</clipPath>
	<path clip-path="url(#SVGID_2_)" fill="#212929" d="M42.955,75.819H19.181v-1.398h23.774c1.157,0,2.098-0.94,2.098-2.098v-1.399
		h1.398v1.399C46.451,74.251,44.883,75.819,42.955,75.819"/>
</g>
<rect x="7.992" y="71.624" fill="#212929" width="2.797" height="1.398"/>
<g>
	<defs>
		<rect id="SVGID_3_" x="1" y="1" width="89.503" height="77.616"/>
	</defs>
	<clipPath id="SVGID_4_">
		<use xlink:href="#SVGID_3_"  overflow="visible"/>
	</clipPath>
	<path clip-path="url(#SVGID_4_)" fill="#212929" d="M45.752,54.842h-5.594v-1.397h5.594c1.156,0,2.098-0.941,2.098-2.099v-1.398
		c0-1.156-0.941-2.098-2.098-2.098H33.166c-0.216,0-0.42-0.1-0.552-0.269c-0.133-0.17-0.179-0.391-0.127-0.6l2.776-11.105v-4.109
		c0-0.033-0.035-3.495-2.097-3.495c-3.457,0-3.497,3.353-3.497,3.495c0,0.058-0.006,0.114-0.02,0.17l-1.398,5.595
		c-0.021,0.077-0.052,0.15-0.097,0.218l-8.392,12.586c-0.129,0.195-0.348,0.312-0.581,0.312h-4.196v-1.399h3.822l8.116-12.174
		l1.349-5.397c0.036-1.713,1.089-4.805,4.894-4.805c2.765,0,3.496,3.202,3.496,4.895v4.195c0,0.058-0.007,0.115-0.021,0.17
		l-2.579,10.319h11.69c1.928,0,3.496,1.568,3.496,3.496v1.398C49.248,53.274,47.68,54.842,45.752,54.842"/>
	<path clip-path="url(#SVGID_4_)" fill="#212929" d="M44.353,68.827h-4.196v-1.398h4.196c1.157,0,2.098-0.94,2.098-2.098v-1.399
		h1.398v1.399C47.85,67.258,46.281,68.827,44.353,68.827"/>
	<path clip-path="url(#SVGID_4_)" fill="#212929" d="M45.752,61.835h-5.594v-1.398h5.594c1.156,0,2.098-0.941,2.098-2.098v-1.399
		h1.398v1.399C49.248,60.266,47.68,61.835,45.752,61.835"/>
	<path clip-path="url(#SVGID_4_)" fill="#212929" d="M14.985,78.616H1v-1.397h13.286V50.646H1v-1.398h13.985
		c0.386,0,0.699,0.313,0.699,0.699v27.97C15.684,78.304,15.371,78.616,14.985,78.616"/>
	<path clip-path="url(#SVGID_4_)" fill="#212929" d="M46.451,14.985h-1.398v-1.398c0-1.928,1.566-3.497,3.496-3.497h23.773v1.399
		H48.549c-1.157,0-2.098,0.941-2.098,2.098V14.985z"/>
	<path clip-path="url(#SVGID_4_)" fill="#212929" d="M58.338,59.037c-2.766,0-3.496-3.201-3.496-4.895v-4.195
		c0-0.057,0.006-0.113,0.02-0.17l2.58-10.318H45.752c-1.929,0-3.497-1.568-3.497-3.496v-1.398c0-1.928,1.568-3.497,3.497-3.497
		h5.594v1.399h-5.594c-1.157,0-2.098,0.94-2.098,2.098v1.398c0,1.156,0.941,2.098,2.098,2.098h12.586
		c0.216,0,0.419,0.099,0.553,0.269c0.131,0.17,0.178,0.392,0.127,0.601L56.24,50.033v4.109c0,0.034,0.035,3.497,2.098,3.497
		c3.457,0,3.496-3.354,3.496-3.497c0-0.057,0.007-0.114,0.021-0.169l1.397-5.594c0.021-0.078,0.052-0.152,0.097-0.219l8.391-12.587
		c0.131-0.193,0.349-0.311,0.582-0.311h4.195v1.397h-3.82L64.58,48.837l-1.35,5.396C63.195,55.946,62.143,59.037,58.338,59.037"/>
	<path clip-path="url(#SVGID_4_)" fill="#212929" d="M45.053,21.978h-1.398V20.58c0-1.929,1.566-3.497,3.496-3.497h4.195v1.398
		H47.15c-1.157,0-2.098,0.941-2.098,2.099V21.978z"/>
	<path clip-path="url(#SVGID_4_)" fill="#212929" d="M43.654,28.97h-1.399v-1.397c0-1.928,1.568-3.497,3.497-3.497h5.594v1.398
		h-5.594c-1.157,0-2.098,0.941-2.098,2.099V28.97z"/>
	<path clip-path="url(#SVGID_4_)" fill="#212929" d="M90.503,36.662H76.518c-0.386,0-0.699-0.313-0.699-0.699V7.993
		c0-0.387,0.313-0.699,0.699-0.699h13.985v1.397H77.217v26.572h13.286V36.662z"/>
</g>
<rect x="80.713" y="12.889" fill="#212929" width="2.797" height="1.397"/>
<rect x="23.326" y="7.994" transform="matrix(0.7071 0.7071 -0.7071 0.7071 14.4275 -17.4445)" fill="#F47821" width="9.888" height="1.397"/>
<rect x="36.662" y="1" fill="#F47821" width="1.398" height="8.392"/>
<rect x="20.579" y="17.083" fill="#F47821" width="8.391" height="1.398"/>
<rect x="65.28" y="68.128" transform="matrix(0.7071 0.7071 -0.7071 0.7071 69.2365 -29.4973)" fill="#F47821" width="9.888" height="1.398"/>
<rect x="60.436" y="68.127" fill="#F47821" width="1.398" height="8.392"/>
<rect x="69.525" y="59.038" fill="#F47821" width="8.392" height="1.398"/>
</svg>
