<?xml version="1.0" encoding="utf-8"?>
<!-- Generator: Adobe Illustrator 15.0.2, SVG Export Plug-In . SVG Version: 6.00 Build 0)  -->
<!DOCTYPE svg PUBLIC "-//W3C//DTD SVG 1.1//EN" "http://www.w3.org/Graphics/SVG/1.1/DTD/svg11.dtd">
<svg version="1.1" id="Layer_1" xmlns="http://www.w3.org/2000/svg" xmlns:xlink="http://www.w3.org/1999/xlink" x="0px" y="0px"
	 width="88.5px" height="77.5px" viewBox="0 0 88.5 77.5" enable-background="new 0 0 88.5 77.5" xml:space="preserve">
<g>
	<defs>
		<rect id="SVGID_1_" x="0.75" y="0.922" width="86.857" height="75.828"/>
	</defs>
	<clipPath id="SVGID_2_">
		<use xlink:href="#SVGID_1_"  overflow="visible"/>
	</clipPath>
	<path clip-path="url(#SVGID_2_)" fill="#212929" d="M7.239,75.371h73.878l5.111-5.111v-1.781H54.115l-2.557,2.555
		c-0.129,0.129-0.303,0.202-0.486,0.202H37.285c-0.183,0-0.358-0.073-0.487-0.202l-2.556-2.555H2.128v1.781L7.239,75.371z
		 M81.403,76.75H6.954c-0.183,0-0.358-0.073-0.488-0.202l-5.514-5.515c-0.13-0.129-0.202-0.304-0.202-0.487v-2.758
		c0-0.38,0.308-0.688,0.689-0.688h33.089c0.183,0,0.358,0.072,0.487,0.201l2.555,2.556h13.216l2.556-2.556
		c0.129-0.129,0.305-0.201,0.487-0.201h33.089c0.381,0,0.689,0.309,0.689,0.688v2.758c0,0.184-0.073,0.358-0.202,0.487l-5.515,5.515
		C81.762,76.677,81.586,76.75,81.403,76.75"/>
	<path clip-path="url(#SVGID_2_)" fill="#212929" d="M7.644,63.652H6.265v-41.36c0-2.66,2.165-4.825,4.826-4.825h9.65v1.379h-9.65
		c-1.901,0-3.447,1.546-3.447,3.446V63.652z"/>
	<path clip-path="url(#SVGID_2_)" fill="#212929" d="M82.092,63.652h-1.379v-41.36c0-1.9-1.545-3.446-3.445-3.446h-9.65v-1.379h9.65
		c2.66,0,4.824,2.165,4.824,4.825V63.652z"/>
	<path clip-path="url(#SVGID_2_)" fill="#212929" d="M75.889,60.206H59.344l-0.516-0.667l0.516-0.712h15.855V24.359h-7.583v-1.378
		h8.272c0.381,0,0.688,0.309,0.688,0.689v35.846C76.577,59.896,76.27,60.206,75.889,60.206"/>
	<path clip-path="url(#SVGID_2_)" fill="#212929" d="M56.459,60.206h-43.99c-0.381,0-0.689-0.31-0.689-0.689V23.671
		c0-0.381,0.308-0.689,0.689-0.689l7.281,0.041l0.388,0.589l-0.388,0.79l-6.592-0.042v34.468h43.301V60.206z"/>
	<path clip-path="url(#SVGID_2_)" fill="#212929" d="M25.567,39.86l18.612,13.294L62.791,39.86V2.606L52.693,6.394
		c-0.256,0.095-0.539,0.032-0.729-0.158l-3.935-3.935h-7.702l-3.934,3.935c-0.191,0.19-0.474,0.253-0.729,0.158L25.567,2.606V39.86z
		 M44.179,54.691c-0.14,0-0.281-0.043-0.401-0.128L24.476,40.776c-0.18-0.13-0.288-0.339-0.288-0.562V1.612
		c0-0.227,0.11-0.438,0.296-0.567c0.187-0.129,0.423-0.158,0.636-0.079l10.613,3.98l3.822-3.822c0.13-0.129,0.305-0.202,0.488-0.202
		h8.272c0.184,0,0.358,0.073,0.488,0.202l3.822,3.822l10.613-3.98c0.213-0.079,0.449-0.05,0.635,0.079
		c0.187,0.129,0.297,0.341,0.297,0.567v38.603c0,0.223-0.108,0.432-0.288,0.562L44.58,54.563
		C44.459,54.648,44.318,54.691,44.179,54.691"/>
</g>
<rect x="35.217" y="5.747" fill="#212929" width="1.379" height="5.515"/>
<rect x="51.762" y="5.747" fill="#212929" width="1.379" height="5.515"/>
<g>
	<defs>
		<rect id="SVGID_3_" x="0.75" y="0.922" width="86.857" height="75.828"/>
	</defs>
	<clipPath id="SVGID_4_">
		<use xlink:href="#SVGID_3_"  overflow="visible"/>
	</clipPath>
	<path clip-path="url(#SVGID_4_)" fill="#F47821" d="M42.8,31.253c-0.177,0-0.353-0.066-0.488-0.201l-4.136-4.137l0.975-0.975
		L42.8,29.59l6.406-6.406l0.976,0.975l-6.895,6.894C43.153,31.187,42.976,31.253,42.8,31.253"/>
	<path clip-path="url(#SVGID_4_)" fill="#212929" d="M44.179,16.088c-5.702,0-10.34,4.639-10.34,10.34
		c0,5.702,4.638,10.34,10.34,10.34s10.34-4.638,10.34-10.34C54.519,20.727,49.881,16.088,44.179,16.088 M44.179,38.147
		c-6.461,0-11.719-5.258-11.719-11.72s5.258-11.719,11.719-11.719s11.719,5.257,11.719,11.719S50.64,38.147,44.179,38.147"/>
</g>
<polyline fill="none" stroke="#212929" stroke-width="1.184" points="61.61,62.918 58.573,59.585 61.61,56.251 "/>
<polyline fill="none" stroke="#212929" stroke-width="1.184" points="16.979,20.453 20.016,23.787 16.979,27.12 "/>
</svg>
