<?xml version="1.0" encoding="utf-8"?>
<!-- Generator: Adobe Illustrator 15.0.2, SVG Export Plug-In . SVG Version: 6.00 Build 0)  -->
<!DOCTYPE svg PUBLIC "-//W3C//DTD SVG 1.1//EN" "http://www.w3.org/Graphics/SVG/1.1/DTD/svg11.dtd">
<svg version="1.1" id="Layer_1" xmlns="http://www.w3.org/2000/svg" xmlns:xlink="http://www.w3.org/1999/xlink" x="0px" y="0px"
	 width="106px" height="116px" viewBox="0 0 106 116" enable-background="new 0 0 106 116" xml:space="preserve">
<g>
	<defs>
		<rect id="SVGID_1_" x="4" y="11.696" width="99.669" height="90.031"/>
	</defs>
	<clipPath id="SVGID_2_">
		<use xlink:href="#SVGID_1_"  overflow="visible"/>
	</clipPath>
	<path clip-path="url(#SVGID_2_)" fill="#242B33" d="M5.228,96.243c-0.175,0-0.352-0.037-0.52-0.115
		c-0.614-0.288-0.879-1.02-0.591-1.634l32.338-69.123c0.286-0.616,1.019-0.882,1.631-0.593c0.616,0.288,0.881,1.018,0.592,1.634
		L6.34,95.535C6.133,95.982,5.689,96.243,5.228,96.243"/>
	<path clip-path="url(#SVGID_2_)" fill="#242B33" d="M39.636,23.026c-0.501,0-0.97-0.318-1.207-0.752
		c-0.103-0.18-0.161-0.383-0.161-0.603v-0.004c0-0.174,0.036-0.336,0.1-0.486c0.062-0.146,0.151-0.281,0.263-0.392
		c0.231-0.232,0.563-0.368,0.889-0.368c0.43,0,0.809,0.22,1.028,0.555c0.197,0.218,0.316,0.506,0.316,0.822
		C40.864,22.476,40.316,23.026,39.636,23.026z"/>
	<path clip-path="url(#SVGID_2_)" fill="#242B33" d="M82.98,101.728l-0.802-0.056c-0.592-0.038-14.574-1.053-26.139-7.563
		c-5.296-2.979-9.621-6.77-13.805-10.434c-6.277-5.5-12.204-10.691-20.078-11.518l-1.223-0.127l0.255-2.443l1.222,0.128
		c8.65,0.905,14.863,6.35,21.441,12.111c4.089,3.582,8.319,7.287,13.392,10.143c9.554,5.379,21.184,6.867,24.298,7.181
		c2.02-3.954,11.72-23.12,18.439-39.275c-10.978-0.399-20.705-7.566-30.132-14.507c-9.159-6.744-18.628-13.718-28.96-14.148
		l-1.226-0.052l0.102-2.454l1.226,0.051c11.082,0.462,20.859,7.662,30.313,14.625c10.068,7.412,19.566,14.414,30.468,14.03
		l1.896-0.067l-0.717,1.759c-7.517,18.421-19.48,41.665-19.603,41.898L82.98,101.728z"/>
	<path clip-path="url(#SVGID_2_)" fill="#242B33" d="M41.436,18.848c-0.18,0-0.364-0.041-0.536-0.124
		c-0.612-0.297-0.865-1.031-0.567-1.643l2.279-4.692c0.296-0.612,1.032-0.865,1.641-0.569c0.609,0.296,0.865,1.031,0.567,1.641
		l-2.28,4.694C42.329,18.593,41.892,18.848,41.436,18.848"/>
	<path clip-path="url(#SVGID_2_)" fill="#242B33" d="M55.367,55.076c-0.306,0-0.61-0.112-0.847-0.34
		c-7.807-7.429-16.257-12.191-23.188-13.071c-0.673-0.085-1.15-0.699-1.065-1.373c0.085-0.671,0.701-1.149,1.374-1.063
		c10.185,1.29,19.766,9.155,24.572,13.729c0.491,0.468,0.51,1.244,0.041,1.735C56.015,54.947,55.689,55.076,55.367,55.076"/>
	<path clip-path="url(#SVGID_2_)" fill="#242B33" d="M94.902,72.971c-0.039,0-0.08-0.002-0.12-0.006l-0.362-0.033
		c-4.249-0.404-15.538-1.479-25.407-6.561c-0.604-0.312-0.841-1.053-0.532-1.655c0.311-0.603,1.054-0.841,1.656-0.53
		c9.451,4.865,20.395,5.908,24.516,6.302l0.364,0.033c0.677,0.064,1.17,0.665,1.105,1.34C96.061,72.496,95.524,72.971,94.902,72.971
		"/>
	<path clip-path="url(#SVGID_2_)" fill="#242B33" d="M48.484,69.528c-0.286,0-0.572-0.099-0.804-0.302l-0.559-0.484
		c-7.03-6.1-13.67-11.862-22.391-12.969c-0.672-0.085-1.148-0.698-1.063-1.371c0.086-0.673,0.7-1.151,1.372-1.062
		c9.46,1.197,16.374,7.196,23.692,13.547l0.558,0.486c0.511,0.443,0.566,1.218,0.124,1.731
		C49.169,69.384,48.829,69.528,48.484,69.528"/>
	<path clip-path="url(#SVGID_2_)" fill="#242B33" d="M89.046,86.382c-0.037,0-0.074-0.002-0.111-0.006
		c-3.389-0.301-15.255-1.692-25.696-6.992c-0.606-0.308-0.849-1.048-0.54-1.65c0.307-0.606,1.046-0.849,1.65-0.54
		c10.05,5.101,21.527,6.448,24.804,6.736c0.677,0.061,1.176,0.657,1.116,1.332C90.212,85.901,89.674,86.382,89.046,86.382"/>
	<path clip-path="url(#SVGID_2_)" fill="#242B33" d="M53.476,69.481l-0.882-0.855c-6.798-6.584-15.256-14.778-26.121-17.232
		l-1.197-0.27l0.542-2.397l1.197,0.272c11.536,2.607,20.271,11.066,27.288,17.863l0.884,0.855L53.476,69.481z"/>
	<path clip-path="url(#SVGID_2_)" fill="#242B33" d="M90.071,82.528c-0.035,0-0.074-0.002-0.109-0.005
		c-3.683-0.325-16.532-1.859-27.299-7.845c-0.197-0.109-0.514-0.335-1.017-0.695c-0.24-0.172-0.602-0.433-0.698-0.491
		c-0.578-0.346-0.776-1.1-0.433-1.68c0.344-0.583,1.085-0.782,1.669-0.442c0.172,0.1,0.44,0.29,0.896,0.617
		c0.266,0.192,0.671,0.482,0.78,0.549c10.337,5.746,22.756,7.226,26.315,7.54c0.678,0.06,1.175,0.656,1.116,1.331
		C91.237,82.048,90.699,82.528,90.071,82.528"/>
	<path clip-path="url(#SVGID_2_)" fill="#242B33" d="M56.591,61.616c-0.307,0-0.613-0.116-0.854-0.346
		c-5.539-5.348-16.404-14.523-26.935-15.857c-0.674-0.087-1.15-0.7-1.065-1.373s0.7-1.149,1.374-1.064
		c11.237,1.423,22.575,10.966,28.333,16.528c0.488,0.472,0.503,1.25,0.03,1.737C57.234,61.491,56.912,61.616,56.591,61.616"/>
	<path clip-path="url(#SVGID_2_)" fill="#242B33" d="M92.656,76.999c-0.035,0-0.073-0.001-0.108-0.005
		c-1.617-0.141-16.124-1.588-27.789-8.072c-0.185-0.102-0.28-0.165-0.384-0.231c-0.058-0.037-0.117-0.077-0.219-0.137
		c-0.587-0.34-0.785-1.09-0.445-1.678c0.342-0.586,1.093-0.787,1.68-0.445c0.148,0.089,0.237,0.145,0.322,0.199
		c0.062,0.043,0.123,0.08,0.24,0.146c11.223,6.238,25.249,7.634,26.811,7.771c0.675,0.062,1.176,0.658,1.116,1.333
		C93.822,76.519,93.285,76.999,92.656,76.999"/>
</g>
<rect x="48.428" y="66.296" transform="matrix(0.9058 0.4236 -0.4236 0.9058 37.1167 -13.8243)" fill="#242B33" width="2.457" height="20.572"/>
<g>
	<path fill="#242B33" d="M57.274,61.524c-0.176,0-0.353-0.037-0.521-0.115c-0.614-0.288-0.88-1.018-0.592-1.633l8.479-18.122
		c0.285-0.614,1.017-0.88,1.63-0.591c0.617,0.288,0.88,1.018,0.594,1.634l-8.478,18.12C58.179,61.264,57.736,61.524,57.274,61.524"
		/>
	<path fill="#242B33" d="M42.471,82.957c-0.174,0-0.352-0.038-0.521-0.116c-0.613-0.286-0.877-1.02-0.59-1.634l6.186-13.223
		c0.288-0.615,1.019-0.879,1.633-0.593c0.614,0.288,0.879,1.019,0.592,1.634L43.583,82.25
		C43.375,82.695,42.933,82.957,42.471,82.957"/>
	<path fill="#242B33" d="M55.646,54.793c-0.174,0-0.353-0.037-0.52-0.114c-0.614-0.289-0.879-1.02-0.591-1.634l6.53-13.958
		c0.285-0.615,1.017-0.88,1.63-0.591c0.617,0.287,0.88,1.017,0.594,1.632l-6.531,13.958C56.55,54.533,56.108,54.793,55.646,54.793"
		/>
	<path fill="#242B33" d="M57.129,93.098c-0.174,0-0.354-0.039-0.52-0.116c-0.613-0.287-0.88-1.021-0.592-1.632l6.188-13.225
		c0.286-0.615,1.017-0.88,1.634-0.594c0.611,0.289,0.876,1.019,0.589,1.634L58.243,92.39C58.032,92.837,57.591,93.098,57.129,93.098
		"/>
	<path fill="#242B33" d="M53.783,90.039c-0.174,0-0.352-0.037-0.52-0.114c-0.614-0.289-0.879-1.021-0.591-1.634l7.331-15.673
		c0.286-0.614,1.019-0.882,1.632-0.592c0.617,0.286,0.88,1.019,0.594,1.634l-7.333,15.671
		C54.688,89.778,54.246,90.039,53.783,90.039"/>
	<path fill="#242B33" d="M64.094,68c-0.174,0-0.352-0.039-0.518-0.117c-0.615-0.286-0.88-1.018-0.591-1.632l9.162-19.592
		c0.288-0.615,1.021-0.879,1.634-0.591c0.615,0.287,0.88,1.018,0.591,1.632L65.21,67.292C64.999,67.739,64.556,68,64.094,68"/>
	<path fill="#242B33" d="M69.615,66.404c-0.174,0-0.351-0.038-0.519-0.116c-0.614-0.286-0.878-1.02-0.59-1.632l7.217-15.429
		c0.286-0.615,1.016-0.88,1.632-0.593c0.613,0.288,0.879,1.018,0.591,1.634l-7.218,15.429
		C70.521,66.143,70.077,66.404,69.615,66.404"/>
	<path fill="#242B33" d="M83.727,98.812c-0.258,0-0.517-0.079-0.737-0.246c-4.233-3.18-8.27-8.201-12.705-15.799
		c-0.344-0.587-0.146-1.338,0.44-1.682c0.588-0.342,1.338-0.142,1.682,0.442c4.206,7.205,8.151,12.138,12.057,15.074
		c0.543,0.408,0.654,1.177,0.245,1.721C84.466,98.644,84.099,98.812,83.727,98.812"/>
	<path fill="#242B33" d="M56.081,51.611l-0.577-1.086c-4.006-7.571-9.27-14.601-13.402-17.909l-0.958-0.769l1.535-1.916l0.958,0.767
		c5.31,4.25,10.736,12.438,14.042,18.68l0.572,1.087L56.081,51.611z"/>
	<path fill="#242B33" d="M76.805,100.645c-0.275,0-0.551-0.092-0.78-0.282c-4.583-3.794-9.081-9.946-14.152-19.365
		c-0.321-0.6-0.098-1.342,0.499-1.664c0.599-0.323,1.342-0.1,1.663,0.499c4.918,9.132,9.226,15.055,13.554,18.638
		c0.523,0.435,0.597,1.209,0.163,1.729C77.511,100.493,77.159,100.645,76.805,100.645"/>
	<path fill="#242B33" d="M72.798,63.637c-0.677,0-1.224-0.546-1.228-1.22c-0.003-0.679,0.54-1.232,1.22-1.236
		c7.64-0.048,18.987-1.967,23.803-4.025c0.625-0.268,1.348,0.022,1.611,0.646c0.267,0.624-0.021,1.345-0.645,1.611
		c-5.692,2.434-17.613,4.178-24.754,4.225H72.798z"/>
	<path fill="#242B33" d="M76.753,69.245c-0.677,0-1.226-0.549-1.228-1.228c-0.002-0.678,0.547-1.227,1.224-1.23
		c8.601-0.019,15.006-0.979,19.581-2.937c0.625-0.266,1.348,0.024,1.613,0.647c0.269,0.622-0.021,1.347-0.646,1.613
		c-4.954,2.117-11.481,3.113-20.541,3.134H76.753z"/>
	<path fill="#242B33" d="M45.639,47.346l-0.634-1.052c-3.14-5.2-6.044-8.833-8.883-11.104l-0.96-0.765l1.537-1.92l0.958,0.769
		c3.067,2.454,6.16,6.3,9.451,11.753l0.634,1.05L45.639,47.346z"/>
	<path fill="#242B33" d="M19.275,68.643c-0.562,0-1.069-0.388-1.198-0.959c-0.148-0.661,0.267-1.319,0.929-1.468
		c8.21-1.846,17.546-3.544,24.561-2.121c0.665,0.137,1.094,0.783,0.96,1.451c-0.135,0.663-0.784,1.092-1.448,0.957
		c-6.599-1.338-16.043,0.423-23.534,2.108C19.455,68.634,19.364,68.643,19.275,68.643"/>
	<path fill="#242B33" d="M29.504,73.229l-0.373-2.429l1.213-0.187c6.296-0.966,11.228-1.059,15.079-0.278l1.203,0.243l-0.488,2.41
		l-1.204-0.246c-3.561-0.721-8.213-0.624-14.217,0.3L29.504,73.229z"/>
</g>
</svg>
