<?xml version="1.0" encoding="utf-8"?>
<!-- Generator: Adobe Illustrator 15.0.2, SVG Export Plug-In . SVG Version: 6.00 Build 0)  -->
<!DOCTYPE svg PUBLIC "-//W3C//DTD SVG 1.1//EN" "http://www.w3.org/Graphics/SVG/1.1/DTD/svg11.dtd">
<svg version="1.1" id="Layer_1" xmlns="http://www.w3.org/2000/svg" xmlns:xlink="http://www.w3.org/1999/xlink" x="0px" y="0px"
	 width="129px" height="95px" viewBox="0 0 129 95" enable-background="new 0 0 129 95" xml:space="preserve">
<g>
	<rect x="42.314" y="48.354" width="45.979" height="1.277"/>
</g>
<g>
	<rect x="47.212" y="49.984" width="1.276" height="40.02"/>
</g>
<g>
	<rect x="81.555" y="50.27" width="1.276" height="40.02"/>
</g>
<g>
	<g>
		<g>
			<path d="M45.596,19.562c-5.096,0-9.24-4.145-9.24-9.24c0-5.095,4.145-9.24,9.24-9.24c5.094,0,9.239,4.146,9.239,9.24
				C54.835,15.418,50.689,19.562,45.596,19.562 M45.596,2.141c-4.512,0-8.183,3.67-8.183,8.182c0,4.512,3.671,8.182,8.183,8.182
				c4.51,0,8.18-3.67,8.18-8.182C53.776,5.811,50.105,2.141,45.596,2.141"/>
		</g>
		<g>
			<path d="M45.596,2.222c-4.467,0-8.101,3.635-8.101,8.101c0,4.467,3.634,8.1,8.101,8.1c4.465,0,8.098-3.633,8.098-8.1
				C53.693,5.856,50.061,2.222,45.596,2.222 M45.596,18.586c-4.557,0-8.264-3.707-8.264-8.264c0-4.556,3.707-8.263,8.264-8.263
				c4.555,0,8.262,3.707,8.262,8.263C53.857,14.879,50.15,18.586,45.596,18.586 M45.596,1.164c-5.051,0-9.158,4.108-9.158,9.158
				c0,5.051,4.107,9.158,9.158,9.158c5.049,0,9.157-4.107,9.157-9.158C54.753,5.272,50.645,1.164,45.596,1.164 M45.596,19.645
				c-5.141,0-9.322-4.184-9.322-9.322C36.274,5.185,40.455,1,45.596,1c5.139,0,9.321,4.184,9.321,9.322
				C54.917,15.46,50.734,19.645,45.596,19.645"/>
		</g>
		<g>
			<path d="M12.184,91.482H9.572c-2.518,0-4.564-2.664-4.564-5.939C5,85.266,4.082,55.982,4.082,50.561
				c0-5.368,1.807-10.391,5.861-16.286l0.873,0.603C6.838,40.66,5.141,45.352,5.141,50.562c0,5.405,0.918,34.672,0.926,34.967
				c0,2.709,1.572,4.896,3.506,4.896h2.611c1.932,0,3.504-2.188,3.504-4.881V54.242l0.317-0.141
				c0.149-0.062,0.526-0.359,0.802-0.576c0.289-0.229,0.562-0.439,0.766-0.559l0.527,0.919c-0.138,0.079-0.404,0.288-0.641,0.474
				c-0.285,0.227-0.518,0.401-0.712,0.531v30.65C16.747,88.818,14.699,91.482,12.184,91.482 M34.574,55.549
				c-1.793,0-3.932-0.717-4.807-2.357l-0.022-0.043c-0.024-0.061-0.606-1.461-0.751-3.025l-0.002-0.053v-6.548
				c-1.951,2.293-5.974,6.814-7.688,8.559l1.051-2.815c1.284-1.308,3.927-4.123,6.758-7.535l0.937-1.127v9.443
				c0.125,1.297,0.593,2.494,0.663,2.67c0.6,1.092,2.241,1.822,4.005,1.771c1.556-0.039,2.778-0.674,3.276-1.697
				c0.227-0.684,0.459-1.869,0.459-2.719V22.564c0-1.891-0.706-3.632-1.801-4.436l-0.029-0.025c-0.023-0.02-0.047-0.04-0.07-0.061
				c-0.015-0.017-0.031-0.029-0.047-0.043c-2.016-1.582-5.386-1.248-9.49,0.94c-4.238,2.259-8.69,6.203-12.537,11.106
				c-0.33,0.422-0.74,0.979-1.136,1.519c-0.261,0.356-2.075,2.672-2.282,2.944l-0.304-1.453c0.205-0.268,1.474-1.764,1.732-2.117
				c0.4-0.546,0.816-1.109,1.156-1.546c3.937-5.017,8.508-9.062,12.873-11.388c4.496-2.397,8.276-2.696,10.641-0.84
				c0.039,0.029,0.076,0.062,0.111,0.096l0.03,0.027c1.365,1.017,2.214,3.034,2.214,5.273v27.504c0,1.006-0.272,2.342-0.527,3.088
				l-0.022,0.055c-0.663,1.412-2.239,2.282-4.219,2.336C34.688,55.547,34.63,55.549,34.574,55.549"/>
		</g>
		<g>
			<path d="M29.074,43.299l0.001,6.817c0.138,1.487,0.683,2.847,0.745,2.995l0.02,0.043c0.911,1.705,3.12,2.312,4.734,2.312
				c0.057,0,0.113-0.002,0.17-0.002c1.945-0.053,3.496-0.907,4.146-2.289l0.019-0.049c0.252-0.737,0.521-2.062,0.521-3.06V22.564
				c0-2.212-0.834-4.208-2.179-5.21l-0.035-0.03c-0.036-0.033-0.073-0.064-0.108-0.096c-1.002-0.785-2.269-1.184-3.762-1.184
				c-1.974,0-4.259,0.684-6.791,2.033c-4.354,2.319-8.916,6.356-12.847,11.365c-0.351,0.448-0.796,1.057-1.153,1.544
				c-0.238,0.324-1.489,1.796-1.683,2.054l0.173,1.354c0.195-0.262,1.991-2.548,2.23-2.877l0.051-0.066
				c0.379-0.516,0.77-1.05,1.087-1.453c3.854-4.912,8.315-8.865,12.563-11.129c2.406-1.283,4.547-1.935,6.358-1.935
				c1.291,0,2.374,0.337,3.222,1.001c0.018,0.014,0.035,0.031,0.053,0.048c0.021,0.019,0.043,0.038,0.064,0.058l0.03,0.022
				c1.11,0.817,1.831,2.585,1.831,4.501v27.502c0,0.882-0.239,2.069-0.465,2.742c-0.514,1.062-1.766,1.717-3.35,1.758
				c-1.801,0.053-3.462-0.691-4.08-1.812c-0.094-0.232-0.55-1.418-0.673-2.701v-9.227l-0.792,0.953
				c-2.105,2.537-6.057,7.896-5.493,7.56l-3.213,3.328c1.693-1.729,6.502-6.901,8.459-9.2L29.074,43.299z M34.574,55.631
				c-1.66,0-3.934-0.631-4.881-2.4l-0.021-0.047c-0.066-0.16-0.619-1.539-0.76-3.057L28.91,50.07v-6.329
				c-3.46,4.052-7.909,8.639-8.012,8.743l-0.211-0.109L21,51.5l-0.523-0.497c1.287-1.312,5.75-5.924,8.574-9.327l1.081-1.303v9.67
				c0.12,1.254,0.568,2.418,0.656,2.641c0.585,1.062,2.173,1.773,3.927,1.724c1.523-0.039,2.721-0.657,3.205-1.655
				c0.221-0.658,0.451-1.85,0.451-2.682V22.566c0-1.866-0.693-3.582-1.768-4.371L36.57,18.17c-0.025-0.021-0.049-0.043-0.072-0.064
				c-0.016-0.016-0.029-0.027-0.042-0.037c-0.817-0.643-1.868-0.968-3.121-0.968c-1.785,0-3.897,0.644-6.282,1.915
				c-4.228,2.254-8.672,6.189-12.511,11.086c-0.315,0.402-0.706,0.934-1.084,1.449l-0.05,0.065
				c-0.262,0.357-2.076,2.672-2.283,2.946l-0.049,0.062l-0.434-1.551l0.05-0.063c0.204-0.269,1.473-1.765,1.73-2.116
				c0.359-0.489,0.805-1.098,1.157-1.549c3.944-5.025,8.524-9.077,12.899-11.409c2.556-1.362,4.867-2.054,6.867-2.054
				c1.531,0,2.83,0.412,3.862,1.221c0.041,0.033,0.08,0.068,0.117,0.102l0.028,0.024c1.381,1.028,2.24,3.075,2.24,5.338V50.07
				c0,1.014-0.273,2.359-0.531,3.113l-0.022,0.058c-0.679,1.442-2.283,2.334-4.293,2.39C34.689,55.629,34.631,55.631,34.574,55.631
				 M9.964,34.388c-4.011,5.85-5.801,10.841-5.8,16.172c0,5.354,0.888,33.771,0.925,34.979C5.09,88.771,7.1,91.4,9.572,91.4h2.611
				c2.471,0,4.481-2.629,4.481-5.857V54.85l0.037-0.024c0.2-0.134,0.448-0.325,0.707-0.526c0.192-0.148,0.426-0.334,0.579-0.438
				l-0.446-0.777c-0.187,0.119-0.429,0.311-0.681,0.506l-0.021,0.02c-0.288,0.227-0.647,0.506-0.804,0.574l-0.268,0.115v31.246
				c0,2.737-1.608,4.965-3.586,4.965H9.572c-1.979,0-3.588-2.232-3.588-4.979L5.97,85.107C5.697,76.24,5.058,55.124,5.058,50.562
				c0-5.208,1.688-9.896,5.644-15.666L9.964,34.388z M12.184,91.564H9.572c-2.562,0-4.646-2.703-4.646-6.021
				C4.889,84.338,4,55.916,4,50.562C3.999,45.174,5.812,40.139,9.876,34.23l0.046-0.067l1.008,0.692l-0.047,0.067
				c-3.968,5.77-5.66,10.445-5.66,15.641c0,4.557,0.637,25.672,0.912,34.539l0.014,0.426c0,2.656,1.535,4.816,3.424,4.816h2.611
				c1.887,0,3.422-2.152,3.422-4.801V54.189l0.367-0.162c0.135-0.062,0.516-0.354,0.769-0.553l0.071,0.049l-0.052-0.062
				c0.29-0.229,2.616-1.884,2.823-2.003l0.125-0.125L21,52l-1.333,0.834c-0.136,0.078-1.949,1.43-2.158,1.592
				c-0.245,0.193-0.481,0.377-0.68,0.514v30.605C16.829,88.861,14.744,91.564,12.184,91.564"/>
		</g>
	</g>
	<g>
		<path fill="#FFFFFF" d="M11.079,33.118c0,0,1.028,8.14,3.398,9.015c2.782,1.026,1.697,2.281,2.439,3.451
			C18.082,47.421,21,51.5,21,51.5s0.174,0.752-1.163,1.201C18.501,53.146,16.25,49,16.25,49s-0.875,2.562-1.263,6.148
			c-0.251,2.322-0.013,3.252-0.013,3.252l-2.041-0.16c0,0,0.234-4.656,0.567-7.156c0.342-1.259,0.75-2.896,1.062-4.521
			c-1.354,0.125-2.625-1.688-2-3c-1.312-1.125-1.154-0.917-3.687-3.162c-2.533-2.245-3.86-3.873-3.86-3.873l0.828-2.021
			c0,0,4.723,6.055,4.906,4.68c0.074-0.562-0.314-1.629-0.625-2.375c-0.312-1.162-0.493-1.456-0.409-2.138
			C9.828,34.318,11.079,33.118,11.079,33.118z"/>
		<path fill="#ED3193" d="M15.62,58.949l-3.21-0.249l0.024-0.485c0.01-0.19,0.239-4.705,0.571-7.197
			c0.279-1.044,0.649-2.49,0.958-4.004c-0.625-0.149-1.216-0.587-1.614-1.218c-0.42-0.666-0.551-1.416-0.375-2.077
			c-0.298-0.252-0.513-0.43-0.723-0.604c-0.526-0.435-1.028-0.851-2.708-2.339c-2.535-2.246-3.861-3.863-3.916-3.931l-0.188-0.23
			l1.267-3.094l0.53,0.68c1.399,1.793,3.127,3.769,3.975,4.453c-0.065-0.327-0.215-0.847-0.549-1.647
			c-0.098-0.347-0.166-0.578-0.224-0.775c-0.185-0.624-0.296-1-0.22-1.616c0.145-0.485,0.902-1.268,1.514-1.855l0.717-0.688
			l0.125,0.986c0.383,3.031,1.557,8.048,3.075,8.608c2.173,0.802,2.312,1.863,2.423,2.715c0.046,0.352,0.086,0.656,0.265,0.938
			c1.145,1.804,4.039,5.852,4.068,5.893l0.081,0.179c0.011,0.049,0.256,1.2-1.491,1.787c-0.119,0.04-0.243,0.06-0.37,0.06
			c0,0,0,0,0,0c-1.147,0-2.436-1.725-3.222-2.981c-0.285,1.065-0.69,2.832-0.919,4.949c-0.234,2.167-0.026,3.069-0.024,3.078
			L15.62,58.949z M13.458,57.78l0.941,0.073c-0.041-0.545-0.053-1.44,0.09-2.759c0.39-3.6,1.25-6.149,1.287-6.256l0.368-1.079
			l0.544,1.002c0.911,1.677,2.309,3.473,2.937,3.473c0.61-0.196,0.823-0.435,0.871-0.579c-0.523-0.733-2.948-4.143-4.003-5.803
			c-0.297-0.469-0.358-0.934-0.412-1.344c-0.096-0.733-0.171-1.313-1.778-1.906c-2.128-0.786-3.203-6.096-3.575-8.418
			c-0.25,0.268-0.454,0.504-0.526,0.625c-0.034,0.364,0.033,0.59,0.194,1.137c0.06,0.204,0.131,0.443,0.209,0.736
			c0.743,1.772,0.664,2.373,0.638,2.57c-0.059,0.441-0.385,0.638-0.683,0.638c0,0,0,0,0,0c-0.862,0-2.869-2.257-4.58-4.401
			l-0.388,0.946c0.448,0.516,1.679,1.877,3.613,3.591c1.664,1.475,2.161,1.886,2.682,2.317c0.271,0.225,0.55,0.455,0.999,0.84
			l0.291,0.249l-0.165,0.345c-0.203,0.427-0.135,0.982,0.182,1.484c0.31,0.491,0.794,0.808,1.234,0.808l0.662-0.062l-0.038,0.649
			c-0.334,1.737-0.767,3.438-1.071,4.558C13.729,53.143,13.528,56.525,13.458,57.78z"/>
	</g>
</g>
<g>
	<g>
		<polygon fill="#ED3193" points="59.475,46.421 58.561,45.169 58.812,44.985 62.609,31.271 61.889,31.061 58.355,43.67 
			58.359,43.674 58.352,43.682 58.266,43.985 58.127,43.948 57.697,44.452 57.194,44.026 61.182,29.792 63.863,30.573 		"/>
	</g>
	<g>
		<path fill="#ED3193" d="M44.922,45.325h13.541v-0.22l-0.623-0.53H44.922V45.325L44.922,45.325z M59.485,46.345H43.899v-2.793
			h14.317l1.269,1.079V46.345z"/>
	</g>
</g>
<g>
	<g>
		<g>
			<path d="M84.932,19.562c-5.095,0-9.24-4.144-9.24-9.24c0-5.094,4.146-9.24,9.24-9.24s9.239,4.145,9.239,9.24
				C94.171,15.417,90.025,19.562,84.932,19.562 M84.932,2.141c-4.511,0-8.181,3.67-8.181,8.182c0,4.512,3.67,8.182,8.181,8.182
				c4.512,0,8.182-3.67,8.182-8.182C93.113,5.811,89.441,2.141,84.932,2.141"/>
		</g>
		<g>
			<path d="M84.932,2.222c-4.466,0-8.099,3.634-8.099,8.101c0,4.467,3.633,8.1,8.099,8.1c4.467,0,8.101-3.633,8.101-8.1
				C93.031,5.857,89.396,2.222,84.932,2.222 M84.932,18.586c-4.556,0-8.263-3.707-8.263-8.264c0-4.556,3.707-8.263,8.263-8.263
				c4.557,0,8.264,3.707,8.264,8.263C93.193,14.879,89.486,18.586,84.932,18.586 M84.932,1.164c-5.05,0-9.158,4.108-9.158,9.158
				c0,5.051,4.108,9.158,9.158,9.158c5.051,0,9.157-4.107,9.157-9.158C94.089,5.272,89.98,1.164,84.932,1.164 M84.932,19.645
				c-5.14,0-9.322-4.185-9.322-9.323C75.609,5.184,79.792,1,84.932,1c5.141,0,9.321,4.185,9.321,9.323
				C94.253,15.461,90.07,19.645,84.932,19.645"/>
		</g>
		<g>
			<path d="M118.343,91.482c-2.516,0-4.563-2.664-4.563-5.939V54.891c-0.193-0.129-0.426-0.305-0.711-0.531
				c-0.236-0.184-0.504-0.393-0.642-0.473l0.526-0.918c0.204,0.117,0.479,0.33,0.768,0.557c0.274,0.218,0.651,0.515,0.801,0.576
				l0.317,0.142v31.303c0,2.693,1.571,4.881,3.504,4.881h2.61c1.936,0,3.507-2.188,3.507-4.896
				c0.008-0.295,0.927-29.561,0.927-34.967c0-5.211-1.697-9.902-5.677-15.686l0.873-0.603c4.056,5.895,5.86,10.918,5.86,16.287
				c0,5.422-0.918,34.705-0.926,34.981c0,3.274-2.047,5.938-4.563,5.938H118.343 M95.952,55.549c-0.056,0-0.113-0.002-0.173-0.006
				c-1.979-0.053-3.555-0.924-4.219-2.336l-0.021-0.055c-0.256-0.746-0.526-2.082-0.526-3.088V22.56
				c0-2.239,0.848-4.256,2.213-5.273l0.03-0.027c0.035-0.034,0.071-0.067,0.11-0.096c2.365-1.856,6.146-1.557,10.642,0.84
				c4.365,2.326,8.937,6.371,12.873,11.388c0.341,0.437,0.757,1,1.155,1.546c0.259,0.353,1.527,1.849,1.732,2.117l-0.305,1.453
				c-0.207-0.272-2.021-2.588-2.281-2.944c-0.396-0.54-0.807-1.097-1.137-1.519c-3.848-4.903-8.299-8.847-12.537-11.106
				c-4.104-2.188-7.475-2.522-9.49-0.94c-0.016,0.014-0.031,0.026-0.047,0.043c-0.022,0.021-0.047,0.041-0.07,0.061l-0.028,0.025
				c-1.095,0.804-1.801,2.545-1.801,4.436V50.07c0,0.85,0.231,2.035,0.459,2.719c0.497,1.023,1.721,1.658,3.276,1.697
				c1.764,0.053,3.404-0.68,4.004-1.771c0.07-0.176,0.539-1.373,0.664-2.67v-9.443l0.937,1.127c2.831,3.412,5.476,6.226,6.758,7.534
				l1.052,2.815c-1.714-1.744-5.736-6.266-7.688-8.559v6.548l-0.002,0.054c-0.146,1.563-0.728,2.965-0.751,3.024l-0.022,0.043
				C99.884,54.832,97.745,55.549,95.952,55.549"/>
		</g>
		<g>
			<path d="M101.6,43.467c1.957,2.299,6.767,7.471,8.459,9.201l-3.213-3.328c0.563,0.336-3.388-5.023-5.492-7.561l-0.793-0.953
				v9.227c-0.123,1.283-0.578,2.469-0.672,2.701c-0.619,1.121-2.279,1.865-4.08,1.812c-1.584-0.041-2.836-0.695-3.351-1.758
				c-0.228-0.673-0.466-1.859-0.466-2.742V22.564c0-1.916,0.722-3.684,1.831-4.501l0.03-0.022c0.021-0.02,0.043-0.039,0.062-0.058
				c0.02-0.017,0.035-0.034,0.053-0.048c0.85-0.664,1.932-1.001,3.223-1.001c1.812,0,3.953,0.652,6.357,1.935
				c4.248,2.264,8.709,6.217,12.562,11.129c0.318,0.403,0.709,0.937,1.088,1.453l0.051,0.066c0.239,0.329,2.035,2.615,2.23,2.877
				l0.172-1.354c-0.193-0.258-1.443-1.73-1.682-2.054c-0.357-0.487-0.804-1.096-1.154-1.544c-3.93-5.009-8.492-9.046-12.846-11.365
				c-2.533-1.349-4.818-2.033-6.791-2.033c-1.494,0-2.761,0.399-3.763,1.184c-0.035,0.032-0.071,0.063-0.108,0.096l-0.035,0.03
				c-1.344,1.002-2.178,2.998-2.178,5.21v27.502c0,0.998,0.269,2.322,0.521,3.061l0.019,0.049c0.65,1.381,2.201,2.236,4.146,2.289
				c0.057,0,0.113,0.002,0.17,0.002c1.613,0,3.822-0.607,4.734-2.312l0.02-0.043c0.062-0.147,0.607-1.508,0.745-2.993l0.001-6.818
				L101.6,43.467z M95.952,55.631c-0.058,0-0.115-0.002-0.173,0c-2.01-0.055-3.612-0.947-4.293-2.389l-0.021-0.059
				c-0.258-0.754-0.53-2.101-0.53-3.113V22.567c0-2.263,0.858-4.31,2.239-5.338l0.027-0.024c0.037-0.034,0.075-0.069,0.116-0.102
				c1.033-0.809,2.332-1.221,3.861-1.221c2,0,4.312,0.692,6.867,2.054c4.375,2.332,8.955,6.384,12.898,11.409
				c0.354,0.451,0.799,1.06,1.158,1.549c0.256,0.351,1.524,1.847,1.729,2.116l0.049,0.063l-0.434,1.551l-0.05-0.062
				c-0.207-0.274-2.021-2.589-2.282-2.946l-0.05-0.065c-0.379-0.515-0.77-1.047-1.084-1.449c-3.84-4.897-8.283-8.832-12.512-11.086
				c-2.385-1.271-4.496-1.915-6.281-1.915c-1.254,0-2.305,0.325-3.121,0.968c-0.014,0.01-0.026,0.021-0.043,0.037
				c-0.022,0.021-0.047,0.043-0.071,0.064l-0.033,0.025c-1.073,0.789-1.769,2.505-1.769,4.371V50.07c0,0.832,0.23,2.022,0.451,2.682
				c0.484,0.998,1.683,1.615,3.205,1.654c1.754,0.051,3.342-0.66,3.928-1.723c0.088-0.224,0.535-1.388,0.656-2.642v-9.67l1.08,1.303
				c2.824,3.403,7.287,8.017,8.574,9.328l-0.523,0.496l0.312,0.875l-0.211,0.108c-0.104-0.104-4.552-4.691-8.012-8.742v6.328
				l-0.002,0.058c-0.141,1.519-0.693,2.896-0.76,3.058l-0.021,0.047C99.887,55,97.611,55.631,95.952,55.631 M119.824,34.898
				c3.955,5.769,5.644,10.456,5.644,15.665c0,4.562-0.639,25.679-0.911,34.545l-0.015,0.422c0,2.746-1.608,4.98-3.588,4.98h-2.608
				c-1.979,0-3.587-2.229-3.587-4.965V54.299l-0.268-0.117c-0.156-0.067-0.517-0.348-0.804-0.574l-0.021-0.018
				c-0.252-0.197-0.494-0.387-0.682-0.506l-0.445,0.777c0.152,0.104,0.387,0.287,0.578,0.438c0.26,0.201,0.508,0.393,0.707,0.525
				l0.037,0.025v30.692c0,3.229,2.01,5.856,4.479,5.856h2.611c2.473,0,4.481-2.629,4.483-5.86
				c0.037-1.207,0.924-29.625,0.924-34.979c0.002-5.332-1.789-10.322-5.799-16.171L119.824,34.898z M118.343,91.564
				c-2.561,0-4.646-2.703-4.646-6.021V54.939c-0.198-0.138-0.436-0.32-0.68-0.515c-0.209-0.161-2.022-1.514-2.158-1.592L109.525,52
				l1.291-0.666l0.125,0.125c0.207,0.119,2.533,1.773,2.822,2.002l-0.051,0.062l0.07-0.049c0.254,0.198,0.635,0.491,0.77,0.553
				l0.367,0.162v31.354c0,2.648,1.535,4.801,3.422,4.801h2.61c1.89,0,3.425-2.16,3.425-4.816l0.014-0.426
				c0.275-8.867,0.912-29.981,0.912-34.539c0-5.194-1.691-9.871-5.66-15.641l-0.047-0.067l1.008-0.692l0.047,0.067
				c4.062,5.909,5.877,10.944,5.875,16.333c0,5.354-0.889,33.775-0.926,34.98c0,3.318-2.084,6.021-4.646,6.021H118.343"/>
		</g>
	</g>
	<g>
		<path fill="#FFFFFF" d="M120.811,34.675c0.084,0.682-0.097,0.976-0.408,2.138c-0.312,0.746-0.699,1.813-0.625,2.375
			c0.184,1.375,4.906-4.68,4.906-4.68l0.828,2.021c0,0-1.328,1.627-3.861,3.873c-2.531,2.244-2.373,2.037-3.687,3.162
			c0.625,1.312-0.646,3.125-2,3c0.312,1.625,0.722,3.264,1.062,4.522c0.334,2.5,0.567,7.156,0.567,7.156l-2.041,0.16
			c0,0,0.238-0.93-0.013-3.25c-0.389-3.588-1.264-6.15-1.264-6.15s-2.252,4.146-3.588,3.701c-1.336-0.449-1.162-1.201-1.162-1.201
			s2.918-4.079,4.084-5.916c0.742-1.17-0.344-2.426,2.438-3.451c2.37-0.875,3.398-9.015,3.398-9.015S120.698,34.318,120.811,34.675z
			"/>
		<path fill="#ED3193" d="M114.894,58.955l0.173-0.674c0.008-0.031,0.207-0.938-0.024-3.075c-0.229-2.122-0.635-3.888-0.92-4.952
			c-0.786,1.257-2.076,2.982-3.224,2.982c-0.127,0-0.251-0.02-0.369-0.059c-1.747-0.588-1.502-1.739-1.491-1.788l0.081-0.179
			c0.028-0.041,2.923-4.089,4.068-5.893c0.179-0.281,0.218-0.585,0.264-0.938c0.111-0.852,0.249-1.913,2.423-2.714
			c1.519-0.561,2.692-5.578,3.075-8.608l0.124-0.984l0.718,0.686c0.613,0.587,1.372,1.37,1.496,1.766
			c0.096,0.705-0.016,1.082-0.199,1.706c-0.059,0.198-0.127,0.429-0.202,0.712c-0.355,0.856-0.51,1.397-0.574,1.729
			c0.814-0.661,2.564-2.659,3.978-4.472l0.53-0.68l1.268,3.094l-0.188,0.23c-0.056,0.068-1.383,1.685-3.917,3.931
			c-1.688,1.497-2.187,1.909-2.716,2.347c-0.208,0.172-0.421,0.348-0.715,0.598c0.176,0.66,0.045,1.411-0.375,2.076
			c-0.397,0.63-0.989,1.069-1.614,1.218c0.245,1.202,0.562,2.524,0.945,3.941c0.346,2.557,0.575,7.071,0.584,7.262l0.024,0.485
			L114.894,58.955z M114.38,47.761l0.369,1.08c0.036,0.106,0.896,2.656,1.287,6.258c0.143,1.316,0.131,2.212,0.09,2.757l0.941-0.073
			c-0.069-1.256-0.273-4.65-0.537-6.63c-0.436-1.595-0.796-3.128-1.058-4.494l-0.125-0.653l0.662,0.061c0.003,0,0.007,0,0.01,0
			c0.523,0,1.004-0.316,1.312-0.803c0.317-0.502,0.385-1.057,0.182-1.484l-0.165-0.346l0.291-0.249
			c0.444-0.38,0.722-0.61,0.99-0.832c0.524-0.434,1.018-0.842,2.689-2.324c1.935-1.715,3.166-3.075,3.615-3.591l-0.388-0.947
			c-1.712,2.145-3.718,4.401-4.581,4.401l0,0c-0.298,0-0.624-0.197-0.683-0.637c-0.026-0.199-0.106-0.802,0.659-2.634
			c0.057-0.229,0.127-0.468,0.187-0.672c0.162-0.547,0.229-0.773,0.194-1.138c-0.072-0.121-0.275-0.357-0.526-0.625
			c-0.372,2.321-1.447,7.633-3.576,8.419c-1.605,0.592-1.681,1.171-1.776,1.905c-0.054,0.411-0.114,0.876-0.412,1.345
			c-1.059,1.668-3.5,5.099-4.009,5.813c0.043,0.124,0.245,0.367,0.824,0.562c0.002,0,0.003,0,0.004,0
			c0.683,0,2.076-1.792,2.985-3.466L114.38,47.761z"/>
	</g>
</g>
<g>
	<g>
		<polygon fill="#ED3193" points="67.1,30.406 69.779,29.625 73.768,43.858 73.266,44.284 72.835,43.78 72.695,43.817 
			72.609,43.515 72.604,43.507 72.605,43.503 69.073,30.894 68.354,31.104 72.148,44.817 72.4,45.003 71.486,46.255 		"/>
	</g>
	<g>
		<path fill="#ED3193" d="M86.04,45.157v-0.75H73.122l-0.623,0.531v0.219H86.04L86.04,45.157z M71.477,44.464l1.27-1.078h14.316
			v2.793H71.477V44.464z"/>
	</g>
</g>
</svg>
