<?xml version="1.0" encoding="utf-8"?>
<!-- Generator: Adobe Illustrator 15.0.2, SVG Export Plug-In . SVG Version: 6.00 Build 0)  -->
<!DOCTYPE svg PUBLIC "-//W3C//DTD SVG 1.1//EN" "http://www.w3.org/Graphics/SVG/1.1/DTD/svg11.dtd">
<svg version="1.1" id="Layer_1" xmlns="http://www.w3.org/2000/svg" xmlns:xlink="http://www.w3.org/1999/xlink" x="0px" y="0px"
	 width="96px" height="95px" viewBox="0 0 96 95" enable-background="new 0 0 96 95" xml:space="preserve">
<path fill="#87BD30" d="M4.578,86.945l4.699,4.699l59.209-63.391l-1.325-1.325L4.578,86.945z M9.277,93.368
	c-0.184,0-0.365-0.068-0.504-0.209L3.064,87.45c-0.279-0.279-0.279-0.729,0-1.009l63.592-61.025c0.279-0.278,0.729-0.278,1.011,0
	L70,27.75c0.277,0.277,0.277,0.729,0,1.01L9.782,93.159C9.644,93.3,9.461,93.368,9.277,93.368"/>
<path fill="#87BD30" d="M25.643,13.441l5.363,4.146c0.236,0.182,0.334,0.491,0.246,0.776l-2.051,6.628l5.322-4.26
	c0.262-0.207,0.63-0.207,0.893,0l5.248,4.201l-2.091-6.271c-0.094-0.284-0.001-0.598,0.232-0.783l5.547-4.438h-6.529
	c-0.306,0-0.579-0.196-0.677-0.487L34.969,6.42l-2.176,6.533c-0.099,0.291-0.371,0.487-0.679,0.487L25.643,13.441L25.643,13.441
	L25.643,13.441z M42.105,27.714c-0.157,0-0.316-0.052-0.445-0.156l-6.691-5.353l-6.69,5.353c-0.243,0.195-0.589,0.209-0.847,0.033
	c-0.26-0.177-0.373-0.502-0.28-0.802l2.591-8.374l-6.628-5.122c-0.241-0.188-0.337-0.507-0.239-0.796
	c0.1-0.288,0.371-0.482,0.676-0.482h8.05l2.692-8.076c0.193-0.582,1.158-0.582,1.354,0l2.691,8.076h8.05
	c0.302,0,0.573,0.191,0.673,0.479c0.102,0.285,0.01,0.604-0.227,0.793l-6.748,5.398l2.697,8.091c0.098,0.301-0.01,0.631-0.269,0.812
	C42.392,27.673,42.248,27.714,42.105,27.714"/>
<path fill="#212929" d="M52.096,84.807c-9.35,0-18.479-3.252-25.708-9.154l0.902-1.104c6.977,5.693,15.787,8.831,24.809,8.831
	L52.096,84.807L52.096,84.807z"/>
<path fill="#212929" d="M85.482,67.372l-1.172-0.815c4.604-6.6,7.035-14.354,7.035-22.43c0-4.315-0.695-8.559-2.066-12.608
	l1.352-0.457c1.424,4.197,2.145,8.594,2.145,13.065C92.773,52.496,90.252,60.534,85.482,67.372"/>
<path fill="#212929" d="M66.113,7.454c-4.471-1.709-9.187-2.576-14.018-2.576V3.451c5.006,0,9.895,0.897,14.526,2.67L66.113,7.454z"
	/>
<path fill="#212929" d="M20.572,69.839c-5.902-7.229-9.152-16.36-9.152-25.711c0-8.369,2.521-16.406,7.291-23.244l1.172,0.816
	c-4.603,6.598-7.036,14.354-7.036,22.428c0,9.022,3.136,17.834,8.832,24.808L20.572,69.839z"/>
<path fill="#212929" d="M73.504,43.415c-0.395,0-0.713,0.318-0.713,0.713s0.318,0.715,0.713,0.715s0.715-0.32,0.715-0.715
	S73.898,43.415,73.504,43.415 M73.504,46.269c-1.182,0-2.143-0.961-2.143-2.142s0.961-2.142,2.143-2.142s2.143,0.961,2.143,2.142
	S74.686,46.269,73.504,46.269"/>
<path fill="#212929" d="M57.805,13.441c-0.393,0-0.713,0.319-0.713,0.714s0.32,0.714,0.713,0.714c0.395,0,0.713-0.319,0.713-0.714
	S58.198,13.441,57.805,13.441 M57.805,16.296c-1.182,0-2.141-0.96-2.141-2.141c0-1.182,0.959-2.143,2.141-2.143
	s2.143,0.961,2.143,2.143C59.945,15.336,58.984,16.296,57.805,16.296"/>
<path fill="#212929" d="M34.969,33.425c-0.393,0-0.713,0.318-0.713,0.713c0,0.394,0.32,0.713,0.713,0.713
	c0.393,0,0.714-0.319,0.714-0.713C35.683,33.743,35.361,33.425,34.969,33.425 M34.969,36.278c-1.182,0-2.141-0.961-2.141-2.143
	c0-1.181,0.959-2.141,2.141-2.141c1.181,0,2.141,0.96,2.141,2.141C37.109,35.317,36.149,36.278,34.969,36.278"/>
<path fill="#212929" d="M54.951,60.541c-0.395,0-0.715,0.318-0.715,0.714s0.32,0.716,0.715,0.716c0.393,0,0.713-0.32,0.713-0.716
	S55.344,60.541,54.951,60.541 M54.951,63.396c-1.182,0-2.143-0.961-2.143-2.144c0-1.181,0.961-2.142,2.143-2.142
	c1.18,0,2.141,0.961,2.141,2.142C57.092,62.436,56.131,63.396,54.951,63.396"/>
<path fill="#212929" d="M79.213,54.833c-0.395,0-0.713,0.317-0.713,0.713s0.318,0.715,0.713,0.715s0.715-0.319,0.715-0.715
	S79.607,54.833,79.213,54.833 M79.213,57.688c-1.182,0-2.143-0.961-2.143-2.144c0-1.181,0.961-2.142,2.143-2.142
	s2.143,0.961,2.143,2.142C81.355,56.727,80.395,57.688,79.213,57.688"/>
<path fill="#212929" d="M26.664,63.736c-4.371-5.66-6.682-12.44-6.682-19.608h1.428c0,6.851,2.206,13.328,6.383,18.735
	L26.664,63.736z"/>
<rect x="49.242" y="23.433" fill="#212929" width="2.854" height="1.427"/>
<rect x="33.543" y="41.987" fill="#212929" width="2.854" height="1.427"/>
<rect x="19.27" y="39.132" fill="#212929" width="2.854" height="1.428"/>
<rect x="46.388" y="71.96" fill="#212929" width="2.854" height="1.429"/>
<path fill="#87BD30" d="M79.213,27.714c-2.754,0-4.994-2.24-4.994-4.994h1.428c0,1.967,1.601,3.567,3.566,3.567
	c1.969,0,3.566-1.603,3.566-3.567c0-1.553-2.857-3.183-3.857-3.631c-0.48-0.216-4.703-2.187-4.703-4.934
	c0-2.755,2.24-4.995,4.994-4.995s4.996,2.24,4.996,4.995h-1.43c0-1.969-1.6-3.568-3.566-3.568c-1.966,0-3.566,1.602-3.566,3.568
	c0,1.552,2.857,3.182,3.859,3.63c0.48,0.217,4.703,2.187,4.703,4.935C84.209,25.472,81.967,27.714,79.213,27.714"/>
<rect x="78.5" y="5.591" fill="#87BD30" width="1.43" height="4.282"/>
<rect x="78.5" y="27" fill="#87BD30" width="1.43" height="4.282"/>
<g>
	<path fill="#87BD30" d="M67.795,77.669c-2.754,0-4.996-2.239-4.996-4.996h1.43c0,1.97,1.601,3.568,3.566,3.568
		c1.969,0,3.566-1.603,3.566-3.568c0-1.552-2.857-3.183-3.857-3.629c-0.48-0.218-4.705-2.188-4.705-4.935
		c0-2.756,2.242-4.996,4.996-4.996s4.996,2.24,4.996,4.996h-1.43c0-1.969-1.6-3.568-3.566-3.568c-1.966,0-3.566,1.604-3.566,3.568
		c0,1.552,2.857,3.182,3.859,3.63c0.479,0.216,4.703,2.188,4.703,4.934C72.793,75.43,70.549,77.669,67.795,77.669"/>
</g>
<rect x="67.082" y="55.545" fill="#87BD30" width="1.428" height="4.282"/>
<rect x="67.082" y="76.954" fill="#87BD30" width="1.428" height="4.282"/>
</svg>
