<?xml version="1.0" encoding="utf-8"?>
<!-- Generator: Adobe Illustrator 15.0.2, SVG Export Plug-In . SVG Version: 6.00 Build 0)  -->
<!DOCTYPE svg PUBLIC "-//W3C//DTD SVG 1.1//EN" "http://www.w3.org/Graphics/SVG/1.1/DTD/svg11.dtd">
<svg version="1.1" id="Layer_1" xmlns="http://www.w3.org/2000/svg" xmlns:xlink="http://www.w3.org/1999/xlink" x="0px" y="0px"
	 width="1744px" height="424px" viewBox="0 0 1744 424" enable-background="new 0 0 1744 424" xml:space="preserve">
<path fill="#231F20" d="M236.928,111.671c32.368,4.831,65.952,19.954,94.352,40.815c12.834-85.057-48.891-135.979-110.782-139.329
	C220.294,33.964,222.401,72.018,236.928,111.671"/>
<path fill="#231F20" d="M290.463,280.336c-20.165,23.83-45.566,43.639-72.676,57.564c49.583,50.123,126.442,26.069,165.86-22.66
	C365.719,304.669,331.858,287.581,290.463,280.336"/>
<path fill="#231F20" d="M117.544,242.192c-11.548-27.811-15.741-60.891-12.853-93.25c-71.268,28.653-87.806,100.08-63.025,156.029
	C59.969,294.515,91.063,273.881,117.544,242.192"/>
<polyline fill="#231F20" points="535.756,306.984 535.756,272.075 635.904,170.519 635.904,169.816 541.049,169.816 
	541.049,132.787 692.674,132.787 692.674,167.696 592.53,269.252 592.53,269.96 696.2,269.96 696.2,306.984 535.756,306.984 "/>
<path fill="#231F20" d="M761.808,234.696v0.704c5.642,23.275,23.626,38.087,49.721,38.087c18.687,0,32.439-5.293,41.254-16.577
	h44.787c-13.051,33.147-44.787,54.659-86.042,54.659c-55.009,0-93.799-38.791-93.799-91.684s38.79-91.683,93.799-91.683
	c55.011,0,93.091,38.79,93.091,91.683v14.811H761.808 M762.866,200.491v0.708h97.324v-0.708
	c-6.7-21.157-24.333-34.202-48.662-34.202C786.845,166.289,769.565,179.334,762.866,200.491z"/>
<path fill="#231F20" d="M1070.03,280.536h-0.71c-11.29,17.988-32.09,28.918-58.181,28.918c-41.609,0-86.05-27.86-86.05-89.568
	c0-52.893,38.8-91.683,93.8-91.683c55.011,0,93.091,36.675,93.091,93.095v71.934c0,66.646-41.25,92.74-92.381,92.74
	c-43.369,0-77.58-18.687-88.51-59.946H973.4c7.06,16.223,23.979,23.626,46.199,23.626c31.03,0,50.431-14.457,50.431-55.01V280.536
	 M1018.89,167.347c-30.68,0-51.479,21.859-51.479,52.539c0,30.679,20.8,50.423,51.479,50.423c30.681,0,51.141-19.744,51.141-50.423
	C1070.03,189.206,1049.57,167.347,1018.89,167.347z"/>
<path fill="#231F20" d="M1267.08,132.787h41.96v90.625c0,58.182-34.561,88.157-86.04,88.157c-51.48,0-86.04-29.622-86.04-88.157
	v-90.625h41.96v90.625c0,33.147,17.63,49.018,44.08,49.018s44.08-15.87,44.08-49.018V132.787"/>
<path fill="#231F20" d="M1445.09,207.544v-1.761c0-28.21-14.1-38.436-34.55-38.436s-34.561,10.226-34.561,38.436v101.201h-41.96
	V205.783c0-52.543,31.03-77.58,76.521-77.58s76.16,25.037,76.16,78.284v1.057H1445.09"/>
<path fill="#231F20" d="M1596.03,311.569c-55,0-93.8-38.791-93.8-91.684s38.8-91.683,93.8-91.683c55.01,0,93.8,38.79,93.8,91.683
	S1651.04,311.569,1596.03,311.569 M1647.16,219.886c0-30.68-20.45-52.539-51.13-52.539c-30.681,0-51.48,21.859-51.48,52.539
	c0,30.679,20.8,52.544,51.48,52.544C1626.71,272.43,1647.16,250.564,1647.16,219.886z"/>
<g>
	<defs>
		<path id="SVGID_1_" d="M220.5,13.142c0,0.006,0,0.009,0,0.016c61.889,3.35,105.365,68.531,110.782,139.327
			c2.658,34.789-3.904,70.909-21.955,101.725c23.874,9.49,54.662,25.521,80.794,51.349c3.584-6.651,6.895-13.481,9.728-20.56
			c9.093-22.736,14.129-47.524,14.129-73.504C413.978,103.549,327.796,15.809,220.5,13.142"/>
	</defs>
	<clipPath id="SVGID_2_">
		<use xlink:href="#SVGID_1_"  overflow="visible"/>
	</clipPath>
	
		<linearGradient id="SVGID_3_" gradientUnits="userSpaceOnUse" x1="-147" y1="587.9277" x2="-146" y2="587.9277" gradientTransform="matrix(52.689 -133.271 -133.271 -52.689 86370.25 11662.1699)">
		<stop  offset="0" style="stop-color:#231F20"/>
		<stop  offset="0.1316" style="stop-color:#2B2829"/>
		<stop  offset="0.3441" style="stop-color:#423F41"/>
		<stop  offset="0.6111" style="stop-color:#666567"/>
		<stop  offset="0.9193" style="stop-color:#999A9D"/>
		<stop  offset="1" style="stop-color:#A7A9AC"/>
	</linearGradient>
	<polygon clip-path="url(#SVGID_2_)" fill="url(#SVGID_3_)" points="120.52,266.031 246.653,-53.01 513.958,52.669 387.825,371.711 
			"/>
</g>
<g>
	<defs>
		<path id="SVGID_4_" d="M208.708,13.224c-106.467,3.59-191.704,90.928-191.704,198.271c0,34.033,8.698,65.983,23.796,93.974
			c0.278-0.161,0.575-0.333,0.865-0.498c-24.782-55.949,9.594-117.371,63.028-156.029c29.861-21.609,65.673-36.067,100.431-38.519
			c-3.922-25.423-5.793-60.807,3.566-97.135C208.696,13.267,208.702,13.245,208.708,13.224"/>
	</defs>
	<clipPath id="SVGID_5_">
		<use xlink:href="#SVGID_4_"  overflow="visible"/>
	</clipPath>
	
		<linearGradient id="SVGID_6_" gradientUnits="userSpaceOnUse" x1="-147" y1="587.9961" x2="-146" y2="587.9961" gradientTransform="matrix(-131.172 35.452 35.452 131.172 -39885.2461 -71792.9375)">
		<stop  offset="0" style="stop-color:#231F20"/>
		<stop  offset="0.1316" style="stop-color:#2B2829"/>
		<stop  offset="0.3441" style="stop-color:#423F41"/>
		<stop  offset="0.6111" style="stop-color:#666567"/>
		<stop  offset="0.9193" style="stop-color:#999A9D"/>
		<stop  offset="1" style="stop-color:#A7A9AC"/>
	</linearGradient>
	<polygon clip-path="url(#SVGID_5_)" fill="url(#SVGID_6_)" points="282.316,285.575 29.941,353.784 -56.726,33.118 195.65,-35.091 
			"/>
</g>
<g>
	<defs>
		<path id="SVGID_7_" d="M383.644,315.24c-39.413,48.729-107.302,48.907-165.856,22.659c-31.69-14.207-60.607-36.108-80.752-62.152
			c-1.507-1.839-2.936-3.744-4.316-5.682c-19.934,16.06-49.523,35.386-85.552,45.558c-0.139,0.04-0.285,0.082-0.424,0.12
			c34.982,56.507,97.405,94.234,168.75,94.234c71.387,0,133.84-37.779,168.804-94.345
			C384.08,315.499,383.874,315.375,383.644,315.24"/>
	</defs>
	<clipPath id="SVGID_8_">
		<use xlink:href="#SVGID_7_"  overflow="visible"/>
	</clipPath>
	
		<linearGradient id="SVGID_9_" gradientUnits="userSpaceOnUse" x1="-147" y1="587.8926" x2="-146" y2="587.8926" gradientTransform="matrix(95.369 95.369 95.369 -95.369 -41929.2305 70328.6719)">
		<stop  offset="0" style="stop-color:#231F20"/>
		<stop  offset="0.1316" style="stop-color:#2B2829"/>
		<stop  offset="0.3441" style="stop-color:#423F41"/>
		<stop  offset="0.6111" style="stop-color:#666567"/>
		<stop  offset="0.9193" style="stop-color:#999A9D"/>
		<stop  offset="1" style="stop-color:#A7A9AC"/>
	</linearGradient>
	<polygon clip-path="url(#SVGID_8_)" fill="url(#SVGID_9_)" points="215.521,101.288 454.254,340.021 215.521,578.755 
		-23.212,340.021 	"/>
</g>
<polyline fill="#231F20" points="1696.8,129.926 1696.8,132.475 1689.59,132.475 1689.59,151.325 1686.67,151.325 1686.67,132.475 
	1679.45,132.475 1679.45,129.926 1696.8,129.926 "/>
<path fill="#231F20" d="M1698.5,129.926h4.16l6.149,18.092l6.11-18.092h4.12v21.399h-2.771v-12.629c0-0.437,0.011-1.161,0.03-2.171
	c0.021-1.01,0.03-2.092,0.03-3.248l-6.11,18.048h-2.87l-6.17-18.048v0.655c0,0.524,0.021,1.324,0.051,2.397
	c0.029,1.073,0.039,1.862,0.039,2.367v12.629h-2.77V129.926"/>
</svg>
