<?xml version="1.0" encoding="utf-8"?>
<!-- Generator: Adobe Illustrator 15.0.2, SVG Export Plug-In . SVG Version: 6.00 Build 0)  -->
<!DOCTYPE svg PUBLIC "-//W3C//DTD SVG 1.1//EN" "http://www.w3.org/Graphics/SVG/1.1/DTD/svg11.dtd">
<svg version="1.1" id="Layer_1" xmlns="http://www.w3.org/2000/svg" xmlns:xlink="http://www.w3.org/1999/xlink" x="0px" y="0px"
	 width="56px" height="46px" viewBox="646.5 144.5 56 46" enable-background="new 646.5 144.5 56 46" xml:space="preserve">
<g>
	<path fill="#FFFFFF" d="M654.931,168.652l0.022,0.166l-0.015,0.166c-0.009,0.092-0.024,0.174-0.042,0.244
		c0.13,8.742,8.893,15.83,19.641,15.834c10.826-0.004,19.638-7.191,19.641-16.021c0-0.727-0.726-1.318-1.617-1.318
		c-0.893,0-1.62,0.592-1.62,1.32c-0.004,3.568-1.71,6.928-4.804,9.457c-3.098,2.525-7.214,3.916-11.598,3.92
		c-4.379-0.004-8.496-1.393-11.598-3.916c-3.05-2.502-4.749-5.791-4.804-9.285c-0.031-0.105-0.054-0.203-0.068-0.309l-0.018-0.139
		l0.008-0.141c0.007-0.107,0.024-0.205,0.044-0.291v-14.061h-3.24v14.072C654.896,168.455,654.917,168.551,654.931,168.652"/>
</g>
</svg>
