<?xml version="1.0" encoding="utf-8"?>
<!-- Generator: Adobe Illustrator 15.0.2, SVG Export Plug-In . SVG Version: 6.00 Build 0)  -->
<!DOCTYPE svg PUBLIC "-//W3C//DTD SVG 1.1//EN" "http://www.w3.org/Graphics/SVG/1.1/DTD/svg11.dtd">
<svg version="1.1" id="Layer_1" xmlns="http://www.w3.org/2000/svg" xmlns:xlink="http://www.w3.org/1999/xlink" x="0px" y="0px"
	 width="143px" height="145.5px" viewBox="-81.5 -29 143 145.5" enable-background="new -81.5 -29 143 145.5" xml:space="preserve">
<g>
	<g>
		<path fill="#212929" d="M24.813,115.499h-2.25v-4.47h2.25V115.499z M2.463,115.499h-2.25v-17.88h2.25V115.499z M-19.888,115.499
			h-2.25V96.428c-3.787-0.547-6.705-3.813-6.705-7.749c0-4.317,3.513-7.83,7.83-7.83s7.83,3.513,7.83,7.83
			c0,3.936-2.918,7.202-6.705,7.749V115.499z M-21.013,83.099c-3.077,0-5.58,2.503-5.58,5.58s2.503,5.58,5.58,5.58
			s5.58-2.503,5.58-5.58S-17.937,83.099-21.013,83.099z M-42.238,115.499h-2.25v-26.82h2.25V115.499z M41.569,114.39
			c-4.317,0-7.83-3.513-7.83-7.83c0-3.936,2.918-7.202,6.705-7.749V68.563c0-4.31-3.506-7.815-7.815-7.815h-6.705v-2.25h6.705
			c5.55,0,10.065,4.516,10.065,10.065v30.247c3.787,0.547,6.705,3.813,6.705,7.749C49.398,110.877,45.886,114.39,41.569,114.39z
			 M41.569,100.979c-3.077,0-5.58,2.503-5.58,5.58s2.503,5.58,5.58,5.58s5.58-2.503,5.58-5.58S44.646,100.979,41.569,100.979z
			 M-61.244,114.39c-4.317,0-7.83-3.513-7.83-7.83c0-3.936,2.918-7.202,6.705-7.749V68.563c0-5.55,4.515-10.065,10.065-10.065h6.705
			v2.25h-6.705c-4.309,0-7.815,3.506-7.815,7.815v30.247c3.787,0.547,6.705,3.813,6.705,7.749
			C-53.414,110.877-56.927,114.39-61.244,114.39z M-61.244,100.979c-3.077,0-5.58,2.503-5.58,5.58s2.503,5.58,5.58,5.58
			s5.58-2.503,5.58-5.58S-58.167,100.979-61.244,100.979z M24.813,106.56h-2.25V79.738h2.25V106.56z M2.463,93.149h-2.25v-4.471
			h2.25V93.149z M2.463,84.209h-2.25v-4.471h2.25V84.209z M-42.238,84.209h-2.25v-4.471h2.25V84.209z M24.813,75.269h-2.25v-4.47
			h2.25V75.269z M-42.238,75.269h-2.25v-4.47h2.25V75.269z M-9.837,74.158c-16.642,0-30.181-13.539-30.181-30.181
			s13.539-30.181,30.181-30.181c16.642,0,30.181,13.539,30.181,30.181S6.805,74.158-9.837,74.158z M-9.837,16.047
			c-15.401,0-27.931,12.53-27.931,27.931c0,15.401,12.53,27.931,27.931,27.931c15.401,0,27.931-12.529,27.931-27.931
			C18.094,28.577,5.564,16.047-9.837,16.047z M52.744,51.808c-3.936,0-7.203-2.919-7.75-6.705h-10.13v-2.25h10.13
			c0.547-3.787,3.814-6.705,7.75-6.705c4.318,0,7.83,3.513,7.83,7.83S57.062,51.808,52.744,51.808z M52.744,38.397
			c-3.077,0-5.58,2.503-5.58,5.58s2.503,5.58,5.58,5.58s5.58-2.503,5.58-5.58S55.821,38.397,52.744,38.397z M-72.42,51.808
			c-4.317,0-7.83-3.513-7.83-7.83s3.513-7.83,7.83-7.83c3.936,0,7.203,2.918,7.75,6.705h10.131v2.25H-64.67
			C-65.217,48.889-68.484,51.808-72.42,51.808z M-72.42,38.397c-3.077,0-5.58,2.503-5.58,5.58s2.503,5.58,5.58,5.58
			c3.078,0,5.581-2.503,5.581-5.58S-69.343,38.397-72.42,38.397z M30.394,45.103h-4.47v-2.25h4.47V45.103z M8.042,45.103h-4.47
			v-2.25h4.47V45.103z M-23.249,45.103h-4.47v-2.25h4.47V45.103z M-45.599,45.103h-4.47v-2.25h4.47V45.103z M32.629,29.456h-6.705
			v-2.25h6.705c4.309,0,7.815-3.505,7.815-7.814v-30.247c-3.787-0.547-6.705-3.814-6.705-7.75c0-4.317,3.513-7.83,7.83-7.83
			s7.83,3.513,7.83,7.83c0,3.936-2.918,7.203-6.705,7.75v30.247C42.694,24.941,38.179,29.456,32.629,29.456z M41.569-24.185
			c-3.077,0-5.58,2.503-5.58,5.58s2.503,5.58,5.58,5.58s5.58-2.503,5.58-5.58S44.646-24.185,41.569-24.185z M-45.599,29.456h-8.94
			c-5.55,0-10.065-4.515-10.065-10.064v-30.247c-3.787-0.547-6.706-3.814-6.706-7.75c0-4.317,3.513-7.83,7.831-7.83
			c4.317,0,7.83,3.513,7.83,7.83c0,3.936-2.918,7.203-6.705,7.75v30.247c0,4.309,3.506,7.814,7.815,7.814h8.94V29.456z
			 M-63.479-24.185c-3.077,0-5.581,2.503-5.581,5.58s2.503,5.58,5.581,5.58c3.077,0,5.58-2.503,5.58-5.58
			S-60.403-24.185-63.479-24.185z M23.688,16.047c-4.318,0-7.831-3.513-7.831-7.831c0-3.936,2.919-7.203,6.706-7.75v-19.071h2.25
			V0.466c3.787,0.547,6.705,3.814,6.705,7.75C31.519,12.534,28.006,16.047,23.688,16.047z M23.688,2.636
			c-3.077,0-5.581,2.503-5.581,5.58c0,3.078,2.503,5.581,5.581,5.581c3.077,0,5.58-2.503,5.58-5.581
			C29.269,5.139,26.765,2.636,23.688,2.636z M-43.363,16.047c-4.318,0-7.831-3.513-7.831-7.831c0-3.936,2.919-7.203,6.706-7.75
			v-19.071h2.25V0.466c3.787,0.547,6.705,3.814,6.705,7.75C-35.533,12.534-39.046,16.047-43.363,16.047z M-43.363,2.636
			c-3.078,0-5.581,2.503-5.581,5.58c0,3.078,2.503,5.581,5.581,5.581c3.077,0,5.58-2.503,5.58-5.581
			C-37.783,5.139-40.287,2.636-43.363,2.636z M2.463,8.216h-2.25v-17.88h2.25V8.216z M-19.888,8.216h-2.25v-4.47h2.25V8.216z
			 M-19.888-0.724h-2.25v-26.821h2.25V-0.724z M2.463-14.135h-2.25v-4.47h2.25V-14.135z M24.813-23.075h-2.25v-4.47h2.25V-23.075z
			 M2.463-23.075h-2.25v-4.47h2.25V-23.075z M-42.238-23.075h-2.25v-4.47h2.25V-23.075z"/>
	</g>
</g>
<g>
	<polygon fill="#FF7800" points="-8.305,58.797 -10.555,58.797 -10.555,53.217 -16.135,53.217 -16.135,50.967 -6.085,50.967 
		-6.085,46.082 -15.025,41.611 -15.025,33.086 -10.555,33.086 -10.555,27.506 -8.305,27.506 -8.305,33.086 -2.725,33.086 
		-2.725,35.336 -12.775,35.336 -12.775,40.221 -3.835,44.691 -3.835,53.217 -8.305,53.217 	"/>
</g>
</svg>
