<?xml version="1.0" encoding="utf-8"?>
<!-- Generator: Adobe Illustrator 15.0.2, SVG Export Plug-In . SVG Version: 6.00 Build 0)  -->
<!DOCTYPE svg PUBLIC "-//W3C//DTD SVG 1.1//EN" "http://www.w3.org/Graphics/SVG/1.1/DTD/svg11.dtd">
<svg version="1.1" id="Layer_1" xmlns="http://www.w3.org/2000/svg" xmlns:xlink="http://www.w3.org/1999/xlink" x="0px" y="0px"
	 width="168px" height="168px" viewBox="-18.333 -25.5 168 168" enable-background="new -18.333 -25.5 168 168"
	 xml:space="preserve">
<g>
	<g>
		<path fill="#FFFFFF" d="M65.575,138.499c-3.396,0-6.928-0.238-10.499-0.708l-1.414-0.187l0.264-1.402
			c0.109-0.581,0.163-1.101,0.163-1.587c0-4.845-3.942-8.786-8.787-8.786c-3.704,0-7.021,2.371-8.255,5.899l-0.47,1.344
			l-1.317-0.541c-6.598-2.71-12.818-6.305-18.487-10.686l-1.105-0.854l0.89-1.075c1.344-1.624,2.054-3.551,2.054-5.574
			c0-4.845-3.941-8.787-8.787-8.787c-2.024,0-3.951,0.71-5.573,2.054l-1.075,0.89l-0.854-1.104
			c-4.379-5.665-7.975-11.886-10.686-18.487l-0.541-1.316l1.344-0.471c3.528-1.234,5.899-4.552,5.899-8.256
			c0-4.845-3.942-8.787-8.787-8.787c-0.479,0-0.999,0.054-1.588,0.164l-1.4,0.262l-0.186-1.412
			c-0.471-3.568-0.709-7.102-0.709-10.499c0-3.398,0.239-6.93,0.709-10.499l0.186-1.412l1.4,0.261
			c0.586,0.109,1.105,0.163,1.588,0.163c4.845,0,8.787-3.941,8.787-8.787c0-3.703-2.371-7.021-5.899-8.255l-1.344-0.47l0.541-1.317
			c2.71-6.6,6.306-12.82,10.686-18.489l0.854-1.104l1.075,0.89c1.623,1.343,3.549,2.053,5.573,2.053
			c4.845,0,8.787-3.941,8.787-8.786c0-2.023-0.71-3.951-2.054-5.575l-0.89-1.075l1.105-0.854
			c5.672-4.382,11.892-7.977,18.487-10.686l1.317-0.541l0.47,1.344c1.234,3.529,4.552,5.899,8.255,5.899
			c4.845,0,8.787-3.942,8.787-8.788c0-0.484-0.053-1.003-0.163-1.586l-0.264-1.402l1.415-0.186c3.578-0.47,7.11-0.709,10.498-0.709
			s6.92,0.239,10.498,0.709l1.412,0.186l-0.261,1.4c-0.109,0.588-0.163,1.107-0.163,1.589c0,4.846,3.942,8.788,8.787,8.788
			c3.703,0,7.021-2.371,8.256-5.9l0.471-1.343l1.316,0.541c6.598,2.709,12.817,6.305,18.487,10.685l1.104,0.854l-0.89,1.076
			c-1.344,1.623-2.054,3.551-2.054,5.575c0,4.844,3.942,8.786,8.787,8.786c2.022,0,3.949-0.71,5.573-2.053l1.075-0.89l0.854,1.105
			c4.383,5.673,7.979,11.894,10.687,18.488l0.541,1.317l-1.345,0.47c-3.528,1.234-5.899,4.552-5.899,8.255
			c0,4.845,3.942,8.787,8.788,8.787c0.482,0,1.002-0.053,1.588-0.163l1.4-0.261l0.187,1.413c0.47,3.577,0.708,7.109,0.708,10.498
			s-0.238,6.921-0.708,10.498l-0.187,1.413l-1.4-0.262c-0.59-0.11-1.109-0.164-1.588-0.164c-4.846,0-8.788,3.942-8.788,8.787
			c0,3.704,2.371,7.021,5.899,8.256l1.345,0.471l-0.541,1.316c-2.709,6.597-6.305,12.816-10.687,18.487l-0.854,1.104l-1.075-0.89
			c-1.624-1.344-3.551-2.054-5.573-2.054c-4.845,0-8.787,3.942-8.787,8.787c0,2.024,0.71,3.951,2.054,5.573l0.891,1.076
			l-1.105,0.854c-5.667,4.379-11.887,7.975-18.487,10.686l-1.316,0.541l-0.471-1.344c-1.235-3.528-4.553-5.899-8.256-5.899
			c-4.845,0-8.787,3.941-8.787,8.786c0,0.482,0.054,1.003,0.163,1.589l0.261,1.4l-1.411,0.187
			C72.502,138.261,68.97,138.499,65.575,138.499z M56.766,135.279c2.998,0.345,5.955,0.521,8.809,0.521s5.812-0.176,8.81-0.521
			c-0.016-0.226-0.022-0.446-0.022-0.663c0-6.333,5.152-11.485,11.486-11.485c4.369,0,8.327,2.515,10.248,6.386
			c5.519-2.38,10.749-5.404,15.583-9.011c-1.207-1.856-1.839-3.962-1.839-6.162c0-6.334,5.152-11.486,11.486-11.486
			c2.198,0,4.304,0.632,6.161,1.839c3.607-4.836,6.633-10.066,9.012-15.583c-3.872-1.92-6.387-5.878-6.387-10.248
			c0-6.334,5.153-11.486,11.487-11.486c0.217,0,0.437,0.007,0.662,0.022c0.346-3.002,0.521-5.959,0.521-8.809
			s-0.176-5.807-0.521-8.81c-0.225,0.015-0.445,0.023-0.662,0.023c-6.334,0-11.487-5.153-11.487-11.487
			c0-4.37,2.515-8.328,6.387-10.248c-2.378-5.514-5.403-10.746-9.012-15.584c-1.857,1.208-3.963,1.84-6.161,1.84
			c-6.334,0-11.486-5.152-11.486-11.486c0-2.199,0.632-4.305,1.839-6.163c-4.835-3.606-10.067-6.631-15.583-9.01
			c-1.921,3.871-5.879,6.387-10.248,6.387c-6.334,0-11.486-5.153-11.486-11.488c0-0.217,0.007-0.437,0.022-0.662
			c-3.003-0.346-5.961-0.521-8.81-0.521s-5.806,0.175-8.809,0.521c0.015,0.225,0.023,0.445,0.023,0.662
			c0,6.334-5.153,11.488-11.487,11.488c-4.37,0-8.328-2.516-10.248-6.387C29.539-9.955,24.308-6.93,19.47-3.322
			c1.208,1.858,1.84,3.964,1.84,6.163c0,6.333-5.153,11.486-11.487,11.486c-2.199,0-4.305-0.632-6.162-1.839
			c-3.606,4.834-6.631,10.065-9.01,15.583c3.871,1.92,6.386,5.878,6.386,10.248c0,6.334-5.153,11.487-11.487,11.487
			c-0.217,0-0.438-0.008-0.663-0.023c-0.346,2.996-0.521,5.953-0.521,8.81s0.175,5.813,0.521,8.809
			c0.226-0.016,0.446-0.022,0.663-0.022c6.334,0,11.487,5.152,11.487,11.486c0,4.37-2.515,8.328-6.386,10.248
			c2.38,5.52,5.404,10.751,9.01,15.583c1.857-1.207,3.963-1.839,6.162-1.839c6.334,0,11.487,5.152,11.487,11.486
			c0,2.199-0.632,4.305-1.84,6.162c4.835,3.606,10.066,6.632,15.583,9.011c1.92-3.871,5.878-6.386,10.248-6.386
			c6.334,0,11.487,5.152,11.487,11.485C56.789,134.833,56.781,135.054,56.766,135.279z M68.11,125.829h-5.069v-2.699h5.069V125.829z
			 M101.053,115.692h-5.068v-2.699h5.068V115.692z M35.166,115.692h-5.069v-2.699h5.069V115.692z M123.86,92.886h-5.068v-2.699
			h5.068V92.886z M12.357,92.886H7.29v-2.699h5.068V92.886z M133.997,59.941h-5.068v-2.7h5.068V59.941z M2.222,59.941h-5.068v-2.7
			h5.068V59.941z M123.86,26.998h-5.068v-2.7h5.068V26.998z M12.357,26.998H7.29v-2.7h5.068V26.998z M101.053,1.656h-5.068v-2.7
			h5.068V1.656z M35.166,1.656h-5.069v-2.7h5.069V1.656z M68.11-5.946h-5.069v-2.7h5.069V-5.946z"/>
	</g>
	<g>
		<path fill="#FFFFFF" d="M114.893,39.709l0.234,0.159l0.102,0.264c2.096,5.38,3.26,11.047,3.463,16.843l0.033,0.935H98.301
			l-0.01-0.892c-0.102-8.369-0.809-16.174-2.105-23.194l-0.254-1.372l1.354,0.332C107.908,35.369,113.448,38.738,114.893,39.709
			 M68.401,57.909V29.54l0.914,0.014c8.728,0.115,16.83,0.913,24.082,2.366l0.59,0.119l0.119,0.588
			c1.47,7.312,2.271,15.51,2.379,24.369l0.013,0.913H68.401z M37.801,57.909l0.012-0.913c0.111-8.855,0.921-17.072,2.409-24.421
			l0.12-0.589l0.59-0.117c7.433-1.47,15.761-2.251,24.753-2.325l0.909-0.007v28.372H37.801z M15.421,57.909l0.034-0.935
			c0.203-5.798,1.368-11.466,3.464-16.85l0.101-0.261l0.232-0.156c1.444-0.981,6.992-4.389,17.773-6.984l1.352-0.326l-0.253,1.368
			c-1.304,7.037-2.016,14.859-2.116,23.252l-0.011,0.892H15.421z M21.52,34.467c4.876-9.091,12.272-16.454,21.388-21.301
			l2.458-1.307l-1.223,2.5c-1.46,2.983-3.552,8.101-5.227,15.534l-0.126,0.559l-0.559,0.123c-5.937,1.315-11.161,3.042-15.526,5.132
			l-2.49,1.192L21.52,34.467z M48.423,10.64l0.243-0.091c5.428-2.077,11.149-3.209,17.002-3.366l0.926-0.025v20.575L65.7,27.739
			c-8.523,0.068-16.453,0.758-23.569,2.05l-1.371,0.249l0.333-1.353c2.995-12.185,7.006-17.612,7.175-17.837L48.423,10.64z
			 M69.341,7.203c5.615,0.245,11.118,1.398,16.356,3.432l0.246,0.095l0.156,0.214c0.7,0.96,4.338,6.329,7.139,17.778l0.33,1.354
			l-1.37-0.251c-6.944-1.272-14.651-1.971-22.907-2.076l-0.891-0.011V7.163L69.341,7.203z M91.444,13.271
			c9.017,4.843,16.343,12.173,21.184,21.196l1.307,2.435l-2.492-1.194c-4.321-2.07-9.492-3.787-15.366-5.098l-0.558-0.125
			l-0.127-0.559c-1.664-7.392-3.74-12.489-5.187-15.466l-1.222-2.513L91.444,13.271z M35.995,59.715l0.008,0.896
			c0.073,8.46,0.745,16.318,1.998,23.354l0.242,1.362l-1.344-0.326c-10.54-2.565-16.105-5.917-17.56-6.885l-0.237-0.157
			l-0.104-0.263c-2.144-5.441-3.336-11.177-3.542-17.048l-0.034-0.934H35.995z M66.595,59.715v28.522l-0.909-0.007
			c-9.039-0.074-17.419-0.872-24.908-2.371l-0.594-0.118l-0.114-0.596c-1.422-7.336-2.183-15.586-2.262-24.521l-0.008-0.909H66.595z
			 M96.499,59.715l-0.008,0.911c-0.081,8.91-0.867,17.157-2.336,24.51l-0.117,0.59l-0.589,0.118
			c-7.269,1.462-15.388,2.262-24.134,2.379l-0.914,0.012v-28.52H96.499z M118.725,59.715l-0.033,0.934
			c-0.205,5.871-1.397,11.606-3.543,17.048l-0.104,0.263l-0.236,0.157c-1.447,0.963-6.983,4.298-17.455,6.858l-1.352,0.332
			l0.25-1.37c1.282-7.028,1.971-14.876,2.044-23.326l0.009-0.896H118.725z M112.524,83.361
			c-4.805,8.859-12.024,16.082-20.881,20.891l-2.457,1.336l1.213-2.52c2.058-4.27,3.761-9.395,5.064-15.234l0.124-0.559l0.56-0.125
			c5.787-1.296,10.899-2.99,15.195-5.034l2.502-1.19L112.524,83.361z M86.174,106.805l-0.258,0.102
			c-5.309,2.084-10.884,3.268-16.575,3.516l-0.94,0.041V90.038l0.891-0.011c8.273-0.105,15.998-0.807,22.96-2.087l1.37-0.251
			l-0.33,1.352c-2.591,10.637-5.982,16.111-6.961,17.535L86.174,106.805z M65.667,110.442c-6.057-0.164-11.965-1.37-17.563-3.587
			l-0.259-0.104l-0.156-0.23c-0.955-1.41-4.265-6.838-6.782-17.474l-0.319-1.347l1.36,0.249c7.176,1.315,15.168,2.018,23.751,2.086
			l0.895,0.007v20.425L65.667,110.442z M42.457,104.229c-8.832-4.809-16.037-12.024-20.833-20.867l-1.322-2.436l2.503,1.19
			c4.308,2.051,9.45,3.75,15.281,5.051l0.563,0.127l0.123,0.563c1.268,5.821,2.928,10.932,4.934,15.193l1.176,2.497L42.457,104.229z
			 M67.55,5.354l-0.319-0.009c-22.02-0.004-41.474,13.119-49.715,33.426l-0.082,0.198c-5.013,12.473-5.093,26.709-0.141,39.319
			l0.059,0.245c0.011,0.129,0.071,0.271,0.178,0.423l0.096,0.176c5.405,13.105,16.023,23.722,29.128,29.13l-0.153,0.909l0.341-0.836
			c6.421,2.619,13.196,3.947,20.133,3.947l0.559-0.012c6.691-0.069,13.223-1.372,19.41-3.872l0.216-0.085
			c13.189-5.4,23.862-16.053,29.282-29.23c0.148-0.256,0.189-0.36,0.211-0.482l0.051-0.178c2.479-6.27,3.738-12.863,3.741-19.599
			v-0.027c-0.003-6.809-1.287-13.466-3.817-19.787l0.768-0.516l-0.837,0.338C108.51,18.687,89.235,5.544,67.55,5.354"/>
	</g>
	<g>
		<path fill="#9C1F9E" d="M66.888,22.466c3.631,2.98,17.616,13.378,36.521,13.882c-4.468,45.755-31.953,64.191-36.521,66.954
			c-4.568-2.763-32.053-21.199-36.518-66.954C49.273,35.844,63.257,25.446,66.888,22.466"/>
	</g>
	<g>
		<path fill="#9C1F9E" d="M66.888,104.702l-0.62-0.375c-5.407-3.271-32.606-21.911-37.09-67.863l-0.125-1.279l1.286-0.035
			c18.422-0.491,32.051-10.542,35.79-13.61l0.76-0.624l0.76,0.624c3.738,3.068,17.367,13.119,35.793,13.61l1.285,0.035l-0.125,1.279
			c-4.487,45.95-31.686,64.593-37.093,67.863L66.888,104.702z M31.692,37.496c4.573,42.351,28.84,60.368,35.196,64.397
			c6.355-4.03,30.622-22.048,35.198-64.397c-17.456-0.875-30.56-9.848-35.198-13.494C62.25,27.647,49.144,36.62,31.692,37.496z"/>
	</g>
	<g>
		<path fill="#9C1F9E" d="M67.5,27.765c2.937,2.497,14.244,11.209,29.528,11.631C93.417,77.73,71.194,93.178,67.5,95.491
			c-3.693-2.313-25.915-17.761-29.524-56.096C53.259,38.974,64.565,30.263,67.5,27.765"/>
	</g>
	<g>
		<path fill="#FFFFFF" d="M67.5,96.978l-0.669-0.419c-4.39-2.75-26.473-18.423-30.109-57.045l-0.126-1.34l1.345-0.037
			c14.795-0.409,25.741-8.776,28.743-11.331l0.816-0.694l0.815,0.694c3.005,2.555,13.958,10.923,28.748,11.332l1.345,0.037
			l-0.126,1.34c-3.64,38.621-25.724,54.295-30.113,57.045L67.5,96.978z M39.362,40.596C43.078,75.413,62.151,90.429,67.5,93.991
			c5.35-3.562,24.424-18.579,28.142-53.395c-13.813-0.814-24.23-8.053-28.142-11.198C63.592,32.543,53.179,39.782,39.362,40.596z"/>
	</g>
</g>
</svg>
