<?xml version="1.0" encoding="utf-8"?>
<!-- Generator: Adobe Illustrator 15.0.2, SVG Export Plug-In . SVG Version: 6.00 Build 0)  -->
<!DOCTYPE svg PUBLIC "-//W3C//DTD SVG 1.1//EN" "http://www.w3.org/Graphics/SVG/1.1/DTD/svg11.dtd">
<svg version="1.1" id="Layer_1" xmlns="http://www.w3.org/2000/svg" xmlns:xlink="http://www.w3.org/1999/xlink" x="0px" y="0px"
	 width="81.333px" height="103px" viewBox="138.5 128.5 81.333 103" enable-background="new 138.5 128.5 81.333 103"
	 xml:space="preserve">
<g>
	<path d="M215.254,229.5H143.36c-1.572,0-2.855-1.279-2.861-2.854v-78.7c0.006-1.575,1.289-2.856,2.86-2.859h9.169
		c0.161,0,0.292-0.131,0.292-0.292h1.105c0,0.771-0.627,1.397-1.397,1.397h-9.168c-0.964,0.001-1.753,0.789-1.756,1.755v78.694
		c0.003,0.967,0.791,1.752,1.756,1.752h71.894c0.969,0,1.754-0.785,1.756-1.754v-78.693c-0.002-0.965-0.789-1.753-1.756-1.754
		h-9.168c-0.771,0-1.398-0.627-1.398-1.397h1.104c0,0.161,0.131,0.292,0.295,0.292h9.168c1.576,0.003,2.857,1.285,2.859,2.858
		v78.697C218.111,228.221,216.828,229.5,215.254,229.5"/>
	<path d="M159.22,144.359c-1.479,0-3.169,0.032-4.494,0.269c-0.1,0.021-0.387,0.141-0.563,0.292
		c-0.154,0.126-0.238,0.24-0.237,0.313v6.943c0,0.166,0.152,0.317,0.319,0.317h50.124c0.166,0,0.316-0.151,0.316-0.317v-6.938
		c0.002-0.079-0.084-0.193-0.23-0.315c-0.182-0.155-0.469-0.275-0.553-0.294c-1.352-0.237-3.064-0.269-4.407-0.269l-2.81,0.011
		c-2.512-0.004-4.933-0.066-6.961-0.778c-2.426-0.783-3.852-2.736-3.804-5.22c-0.007-3.63-2.978-6.599-6.617-6.604
		c-3.641,0.006-6.609,2.974-6.614,6.616c0.047,2.473-1.38,4.426-3.818,5.213c-2.012,0.705-4.436,0.77-6.951,0.775L159.22,144.359z
		 M204.369,153.599h-50.124c-0.785,0-1.424-0.638-1.424-1.422v-6.938c-0.004-0.422,0.208-0.815,0.631-1.165
		c0.332-0.283,0.847-0.509,1.116-0.539c1.373-0.245,3.125-0.279,4.652-0.279l2.701,0.014c2.415-0.006,4.738-0.065,6.6-0.718
		c1.962-0.634,3.103-2.186,3.065-4.156c0.007-4.262,3.47-7.724,7.719-7.729c4.25,0.006,7.712,3.468,7.72,7.718
		c-0.037,1.982,1.104,3.534,3.052,4.164c1.879,0.658,4.198,0.716,6.61,0.719l2.699-0.009h0.006c1.58,0,3.275,0.034,4.687,0.283
		c0.233,0.023,0.75,0.25,1.086,0.538c0.416,0.344,0.629,0.737,0.626,1.165v6.933C205.791,152.948,205.139,153.599,204.369,153.599"
		/>
	<path d="M209.408,222.932h-60.202c-1.058-0.002-1.92-0.863-1.922-1.92v-67.435c0.002-1.056,0.864-1.917,1.921-1.92h3.322
		c0.161,0,0.292-0.131,0.292-0.292h1.105c0,0.771-0.627,1.397-1.397,1.397h-3.321c-0.442,0.001-0.816,0.375-0.818,0.815v67.433
		c0.002,0.44,0.376,0.814,0.82,0.815h60.198c0.441-0.001,0.814-0.375,0.814-0.815v-67.434c0-0.44-0.373-0.813-0.814-0.814h-3.322
		c-0.418-0.013-0.721-0.144-0.986-0.407c-0.265-0.263-0.412-0.616-0.412-0.99h1.105c0,0.105,0.055,0.176,0.086,0.207
		c0.033,0.033,0.125,0.084,0.205,0.085h3.324c1.06,0.003,1.92,0.865,1.92,1.92v67.435
		C211.326,222.066,210.466,222.93,209.408,222.932"/>
	<path d="M179.309,136.521c-1.026,0.002-1.864,0.84-1.865,1.867c0.001,1.025,0.838,1.862,1.866,1.864
		c1.026-0.002,1.864-0.839,1.866-1.866C181.174,137.36,180.334,136.522,179.309,136.521 M179.311,141.357h-0.002
		c-1.635-0.003-2.967-1.335-2.969-2.97c0.002-1.637,1.334-2.969,2.969-2.972c1.634,0.003,2.966,1.334,2.972,2.97
		C182.275,140.023,180.943,141.354,179.311,141.357"/>
	<path fill="#FF7800" d="M197.838,170.127h-25.316c-0.305,0-0.552-0.247-0.552-0.553c0-0.306,0.247-0.553,0.552-0.553h25.316
		c0.305,0,0.551,0.247,0.551,0.553C198.389,169.88,198.143,170.127,197.838,170.127"/>
	<path fill="none" stroke="#FF7800" stroke-width="0.531" stroke-miterlimit="10" d="M197.838,170.127h-25.316
		c-0.305,0-0.552-0.247-0.552-0.553c0-0.306,0.247-0.553,0.552-0.553h25.316c0.305,0,0.551,0.247,0.551,0.553
		C198.389,169.88,198.143,170.127,197.838,170.127z"/>
	<path fill="#FF7800" d="M191.762,182.094h-19.239c-0.306,0-0.553-0.248-0.553-0.552c0-0.308,0.247-0.553,0.553-0.553h19.239
		c0.305,0,0.553,0.245,0.553,0.553C192.314,181.846,192.066,182.094,191.762,182.094"/>
	<path fill="none" stroke="#FF7800" stroke-width="0.531" stroke-miterlimit="10" d="M191.762,182.094h-19.239
		c-0.306,0-0.553-0.248-0.553-0.552c0-0.308,0.247-0.553,0.553-0.553h19.239c0.305,0,0.553,0.245,0.553,0.553
		C192.314,181.846,192.066,182.094,191.762,182.094z"/>
	<path fill="#FF7800" d="M187.986,193.416H171.97c-0.305,0-0.552-0.246-0.552-0.552s0.247-0.554,0.552-0.554h16.016
		c0.307,0,0.553,0.248,0.553,0.554S188.293,193.416,187.986,193.416"/>
	<path fill="none" stroke="#FF7800" stroke-width="0.531" stroke-miterlimit="10" d="M187.986,193.416H171.97
		c-0.305,0-0.552-0.246-0.552-0.552s0.247-0.554,0.552-0.554h16.016c0.307,0,0.553,0.248,0.553,0.554
		S188.293,193.416,187.986,193.416z"/>
	<path fill="#FF7800" d="M196.18,206.118H171.97c-0.305,0-0.552-0.247-0.552-0.552c0-0.307,0.247-0.553,0.552-0.553h24.209
		c0.305,0,0.553,0.246,0.553,0.553C196.732,205.871,196.484,206.118,196.18,206.118"/>
	<path fill="none" stroke="#FF7800" stroke-width="0.531" stroke-miterlimit="10" d="M196.18,206.118H171.97
		c-0.305,0-0.552-0.247-0.552-0.552c0-0.307,0.247-0.553,0.552-0.553h24.209c0.305,0,0.553,0.246,0.553,0.553
		C196.732,205.871,196.484,206.118,196.18,206.118z"/>
	<path fill="#FF7800" d="M163.215,167.195c-0.941,0-1.705,0.765-1.705,1.706c0,0.939,0.764,1.705,1.705,1.705
		s1.706-0.766,1.706-1.705C164.921,167.96,164.156,167.195,163.215,167.195 M163.215,171.459c-1.41,0-2.558-1.147-2.558-2.558
		c0-1.411,1.148-2.559,2.558-2.559c1.411,0,2.559,1.147,2.559,2.559C165.774,170.312,164.626,171.459,163.215,171.459"/>
	<path fill="none" stroke="#FF7800" stroke-width="0.531" stroke-miterlimit="10" d="M163.215,167.195
		c-0.941,0-1.705,0.765-1.705,1.706c0,0.939,0.764,1.705,1.705,1.705s1.706-0.766,1.706-1.705
		C164.921,167.96,164.156,167.195,163.215,167.195z M163.215,171.459c-1.41,0-2.558-1.147-2.558-2.558
		c0-1.411,1.148-2.559,2.558-2.559c1.411,0,2.559,1.147,2.559,2.559C165.774,170.312,164.626,171.459,163.215,171.459z"/>
	<path fill="#FF7800" d="M163.072,178.895c-0.941,0-1.705,0.766-1.705,1.705c0,0.941,0.764,1.707,1.705,1.707
		c0.941,0,1.706-0.766,1.706-1.707C164.778,179.66,164.013,178.895,163.072,178.895 M163.072,183.159
		c-1.41,0-2.558-1.148-2.558-2.56c0-1.411,1.148-2.559,2.558-2.559c1.411,0,2.559,1.147,2.559,2.559
		C165.631,182.011,164.483,183.159,163.072,183.159"/>
	<path fill="none" stroke="#FF7800" stroke-width="0.531" stroke-miterlimit="10" d="M163.072,178.895
		c-0.941,0-1.705,0.766-1.705,1.705c0,0.941,0.764,1.707,1.705,1.707c0.941,0,1.706-0.766,1.706-1.707
		C164.778,179.66,164.013,178.895,163.072,178.895z M163.072,183.159c-1.41,0-2.558-1.148-2.558-2.56
		c0-1.411,1.148-2.559,2.558-2.559c1.411,0,2.559,1.147,2.559,2.559C165.631,182.011,164.483,183.159,163.072,183.159z"/>
	<path fill="#FF7800" d="M163.286,191.732c-0.941,0-1.706,0.766-1.706,1.705s0.765,1.705,1.706,1.705s1.705-0.766,1.705-1.705
		S164.227,191.732,163.286,191.732 M163.286,195.995c-1.411,0-2.559-1.147-2.559-2.558c0-1.412,1.148-2.559,2.559-2.559
		c1.41,0,2.558,1.146,2.558,2.559C165.844,194.848,164.696,195.995,163.286,195.995"/>
	<path fill="none" stroke="#FF7800" stroke-width="0.531" stroke-miterlimit="10" d="M163.286,191.732
		c-0.941,0-1.706,0.766-1.706,1.705s0.765,1.705,1.706,1.705s1.705-0.766,1.705-1.705S164.227,191.732,163.286,191.732z
		 M163.286,195.995c-1.411,0-2.559-1.147-2.559-2.558c0-1.412,1.148-2.559,2.559-2.559c1.41,0,2.558,1.146,2.558,2.559
		C165.844,194.848,164.696,195.995,163.286,195.995z"/>
	<path fill="#FF7800" d="M163.144,203.893c-0.941,0-1.706,0.766-1.706,1.705s0.765,1.704,1.706,1.704s1.706-0.765,1.706-1.704
		C164.85,204.657,164.084,203.893,163.144,203.893 M163.144,208.154c-1.41,0-2.558-1.147-2.558-2.559c0-1.41,1.148-2.56,2.558-2.56
		c1.411,0,2.559,1.147,2.559,2.56C165.703,207.007,164.555,208.154,163.144,208.154"/>
	<path fill="none" stroke="#FF7800" stroke-width="0.531" stroke-miterlimit="10" d="M163.144,203.893
		c-0.941,0-1.706,0.766-1.706,1.705s0.765,1.704,1.706,1.704s1.706-0.765,1.706-1.704
		C164.85,204.657,164.084,203.893,163.144,203.893z M163.144,208.154c-1.41,0-2.558-1.147-2.558-2.559c0-1.41,1.148-2.56,2.558-2.56
		c1.411,0,2.559,1.147,2.559,2.56C165.703,207.007,164.555,208.154,163.144,208.154z"/>
</g>
</svg>
