<?xml version="1.0" encoding="utf-8"?>
<!-- Generator: Adobe Illustrator 15.0.2, SVG Export Plug-In . SVG Version: 6.00 Build 0)  -->
<!DOCTYPE svg PUBLIC "-//W3C//DTD SVG 1.1//EN" "http://www.w3.org/Graphics/SVG/1.1/DTD/svg11.dtd">
<svg version="1.1" id="Layer_1" xmlns="http://www.w3.org/2000/svg" xmlns:xlink="http://www.w3.org/1999/xlink" x="0px" y="0px"
	 width="117.333px" height="114px" viewBox="120.5 122.833 117.333 114" enable-background="new 120.5 122.833 117.333 114"
	 xml:space="preserve">
<rect x="202.916" y="204.897" transform="matrix(-0.7072 -0.707 0.707 -0.7072 208.1068 499.5885)" fill="#FF7800" width="9.166" height="3.612"/>
<rect x="202.916" y="204.897" transform="matrix(-0.7072 -0.707 0.707 -0.7072 208.1068 499.5885)" fill="none" stroke="#FFFFFF" stroke-width="0.877" stroke-miterlimit="10" width="9.166" height="3.612"/>
<g>
	<path fill="#303030" d="M199.95,168.815v-40.873h-73.399v96.873h73.399v-12.228c1.249-0.483,2.459-1.071,3.612-1.767v17.604
		h-80.625V124.823h80.625v45.76C202.409,169.887,201.199,169.298,199.95,168.815"/>
	<path fill="none" stroke="#FFFFFF" stroke-width="0.877" stroke-miterlimit="10" d="M199.95,168.815v-40.873h-73.399v96.873h73.399
		v-12.228c1.249-0.483,2.459-1.071,3.612-1.767v17.604h-80.625V124.823h80.625v45.76
		C202.409,169.887,201.199,169.298,199.95,168.815z"/>
	<path fill="#FF7800" d="M191.516,174.485c-4.33,0-8.402,1.688-11.465,4.75c-6.323,6.322-6.323,16.611,0,22.934
		c3.062,3.062,7.135,4.75,11.465,4.75c4.332,0,8.404-1.688,11.469-4.75c3.062-3.063,4.75-7.136,4.75-11.468
		c0-4.331-1.688-8.403-4.75-11.466C199.921,176.172,195.848,174.485,191.516,174.485 M191.516,210.529
		c-5.295,0-10.274-2.062-14.021-5.807c-7.731-7.731-7.731-20.312,0-28.042c3.745-3.745,8.726-5.807,14.021-5.807
		c5.297,0,10.277,2.062,14.021,5.807c3.745,3.745,5.809,8.724,5.809,14.021c0,5.298-2.062,10.275-5.809,14.021
		C201.793,208.468,196.812,210.529,191.516,210.529"/>
	<path fill="none" stroke="#FFFFFF" stroke-width="0.877" stroke-miterlimit="10" d="M191.516,174.485
		c-4.33,0-8.402,1.688-11.465,4.75c-6.323,6.322-6.323,16.611,0,22.934c3.062,3.062,7.135,4.75,11.465,4.75
		c4.332,0,8.404-1.688,11.469-4.75c3.062-3.063,4.75-7.136,4.75-11.468c0-4.331-1.688-8.403-4.75-11.466
		C199.921,176.172,195.848,174.485,191.516,174.485z M191.516,210.529c-5.295,0-10.274-2.062-14.021-5.807
		c-7.731-7.731-7.731-20.312,0-28.042c3.745-3.745,8.726-5.807,14.021-5.807c5.297,0,10.277,2.062,14.021,5.807
		c3.745,3.745,5.809,8.724,5.809,14.021c0,5.298-2.062,10.275-5.809,14.021C201.793,208.468,196.812,210.529,191.516,210.529z"/>
</g>
<polygon fill="#FF7800" points="190.05,198.38 182.775,191.104 185.329,188.551 190.05,193.271 199.537,183.785 202.091,186.339 "/>
<g>
	<path fill="#303030" d="M169.141,183.73c-0.188,0.597-0.348,1.201-0.482,1.808h-30.565v-1.808H169.141z"/>
	<path fill="none" stroke="#FFFFFF" stroke-width="0.877" stroke-miterlimit="10" d="M169.141,183.73
		c-0.188,0.597-0.348,1.201-0.482,1.808h-30.565v-1.808H169.141z"/>
	<path fill="#303030" d="M169.059,197.406h-30.964V195.6H168.6C168.729,196.206,168.88,196.809,169.059,197.406"/>
	<path fill="none" stroke="#FFFFFF" stroke-width="0.877" stroke-miterlimit="10" d="M169.059,197.406h-30.964V195.6H168.6
		C168.729,196.206,168.88,196.809,169.059,197.406z"/>
</g>
<rect x="138.095" y="207.469" fill="#303030" width="25.156" height="1.807"/>
<rect x="138.095" y="207.469" fill="none" stroke="#FFFFFF" stroke-width="0.877" stroke-miterlimit="10" width="25.156" height="1.807"/>
<g>
	<path fill="#FF7800" d="M213.826,210.438c-0.672,0-1.303,0.263-1.778,0.737l-0.06,0.06c-0.961,0.961-0.988,2.492-0.064,3.488
		l15.473,16.659c0.64,0.688,1.508,1.067,2.449,1.067c0.894,0,1.73-0.348,2.363-0.979l0.076-0.078
		c0.646-0.646,0.994-1.509,0.979-2.424c-0.018-0.917-0.396-1.766-1.068-2.389l-16.657-15.473
		C215.07,210.677,214.463,210.438,213.826,210.438 M229.846,236.062c-1.928,0-3.785-0.812-5.097-2.223l-15.472-16.658
		c-2.252-2.426-2.185-6.16,0.156-8.502l0.061-0.061c1.156-1.157,2.695-1.794,4.332-1.794c1.552,0,3.033,0.582,4.17,1.637
		l16.658,15.474c1.396,1.297,2.186,3.062,2.221,4.967c0.035,1.906-0.688,3.699-2.036,5.047l-0.075,0.076
		C233.449,235.339,231.703,236.062,229.846,236.062"/>
	<path fill="none" stroke="#FFFFFF" stroke-width="0.877" stroke-miterlimit="10" d="M213.826,210.438
		c-0.672,0-1.303,0.263-1.778,0.737l-0.06,0.06c-0.961,0.961-0.988,2.492-0.064,3.488l15.473,16.659
		c0.64,0.688,1.508,1.067,2.449,1.067c0.894,0,1.73-0.348,2.363-0.979l0.076-0.078c0.646-0.646,0.994-1.509,0.979-2.424
		c-0.018-0.917-0.396-1.766-1.068-2.389l-16.657-15.473C215.07,210.677,214.463,210.438,213.826,210.438z M229.846,236.062
		c-1.928,0-3.785-0.812-5.097-2.223l-15.472-16.658c-2.252-2.426-2.185-6.16,0.156-8.502l0.061-0.061
		c1.156-1.157,2.695-1.794,4.332-1.794c1.552,0,3.033,0.582,4.17,1.637l16.658,15.474c1.396,1.297,2.186,3.062,2.221,4.967
		c0.035,1.906-0.688,3.699-2.036,5.047l-0.075,0.076C233.449,235.339,231.703,236.062,229.846,236.062z"/>
</g>
<rect x="147.11" y="152.648" transform="matrix(-0.5362 -0.8441 0.8441 -0.5362 90.8976 373.3012)" fill="#FF7800" width="1.806" height="18.057"/>
<rect x="155.51" y="157.202" transform="matrix(-0.9864 -0.1642 0.1642 -0.9864 298.2954 340.8713)" fill="#FF7800" width="15.455" height="1.807"/>
<rect x="177.581" y="139.012" transform="matrix(-0.7546 -0.6562 0.6562 -0.7546 214.3282 381.394)" fill="#FF7800" width="1.807" height="23.212"/>
<g>
	<path fill="#FF7800" d="M143.606,166.511c0,1.78-1.444,3.225-3.225,3.225c-1.781,0-3.225-1.444-3.225-3.225
		c0-1.781,1.444-3.226,3.225-3.226C142.163,163.285,143.606,164.729,143.606,166.511"/>
	<path fill="#FF7800" d="M189.346,141.87c0,1.781-1.443,3.225-3.226,3.225c-1.78,0-3.226-1.443-3.226-3.225
		c0-1.782,1.444-3.226,3.226-3.226C187.9,138.645,189.346,140.089,189.346,141.87"/>
	<path fill="#FF7800" d="M174.099,159.372c0,1.781-1.444,3.225-3.225,3.225c-1.781,0-3.225-1.443-3.225-3.225
		c0-1.782,1.444-3.226,3.225-3.226C172.655,156.146,174.099,157.591,174.099,159.372"/>
	<path fill="#FF7800" d="M158.853,156.835c0,1.78-1.444,3.225-3.225,3.225c-1.781,0-3.225-1.444-3.225-3.225
		c0-1.781,1.444-3.226,3.225-3.226C157.409,153.609,158.853,155.054,158.853,156.835"/>
</g>
</svg>
