<?xml version="1.0" encoding="utf-8"?>
<!-- Generator: Adobe Illustrator 15.0.2, SVG Export Plug-In . SVG Version: 6.00 Build 0)  -->
<!DOCTYPE svg PUBLIC "-//W3C//DTD SVG 1.1//EN" "http://www.w3.org/Graphics/SVG/1.1/DTD/svg11.dtd">
<svg version="1.1" id="Layer_1" xmlns="http://www.w3.org/2000/svg" xmlns:xlink="http://www.w3.org/1999/xlink" x="0px" y="0px"
	 width="95px" height="95px" viewBox="-55.081 -10.166 95 95" enable-background="new -55.081 -10.166 95 95" xml:space="preserve">
<g>
	<g>
		<path fill="#212929" d="M24.719,51.051h-1.855v-7.67H-6.806v7.67h-1.855v-7.67h-29.671v7.67h-1.855v-8.598
			c0-0.513,0.416-0.928,0.928-0.928h30.599v-7.67h1.855v7.67h30.597c0.512,0,0.928,0.415,0.928,0.928V51.051z M18.059,30.484
			h-51.587c-3.672,0-6.66-2.988-6.66-6.66V-1.969c0-3.672,2.988-6.659,6.66-6.659h51.587c3.672,0,6.66,2.987,6.66,6.659v25.793
			C24.719,27.496,21.731,30.484,18.059,30.484z M-33.528-6.773c-2.649,0-4.804,2.155-4.804,4.804v25.793
			c0,2.649,2.155,4.805,4.804,4.805h51.587c2.649,0,4.804-2.155,4.804-4.805V-1.969c0-2.649-2.155-4.804-4.804-4.804H-33.528z
			 M18.059,24.751h-51.587c-0.512,0-0.928-0.416-0.928-0.928V-1.969c0-0.512,0.416-0.928,0.928-0.928h51.587
			c0.512,0,0.928,0.416,0.928,0.928v25.793C18.987,24.336,18.571,24.751,18.059,24.751z M-32.601,22.896h49.732V-1.042h-49.732
			V22.896z"/>
	</g>
	<g>
		<path fill="#FF05A1" d="M23.792,83.834c-7.623,0-13.825-6.201-13.825-13.824s6.202-13.824,13.825-13.824
			c7.622,0,13.824,6.201,13.824,13.824S31.414,83.834,23.792,83.834z M23.792,58.041c-6.6,0-11.969,5.369-11.969,11.969
			s5.369,11.969,11.969,11.969c6.6,0,11.969-5.369,11.969-11.969S30.391,58.041,23.792,58.041z M-7.735,83.834
			c-7.622,0-13.823-6.201-13.823-13.824s6.201-13.824,13.823-13.824c7.623,0,13.825,6.201,13.825,13.824S-0.112,83.834-7.735,83.834
			z M-7.735,58.041c-6.6,0-11.968,5.369-11.968,11.969s5.369,11.969,11.968,11.969c6.6,0,11.969-5.369,11.969-11.969
			S-1.135,58.041-7.735,58.041z M-39.26,83.834c-7.623,0-13.824-6.201-13.824-13.824s6.201-13.824,13.824-13.824
			s13.825,6.201,13.825,13.824S-31.637,83.834-39.26,83.834z M-39.26,58.041c-6.6,0-11.969,5.369-11.969,11.969
			s5.369,11.969,11.969,11.969s11.97-5.369,11.97-11.969S-32.66,58.041-39.26,58.041z M23.792,78.102
			c-4.462,0-8.093-3.63-8.093-8.092c0-4.463,3.63-8.094,8.093-8.094c4.461,0,8.091,3.631,8.091,8.094
			C31.883,74.472,28.253,78.102,23.792,78.102z M23.792,63.771c-3.439,0-6.237,2.799-6.237,6.238c0,3.438,2.798,6.236,6.237,6.236
			c3.438,0,6.236-2.798,6.236-6.236C30.027,66.57,27.23,63.771,23.792,63.771z M-7.735,78.102c-4.462,0-8.093-3.63-8.093-8.092
			c0-4.463,3.63-8.094,8.093-8.094s8.093,3.631,8.093,8.094C0.358,74.472-3.272,78.102-7.735,78.102z M-7.735,63.771
			c-3.439,0-6.237,2.799-6.237,6.238c0,3.438,2.798,6.236,6.237,6.236s6.237-2.798,6.237-6.236
			C-1.498,66.57-4.295,63.771-7.735,63.771z M-39.26,78.102c-4.462,0-8.093-3.63-8.093-8.092c0-4.463,3.63-8.094,8.093-8.094
			s8.093,3.631,8.093,8.094C-31.167,74.472-34.797,78.102-39.26,78.102z M-39.26,63.771c-3.439,0-6.237,2.799-6.237,6.238
			c0,3.438,2.798,6.236,6.237,6.236s6.238-2.798,6.238-6.236C-33.022,66.57-35.82,63.771-39.26,63.771z"/>
	</g>
</g>
<g>
	<path fill="#FF05A1" d="M0.184,11.789h-2.866V9.213h2.866V11.789z M-5.548,11.789h-2.866V9.213h2.866V11.789z M-11.281,11.789
		h-2.866V9.213h2.866V11.789z"/>
</g>
</svg>
