<?xml version="1.0" encoding="utf-8"?>
<!-- Generator: Adobe Illustrator 15.0.2, SVG Export Plug-In . SVG Version: 6.00 Build 0)  -->
<!DOCTYPE svg PUBLIC "-//W3C//DTD SVG 1.1//EN" "http://www.w3.org/Graphics/SVG/1.1/DTD/svg11.dtd">
<svg version="1.1" id="Layer_1" xmlns="http://www.w3.org/2000/svg" xmlns:xlink="http://www.w3.org/1999/xlink" x="0px" y="0px"
	 width="75.666px" height="75.667px" viewBox="-45.414 -0.833 75.666 75.667" enable-background="new -45.414 -0.833 75.666 75.667"
	 xml:space="preserve">
<g>
	<g>
		<path fill="#FFFFFF" d="M-7.699,2.164c-19.486,0-35.282,15.797-35.282,35.283c0,19.487,15.796,35.281,35.282,35.281
			s35.282-15.794,35.282-35.281C27.583,17.961,11.787,2.164-7.699,2.164"/>
	</g>
	<g>
		<path fill="#FF05A1" d="M-7.699,73.497c-19.878,0-36.051-16.172-36.051-36.05c0-19.879,16.172-36.052,36.051-36.052
			c19.879,0,36.051,16.173,36.051,36.052C28.353,57.325,12.18,73.497-7.699,73.497z M-7.699,2.933
			c-19.03,0-34.513,15.483-34.513,34.514c0,19.03,15.482,34.513,34.513,34.513c19.031,0,34.513-15.482,34.513-34.513
			C26.814,18.416,11.332,2.933-7.699,2.933z"/>
	</g>
</g>
<g>
	<polygon fill="#FF05A1" points="-20.023,32.79 -11.326,41.487 8.241,21.92 14.764,28.442 -11.326,54.532 -26.545,39.313 	"/>
</g>
</svg>
