<?xml version="1.0" encoding="utf-8"?>
<!-- Generator: Adobe Illustrator 15.0.2, SVG Export Plug-In . SVG Version: 6.00 Build 0)  -->
<!DOCTYPE svg PUBLIC "-//W3C//DTD SVG 1.1//EN" "http://www.w3.org/Graphics/SVG/1.1/DTD/svg11.dtd">
<svg version="1.1" id="Layer_1" xmlns="http://www.w3.org/2000/svg" xmlns:xlink="http://www.w3.org/1999/xlink" x="0px" y="0px"
	 width="287.058px" height="184.706px" viewBox="0 0 287.058 184.706" enable-background="new 0 0 287.058 184.706"
	 xml:space="preserve">
<line fill="none" stroke="#FED379" stroke-width="2.6" x1="28.005" y1="55.24" x2="28.005" y2="75.958"/>
<line fill="none" stroke="#FED379" stroke-width="2.6" x1="37.737" y1="65.601" x2="17.018" y2="65.601"/>
<g>
	<defs>
		<rect id="SVGID_1_" x="1.823" y="2.746" width="283.632" height="180.607"/>
	</defs>
	<clipPath id="SVGID_2_">
		<use xlink:href="#SVGID_1_"  overflow="visible"/>
	</clipPath>
	<path clip-path="url(#SVGID_2_)" fill="none" stroke="#FED379" stroke-width="2.6" d="M27.716,38.572
		c2.434,2.131,11.806,9.563,24.475,9.924c-2.995,32.711-21.414,45.891-24.475,47.866c-3.062-1.976-21.48-15.155-24.473-47.866
		C15.911,48.135,25.282,40.703,27.716,38.572z"/>
	
		<line clip-path="url(#SVGID_2_)" fill="none" stroke="#FFFFFF" stroke-width="2" x1="77.823" y1="182.353" x2="198.953" y2="182.353"/>
</g>
<path fill="none" stroke="#FFFFFF" stroke-width="1.4" stroke-miterlimit="10" d="M109.052,138.066h6.397v10.826h-6.397V138.066z
	 M133.164,148.892h-6.397v-10.826h6.397V148.892z M150.879,148.892h-6.397v-10.826h6.397V148.892z M168.594,148.892h-6.397v-10.826
	h6.397V148.892z M109.052,120.351h6.397v10.826h-6.397V120.351z M133.164,131.177h-6.397v-10.826h6.397V131.177z M150.879,131.177
	h-6.397v-10.826h6.397V131.177z M168.594,131.177h-6.397v-10.826h6.397V131.177z M109.052,102.637h6.397v10.826h-6.397V102.637z
	 M133.164,113.462h-6.397v-10.826h6.397V113.462z M150.879,113.462h-6.397v-10.826h6.397V113.462z M168.594,113.462h-6.397v-10.826
	h6.397V113.462z M109.052,84.922h6.397v10.825h-6.397V84.922z M133.164,95.748h-6.397V84.922h6.397V95.748z M150.879,95.748h-6.397
	V84.922h6.397V95.748z M168.594,95.748h-6.397V84.922h6.397V95.748z M109.052,67.207h6.397v10.826h-6.397V67.207z M133.164,78.033
	h-6.397V67.207h6.397V78.033z M150.879,78.033h-6.397V67.207h6.397V78.033z M168.594,78.033h-6.397V67.207h6.397V78.033z
	 M109.052,49.493h6.397v10.826h-6.397V49.493z M133.164,60.318h-6.397V49.492h6.397V60.318z M150.879,60.318h-6.397V49.492h6.397
	V60.318z M168.594,60.318h-6.397V49.492h6.397V60.318z M109.052,31.778h6.397v10.826h-6.397V31.778z M133.164,42.604h-6.397V31.778
	h6.397V42.604z M150.879,42.604h-6.397V31.778h6.397V42.604z M168.594,42.604h-6.397V31.778h6.397V42.604z M109.052,14.063h6.397
	v10.826h-6.397V14.063z M133.164,24.889h-6.397V14.063h6.397V24.889z M150.879,24.889h-6.397V14.063h6.397V24.889z M168.594,24.889
	h-6.397V14.063h6.397V24.889z"/>
<g>
	<defs>
		<rect id="SVGID_3_" x="1.823" y="2.746" width="283.632" height="180.607"/>
	</defs>
	<clipPath id="SVGID_4_">
		<use xlink:href="#SVGID_3_"  overflow="visible"/>
	</clipPath>
	<path clip-path="url(#SVGID_4_)" fill="#FFFFFF" d="M181.879,179.892h-6.396v-19.683h6.396V179.892z M95.766,160.209h6.398
		l-0.001,19.683h-6.397V160.209z M166.625,160.209h6.396v19.683h-6.396V160.209z M157.768,160.209h6.396v19.683h-6.396V160.209z
		 M148.911,160.209h6.396v19.683h-6.396V160.209z M140.053,160.209h6.397v19.683h-6.397V160.209z M131.196,160.209h6.397v19.683
		h-6.397V160.209z M122.339,160.209h6.397l-0.001,19.683h-6.396V160.209z M113.48,160.209h6.397v19.683h-6.397V160.209z
		 M111.021,160.209v19.683h-6.397v-19.683H111.021z M100.195,157.75V5.207h77.256V157.75 M183.11,157.75h-3.198V3.976
		c0-0.68-0.551-1.231-1.231-1.231H98.965c-0.68,0-1.23,0.551-1.23,1.231V157.75h-3.199c-0.679,0-1.23,0.551-1.23,1.229v22.145
		c0,0.679,0.551,1.229,1.23,1.229h88.574c0.679,0,1.229-0.551,1.229-1.229v-22.145C184.339,158.3,183.789,157.75,183.11,157.75"/>
	
		<path clip-path="url(#SVGID_4_)" fill="none" stroke="#EE9EC4" stroke-width="1.809" stroke-linejoin="round" stroke-miterlimit="10" d="
		M237.016,50.696c-0.127,0.18-2.655-0.309-5.114-0.809c-2.556-0.521-5.243-3.102-5.243-3.102l-9.831,17.816l4.296,4.818
		 M243.679,85.449c0,0,3.443,1.627,6.31,1.946c2.283,0.252,4.98-0.112,4.771-3.265l0.003,0.001c1.018,0.448,3.492,1.236,4.963-0.881
		c1.449-2.091-0.082-3.562-1.07-4.23l-0.003,0.002c0,0,3.988,2.623,6.015,0.002c2.238-2.894-1.842-5.128-1.842-5.128
		s5.202,3.516,7.229,0.896c1.396-1.805,0.32-3.481-0.676-4.391"/>
	
		<path clip-path="url(#SVGID_4_)" fill="none" stroke="#EE9EC4" stroke-width="1.809" stroke-linecap="round" stroke-linejoin="round" stroke-miterlimit="10" d="
		M262.824,73.896l-9.534-5.917 M246.704,79.833c0,0,7.771,4.173,8.057,4.298 M258.655,79.02c-0.393-0.265-8.7-4.908-8.7-4.908"/>
	
		<path clip-path="url(#SVGID_4_)" fill="none" stroke="#EE9EC4" stroke-width="1.809" stroke-linejoin="round" stroke-miterlimit="10" d="
		M235.968,84.145c-1.125,1.535-3.285,1.868-4.819,0.743c-1.536-1.126-1.868-3.285-0.743-4.822l3.332-4.544
		c1.127-1.534,3.282-1.869,4.819-0.742c1.537,1.125,1.868,3.285,0.742,4.82L235.968,84.145z M230.183,80.37
		c-1.126,1.536-3.284,1.87-4.82,0.743c-1.535-1.125-1.867-3.285-0.743-4.819l3.89-5.223c1.125-1.539,3.285-1.868,4.821-0.742
		c1.535,1.125,1.869,3.285,0.741,4.819L230.183,80.37z M242.131,87.404c-1.127,1.536-3.284,1.869-4.82,0.743
		s-1.869-3.285-0.742-4.821l1.713-2.336c1.125-1.535,3.284-1.867,4.819-0.742c1.536,1.127,1.868,3.286,0.742,4.821L242.131,87.404z
		 M225.443,75.17c-1.126,1.535-3.283,1.868-4.82,0.742c-1.536-1.126-1.867-3.284-0.743-4.82l1.067-1.453
		c1.126-1.536,3.283-1.868,4.82-0.743c1.535,1.127,1.866,3.285,0.742,4.819L225.443,75.17z M245.874,54.514
		c0,0,7.642,3.852,12.6,7.228c7.21,4.91,10.904,8.659,10.904,8.659s5.719-3.971,6.354-5.799l-9.689-17.238
		c0,0-2.146,1.509-4.131,1.43c-1.939-0.077-8.145-4.064-22.243-0.585c-0.943,0.233-1.56,0.969-1.56,0.969
		c-1.021,1.422-6.384,10.893-6.384,10.893s1.368,1.419,3.893,1.059c6.192-0.885,6.911-5.741,6.911-5.741
		S244.602,55.228,245.874,54.514z M208.338,61.056c-0.361,0.652-0.126,1.476,0.527,1.837l5.628,3.115
		c0.652,0.363,1.476,0.127,1.838-0.525l11.071-19.929c0.36-0.653,0.125-1.477-0.526-1.837l-5.631-3.118
		c-0.653-0.361-1.474-0.124-1.835,0.527L208.338,61.056z M284.419,61.477c0.314,0.566,0.04,1.319-0.613,1.682l-5.628,3.116
		c-0.652,0.362-1.435,0.196-1.75-0.372l-10.896-19.675c-0.314-0.566-0.04-1.319,0.612-1.681l5.63-3.117
		c0.652-0.362,1.436-0.195,1.75,0.371L284.419,61.477z"/>
</g>
</svg>
