<?xml version="1.0" encoding="utf-8"?>
<!-- Generator: Adobe Illustrator 15.0.2, SVG Export Plug-In . SVG Version: 6.00 Build 0)  -->
<!DOCTYPE svg PUBLIC "-//W3C//DTD SVG 1.1//EN" "http://www.w3.org/Graphics/SVG/1.1/DTD/svg11.dtd">
<svg version="1.1" id="Layer_1" xmlns="http://www.w3.org/2000/svg" xmlns:xlink="http://www.w3.org/1999/xlink" x="0px" y="0px"
	 width="76px" height="44px" viewBox="132.5 154.5 76 44" enable-background="new 132.5 154.5 76 44" xml:space="preserve">
<g>
	<defs>
		<rect id="SVGID_1_" x="143.5" y="159.065" width="55.794" height="34.435"/>
	</defs>
	<clipPath id="SVGID_2_">
		<use xlink:href="#SVGID_1_"  overflow="visible"/>
	</clipPath>
	<path clip-path="url(#SVGID_2_)" fill="#231F20" d="M187.988,193.406c2.583,0,4.682-2.101,4.682-4.681
		c0-2.579-2.099-4.676-4.677-4.676c-0.772,0-1.534,0.19-2.208,0.551c-0.344,0.185-0.473,0.611-0.289,0.955s0.612,0.475,0.955,0.29
		c0.469-0.251,1.001-0.384,1.537-0.384c1.805,0,3.268,1.464,3.268,3.264c0,1.803-1.463,3.269-3.263,3.269
		c-1.804,0-3.269-1.464-3.269-3.264c0-0.097,0.005-0.194,0.013-0.291c0.033-0.389-0.255-0.729-0.644-0.764
		c-0.392-0.033-0.73,0.255-0.764,0.645c-0.012,0.135-0.017,0.273-0.017,0.41C183.313,191.309,185.41,193.406,187.988,193.406"/>
	<path clip-path="url(#SVGID_2_)" fill="none" stroke="#FFFFFF" stroke-width="0.188" stroke-miterlimit="10" d="M187.988,193.406
		c2.583,0,4.682-2.101,4.682-4.681c0-2.579-2.099-4.676-4.677-4.676c-0.772,0-1.534,0.19-2.208,0.551
		c-0.344,0.185-0.473,0.611-0.289,0.955s0.612,0.475,0.955,0.29c0.469-0.251,1.001-0.384,1.537-0.384
		c1.805,0,3.268,1.464,3.268,3.264c0,1.803-1.463,3.269-3.263,3.269c-1.804,0-3.269-1.464-3.269-3.264
		c0-0.097,0.005-0.194,0.013-0.291c0.033-0.389-0.255-0.729-0.644-0.764c-0.392-0.033-0.73,0.255-0.764,0.645
		c-0.012,0.135-0.017,0.273-0.017,0.41C183.313,191.309,185.41,193.406,187.988,193.406z"/>
	<path clip-path="url(#SVGID_2_)" fill="#231F20" d="M187.803,189.314c0.186,0,0.367-0.076,0.5-0.207
		c0.131-0.132,0.206-0.313,0.206-0.499s-0.075-0.367-0.206-0.5c-0.133-0.13-0.314-0.206-0.5-0.206s-0.367,0.076-0.5,0.206
		c-0.13,0.133-0.206,0.314-0.206,0.5s0.076,0.367,0.206,0.499C187.436,189.238,187.617,189.314,187.803,189.314"/>
	<path clip-path="url(#SVGID_2_)" fill="none" stroke="#FFFFFF" stroke-width="0.188" stroke-miterlimit="10" d="M187.803,189.314
		c0.186,0,0.367-0.076,0.5-0.207c0.131-0.132,0.206-0.313,0.206-0.499s-0.075-0.367-0.206-0.5c-0.133-0.13-0.314-0.206-0.5-0.206
		s-0.367,0.076-0.5,0.206c-0.13,0.133-0.206,0.314-0.206,0.5s0.076,0.367,0.206,0.499
		C187.436,189.238,187.617,189.314,187.803,189.314z"/>
	<path clip-path="url(#SVGID_2_)" fill="#231F20" d="M155.865,193.406c2.578,0,4.675-2.101,4.675-4.681
		c0-2.579-2.099-4.676-4.68-4.676c-0.454,0-0.903,0.065-1.334,0.193c-0.374,0.11-0.587,0.505-0.476,0.878
		c0.111,0.374,0.504,0.587,0.878,0.476c0.301-0.089,0.615-0.135,0.932-0.135c1.802,0,3.268,1.464,3.268,3.264
		c0,1.803-1.464,3.269-3.263,3.269c-1.802,0-3.268-1.464-3.268-3.264c0-0.263,0.031-0.523,0.091-0.774
		c0.092-0.38-0.141-0.761-0.52-0.854c-0.38-0.091-0.761,0.143-0.852,0.521c-0.087,0.36-0.131,0.731-0.131,1.106
		C151.185,191.309,153.284,193.406,155.865,193.406"/>
	<path clip-path="url(#SVGID_2_)" fill="none" stroke="#FFFFFF" stroke-width="0.188" stroke-miterlimit="10" d="M155.865,193.406
		c2.578,0,4.675-2.101,4.675-4.681c0-2.579-2.099-4.676-4.68-4.676c-0.454,0-0.903,0.065-1.334,0.193
		c-0.374,0.11-0.587,0.505-0.476,0.878c0.111,0.374,0.504,0.587,0.878,0.476c0.301-0.089,0.615-0.135,0.932-0.135
		c1.802,0,3.268,1.464,3.268,3.264c0,1.803-1.464,3.269-3.263,3.269c-1.802,0-3.268-1.464-3.268-3.264
		c0-0.263,0.031-0.523,0.091-0.774c0.092-0.38-0.141-0.761-0.52-0.854c-0.38-0.091-0.761,0.143-0.852,0.521
		c-0.087,0.36-0.131,0.731-0.131,1.106C151.185,191.309,153.284,193.406,155.865,193.406z"/>
	<path clip-path="url(#SVGID_2_)" fill="#231F20" d="M152.867,186.637c0.032,0,0.065-0.002,0.098-0.007
		c0.19-0.014,0.373-0.104,0.5-0.267c0.289-0.368,0.186-0.768-0.031-0.982c-0.129-0.128-0.394-0.27-0.705-0.172
		c-0.117,0.03-0.229,0.09-0.322,0.181c-0.408,0.401-0.224,0.837-0.07,1.01C152.463,186.541,152.657,186.637,152.867,186.637"/>
	<path clip-path="url(#SVGID_2_)" fill="none" stroke="#FFFFFF" stroke-width="0.188" stroke-miterlimit="10" d="M152.867,186.637
		c0.032,0,0.065-0.002,0.098-0.007c0.19-0.014,0.373-0.104,0.5-0.267c0.289-0.368,0.186-0.768-0.031-0.982
		c-0.129-0.128-0.394-0.27-0.705-0.172c-0.117,0.03-0.229,0.09-0.322,0.181c-0.408,0.401-0.224,0.837-0.07,1.01
		C152.463,186.541,152.657,186.637,152.867,186.637z"/>
	<path clip-path="url(#SVGID_2_)" fill="#231F20" d="M184.756,187.244c0.032,0,0.064-0.002,0.098-0.007
		c0.19-0.014,0.373-0.104,0.5-0.267c0.289-0.368,0.187-0.768-0.03-0.982c-0.13-0.128-0.394-0.27-0.705-0.172
		c-0.117,0.03-0.229,0.09-0.322,0.181c-0.407,0.401-0.224,0.837-0.069,1.01C184.352,187.148,184.546,187.244,184.756,187.244"/>
	<path clip-path="url(#SVGID_2_)" fill="none" stroke="#FFFFFF" stroke-width="0.188" stroke-miterlimit="10" d="M184.756,187.244
		c0.032,0,0.064-0.002,0.098-0.007c0.19-0.014,0.373-0.104,0.5-0.267c0.289-0.368,0.187-0.768-0.03-0.982
		c-0.13-0.128-0.394-0.27-0.705-0.172c-0.117,0.03-0.229,0.09-0.322,0.181c-0.407,0.401-0.224,0.837-0.069,1.01
		C184.352,187.148,184.546,187.244,184.756,187.244z"/>
	<path clip-path="url(#SVGID_2_)" fill="#231F20" d="M155.725,189.314c0.185,0,0.367-0.076,0.5-0.207
		c0.13-0.132,0.206-0.313,0.206-0.499s-0.076-0.367-0.206-0.5c-0.133-0.13-0.315-0.206-0.5-0.206c-0.187,0-0.369,0.076-0.5,0.206
		c-0.132,0.133-0.206,0.314-0.206,0.5s0.074,0.367,0.206,0.499C155.355,189.238,155.54,189.314,155.725,189.314"/>
	<path clip-path="url(#SVGID_2_)" fill="none" stroke="#FFFFFF" stroke-width="0.188" stroke-miterlimit="10" d="M155.725,189.314
		c0.185,0,0.367-0.076,0.5-0.207c0.13-0.132,0.206-0.313,0.206-0.499s-0.076-0.367-0.206-0.5c-0.133-0.13-0.315-0.206-0.5-0.206
		c-0.187,0-0.369,0.076-0.5,0.206c-0.132,0.133-0.206,0.314-0.206,0.5s0.074,0.367,0.206,0.499
		C155.355,189.238,155.54,189.314,155.725,189.314z"/>
	<path clip-path="url(#SVGID_2_)" fill="#231F20" d="M193.198,190.581h3.306c1.99,0,2.696-0.681,2.696-2.603v-3.066
		c0-1.968-1.563-3.51-3.562-3.51h-1.734v1.412h1.734c1.205,0,2.15,0.922,2.15,2.098v3.066c0,1.146-0.049,1.19-1.285,1.19h-3.306
		V190.581z"/>
	<path clip-path="url(#SVGID_2_)" fill="none" stroke="#FFFFFF" stroke-width="0.188" stroke-miterlimit="10" d="M193.198,190.581
		h3.306c1.99,0,2.696-0.681,2.696-2.603v-3.066c0-1.968-1.563-3.51-3.562-3.51h-1.734v1.412h1.734c1.205,0,2.15,0.922,2.15,2.098
		v3.066c0,1.146-0.049,1.19-1.285,1.19h-3.306V190.581z"/>
</g>
<rect x="161.07" y="189.169" fill="#231F20" width="21.36" height="1.412"/>
<rect x="161.07" y="189.169" fill="none" stroke="#FFFFFF" stroke-width="0.188" stroke-miterlimit="10" width="21.36" height="1.412"/>
<g>
	<defs>
		<rect id="SVGID_3_" x="143.5" y="159.065" width="55.794" height="34.435"/>
	</defs>
	<clipPath id="SVGID_4_">
		<use xlink:href="#SVGID_3_"  overflow="visible"/>
	</clipPath>
	<path clip-path="url(#SVGID_4_)" fill="#231F20" d="M150.575,190.719l0.236-1.392l-0.697-0.118c-0.51-0.087-0.871-0.225-0.871-1.23
		v-3.929h-1.413v3.929c0,1.511,0.69,2.393,2.049,2.622L150.575,190.719z"/>
	<path clip-path="url(#SVGID_4_)" fill="none" stroke="#FFFFFF" stroke-width="0.188" stroke-miterlimit="10" d="M150.575,190.719
		l0.236-1.392l-0.697-0.118c-0.51-0.087-0.871-0.225-0.871-1.23v-3.929h-1.413v3.929c0,1.511,0.69,2.393,2.049,2.622
		L150.575,190.719z"/>
	<path clip-path="url(#SVGID_4_)" fill="#231F20" d="M146.397,175.4h2.846v-1.412h-2.846c-0.962,0-1.39-0.244-1.39-1.689v-8.533
		c0-1.542,1.66-3.193,2.829-3.193h43.92c1.186,0,2.148,0.98,2.148,2.187v9.641h1.412v-9.641c0-1.984-1.598-3.6-3.561-3.6h-43.92
		c-2.022,0-4.242,2.411-4.242,4.606v8.533C143.594,173.066,143.594,175.4,146.397,175.4"/>
	<path clip-path="url(#SVGID_4_)" fill="none" stroke="#FFFFFF" stroke-width="0.188" stroke-miterlimit="10" d="M146.397,175.4
		h2.846v-1.412h-2.846c-0.962,0-1.39-0.244-1.39-1.689v-8.533c0-1.542,1.66-3.193,2.829-3.193h43.92c1.186,0,2.148,0.98,2.148,2.187
		v9.641h1.412v-9.641c0-1.984-1.598-3.6-3.561-3.6h-43.92c-2.022,0-4.242,2.411-4.242,4.606v8.533
		C143.594,173.066,143.594,175.4,146.397,175.4z"/>
	<path clip-path="url(#SVGID_4_)" fill="#231F20" d="M194.611,182.284c0.389,0,0.705-0.315,0.705-0.706v-13.593
		c0-0.39-0.316-0.706-0.705-0.706c-0.391,0-0.707,0.316-0.707,0.706v13.593C193.904,181.969,194.221,182.284,194.611,182.284"/>
	<path clip-path="url(#SVGID_4_)" fill="none" stroke="#FFFFFF" stroke-width="0.188" stroke-miterlimit="10" d="M194.611,182.284
		c0.389,0,0.705-0.315,0.705-0.706v-13.593c0-0.39-0.316-0.706-0.705-0.706c-0.391,0-0.707,0.316-0.707,0.706v13.593
		C193.904,181.969,194.221,182.284,194.611,182.284z"/>
</g>
<rect x="144.477" y="171.34" fill="#231F20" width="8.12" height="1.412"/>
<rect x="144.477" y="171.34" fill="none" stroke="#FFFFFF" stroke-width="0.188" stroke-miterlimit="10" width="8.12" height="1.412"/>
<rect x="153.833" y="171.34" fill="#231F20" width="1.765" height="1.412"/>
<rect x="153.833" y="171.34" fill="none" stroke="#FFFFFF" stroke-width="0.188" stroke-miterlimit="10" width="1.765" height="1.412"/>
<rect x="156.834" y="171.34" fill="#231F20" width="37.777" height="1.412"/>
<rect x="156.834" y="171.34" fill="none" stroke="#FFFFFF" stroke-width="0.188" stroke-miterlimit="10" width="37.777" height="1.412"/>
<rect x="147.831" y="174.164" fill="#231F20" width="1.412" height="10.239"/>
<rect x="147.831" y="174.164" fill="none" stroke="#FFFFFF" stroke-width="0.188" stroke-miterlimit="10" width="1.412" height="10.239"/>
<g>
	<defs>
		<rect id="SVGID_5_" x="143.5" y="159.065" width="55.794" height="34.435"/>
	</defs>
	<clipPath id="SVGID_6_">
		<use xlink:href="#SVGID_5_"  overflow="visible"/>
	</clipPath>
	<path clip-path="url(#SVGID_6_)" fill="#231F20" d="M146.771,167.456h6.355c0.39,0,0.706-0.315,0.706-0.706v-3.001h-1.412v2.295
		h-5.649V167.456z"/>
	<path clip-path="url(#SVGID_6_)" fill="none" stroke="#FFFFFF" stroke-width="0.188" stroke-miterlimit="10" d="M146.771,167.456
		h6.355c0.39,0,0.706-0.315,0.706-0.706v-3.001h-1.412v2.295h-5.649V167.456z"/>
	<path clip-path="url(#SVGID_6_)" fill="#231F20" d="M146.418,167.456h1.412v-1.862c0-2.009,0.312-2.197,1.763-2.197h2.371
		c0.358,0,0.454,0,0.456,0.628l0.001,0.706l1.413-0.004l-0.002-0.706c-0.005-1.684-1.018-2.036-1.868-2.036h-2.371
		c-2.655,0-3.175,1.323-3.175,3.609V167.456z"/>
	<path clip-path="url(#SVGID_6_)" fill="none" stroke="#FFFFFF" stroke-width="0.188" stroke-miterlimit="10" d="M146.418,167.456
		h1.412v-1.862c0-2.009,0.312-2.197,1.763-2.197h2.371c0.358,0,0.454,0,0.456,0.628l0.001,0.706l1.413-0.004l-0.002-0.706
		c-0.005-1.684-1.018-2.036-1.868-2.036h-2.371c-2.655,0-3.175,1.323-3.175,3.609V167.456z"/>
	<path clip-path="url(#SVGID_6_)" fill="#231F20" d="M160.364,166.044h-4.59v-2.471h4.59V166.044z M155.476,167.456h5.187
		c0.614,0,1.113-0.5,1.113-1.113v-3.068c0-0.614-0.499-1.114-1.113-1.114h-5.187c-0.614,0-1.114,0.5-1.114,1.114v3.068
		C154.362,166.956,154.862,167.456,155.476,167.456"/>
	<path clip-path="url(#SVGID_6_)" fill="none" stroke="#FFFFFF" stroke-width="0.188" stroke-miterlimit="10" d="M160.364,166.044
		h-4.59v-2.471h4.59V166.044z M155.476,167.456h5.187c0.614,0,1.113-0.5,1.113-1.113v-3.068c0-0.614-0.499-1.114-1.113-1.114h-5.187
		c-0.614,0-1.114,0.5-1.114,1.114v3.068C154.362,166.956,154.862,167.456,155.476,167.456z"/>
	<path clip-path="url(#SVGID_6_)" fill="#231F20" d="M156.304,179.284h-4.59v-2.472h4.59V179.284z M151.416,180.696h5.186
		c0.615,0,1.114-0.5,1.114-1.114v-3.068c0-0.614-0.499-1.114-1.114-1.114h-5.186c-0.614,0-1.114,0.5-1.114,1.114v3.068
		C150.302,180.196,150.802,180.696,151.416,180.696"/>
	<path clip-path="url(#SVGID_6_)" fill="none" stroke="#FFFFFF" stroke-width="0.188" stroke-miterlimit="10" d="M156.304,179.284
		h-4.59v-2.472h4.59V179.284z M151.416,180.696h5.186c0.615,0,1.114-0.5,1.114-1.114v-3.068c0-0.614-0.499-1.114-1.114-1.114h-5.186
		c-0.614,0-1.114,0.5-1.114,1.114v3.068C150.302,180.196,150.802,180.696,151.416,180.696z"/>
	<path clip-path="url(#SVGID_6_)" fill="#231F20" d="M164.248,179.284h-4.59v-2.472h4.59V179.284z M159.36,180.696h5.186
		c0.615,0,1.114-0.5,1.114-1.114v-3.068c0-0.614-0.499-1.114-1.114-1.114h-5.186c-0.614,0-1.114,0.5-1.114,1.114v3.068
		C158.246,180.196,158.746,180.696,159.36,180.696"/>
	<path clip-path="url(#SVGID_6_)" fill="none" stroke="#FFFFFF" stroke-width="0.188" stroke-miterlimit="10" d="M164.248,179.284
		h-4.59v-2.472h4.59V179.284z M159.36,180.696h5.186c0.615,0,1.114-0.5,1.114-1.114v-3.068c0-0.614-0.499-1.114-1.114-1.114h-5.186
		c-0.614,0-1.114,0.5-1.114,1.114v3.068C158.246,180.196,158.746,180.696,159.36,180.696z"/>
	<path clip-path="url(#SVGID_6_)" fill="#231F20" d="M172.191,179.284h-4.59v-2.472h4.59V179.284z M167.304,180.696h5.187
		c0.614,0,1.113-0.5,1.113-1.114v-3.068c0-0.614-0.499-1.114-1.113-1.114h-5.187c-0.614,0-1.114,0.5-1.114,1.114v3.068
		C166.189,180.196,166.689,180.696,167.304,180.696"/>
	<path clip-path="url(#SVGID_6_)" fill="none" stroke="#FFFFFF" stroke-width="0.188" stroke-miterlimit="10" d="M172.191,179.284
		h-4.59v-2.472h4.59V179.284z M167.304,180.696h5.187c0.614,0,1.113-0.5,1.113-1.114v-3.068c0-0.614-0.499-1.114-1.113-1.114h-5.187
		c-0.614,0-1.114,0.5-1.114,1.114v3.068C166.189,180.196,166.689,180.696,167.304,180.696z"/>
	<path clip-path="url(#SVGID_6_)" fill="#231F20" d="M180.135,179.284h-4.59v-2.472h4.59V179.284z M175.248,180.696h5.186
		c0.613,0,1.113-0.5,1.113-1.114v-3.068c0-0.614-0.5-1.114-1.113-1.114h-5.186c-0.615,0-1.115,0.5-1.115,1.114v3.068
		C174.133,180.196,174.633,180.696,175.248,180.696"/>
	<path clip-path="url(#SVGID_6_)" fill="none" stroke="#FFFFFF" stroke-width="0.188" stroke-miterlimit="10" d="M180.135,179.284
		h-4.59v-2.472h4.59V179.284z M175.248,180.696h5.186c0.613,0,1.113-0.5,1.113-1.114v-3.068c0-0.614-0.5-1.114-1.113-1.114h-5.186
		c-0.615,0-1.115,0.5-1.115,1.114v3.068C174.133,180.196,174.633,180.696,175.248,180.696z"/>
	<path clip-path="url(#SVGID_6_)" fill="#231F20" d="M168.131,166.044h-4.59v-2.471h4.59V166.044z M163.243,167.456h5.187
		c0.614,0,1.113-0.5,1.113-1.113v-3.068c0-0.614-0.499-1.114-1.113-1.114h-5.187c-0.614,0-1.114,0.5-1.114,1.114v3.068
		C162.129,166.956,162.629,167.456,163.243,167.456"/>
	<path clip-path="url(#SVGID_6_)" fill="none" stroke="#FFFFFF" stroke-width="0.188" stroke-miterlimit="10" d="M168.131,166.044
		h-4.59v-2.471h4.59V166.044z M163.243,167.456h5.187c0.614,0,1.113-0.5,1.113-1.113v-3.068c0-0.614-0.499-1.114-1.113-1.114h-5.187
		c-0.614,0-1.114,0.5-1.114,1.114v3.068C162.129,166.956,162.629,167.456,163.243,167.456z"/>
	<path clip-path="url(#SVGID_6_)" fill="#231F20" d="M175.898,166.044h-4.59v-2.471h4.59V166.044z M171.011,167.456h5.187
		c0.614,0,1.113-0.5,1.113-1.113v-3.068c0-0.614-0.499-1.114-1.113-1.114h-5.187c-0.614,0-1.114,0.5-1.114,1.114v3.068
		C169.896,166.956,170.396,167.456,171.011,167.456"/>
	<path clip-path="url(#SVGID_6_)" fill="none" stroke="#FFFFFF" stroke-width="0.188" stroke-miterlimit="10" d="M175.898,166.044
		h-4.59v-2.471h4.59V166.044z M171.011,167.456h5.187c0.614,0,1.113-0.5,1.113-1.113v-3.068c0-0.614-0.499-1.114-1.113-1.114h-5.187
		c-0.614,0-1.114,0.5-1.114,1.114v3.068C169.896,166.956,170.396,167.456,171.011,167.456z"/>
	<path clip-path="url(#SVGID_6_)" fill="#231F20" d="M183.842,166.044h-4.59v-2.471h4.59V166.044z M178.955,167.456h5.186
		c0.615,0,1.113-0.5,1.113-1.113v-3.068c0-0.614-0.498-1.114-1.113-1.114h-5.186c-0.615,0-1.115,0.5-1.115,1.114v3.068
		C177.84,166.956,178.34,167.456,178.955,167.456"/>
	<path clip-path="url(#SVGID_6_)" fill="none" stroke="#FFFFFF" stroke-width="0.188" stroke-miterlimit="10" d="M183.842,166.044
		h-4.59v-2.471h4.59V166.044z M178.955,167.456h5.186c0.615,0,1.113-0.5,1.113-1.113v-3.068c0-0.614-0.498-1.114-1.113-1.114h-5.186
		c-0.615,0-1.115,0.5-1.115,1.114v3.068C177.84,166.956,178.34,167.456,178.955,167.456z"/>
	<path clip-path="url(#SVGID_6_)" fill="#231F20" d="M191.609,166.044h-4.59v-2.471h4.59V166.044z M186.722,167.456h5.187
		c0.614,0,1.113-0.5,1.113-1.113v-3.068c0-0.614-0.499-1.114-1.113-1.114h-5.187c-0.614,0-1.114,0.5-1.114,1.114v3.068
		C185.607,166.956,186.107,167.456,186.722,167.456"/>
	<path clip-path="url(#SVGID_6_)" fill="none" stroke="#FFFFFF" stroke-width="0.188" stroke-miterlimit="10" d="M191.609,166.044
		h-4.59v-2.471h4.59V166.044z M186.722,167.456h5.187c0.614,0,1.113-0.5,1.113-1.113v-3.068c0-0.614-0.499-1.114-1.113-1.114h-5.187
		c-0.614,0-1.114,0.5-1.114,1.114v3.068C185.607,166.956,186.107,167.456,186.722,167.456z"/>
	<path clip-path="url(#SVGID_6_)" fill="#231F20" d="M191.434,179.46h-7.768v-4.236h7.768V179.46z M183.35,180.872h8.399
		c0.604,0,1.097-0.491,1.097-1.096v-4.869c0-0.604-0.492-1.096-1.097-1.096h-8.399c-0.604,0-1.096,0.492-1.096,1.096v4.869
		C182.254,180.381,182.746,180.872,183.35,180.872"/>
	<path clip-path="url(#SVGID_6_)" fill="none" stroke="#FFFFFF" stroke-width="0.188" stroke-miterlimit="10" d="M191.434,179.46
		h-7.768v-4.236h7.768V179.46z M183.35,180.872h8.399c0.604,0,1.097-0.491,1.097-1.096v-4.869c0-0.604-0.492-1.096-1.097-1.096
		h-8.399c-0.604,0-1.096,0.492-1.096,1.096v4.869C182.254,180.381,182.746,180.872,183.35,180.872z"/>
</g>
</svg>
