<?xml version="1.0" encoding="utf-8"?>
<!-- Generator: Adobe Illustrator 15.0.2, SVG Export Plug-In . SVG Version: 6.00 Build 0)  -->
<!DOCTYPE svg PUBLIC "-//W3C//DTD SVG 1.1//EN" "http://www.w3.org/Graphics/SVG/1.1/DTD/svg11.dtd">
<svg version="1.1" id="Layer_1" xmlns="http://www.w3.org/2000/svg" xmlns:xlink="http://www.w3.org/1999/xlink" x="0px" y="0px"
	 width="109.333px" height="111.333px" viewBox="-0.833 2.833 109.333 111.333"
	 enable-background="new -0.833 2.833 109.333 111.333" xml:space="preserve">
<g>
	<path fill="#212929" d="M2.551,104.851l5.598,5.598l53.192-53.193l-5.596-5.597L2.551,104.851z M8.149,112.5
		c-0.218,0-0.435-0.083-0.601-0.249l-6.799-6.799c-0.332-0.332-0.332-0.87,0-1.202l54.395-54.395c0.332-0.332,0.869-0.332,1.201,0
		l6.8,6.799c0.332,0.332,0.332,0.87,0,1.202L8.75,112.251C8.584,112.417,8.366,112.5,8.149,112.5"/>
	<path fill="#212929" d="M66.545,54.456l-1.202-1.201l11.298-11.299l-5.597-5.598L59.746,47.656l-1.202-1.201l11.899-11.898
		c0.332-0.332,0.869-0.332,1.201,0l6.799,6.799c0.332,0.332,0.332,0.87,0,1.202L66.545,54.456z"/>
	<path fill="#87BD30" d="M27.638,17.308l6.389,4.939c0.281,0.217,0.397,0.585,0.292,0.924l-2.442,7.895l6.338-5.071
		c0.312-0.248,0.751-0.248,1.063,0l6.251,5.001l-2.49-7.468c-0.112-0.338-0.001-0.711,0.276-0.934l6.607-5.286h-7.776
		c-0.365,0-0.691-0.232-0.807-0.58l-2.593-7.78l-2.592,7.78c-0.116,0.348-0.442,0.58-0.807,0.58H27.638z M47.246,34.307
		c-0.188,0-0.377-0.062-0.531-0.186l-7.969-6.375l-7.967,6.375c-0.291,0.232-0.703,0.248-1.01,0.038
		c-0.309-0.21-0.445-0.597-0.334-0.954l3.086-9.974l-7.893-6.101c-0.287-0.222-0.402-0.603-0.285-0.946
		c0.117-0.345,0.441-0.575,0.805-0.575h9.586l3.206-9.618c0.232-0.694,1.381-0.694,1.613,0l3.206,9.618h9.586
		c0.36,0,0.683,0.228,0.802,0.567c0.12,0.341,0.012,0.721-0.271,0.945l-8.036,6.43l3.213,9.637c0.117,0.357-0.012,0.75-0.321,0.966
		C47.586,34.256,47.415,34.307,47.246,34.307"/>
	<path fill="#212929" d="M59.145,102.302c-11.133,0-22.008-3.872-30.621-10.902l1.076-1.317c8.308,6.783,18.801,10.52,29.544,10.52
		V102.302z"/>
	<path fill="#212929" d="M98.907,81.54l-1.396-0.974c5.482-7.858,8.379-17.095,8.379-26.711c0-5.142-0.828-10.194-2.463-15.018
		l1.611-0.545c1.693,4.999,2.551,10.234,2.551,15.562C107.59,63.821,104.588,73.395,98.907,81.54"/>
	<path fill="#212929" d="M75.84,10.178C70.517,8.143,64.9,7.109,59.146,7.109v-1.7c5.962,0,11.784,1.07,17.302,3.182L75.84,10.178z"
		/>
	<path fill="#212929" d="M21.601,84.477C14.571,75.868,10.7,64.993,10.7,53.855c0-9.967,3.003-19.54,8.685-27.685l1.394,0.974
		c-5.481,7.857-8.38,17.094-8.38,26.711c0,10.747,3.735,21.239,10.52,29.545L21.601,84.477z"/>
	<path fill="#212929" d="M84.643,53.005c-0.468,0-0.85,0.382-0.85,0.851s0.382,0.85,0.85,0.85s0.85-0.381,0.85-0.85
		S85.11,53.005,84.643,53.005 M84.643,56.405c-1.406,0-2.55-1.144-2.55-2.55s1.144-2.55,2.55-2.55s2.55,1.144,2.55,2.55
		S86.049,56.405,84.643,56.405"/>
	<path fill="#212929" d="M65.944,17.309c-0.468,0-0.851,0.381-0.851,0.85c0,0.47,0.383,0.851,0.851,0.851s0.851-0.381,0.851-0.851
		C66.795,17.689,66.412,17.309,65.944,17.309 M65.944,20.709c-1.406,0-2.55-1.145-2.55-2.551c0-1.405,1.144-2.55,2.55-2.55
		c1.405,0,2.55,1.145,2.55,2.55C68.494,19.564,67.35,20.709,65.944,20.709"/>
	<path fill="#212929" d="M38.747,41.106c-0.468,0-0.85,0.381-0.85,0.85c0,0.47,0.382,0.851,0.85,0.851
		c0.468,0,0.85-0.381,0.85-0.851C39.597,41.487,39.215,41.106,38.747,41.106 M38.747,44.506c-1.406,0-2.55-1.144-2.55-2.55
		c0-1.405,1.144-2.55,2.55-2.55c1.406,0,2.55,1.145,2.55,2.55C41.296,43.362,40.153,44.506,38.747,44.506"/>
	<path fill="#212929" d="M62.545,73.404c-0.469,0-0.851,0.38-0.851,0.849c0,0.47,0.382,0.851,0.851,0.851
		c0.467,0,0.85-0.381,0.85-0.851C63.395,73.784,63.012,73.404,62.545,73.404 M62.545,76.803c-1.406,0-2.551-1.144-2.551-2.55
		c0-1.405,1.145-2.55,2.551-2.55c1.405,0,2.549,1.145,2.549,2.55C65.094,75.659,63.95,76.803,62.545,76.803"/>
	<path fill="#212929" d="M91.441,66.604c-0.467,0-0.85,0.382-0.85,0.851s0.383,0.85,0.85,0.85c0.469,0,0.851-0.381,0.851-0.85
		S91.91,66.604,91.441,66.604 M91.441,70.004c-1.405,0-2.549-1.144-2.549-2.55s1.144-2.55,2.549-2.55
		c1.406,0,2.551,1.144,2.551,2.55S92.848,70.004,91.441,70.004"/>
	<path fill="#212929" d="M28.854,77.209c-5.206-6.741-7.956-14.816-7.956-23.354h1.7c0,8.157,2.628,15.874,7.601,22.314
		L28.854,77.209z"/>
</g>
<rect x="55.745" y="29.207" fill="#212929" width="3.399" height="1.7"/>
<rect x="37.047" y="51.305" fill="#212929" width="3.399" height="1.7"/>
<rect x="20.049" y="47.906" fill="#212929" width="3.399" height="1.7"/>
<rect x="52.345" y="87.002" fill="#212929" width="3.4" height="1.7"/>
<g>
	<path fill="#87BD30" d="M91.441,34.307c-3.279,0-5.949-2.669-5.949-5.949h1.699c0,2.344,1.906,4.25,4.25,4.25
		c2.345,0,4.25-1.906,4.25-4.25c0-1.849-3.404-3.789-4.597-4.323c-0.573-0.257-5.603-2.604-5.603-5.875
		c0-3.281,2.67-5.95,5.949-5.95c3.28,0,5.951,2.669,5.951,5.95h-1.701c0-2.344-1.905-4.25-4.25-4.25c-2.344,0-4.25,1.906-4.25,4.25
		c0,1.848,3.405,3.789,4.598,4.323c0.574,0.257,5.604,2.604,5.604,5.875C97.393,31.638,94.722,34.307,91.441,34.307"/>
</g>
<rect x="90.592" y="7.959" fill="#87BD30" width="1.7" height="5.1"/>
<rect x="90.592" y="33.457" fill="#87BD30" width="1.7" height="5.1"/>
<g>
	<path fill="#87BD30" d="M77.844,93.802c-3.28,0-5.951-2.669-5.951-5.949h1.701c0,2.343,1.906,4.249,4.25,4.249
		s4.25-1.906,4.25-4.249c0-1.849-3.405-3.79-4.598-4.324c-0.574-0.257-5.604-2.603-5.604-5.875c0-3.28,2.671-5.949,5.951-5.949
		c3.279,0,5.949,2.669,5.949,5.949h-1.699c0-2.344-1.906-4.25-4.25-4.25s-4.25,1.906-4.25,4.25c0,1.849,3.404,3.789,4.597,4.323
		c0.573,0.257,5.603,2.604,5.603,5.876C83.793,91.133,81.123,93.802,77.844,93.802"/>
</g>
<rect x="76.993" y="67.454" fill="#87BD30" width="1.7" height="5.1"/>
<rect x="76.993" y="92.952" fill="#87BD30" width="1.7" height="5.099"/>
</svg>
