<?xml version="1.0" encoding="utf-8"?>
<!-- Generator: Adobe Illustrator 15.0.2, SVG Export Plug-In . SVG Version: 6.00 Build 0)  -->
<!DOCTYPE svg PUBLIC "-//W3C//DTD SVG 1.1//EN" "http://www.w3.org/Graphics/SVG/1.1/DTD/svg11.dtd">
<svg version="1.1" id="Layer_1" xmlns="http://www.w3.org/2000/svg" xmlns:xlink="http://www.w3.org/1999/xlink" x="0px" y="0px"
	 width="142px" height="131.25px" viewBox="-80 -21.75 142 131.25" enable-background="new -80 -21.75 142 131.25"
	 xml:space="preserve">
<polygon fill="#FFFFFF" points="-78.523,38.689 -78.523,40.854 -70.122,40.854 -65.792,43.018 -26.578,43.018 -26.578,40.854 
	-65.28,40.854 -69.609,38.689 "/>
<g>
	<path fill="#FFFFFF" d="M-11.426,17.045v-2.164c2.985,0,5.411-2.428,5.411-5.411s-2.426-5.41-5.411-5.41V1.895
		c4.177,0,7.575,3.398,7.575,7.575C-3.851,13.647-7.249,17.045-11.426,17.045"/>
	<path fill="#FFFFFF" d="M-11.426,4.059h-8.658V1.895h8.658c2.985,0,5.411-2.428,5.411-5.412c0-2.982-2.426-5.411-5.411-5.411
		h-8.658v-2.164h8.658c4.177,0,7.575,3.398,7.575,7.575C-3.851,0.661-7.249,4.059-11.426,4.059"/>
	<path fill="#FFFFFF" d="M-26.577,17.045c-4.177,0-7.575-3.397-7.575-7.575c0-2.528,1.255-4.881,3.358-6.293l1.205,1.798
		c-1.503,1.009-2.399,2.688-2.399,4.495c0,2.983,2.426,5.411,5.411,5.411V17.045z"/>
	<path fill="#FFFFFF" d="M-11.426,30.032v-2.164c2.985,0,5.411-2.429,5.411-5.411c0-2.984-2.426-5.412-5.411-5.412h-15.151
		c-2.984,0-5.411,2.428-5.411,5.412c0,2.982,2.427,5.411,5.411,5.411v2.164c-4.177,0-7.575-3.398-7.575-7.575
		c0-4.179,3.398-7.576,7.575-7.576h15.151c4.177,0,7.575,3.397,7.575,7.576C-3.851,26.634-7.249,30.032-11.426,30.032"/>
	<path fill="#FFFFFF" d="M-26.577,30.031c-2.984,0-5.411,2.428-5.411,5.412c0,2.983,2.427,5.411,5.411,5.411h15.151
		c2.985,0,5.411-2.428,5.411-5.411c0-2.984-2.426-5.412-5.411-5.412H-26.577z M-11.426,43.019h-15.151
		c-4.177,0-7.575-3.398-7.575-7.575c0-4.178,3.398-7.576,7.575-7.576h15.151c4.177,0,7.575,3.398,7.575,7.576
		C-3.851,39.62-7.249,43.019-11.426,43.019"/>
</g>
<rect x="-70.948" y="-1.353" fill="#FFFFFF" width="2.165" height="8.657"/>
<g>
	<path fill="#FFFFFF" d="M-59.043,21.374V19.21c8.951,0,16.233-7.283,16.233-16.233h2.164
		C-40.646,13.121-48.899,21.374-59.043,21.374"/>
	<path fill="#FFFFFF" d="M-24.413,8.388c-6.199,0-8.81-8.094-9.516-10.822h-9.964V-4.6h11.708l0.176,0.87
		c0.018,0.099,2.069,9.953,7.596,9.953c1.79,0,3.247-1.457,3.247-3.247v-12.987c0-4.177-3.399-7.574-7.576-7.574h-23.36
		L-69.418-0.271h-9.106v-2.164h8.21l17.316-17.315h24.256c5.371,0,9.74,4.369,9.74,9.739V2.977
		C-19.002,5.96-21.428,8.388-24.413,8.388"/>
</g>
<rect x="-34.152" y="-10.01" fill="#FFFFFF" width="2.164" height="6.493"/>
<polygon fill="#FFFFFF" points="47.27,107.951 8.054,107.951 8.054,105.787 46.758,105.787 51.086,103.622 60,103.622 60,105.787 
	51.598,105.787 "/>
<g>
	<path fill="#FFFFFF" d="M-7.098,81.979c-4.177,0-7.575-3.398-7.575-7.576s3.398-7.575,7.575-7.575v2.164
		c-2.984,0-5.411,2.428-5.411,5.411s2.427,5.412,5.411,5.412V81.979z"/>
	<path fill="#FFFFFF" d="M1.56,68.991h-8.658c-4.176,0-7.575-3.397-7.575-7.576c0-4.177,3.399-7.574,7.575-7.574H1.56v2.164h-8.658
		c-2.984,0-5.411,2.428-5.411,5.41c0,2.984,2.427,5.412,5.411,5.412H1.56V68.991z"/>
	<path fill="#FFFFFF" d="M8.054,81.979v-2.164c2.984,0,5.411-2.429,5.411-5.412c0-1.806-0.898-3.487-2.401-4.498l1.209-1.796
		c2.101,1.414,3.356,3.768,3.356,6.294C15.629,78.58,12.23,81.979,8.054,81.979"/>
	<path fill="#FFFFFF" d="M8.054,94.965v-2.164c2.984,0,5.411-2.429,5.411-5.411c0-2.984-2.427-5.411-5.411-5.411H-7.097
		c-2.984,0-5.411,2.427-5.411,5.411c0,2.982,2.427,5.411,5.411,5.411v2.164c-4.177,0-7.576-3.398-7.576-7.575
		c0-4.178,3.399-7.576,7.576-7.576H8.054c4.177,0,7.575,3.398,7.575,7.576C15.629,91.566,12.23,94.965,8.054,94.965"/>
	<path fill="#FFFFFF" d="M-7.097,94.964c-2.984,0-5.411,2.428-5.411,5.412c0,2.983,2.427,5.411,5.411,5.411H8.054
		c2.984,0,5.411-2.428,5.411-5.411c0-2.984-2.427-5.412-5.411-5.412H-7.097z M8.054,107.951H-7.097
		c-4.177,0-7.576-3.398-7.576-7.575c0-4.178,3.399-7.576,7.576-7.576H8.054c4.177,0,7.575,3.398,7.575,7.576
		C15.629,104.553,12.23,107.951,8.054,107.951"/>
</g>
<rect x="50.261" y="63.58" fill="#FFFFFF" width="2.164" height="8.658"/>
<g>
	<path fill="#FFFFFF" d="M40.52,86.307c-10.144,0-18.398-8.253-18.398-18.397h2.165c0,8.951,7.282,16.233,16.233,16.233V86.307z"/>
	<path fill="#FFFFFF" d="M5.889,73.32c-2.985,0-5.411-2.428-5.411-5.411V54.922c0-5.369,4.369-9.739,9.74-9.739h24.257L51.79,62.498
		H60v2.164h-9.105L33.578,47.348h-23.36c-4.177,0-7.576,3.397-7.576,7.574v12.987c0,1.79,1.457,3.247,3.247,3.247
		c5.527,0,7.578-9.854,7.597-9.953l0.175-0.869l11.708-0.001v2.165h-9.964C14.699,65.227,12.088,73.32,5.889,73.32"/>
</g>
<rect x="13.464" y="54.923" fill="#FFFFFF" width="2.165" height="6.493"/>
<rect x="5.889" y="15.197" transform="matrix(0.8945 0.4471 -0.4471 0.8945 10.7765 -0.7473)" fill="#FFFFFF" width="2.164" height="14.519"/>
<rect x="15.629" y="24.937" transform="matrix(0.447 0.8945 -0.8945 0.447 38.0409 2.855)" fill="#FFFFFF" width="2.165" height="14.519"/>
<rect x="-36.317" y="48.746" transform="matrix(0.447 0.8945 -0.8945 0.447 30.6142 62.4871)" fill="#FFFFFF" width="2.165" height="14.519"/>
<rect x="-26.577" y="58.484" transform="matrix(0.8945 0.4471 -0.4471 0.8945 26.7053 18.3372)" fill="#FFFFFF" width="2.164" height="14.52"/>
</svg>
