<?xml version="1.0" encoding="utf-8"?>
<!-- Generator: Adobe Illustrator 15.0.2, SVG Export Plug-In . SVG Version: 6.00 Build 0)  -->
<!DOCTYPE svg PUBLIC "-//W3C//DTD SVG 1.1//EN" "http://www.w3.org/Graphics/SVG/1.1/DTD/svg11.dtd">
<svg version="1.1" id="Layer_1" xmlns="http://www.w3.org/2000/svg" xmlns:xlink="http://www.w3.org/1999/xlink" x="0px" y="0px"
	 width="87px" height="99px" viewBox="136.5 129.5 87 99" enable-background="new 136.5 129.5 87 99" xml:space="preserve">
<g>
	<path fill="#FFFFFF" d="M173.964,170.514l-24.342,24.341l21.551,22.377l10.792-10.793c2.499-2.498,7.59,1.297,11.105-2.221
		c3.516-3.516,3.644-3.644,3.644-3.644l3.656-3.654L173.964,170.514z"/>
	<path fill="#231F20" d="M150.722,194.867l20.463,21.244l10.226-10.229c1.028-1.027,2.354-1.146,3.264-1.146
		c0.644,0,1.324,0.068,2.027,0.142c0.696,0.072,1.416,0.146,2.112,0.146c1.619,0,2.761-0.42,3.701-1.359
		c3.519-3.52,3.646-3.646,3.646-3.646l3.1-3.099l-25.296-25.296L150.722,194.867z M171.163,218.354l-22.641-23.508l25.442-25.442
		l27.517,27.517l-7.854,7.854c-1.631,1.632-3.526,1.818-4.812,1.818c-0.776,0-1.539-0.078-2.272-0.152
		c-0.647-0.066-1.276-0.133-1.867-0.133c-1.026,0-1.671,0.205-2.153,0.688L171.163,218.354z"/>
	<path fill="#FFFFFF" d="M166.791,150.662c1.651-4.925,0.531-10.573-3.391-14.496c-4.35-4.35-10.824-5.256-16.076-2.75l8.303,8.303
		l-6.663,6.662l-8.303-8.303c-2.506,5.253-1.599,11.728,2.75,16.078c3.922,3.921,9.572,5.041,14.496,3.39l51.392,51.32
		c2.453,2.454,6.432,2.454,8.885,0c2.453-2.453,2.453-6.431,0-8.884L166.791,150.662z"/>
	<path fill="#FF7800" d="M158.118,158.647l51.737,51.664c2.074,2.074,5.694,2.076,7.771,0c1.039-1.039,1.611-2.418,1.611-3.887
		s-0.572-2.849-1.611-3.887l-51.735-51.665l0.155-0.461c1.624-4.845,0.397-10.09-3.202-13.69c-2.514-2.515-5.859-3.899-9.417-3.899
		c-1.609,0-3.223,0.296-4.727,0.861l8.037,8.036l-7.774,7.771l-8.037-8.036c-1.835,4.868-0.678,10.428,3.04,14.146
		c2.513,2.514,5.858,3.896,9.419,3.896c1.457,0,2.894-0.232,4.272-0.694L158.118,158.647z M213.742,213.491
		c-1.889,0-3.664-0.734-4.998-2.069l-51.055-50.982c-1.396,0.417-2.841,0.629-4.304,0.629c-3.98,0-7.72-1.548-10.53-4.357
		c-4.453-4.453-5.62-11.274-2.904-16.971l0.478-1.003l8.534,8.534l5.553-5.552l-8.533-8.533l1.002-0.479
		c1.995-0.951,4.223-1.454,6.442-1.454c3.977,0,7.716,1.547,10.528,4.357c3.907,3.91,5.314,9.553,3.729,14.834l51.054,50.983
		c1.336,1.336,2.07,3.108,2.07,4.997c0,1.888-0.734,3.662-2.07,4.997C217.404,212.757,215.629,213.491,213.742,213.491"/>
	<path fill="#FFFFFF" d="M190.052,158.376l-3.331-3.331c-1.229-1.227-3.216-1.227-4.443,0l-6.662,6.662l7.773,7.774l6.662-6.664
		C191.277,161.592,191.277,159.604,190.052,158.376"/>
	<path fill="#231F20" d="M183.943,170.037l-1.109-1.11l6.662-6.664c0.918-0.919,0.918-2.413,0-3.331l-3.332-3.331
		c-0.916-0.917-2.412-0.917-3.33,0l-6.664,6.662l-1.111-1.11l6.664-6.662c1.53-1.532,4.021-1.529,5.553,0l3.332,3.33
		c1.529,1.531,1.529,4.022,0,5.553L183.943,170.037z"/>
	<path fill="#FFFFFF" d="M200.046,163.928l-3.332-3.33c-1.226-1.228-3.215-1.228-4.44,0l-8.885,8.884l7.773,7.772l8.884-8.883
		C201.271,167.145,201.271,165.155,200.046,163.928"/>
	<path fill="#231F20" d="M191.717,177.81l-1.109-1.11l8.884-8.883c0.918-0.919,0.918-2.414,0-3.333l-3.332-3.331
		c-0.89-0.89-2.441-0.89-3.33,0l-8.886,8.884l-1.108-1.109l8.883-8.885c1.482-1.484,4.07-1.484,5.554,0l3.332,3.331
		c1.528,1.53,1.528,4.022,0,5.554L191.717,177.81z"/>
	<path fill="#FFFFFF" d="M207.99,175.974c1.133-1.133,1.055-3.044-0.172-4.271l-3.33-3.33c-1.227-1.228-3.141-1.305-4.271-0.173
		l-9.226,9.227c-1.134,1.132-1.056,3.046,0.171,4.271l3.331,3.331c1.226,1.228,3.14,1.304,4.271,0.17L207.99,175.974z"/>
	<path fill="#231F20" d="M202.193,168.184c-0.549,0-1.053,0.203-1.422,0.571l-9.226,9.226c-0.392,0.392-0.594,0.929-0.569,1.515
		c0.022,0.607,0.287,1.191,0.739,1.646l3.332,3.33c0.882,0.885,2.367,0.965,3.16,0.17l9.228-9.225
		c0.821-0.825,0.746-2.242-0.172-3.16l-3.33-3.331C203.461,168.454,202.828,168.184,202.193,168.184 M196.785,186.786
		L196.785,186.786c-1.047,0-2.082-0.438-2.848-1.202l-3.332-3.331c-0.732-0.733-1.158-1.69-1.197-2.694
		c-0.041-1.029,0.322-1.982,1.027-2.688l9.227-9.227c1.383-1.385,3.908-1.3,5.381,0.171l3.332,3.331
		c1.529,1.531,1.605,3.945,0.172,5.383l-9.229,9.225C198.654,186.419,197.754,186.786,196.785,186.786"/>
	<path fill="#FFFFFF" d="M180.576,160.005c-1.932-1.932-3.927-2.979-6.987-2.517c-3.06,0.462-7.965,0.96-9.679,2.221
		c-1.714,1.261-3.228,7.509-3.228,12.321c0,5.834-0.222,11.496-1.445,12.719l-10.273,10.272l26.542-2.279
		c6.258-6.258,5.309-16.951,0.222-22.038c0.949,0.949,4.573,4.573,7.047,7.047c5.037,5.038,12.545,1.442,13.771-1.774
		C194.965,174.395,180.576,160.005,180.576,160.005"/>
	<path fill="#231F20" d="M149.519,195.577l-1.11-1.11l10.273-10.273c0.806-0.805,1.215-4.898,1.215-12.161
		c0-4.884,1.517-11.462,3.548-12.954c1.605-1.183,5.259-1.693,8.483-2.145c0.547-0.076,1.067-0.147,1.544-0.22
		c2.993-0.456,5.286,0.363,7.66,2.737l16.329,16.332l-0.182,0.474c-0.766,2.012-3.45,3.928-6.383,4.555
		c-3.279,0.703-6.36-0.188-8.676-2.504l-2.569-2.566c1.928,5.627,1.157,12.812-3.592,17.559l-1.11-1.109
		c5.954-5.957,5.01-16.142,0.222-20.93l1.111-1.11c0.003,0.003,0.006,0.009,0.01,0.012l7.036,7.035
		c2.601,2.602,5.649,2.421,7.237,2.078c2.443-0.521,4.302-1.921,5.027-3.138l-15.575-15.575c-1.695-1.696-3.416-2.731-6.315-2.296
		c-0.481,0.073-1.008,0.147-1.561,0.225c-2.736,0.383-6.483,0.906-7.77,1.852c-1.282,0.943-2.907,6.636-2.907,11.69
		c0,8.236-0.486,12.083-1.676,13.273L149.519,195.577z"/>
	<path fill="#FFFFFF" d="M212.627,184.9c1.037-1.036,1.027-2.73-0.025-3.781l-2.854-2.856c-1.053-1.052-2.746-1.062-3.784-0.023
		l-8.457,8.455c-1.038,1.039-1.026,2.731,0.024,3.783l2.855,2.856c1.051,1.05,2.744,1.062,3.782,0.024L212.627,184.9z"/>
	<path fill="#231F20" d="M207.833,178.252c-0.498,0-0.965,0.192-1.313,0.542l-8.457,8.456c-0.729,0.73-0.719,1.932,0.025,2.673
		l2.854,2.856c0.721,0.721,1.966,0.729,2.674,0.025l8.455-8.459c0.35-0.35,0.543-0.814,0.543-1.312c0-0.512-0.201-0.994-0.566-1.359
		l-2.854-2.855C208.827,178.453,208.344,178.252,207.833,178.252 M202.301,194.914L202.301,194.914
		c-0.931,0-1.807-0.363-2.469-1.023l-2.855-2.855c-1.355-1.358-1.365-3.553-0.023-4.895l8.456-8.457
		c1.302-1.301,3.582-1.286,4.896,0.024l2.854,2.856c0.662,0.66,1.025,1.537,1.025,2.469c0,0.918-0.355,1.779-1.002,2.423
		l-8.457,8.458C204.079,194.561,203.219,194.914,202.301,194.914"/>
</g>
<rect x="139.501" y="199.193" transform="matrix(-0.7073 -0.7069 0.7069 -0.7073 126.4842 464.8942)" fill="#FFFFFF" width="39.967" height="14.138"/>
<path fill="#231F20" d="M141.451,197.135l27.157,27.145l8.884-8.891l-27.157-27.143L141.451,197.135z M168.608,226.5l-29.378-29.365
	l11.105-11.109l29.377,29.363L168.608,226.5z"/>
<rect x="210.218" y="204.335" transform="matrix(-0.7071 -0.7071 0.7071 -0.7071 217.6158 500.3797)" fill="#FF7800" width="4.443" height="1.571"/>
<rect x="148.647" y="197.268" transform="matrix(-0.7071 -0.7071 0.7071 -0.7071 119.384 445.5615)" fill="#231F20" width="6.662" height="1.571"/>
</svg>
